<svg width="100" height="100" viewBox="0 0 100 100" fill="none" xmlns="http://www.w3.org/2000/svg">
<mask id="mask0_478_21063" style="mask-type:alpha" maskUnits="userSpaceOnUse" x="0" y="0" width="100" height="100">
<path d="M0.28125 0H99.7865V99.5054H0.28125V0Z" fill="#D9D9D9"/>
</mask>
<g mask="url(#mask0_478_21063)">
<path d="M25.6625 64.4554L25.6623 64.4551C20.2123 56.4035 17.5352 49.0196 17.5352 42.2886C17.5352 32.0812 20.8118 24.013 27.3237 18.0085L27.3239 18.0084C33.8716 11.9683 41.4322 8.96094 50.0336 8.96094C58.6349 8.96094 66.1956 11.9683 72.743 18.0084L72.7437 18.0085C79.2552 24.013 82.5322 32.0812 82.5322 42.2886C82.5322 49.0196 79.8565 56.4036 74.4092 64.4553C69.0315 72.4022 60.9144 81.0279 50.0336 90.3313C39.1528 81.0286 31.0372 72.4022 25.6625 64.4554Z" fill="#603A0A" stroke="#D0C5A3" stroke-width="1.98293"/>
<path d="M76.3654 41.544C76.3654 26.9662 64.5477 15.1484 49.9698 15.1484C35.3919 15.1484 23.5742 26.9662 23.5742 41.544C23.5742 56.1219 35.3919 67.9397 49.9698 67.9397C64.5477 67.9397 76.3654 56.1219 76.3654 41.544Z" fill="white"/>
<path d="M76.3654 41.544C76.3654 26.9662 64.5477 15.1484 49.9698 15.1484C35.3919 15.1484 23.5742 26.9662 23.5742 41.544C23.5742 56.1219 35.3919 67.9397 49.9698 67.9397C64.5477 67.9397 76.3654 56.1219 76.3654 41.544Z" stroke="#D0C5A3" stroke-width="2.89374"/>
<path fill-rule="evenodd" clip-rule="evenodd" d="M49.4125 28.1709C47.9699 32.5724 44.4828 34.0043 40.5681 31.8028C39.8906 31.4218 39.3075 31.139 39.2722 31.1744C39.237 31.2096 39.5181 31.8556 39.8969 32.6098C41.9567 36.7114 40.6049 39.7775 36.035 41.3685C35.3371 41.6116 34.7658 41.8477 34.7656 41.8931C34.7653 41.9386 35.4476 42.1994 36.2815 42.4728C40.5466 43.8709 41.9911 47.1001 40.1085 51.028C39.7067 51.8664 39.4036 52.5779 39.435 52.6093C39.4664 52.6408 40.2268 52.3092 41.1248 51.8727C43.1691 50.8787 44.5235 50.7742 46.0868 51.4899C47.942 52.3392 48.6307 53.1807 49.5347 55.7029C49.8629 56.6189 50.1629 57.2485 50.2102 57.1202C50.2568 56.9932 50.5031 56.3102 50.7576 55.6024C51.9076 52.4034 53.4284 51.1963 56.3087 51.1963C57.7415 51.1963 57.8049 51.212 59.2923 51.931C60.1282 52.3352 60.8368 52.6411 60.867 52.611C60.8971 52.581 60.5642 51.8349 60.1272 50.953C58.088 46.8383 59.4888 43.8115 64.1152 42.3363C64.7289 42.1408 65.2308 41.9398 65.2308 41.8898C65.2308 41.8398 64.5484 41.5753 63.7144 41.3019C59.4505 39.9043 57.9981 36.6574 59.8878 32.7474C60.292 31.9113 60.5958 31.2004 60.5632 31.1676C60.5305 31.135 59.7691 31.4655 58.8712 31.902C55.0022 33.7831 51.8181 32.3401 50.5231 28.1188C50.2766 27.3153 50.0377 26.6572 49.9923 26.6563C49.9467 26.6553 49.6859 27.337 49.4125 28.1709ZM51.5676 34.3641C57.5124 35.6038 59.7016 42.9895 55.397 47.2839C49.2896 53.3767 39.4344 46.3303 43.1149 38.5023C44.5506 35.4491 48.2008 33.662 51.5676 34.3641Z" fill="#603A0A"/>
</g>
</svg>
