<svg width="100" height="100" viewBox="0 0 100 100" fill="none" xmlns="http://www.w3.org/2000/svg">
<mask id="mask0_478_21051" style="mask-type:alpha" maskUnits="userSpaceOnUse" x="0" y="0" width="100" height="100">
<path d="M0.28125 0H99.7865V99.5054H0.28125V0Z" fill="#D9D9D9"/>
</mask>
<g mask="url(#mask0_478_21051)">
<path d="M25.6625 64.4554L25.6623 64.4551C20.2123 56.4035 17.5352 49.0196 17.5352 42.2886C17.5352 32.0812 20.8118 24.013 27.3237 18.0085L27.3239 18.0084C33.8716 11.9683 41.4322 8.96094 50.0336 8.96094C58.635 8.96094 66.1956 11.9683 72.743 18.0084L72.7437 18.0085C79.2552 24.013 82.5322 32.0812 82.5322 42.2886C82.5322 49.0197 79.8565 56.4036 74.4092 64.4553C69.0315 72.4022 60.9144 81.0279 50.0336 90.3313C39.1528 81.0286 31.0372 72.4022 25.6625 64.4554Z" fill="#603A0A" stroke="#D0C5A3" stroke-width="1.98293"/>
<path d="M76.3654 41.544C76.3654 26.9662 64.5477 15.1484 49.9698 15.1484C35.3919 15.1484 23.5742 26.9662 23.5742 41.544C23.5742 56.1219 35.3919 67.9397 49.9698 67.9397C64.5477 67.9397 76.3654 56.1219 76.3654 41.544Z" fill="white"/>
<path d="M76.3654 41.544C76.3654 26.9662 64.5477 15.1484 49.9698 15.1484C35.3919 15.1484 23.5742 26.9662 23.5742 41.544C23.5742 56.1219 35.3919 67.9397 49.9698 67.9397C64.5477 67.9397 76.3654 56.1219 76.3654 41.544Z" stroke="#D0C5A3" stroke-width="2.89374"/>
<path fill-rule="evenodd" clip-rule="evenodd" d="M48.5954 25.0741L48.5508 26.3435L47.2814 26.3881L46.012 26.4329V27.6514V28.8698L47.2814 28.9146L48.5508 28.9592L48.594 30.943L48.6373 32.9267L46.0168 35.457L43.3962 37.9874V39.947V41.9065L40.1266 43.7081C38.3283 44.699 36.7604 45.5698 36.6426 45.643C36.4633 45.7542 37.1454 47.3289 37.6356 47.9358C37.6583 47.9638 37.8212 47.9095 37.9977 47.815C38.3186 47.6433 38.3186 47.6434 38.3186 51.1107V54.578H42.1456H45.9724L46.0437 53.3856C46.3579 48.1232 53.3594 48.1232 53.6736 53.3856L53.7449 54.578H57.5717H61.3987V51.116C61.3987 47.7837 61.4408 47.45 61.8152 47.8244C61.9812 47.9904 63.2338 46.2805 63.2418 45.877C63.2437 45.7882 61.6898 44.715 59.7889 43.4921L56.3326 41.2686L56.3269 39.6316L56.3211 37.9944L53.7007 35.4482L51.0802 32.9021L51.1234 30.9307L51.1665 28.9592L52.4359 28.9146L53.7053 28.8698V27.6514V26.4329L52.4359 26.3881L51.1665 26.3435L51.1219 25.0741L51.0771 23.8047H49.8587H48.6402L48.5954 25.0741ZM51.4067 39.5639C52.1848 40.0789 52.5242 40.8599 52.4452 41.9531C52.2074 45.2403 47.5099 45.2403 47.2722 41.9531C47.1041 39.6302 49.4543 38.272 51.4067 39.5639Z" fill="#603A0A"/>
</g>
</svg>
