<svg width="100" height="100" viewBox="0 0 100 100" fill="none" xmlns="http://www.w3.org/2000/svg">
<mask id="mask0_478_21097" style="mask-type:alpha" maskUnits="userSpaceOnUse" x="0" y="0" width="100" height="100">
<path d="M0.28125 0H99.7865V99.5054H0.28125V0Z" fill="#D9D9D9"/>
</mask>
<g mask="url(#mask0_478_21097)">
<path d="M25.6625 64.4554L25.6623 64.4551C20.2123 56.4035 17.5352 49.0196 17.5352 42.2886C17.5352 32.0812 20.8118 24.013 27.3237 18.0085L27.3239 18.0084C33.8716 11.9683 41.4322 8.96094 50.0336 8.96094C58.6349 8.96094 66.1956 11.9683 72.743 18.0084L72.7437 18.0085C79.2552 24.013 82.5322 32.0812 82.5322 42.2886C82.5322 49.0196 79.8565 56.4036 74.4092 64.4553C69.0315 72.4022 60.9144 81.0279 50.0336 90.3313C39.1528 81.0286 31.0372 72.4022 25.6625 64.4554Z" fill="#603A0A" stroke="#D0C5A3" stroke-width="1.98293"/>
<path d="M76.3654 41.544C76.3654 26.9662 64.5477 15.1484 49.9698 15.1484C35.3919 15.1484 23.5742 26.9662 23.5742 41.544C23.5742 56.1219 35.3919 67.9397 49.9698 67.9397C64.5477 67.9397 76.3654 56.1219 76.3654 41.544Z" fill="white"/>
<path d="M76.3654 41.544C76.3654 26.9662 64.5477 15.1484 49.9698 15.1484C35.3919 15.1484 23.5742 26.9662 23.5742 41.544C23.5742 56.1219 35.3919 67.9397 49.9698 67.9397C64.5477 67.9397 76.3654 56.1219 76.3654 41.544Z" stroke="#D0C5A3" stroke-width="2.89374"/>
<path fill-rule="evenodd" clip-rule="evenodd" d="M43.8317 26.334C42.693 26.8795 43.2553 30.842 45.4351 37.6332L45.5259 37.916L45.5706 37.7496C45.94 36.3742 46.8624 35.3753 48.1679 34.9368C49.1092 34.6206 50.0544 34.6865 51.1004 35.1414C51.2645 35.2127 51.405 35.2711 51.4127 35.2711C51.4329 35.2711 51.2994 35.0455 50.8121 34.2564C47.2733 28.5257 44.8938 25.8252 43.8317 26.334ZM52.277 36.0199C53.9369 37.8019 53.623 40.6279 51.6209 41.926L51.3403 42.1079L51.455 42.1191C51.6157 42.1347 54.226 42.0648 54.9876 42.0244C60.7908 41.7169 63.5235 40.8721 62.7876 39.613C62.1582 38.5363 58.6436 37.2202 53.1957 36.0214C52.6482 35.9009 52.1643 35.7942 52.1205 35.7843C52.0575 35.7701 52.0905 35.8197 52.277 36.0199ZM49.0233 36.4676C46.8817 36.8601 46.4377 39.7266 48.3643 40.7223C50.0316 41.584 51.9707 40.122 51.62 38.2677C51.3996 37.1026 50.1783 36.2559 49.0233 36.4676ZM45.1605 39.1885C42.5464 43.865 40.9581 47.8178 41.1668 49.1277C41.4445 50.8705 44.0727 49.3246 48.4027 44.8714C49.4129 43.8326 50.612 42.5339 50.5855 42.5074C50.5783 42.5002 50.4628 42.5231 50.3289 42.5583C48.3517 43.0788 46.256 41.8762 45.6006 39.8449C45.5185 39.5905 45.4474 39.1803 45.4474 38.961C45.4474 38.8528 45.4362 38.7643 45.4225 38.7643C45.4088 38.7644 45.291 38.9552 45.1605 39.1885ZM50.3915 45.2575C49.1433 46.5983 48.2114 47.5228 47.4964 48.1297L47.3397 48.2627L47.2568 50.2922C47.2112 51.4083 47.1639 52.5799 47.1517 52.8955L47.1294 53.4694H49.3957H51.662L51.6393 52.9953C51.6268 52.7346 51.5875 51.9448 51.552 51.2403C51.4889 49.9873 51.4668 49.5574 51.3714 47.7304C51.3457 47.2364 51.2985 46.2895 51.2666 45.6261C51.2346 44.9629 51.2001 44.4201 51.1898 44.4201C51.1795 44.4201 50.8202 44.7969 50.3915 45.2575Z" fill="#603A0A"/>
</g>
</svg>
