<svg width="100" height="100" viewBox="0 0 100 100" fill="none" xmlns="http://www.w3.org/2000/svg">
<mask id="mask0_478_21085" style="mask-type:alpha" maskUnits="userSpaceOnUse" x="0" y="0" width="100" height="100">
<path d="M0.28125 0H99.7865V99.5054H0.28125V0Z" fill="#D9D9D9"/>
</mask>
<g mask="url(#mask0_478_21085)">
<path d="M25.6625 64.4554L25.6623 64.4551C20.2123 56.4035 17.5352 49.0196 17.5352 42.2886C17.5352 32.0812 20.8118 24.013 27.3237 18.0085L27.3239 18.0084C33.8716 11.9683 41.4322 8.96094 50.0336 8.96094C58.6349 8.96094 66.1956 11.9683 72.743 18.0084L72.7437 18.0085C79.2552 24.013 82.5322 32.0812 82.5322 42.2886C82.5322 49.0196 79.8565 56.4036 74.4092 64.4553C69.0315 72.4022 60.9144 81.0279 50.0336 90.3313C39.1528 81.0286 31.0372 72.4022 25.6625 64.4554Z" fill="#603A0A" stroke="#D0C5A3" stroke-width="1.98293"/>
<path d="M76.7912 41.3956C76.7912 26.8177 64.9735 15 50.3956 15C35.8177 15 24 26.8177 24 41.3956C24 55.9735 35.8177 67.7912 50.3956 67.7912C64.9735 67.7912 76.7912 55.9735 76.7912 41.3956Z" fill="white"/>
<path d="M76.3654 41.544C76.3654 26.9662 64.5477 15.1484 49.9698 15.1484C35.3919 15.1484 23.5742 26.9662 23.5742 41.544C23.5742 56.1219 35.3919 67.9397 49.9698 67.9397C64.5477 67.9397 76.3654 56.1219 76.3654 41.544Z" stroke="#D0C5A3" stroke-width="2.89374"/>
<path d="M48.4305 43.8815C48.5005 43.8815 48.5594 43.8298 48.57 43.7603C49.3027 38.9646 53.4256 35.2918 58.4028 35.2918C58.7855 35.2918 59.163 35.314 59.5345 35.3564C59.6488 35.3695 59.7293 35.2466 59.6732 35.1457L56.3294 29.1278C56.3044 29.0827 56.257 29.0547 56.2056 29.0547H39.5127C39.4613 29.0547 39.4139 29.0827 39.3888 29.1277L36.0183 35.1853C35.9654 35.2803 36.0337 35.3974 36.142 35.3974H37.1695C37.2478 35.3974 37.3113 35.4612 37.3113 35.54V43.739C37.3113 43.8177 37.3748 43.8815 37.4531 43.8815H48.4305Z" fill="#603A0A"/>
<path d="M48.5618 46.4493C48.5618 46.3744 48.4942 46.3161 48.4214 46.3311C48.3551 46.3448 48.2867 46.3522 48.2164 46.3522C47.6781 46.3522 47.2336 45.9399 47.1796 45.4129C47.1734 45.3515 47.1225 45.3047 47.0612 45.3047H45.8508C45.7894 45.3047 45.7387 45.3515 45.7324 45.4129C45.6783 45.9399 45.234 46.3522 44.6955 46.3522C44.1572 46.3522 43.7128 45.9399 43.6587 45.4129C43.6525 45.3515 43.6017 45.3047 43.5404 45.3047H42.3299C42.2685 45.3047 42.2178 45.3515 42.2115 45.4129C42.1574 45.9399 41.7131 46.3522 41.1746 46.3522C40.6363 46.3522 40.1919 45.9399 40.1378 45.4129C40.1316 45.3515 40.0808 45.3047 40.0194 45.3047H38.8091C38.7476 45.3047 38.6969 45.3515 38.6906 45.4129C38.6366 45.9399 38.1923 46.3522 37.6538 46.3522C37.5913 46.3522 37.5302 46.3465 37.4707 46.3356C37.3981 46.3226 37.332 46.38 37.332 46.454V47.6487C37.332 47.7119 37.3808 47.7632 37.4435 47.7687C37.5127 47.7748 37.5829 47.7781 37.6538 47.7781C38.3019 47.7781 38.8913 47.5261 39.3308 47.1145C39.3783 47.0701 39.4502 47.0701 39.4978 47.1145C39.9372 47.5261 40.5265 47.7781 41.1746 47.7781C41.8228 47.7781 42.4122 47.5261 42.8517 47.1145C42.8991 47.0701 42.9711 47.0701 43.0186 47.1145C43.4581 47.5261 44.0475 47.7781 44.6955 47.7781C45.3437 47.7781 45.9331 47.5261 46.3725 47.1145C46.42 47.0701 46.492 47.0701 46.5395 47.1145C46.979 47.5261 47.5683 47.7781 48.2164 47.7781C48.2974 47.7781 48.3774 47.774 48.4562 47.7661C48.5166 47.7601 48.5618 47.7076 48.5618 47.6466V46.4493Z" fill="#603A0A"/>
<path d="M64.7641 46.1467L66.6719 46.9408C67.3348 43.5937 65.9164 40.1486 63.0921 38.253L62.3012 40.172C64.1236 41.5712 65.068 43.8624 64.7641 46.1467ZM61.1617 37.2894L60.3889 39.1643C60.5458 39.2158 60.7021 39.2717 60.8572 39.3362C61.0122 39.4008 61.1621 39.4724 61.3093 39.5474L62.0821 37.6724C61.9335 37.6001 61.7822 37.5313 61.6277 37.4669C61.4731 37.4026 61.3177 37.3438 61.1617 37.2894ZM52.4711 42.8269C52.5352 42.6712 52.6055 42.5201 52.6801 42.3722L50.8165 41.5965C50.7444 41.746 50.6749 41.8973 50.6109 42.0526C50.5468 42.2081 50.4895 42.3646 50.4353 42.5214L52.2988 43.297C52.3501 43.1396 52.4068 42.9826 52.4711 42.8269ZM66.3665 48.0692L64.503 47.2934C64.4517 47.451 64.395 47.6079 64.3308 47.7636C64.2666 47.9192 64.1964 48.0705 64.1217 48.2183L65.9853 48.994C66.0573 48.8445 66.1269 48.6932 66.191 48.5378C66.255 48.3824 66.3123 48.226 66.3665 48.0692ZM55.4926 51.0431L54.7198 52.9181C54.8683 52.9904 55.0197 53.0592 55.1741 53.1236C55.3287 53.1878 55.4841 53.2467 55.6401 53.3011L56.4129 51.4262C56.2561 51.3747 56.0996 51.3188 55.9446 51.2543C55.7897 51.1897 55.6397 51.1182 55.4926 51.0431ZM57.5538 51.6894L56.7628 53.6082C60.0936 54.2747 63.5209 52.8467 65.4073 50.0089L63.4994 49.2147C62.1071 51.0459 59.827 51.995 57.5538 51.6894ZM52.0377 44.4438L50.1299 43.6497C49.467 46.9968 50.8856 50.442 53.7097 52.3375L54.5007 50.4185C52.6783 49.0192 51.7339 46.7281 52.0377 44.4438ZM51.3946 40.5817L53.3024 41.3757C54.6948 39.5446 56.9748 38.5955 59.2481 38.9011L60.0391 36.9823C56.7083 36.3157 53.281 37.7438 51.3946 40.5817Z" fill="#603A0A"/>
<path d="M62.2458 37.8693L55.8939 53.2794C55.8731 53.33 55.9001 53.3882 55.9521 53.4041C56.1223 53.4563 56.293 53.5028 56.4642 53.5437C56.5084 53.5541 56.5537 53.5305 56.571 53.4883L62.8717 38.2027C62.889 38.1606 62.8737 38.1117 62.835 38.0877C62.6852 37.995 62.5318 37.9065 62.3748 37.8225C62.3267 37.7969 62.2666 37.8188 62.2458 37.8693ZM53.9695 52.5052C54.1192 52.5979 54.2727 52.6865 54.4297 52.7704C54.4777 52.7961 54.5378 52.7742 54.5587 52.7236L60.9105 37.3136C60.9314 37.263 60.9044 37.2047 60.8523 37.1888C60.6822 37.1367 60.5114 37.0902 60.3402 37.0494C60.2961 37.0388 60.2509 37.0625 60.2335 37.1046L53.9329 52.3902C53.9155 52.4324 53.9308 52.4813 53.9695 52.5052Z" fill="#603A0A"/>
<path d="M51.0098 41.4329L66.3447 47.816C66.395 47.8369 66.453 47.8097 66.4688 47.7575C66.5207 47.5865 66.567 47.4149 66.6076 47.2429C66.6181 47.1986 66.5945 47.153 66.5527 47.1356L51.3416 40.804C51.2998 40.7866 51.2511 40.8021 51.2272 40.8408C51.1349 40.9913 51.0469 41.1455 50.9632 41.3033C50.9377 41.3516 50.9595 41.412 51.0098 41.4329ZM65.5743 49.7498C65.6665 49.5994 65.7545 49.4452 65.8382 49.2875C65.8638 49.2392 65.8419 49.1787 65.7916 49.1578L50.4568 42.7747C50.4065 42.7538 50.3486 42.781 50.3327 42.8333C50.2807 43.0042 50.2345 43.1758 50.1939 43.3478C50.1834 43.3921 50.2069 43.4377 50.2489 43.4551L65.4599 49.7866C65.5018 49.8041 65.5505 49.7886 65.5743 49.7498Z" fill="#603A0A"/>
<path d="M48.5618 49.6133C48.5618 49.5386 48.4942 49.4801 48.4214 49.4952C48.3551 49.5089 48.2867 49.5162 48.2164 49.5162C47.6781 49.5162 47.2336 49.1039 47.1796 48.577C47.1734 48.5157 47.1225 48.4688 47.0612 48.4688H45.8508C45.7894 48.4688 45.7387 48.5157 45.7324 48.577C45.6783 49.1039 45.234 49.5162 44.6955 49.5162C44.1572 49.5162 43.7128 49.1039 43.6587 48.577C43.6525 48.5157 43.6017 48.4688 43.5404 48.4688H42.3299C42.2685 48.4688 42.2178 48.5157 42.2115 48.577C42.1574 49.1039 41.7131 49.5162 41.1746 49.5162C40.6363 49.5162 40.1919 49.1039 40.1378 48.577C40.1316 48.5157 40.0808 48.4688 40.0194 48.4688H38.8091C38.7476 48.4688 38.6969 48.5157 38.6906 48.577C38.6366 49.1039 38.1923 49.5162 37.6538 49.5162C37.5913 49.5162 37.5302 49.5105 37.4707 49.4997C37.3981 49.4866 37.332 49.544 37.332 49.618V50.8128C37.332 50.876 37.3808 50.9272 37.4435 50.9327C37.5127 50.9389 37.5829 50.9422 37.6538 50.9422C38.3019 50.9422 38.8913 50.6901 39.3308 50.2786C39.3783 50.2342 39.4502 50.2342 39.4978 50.2786C39.9372 50.6901 40.5265 50.9422 41.1746 50.9422C41.8228 50.9422 42.4122 50.6901 42.8517 50.2786C42.8991 50.2342 42.9711 50.2342 43.0186 50.2786C43.4581 50.6901 44.0475 50.9422 44.6955 50.9422C45.3437 50.9422 45.9331 50.6901 46.3725 50.2786C46.42 50.2342 46.492 50.2342 46.5395 50.2786C46.979 50.6901 47.5683 50.9422 48.2164 50.9422C48.2974 50.9422 48.3774 50.9381 48.4562 50.9302C48.5166 50.9243 48.5618 50.8716 48.5618 50.8107V49.6133Z" fill="#603A0A"/>
</g>
</svg>
