<svg width="46" height="46" viewBox="0 0 46 46" fill="none" xmlns="http://www.w3.org/2000/svg">
<path fill-rule="evenodd" clip-rule="evenodd" d="M10.2131 2.49991C10.4555 1.97933 10.9446 1.51236 11.4657 1.30366C12.5375 0.874428 13.7606 1.36116 14.3354 2.44573C14.5877 2.92161 14.6774 11.2593 14.4381 11.9863C13.8132 13.885 11.1949 14.0792 10.2628 12.2961L10.034 11.8585V7.37149C10.034 2.98187 10.0379 2.87614 10.2131 2.49991ZM32.0635 2.49395C32.3029 1.97182 32.7855 1.51484 33.3142 1.30963C34.4888 0.853666 35.8017 1.44911 36.2424 2.63761C36.4721 3.25724 36.513 11.1969 36.2904 11.9535C35.7151 13.9083 33.0355 14.0927 32.0827 12.2431L31.8845 11.8585V7.37149C31.8845 2.98392 31.8885 2.87589 32.0635 2.49395ZM15.2539 14.2074C16.2253 13.2346 16.4358 12.5543 16.4899 10.2132L16.5318 8.39708H23.2019H29.8719L29.9161 10.2132C29.9531 11.7323 29.9878 12.1069 30.1286 12.5036C31.2364 15.6258 34.8527 16.4993 37.1129 14.1904C38.0614 13.2215 38.2878 12.5287 38.3422 10.4269C38.3701 9.35025 38.3688 8.93133 38.5153 8.86959C38.6167 8.82684 38.7891 8.95547 39.0913 9.1556C40.462 10.0632 41.1534 11.2218 41.3327 12.9113C41.3907 13.4574 41.412 18.3455 41.3953 27.2851L41.3699 40.8315L41.1336 41.5153C40.5915 43.083 39.5317 44.1356 37.9399 44.6871C37.4906 44.8427 36.9734 44.8484 23.2883 44.8484C9.60313 44.8484 9.08601 44.8427 8.63663 44.6871C7.04485 44.1356 5.98503 43.083 5.443 41.5153L5.20662 40.8315L5.18129 27.2851C5.16462 18.3455 5.18587 13.4574 5.24388 12.9113C5.42352 11.2182 6.11384 10.064 7.4933 9.15005L8.00144 8.8134L8.05141 10.3798C8.09299 11.6848 8.13313 12.0427 8.29168 12.5234C9.30104 15.5844 12.9884 16.4762 15.2539 14.2074ZM37.4318 40.5324V30.02V19.5077H23.2883H9.14478V30.02V40.5324H23.2883H37.4318ZM11.008 38.5667V30.02V21.4734H23.2883H35.5686V30.02V38.5667H23.2883H11.008ZM24.6029 33.7111V25.755H23.244L21.2845 27.0253V28.3461L23.1285 27.1574H23.1747V33.7111H24.6029Z" fill="#603A0A"/>
</svg>
