<svg width="46" height="46" viewBox="0 0 46 46" fill="none" xmlns="http://www.w3.org/2000/svg">
<path d="M18.4452 26.5401C18.5491 26.5401 18.6366 26.4635 18.6523 26.3602C19.7395 19.2441 25.8574 13.7941 33.2429 13.7941C33.8108 13.7941 34.3709 13.827 34.9221 13.89C35.0917 13.9094 35.2111 13.727 35.128 13.5773L30.1662 4.64754C30.1291 4.58058 30.0588 4.53906 29.9825 4.53906H5.21234C5.13611 4.53906 5.06575 4.58058 5.02857 4.64741L0.0270994 13.6361C-0.0513962 13.7771 0.0500205 13.9508 0.210743 13.9508H1.73535C1.85156 13.9508 1.94578 14.0455 1.94578 14.1624V26.3286C1.94578 26.4454 2.04 26.5401 2.15621 26.5401H18.4452Z" fill="#603A0A"/>
<path d="M18.6439 30.3468C18.6439 30.2358 18.5437 30.1492 18.4356 30.1715C18.3373 30.1918 18.2357 30.2027 18.1315 30.2027C17.3327 30.2027 16.6731 29.591 16.5931 28.809C16.5837 28.7179 16.5083 28.6484 16.4173 28.6484H14.6212C14.5302 28.6484 14.4549 28.7179 14.4456 28.809C14.3653 29.591 13.7059 30.2027 12.907 30.2027C12.1081 30.2027 11.4487 29.591 11.3685 28.809C11.3592 28.7179 11.2839 28.6484 11.1928 28.6484H9.39664C9.30562 28.6484 9.23032 28.7179 9.22099 28.809C9.14076 29.591 8.48135 30.2027 7.6824 30.2027C6.88358 30.2027 6.22417 29.591 6.14394 28.809C6.13461 28.7179 6.05931 28.6484 5.96816 28.6484H4.17222C4.08106 28.6484 4.00576 28.7179 3.99644 28.809C3.91634 29.591 3.25692 30.2027 2.45797 30.2027C2.36522 30.2027 2.27446 30.1943 2.18624 30.1782C2.07856 30.1588 1.98047 30.244 1.98047 30.3538V32.1267C1.98047 32.2204 2.05283 32.2965 2.14586 32.3047C2.24861 32.3138 2.35269 32.3187 2.45797 32.3187C3.41964 32.3187 4.29416 31.9447 4.94638 31.334C5.01688 31.2681 5.12363 31.2681 5.19413 31.334C5.84621 31.9447 6.72059 32.3187 7.6824 32.3187C8.6442 32.3187 9.51872 31.9447 10.1709 31.334C10.2413 31.2681 10.3481 31.2681 10.4186 31.334C11.0708 31.9447 11.9453 32.3187 12.907 32.3187C13.8688 32.3187 14.7433 31.9447 15.3954 31.334C15.4659 31.2681 15.5726 31.2681 15.6431 31.334C16.2953 31.9447 17.1698 32.3187 18.1315 32.3187C18.2517 32.3187 18.3703 32.3126 18.4873 32.3009C18.5769 32.2919 18.6439 32.214 18.6439 32.1236V30.3468Z" fill="#603A0A"/>
<path d="M42.6848 29.8938L45.5159 31.0722C46.4995 26.1055 44.3947 20.9934 40.2039 18.1806L39.0302 21.0281C41.7345 23.1044 43.1358 26.5042 42.6848 29.8938ZM37.3394 16.7507L36.1926 19.5328C36.4254 19.6093 36.6574 19.6922 36.8875 19.788C37.1175 19.8837 37.3399 19.9901 37.5583 20.1014L38.7051 17.3191C38.4846 17.2118 38.2601 17.1096 38.0308 17.0142C37.8014 16.9188 37.5709 16.8315 37.3394 16.7507ZM24.4436 24.9677C24.5387 24.7367 24.6431 24.5124 24.7537 24.293L21.9885 23.1419C21.8815 23.3637 21.7783 23.5883 21.6833 23.8188C21.5883 24.0494 21.5032 24.2816 21.4228 24.5144L24.188 25.6653C24.2641 25.4316 24.3483 25.1987 24.4436 24.9677ZM45.0626 32.7465L42.2974 31.5954C42.2213 31.8293 42.1372 32.062 42.0419 32.293C41.9466 32.5241 41.8424 32.7485 41.7317 32.9679L44.497 34.1188C44.6038 33.897 44.707 33.6726 44.8022 33.442C44.8972 33.2114 44.9822 32.9793 45.0626 32.7465ZM28.9272 37.1594L27.7804 39.9417C28.0008 40.0489 28.2254 40.1511 28.4546 40.2466C28.6839 40.342 28.9145 40.4293 29.146 40.51L30.2928 37.7279C30.0601 37.6514 29.8279 37.5685 29.5979 37.4728C29.368 37.377 29.1454 37.2708 28.9272 37.1594ZM31.9857 38.1184L30.812 40.9658C35.7544 41.9548 40.8401 39.8357 43.6393 35.6248L40.8082 34.4464C38.7422 37.1636 35.3589 38.5719 31.9857 38.1184ZM23.8005 27.367L20.9696 26.1886C19.986 31.1552 22.091 36.2675 26.2816 39.0801L27.4553 36.2327C24.751 34.1563 23.3497 30.7565 23.8005 27.367ZM22.8462 21.6361L25.6771 22.8144C27.7433 20.0972 31.1265 18.6889 34.4998 19.1423L35.6735 16.295C30.7311 15.306 25.6454 17.425 22.8462 21.6361Z" fill="#603A0A"/>
<path d="M38.9435 17.611L29.5181 40.4776C29.4872 40.5526 29.5273 40.639 29.6045 40.6627C29.857 40.7401 30.1104 40.8091 30.3644 40.8697C30.43 40.8853 30.4971 40.8502 30.5228 40.7877L39.8722 18.1057C39.8979 18.0432 39.8752 17.9706 39.8178 17.9351C39.5956 17.7976 39.3679 17.6662 39.135 17.5415C39.0635 17.5035 38.9744 17.536 38.9435 17.611ZM26.6626 39.3288C26.8847 39.4664 27.1125 39.5977 27.3454 39.7223C27.4166 39.7605 27.5059 39.7279 27.5368 39.6529L36.9622 16.7863C36.9931 16.7113 36.953 16.6248 36.8757 16.6013C36.6232 16.5238 36.3699 16.4549 36.1159 16.3943C36.0505 16.3787 35.9833 16.4138 35.9574 16.4763L26.6082 39.1582C26.5825 39.2208 26.6051 39.2933 26.6626 39.3288Z" fill="#603A0A"/>
<path d="M22.277 22.897L45.0319 32.3686C45.1065 32.3996 45.1926 32.3593 45.2161 32.2818C45.2931 32.028 45.3617 31.7734 45.422 31.5181C45.4376 31.4524 45.4026 31.3848 45.3405 31.3589L22.7692 21.9637C22.7071 21.9378 22.6349 21.9608 22.5995 22.0183C22.4626 22.2417 22.332 22.4704 22.2078 22.7047C22.1699 22.7763 22.2023 22.8659 22.277 22.897ZM43.8887 35.2381C44.0256 35.0149 44.1562 34.7861 44.2803 34.552C44.3182 34.4804 44.2859 34.3907 44.2112 34.3596L21.4563 24.888C21.3816 24.8569 21.2957 24.8972 21.2721 24.9749C21.1951 25.2286 21.1264 25.4832 21.0662 25.7384C21.0506 25.8042 21.0855 25.8718 21.1478 25.8977L43.7189 35.2928C43.7812 35.3188 43.8534 35.2957 43.8887 35.2381Z" fill="#603A0A"/>
<path d="M18.6439 35.0344C18.6439 34.9235 18.5437 34.8367 18.4356 34.859C18.3373 34.8794 18.2357 34.8903 18.1315 34.8903C17.3327 34.8903 16.6731 34.2785 16.5931 33.4965C16.5837 33.4056 16.5083 33.3359 16.4173 33.3359H14.6212C14.5302 33.3359 14.4549 33.4056 14.4456 33.4965C14.3653 34.2785 13.7059 34.8903 12.907 34.8903C12.1081 34.8903 11.4487 34.2785 11.3685 33.4965C11.3592 33.4056 11.2839 33.3359 11.1928 33.3359H9.39664C9.30562 33.3359 9.23032 33.4056 9.22099 33.4965C9.14076 34.2785 8.48135 34.8903 7.6824 34.8903C6.88358 34.8903 6.22417 34.2785 6.14394 33.4965C6.13461 33.4056 6.05931 33.3359 5.96816 33.3359H4.17222C4.08106 33.3359 4.00576 33.4056 3.99644 33.4965C3.91634 34.2785 3.25692 34.8903 2.45797 34.8903C2.36522 34.8903 2.27446 34.8818 2.18624 34.8657C2.07856 34.8463 1.98047 34.9315 1.98047 35.0413V36.8142C1.98047 36.9079 2.05283 36.984 2.14586 36.9922C2.24861 37.0013 2.35269 37.0062 2.45797 37.0062C3.41964 37.0062 4.29416 36.6322 4.94638 36.0215C5.01688 35.9556 5.12363 35.9556 5.19413 36.0215C5.84621 36.6322 6.72059 37.0062 7.6824 37.0062C8.6442 37.0062 9.51872 36.6322 10.1709 36.0215C10.2413 35.9556 10.3481 35.9556 10.4186 36.0215C11.0708 36.6322 11.9453 37.0062 12.907 37.0062C13.8688 37.0062 14.7433 36.6322 15.3954 36.0215C15.4659 35.9556 15.5726 35.9556 15.6431 36.0215C16.2953 36.6322 17.1698 37.0062 18.1315 37.0062C18.2517 37.0062 18.3703 37.0001 18.4873 36.9884C18.5769 36.9796 18.6439 36.9015 18.6439 36.8111V35.0344Z" fill="#603A0A"/>
</svg>
