<svg width="46" height="46" viewBox="0 0 46 46" fill="none" xmlns="http://www.w3.org/2000/svg">
<path fill-rule="evenodd" clip-rule="evenodd" d="M10.8697 2.96468C9.18444 3.77199 10.0166 9.63641 13.2427 19.6874L13.3771 20.106L13.4432 19.8598C13.99 17.8241 15.3552 16.3458 17.2873 15.6967C18.6804 15.2288 20.0793 15.3264 21.6274 15.9996C21.8702 16.1051 22.0781 16.1915 22.0895 16.1915C22.1194 16.1915 21.9219 15.8577 21.2006 14.6897C15.9632 6.20842 12.4416 2.21162 10.8697 2.96468ZM23.3687 17.2998C25.8254 19.9372 25.3607 24.1196 22.3977 26.0407L21.9824 26.31L22.1522 26.3265C22.39 26.3497 26.2532 26.2462 27.3804 26.1864C35.9691 25.7314 40.0136 24.4811 38.9244 22.6176C37.9929 21.024 32.7913 19.0762 24.7284 17.3019C23.918 17.1236 23.202 16.9657 23.1371 16.951C23.0439 16.93 23.0927 17.0035 23.3687 17.2998ZM18.5533 17.9624C15.3837 18.5432 14.7265 22.7857 17.5779 24.2593C20.0456 25.5347 22.9154 23.3709 22.3963 20.6265C22.0701 18.9021 20.2626 17.6491 18.5533 17.9624ZM12.8363 21.9893C8.96737 28.9106 6.61667 34.7607 6.92557 36.6993C7.33654 39.2786 11.2263 36.9907 17.6348 30.4C19.1298 28.8626 20.9045 26.9405 20.8653 26.9013C20.8546 26.8905 20.6837 26.9245 20.4855 26.9766C17.5592 27.7469 14.4577 25.967 13.4876 22.9608C13.3661 22.5842 13.2609 21.9772 13.2609 21.6526C13.2609 21.4925 13.2444 21.3615 13.2241 21.3615C13.2038 21.3616 13.0294 21.6441 12.8363 21.9893ZM20.5781 30.9714C18.7308 32.9558 17.3516 34.324 16.2935 35.2222L16.0615 35.4192L15.9388 38.4227C15.8714 40.0747 15.8013 41.8085 15.7832 42.2756L15.7502 43.125H19.1044H22.4585L22.4249 42.4234C22.4064 42.0375 22.3483 40.8686 22.2958 39.826C22.2023 37.9714 22.1696 37.3352 22.0285 34.6313C21.9903 33.9002 21.9205 32.4987 21.8733 31.517C21.826 30.5353 21.7749 29.7321 21.7596 29.7321C21.7444 29.7321 21.2127 30.2898 20.5781 30.9714Z" fill="#603A0A"/>
</svg>
