<svg width="100" height="100" viewBox="0 0 100 100" fill="none" xmlns="http://www.w3.org/2000/svg">
<mask id="mask0_478_22243" style="mask-type:alpha" maskUnits="userSpaceOnUse" x="0" y="0" width="100" height="100">
<path d="M0.28125 0H99.7865V99.5054H0.28125V0Z" fill="#D9D9D9"/>
</mask>
<g mask="url(#mask0_478_22243)">
<path d="M25.6625 64.4554L25.6623 64.4551C20.2123 56.4035 17.5352 49.0196 17.5352 42.2886C17.5352 32.0812 20.8118 24.013 27.3237 18.0085L27.3239 18.0084C33.8716 11.9683 41.4322 8.96094 50.0336 8.96094C58.635 8.96094 66.1956 11.9683 72.743 18.0084L72.7437 18.0085C79.2552 24.013 82.5322 32.0812 82.5322 42.2886C82.5322 49.0197 79.8565 56.4036 74.4092 64.4553C69.0315 72.4022 60.9144 81.0279 50.0336 90.3313C39.1528 81.0286 31.0372 72.4022 25.6625 64.4554Z" fill="#603A0A" stroke="#D0C5A3" stroke-width="1.98293"/>
<path d="M76.3654 41.544C76.3654 26.9662 64.5477 15.1484 49.9698 15.1484C35.3919 15.1484 23.5742 26.9662 23.5742 41.544C23.5742 56.1219 35.3919 67.9397 49.9698 67.9397C64.5477 67.9397 76.3654 56.1219 76.3654 41.544Z" fill="white"/>
<path d="M76.3654 41.544C76.3654 26.9662 64.5477 15.1484 49.9698 15.1484C35.3919 15.1484 23.5742 26.9662 23.5742 41.544C23.5742 56.1219 35.3919 67.9397 49.9698 67.9397C64.5477 67.9397 76.3654 56.1219 76.3654 41.544Z" stroke="#D0C5A3" stroke-width="2.89374"/>
<path fill-rule="evenodd" clip-rule="evenodd" d="M43.1593 25.3604C42.3953 25.7069 40.6876 27.28 40.2264 28.0618C39.3857 29.4873 39.8619 31.6046 41.3174 32.9131C41.7382 33.2915 42.1341 33.601 42.1973 33.601C42.2606 33.601 42.3518 34.0731 42.4003 34.6501C42.4486 35.2271 42.6261 36.1081 42.7949 36.6079C42.9637 37.1078 43.072 37.5648 43.0357 37.6236C42.9993 37.6823 41.357 38.6008 39.3862 39.6643C34.4924 42.3054 34.0078 42.8758 35.0941 44.7154C35.7718 45.8631 36.4792 45.8228 39.9301 44.4393C41.2893 43.8944 42.436 43.4485 42.4784 43.4485C42.5207 43.4485 42.5147 43.9332 42.465 44.5256L42.3747 45.6026H43.4184C43.9925 45.6026 44.802 45.7057 45.2174 45.8317C46.1928 46.1276 46.1508 46.1361 46.2531 45.6242C46.6575 43.6027 50.1436 42.587 52.3262 43.8549C52.9789 44.2338 53.8969 45.3086 53.8969 45.6936C53.8969 46.0292 54.1218 46.059 54.8952 45.8264C55.304 45.7033 56.1079 45.6026 56.682 45.6026H57.7257L57.6332 44.4997C57.5484 43.4899 57.5635 43.4056 57.8116 43.5007C57.9605 43.5579 59.062 43.9973 60.2594 44.4773C63.5289 45.7879 64.7351 45.7074 65.2502 44.1441C65.7512 42.6242 65.2147 42.0931 60.7398 39.6782C58.7549 38.6069 57.1012 37.6823 57.0647 37.6236C57.0284 37.5648 57.1367 37.1078 57.3055 36.6079C57.4743 36.1081 57.6518 35.2271 57.7002 34.6501C57.7486 34.0731 57.8376 33.601 57.898 33.601C58.1604 33.601 59.4755 32.2807 59.7507 31.7409C60.8875 29.5128 60.0879 27.4033 57.447 25.664C56.1735 24.8252 54.2831 25.0848 52.8435 26.2961C52.3713 26.6933 52.3484 26.6966 51.2074 26.5236C50.3412 26.3924 49.7592 26.3924 48.893 26.5236C47.7521 26.6966 47.7291 26.6933 47.2569 26.2961C46.06 25.2888 44.2353 24.8723 43.1593 25.3604ZM44.9715 27.904C45.1617 28.0243 45.1039 28.1495 44.6349 28.6325C44.3234 28.9533 43.8255 29.6214 43.5283 30.117L42.9879 31.0184L42.6729 30.5017C42.2064 29.7364 42.2753 29.4619 43.1594 28.5667C43.9679 27.7481 44.4475 27.5727 44.9715 27.904ZM56.9207 28.577C57.8283 29.4845 57.8939 29.7367 57.4232 30.5086L57.1041 31.0321L56.6716 30.2778C56.4337 29.863 55.9432 29.1884 55.5813 28.7788C55.0575 28.186 54.9678 28.0061 55.141 27.8966C55.6387 27.5815 56.1027 27.7589 56.9207 28.577ZM51.2873 31.2323C56.2946 32.7192 55.476 39.9014 50.267 40.1855C44.8771 40.4793 43.5797 32.8271 48.7503 31.2404C49.7471 30.9345 50.279 30.9328 51.2873 31.2323ZM49.486 32.6944C47.4599 33.2744 47.9302 36.3706 50.0444 36.3706C52.0639 36.3706 52.6833 33.2984 50.7743 32.7508C50.1184 32.5626 49.9691 32.5561 49.486 32.6944ZM42.3198 47.1976C38.8484 48.4896 38.922 53.8788 42.4338 55.544C46.1625 57.3117 49.0938 52.3028 46.4434 48.6923C45.4839 47.3853 43.6255 46.7116 42.3198 47.1976ZM55.1644 47.4747C53.0562 48.497 51.9842 51.5076 52.9544 53.6806C54.7752 57.7587 60.2459 55.9756 60.2716 51.2957C60.2885 48.2005 57.6848 46.2524 55.1644 47.4747ZM48.6939 52.8728C48.608 53.3171 48.4908 53.8302 48.4334 54.013C48.3388 54.3143 48.4094 54.362 49.1896 54.524C50.431 54.7817 51.8151 54.4972 51.6758 54.013C51.6232 53.8302 51.5033 53.3171 51.4093 52.8728L51.2387 52.065H50.0442H48.8499L48.6939 52.8728Z" fill="#603A0A"/>
</g>
</svg>
