<svg width="100" height="100" viewBox="0 0 100 100" fill="none" xmlns="http://www.w3.org/2000/svg">
<mask id="mask0_478_21075" style="mask-type:alpha" maskUnits="userSpaceOnUse" x="0" y="0" width="100" height="100">
<path d="M0.28125 0H99.7865V99.5054H0.28125V0Z" fill="#D9D9D9"/>
</mask>
<g mask="url(#mask0_478_21075)">
<path d="M25.6625 64.4554L25.6623 64.4551C20.2123 56.4035 17.5352 49.0196 17.5352 42.2886C17.5352 32.0812 20.8118 24.013 27.3237 18.0085L27.3239 18.0084C33.8716 11.9683 41.4322 8.96094 50.0336 8.96094C58.635 8.96094 66.1956 11.9683 72.743 18.0084L72.7437 18.0085C79.2552 24.013 82.5322 32.0812 82.5322 42.2886C82.5322 49.0197 79.8565 56.4036 74.4092 64.4553C69.0315 72.4022 60.9144 81.0279 50.0336 90.3313C39.1528 81.0286 31.0372 72.4022 25.6625 64.4554Z" fill="#603A0A" stroke="#D0C5A3" stroke-width="1.98293"/>
<path d="M76.3654 41.544C76.3654 26.9662 64.5477 15.1484 49.9698 15.1484C35.3919 15.1484 23.5742 26.9662 23.5742 41.544C23.5742 56.1219 35.3919 67.9397 49.9698 67.9397C64.5477 67.9397 76.3654 56.1219 76.3654 41.544Z" fill="white"/>
<path d="M76.3654 41.544C76.3654 26.9662 64.5477 15.1484 49.9698 15.1484C35.3919 15.1484 23.5742 26.9662 23.5742 41.544C23.5742 56.1219 35.3919 67.9397 49.9698 67.9397C64.5477 67.9397 76.3654 56.1219 76.3654 41.544Z" stroke="#D0C5A3" stroke-width="2.89374"/>
<path fill-rule="evenodd" clip-rule="evenodd" d="M51.7312 30.1896C51.5329 30.2982 51.4949 30.5826 51.5979 31.1854C51.7411 32.0227 52.187 32.8366 52.8607 33.4902C53.1089 33.731 53.0943 33.609 53.0943 35.4376V37.0705L53.2501 37.1113C54.5232 37.4453 55.4671 37.7274 55.6756 37.8362C55.7955 37.8988 55.8007 37.8847 55.74 37.6643C55.6903 37.4836 55.6747 37.4639 55.429 37.2689C54.0973 36.2125 54.1927 34.1492 55.6168 33.208C55.9465 32.99 56.5092 32.8139 56.8758 32.8139C57.052 32.8139 57.1048 32.7666 57.4439 32.3051C58.0062 31.5396 58.0791 30.8718 57.6144 30.7423C57.3798 30.677 57.2538 30.7758 56.6782 31.4763C55.9138 32.4068 55.4612 32.6928 54.746 32.6973C53.7449 32.7036 53.1406 32.1844 52.3285 30.6201C52.0769 30.1354 51.9703 30.0586 51.7312 30.1896ZM54.5815 30.3295C53.4923 30.5583 53.5803 32.2425 54.6892 32.3909C55.3475 32.479 55.9661 31.6484 55.7403 30.9796C55.5956 30.5508 55.0324 30.2348 54.5815 30.3295ZM45.9025 30.5457C45.1841 30.7855 44.9327 31.6288 45.3924 32.2563C45.6262 32.5756 46.2327 32.7458 46.6388 32.6061C47.3377 32.3658 47.55 31.2455 46.9908 30.7487C46.7377 30.5239 46.2438 30.4317 45.9025 30.5457ZM49.2299 31.0973C48.0342 31.3751 47.119 32.4576 47.1136 33.6003C47.1062 35.1993 48.5864 36.3624 50.1118 35.9563C51.2075 35.6646 51.998 34.4422 51.915 33.1678C51.8269 31.813 50.5123 30.7993 49.2299 31.0973ZM63.0087 31.6647C62.9425 31.6886 62.8463 31.7481 62.7949 31.797C62.6753 31.9108 62.2334 32.8227 61.8981 33.6474C61.0849 35.648 60.6475 36.3875 59.7829 37.2238C58.4357 38.5267 55.7999 39.4981 52.8453 39.7806C51.9159 39.8695 51.7442 39.9504 51.5875 40.3732C51.3299 41.068 51.4978 41.5142 52.0796 41.6816C53.0197 41.9521 53.4183 42.0106 54.3607 42.0164C55.5855 42.024 55.7265 42.0782 55.8262 42.5792C55.9113 43.007 55.7266 44.9679 55.5416 45.5999C55.5264 45.6518 55.4766 45.8217 55.4309 45.9774C55.3852 46.1331 55.2629 46.4336 55.1592 46.6452C54.9082 47.1574 54.9023 47.2272 55.0695 47.7159C55.2468 48.2344 55.2347 48.4921 55.0108 48.9656C54.7179 49.585 54.2723 50.0133 53.1825 50.7231C52.871 50.9259 52.5998 51.1118 52.5797 51.1362C52.5081 51.2233 53.513 51.6782 54.2371 51.8864C57.1955 52.737 59.9069 51.6238 61.1219 49.0598C61.7159 47.8065 61.8054 46.2745 61.4722 43.0679C61.4058 42.4292 61.3966 41.0969 61.4552 40.6145C61.5672 39.6932 61.6091 39.5818 62.1929 38.6514C63.2874 36.9071 63.9904 34.6093 63.9886 32.7825C63.9877 31.8877 63.6043 31.4504 63.0087 31.6647ZM43.1468 31.7818C42.9372 31.885 42.9934 32.3986 43.2546 32.7667C43.4734 33.0753 43.9869 33.5996 44.1502 33.6811C44.4679 33.8398 44.5409 33.9574 44.5681 34.3551L44.5864 34.6225L44.8797 34.8174C45.5148 35.2393 46.9536 35.9278 47.2001 35.9278C47.2109 35.9278 47.2198 35.7525 47.2198 35.5382V35.1486L47.0785 34.8804C46.816 34.3825 46.6995 33.6252 46.8118 33.1479C46.857 32.9557 46.8672 32.9623 46.593 33.0057C45.7698 33.1357 45.0306 32.9146 44.2125 32.2936C43.6284 31.8502 43.3142 31.6992 43.1468 31.7818ZM40.6488 32.0634C39.9636 32.189 39.6863 33.1519 40.098 33.9758C40.6207 35.0217 41.6217 36.1833 43.2526 37.6365C44.4349 38.6899 44.6388 38.948 44.8227 39.6237C44.9301 40.0185 44.9239 40.6669 44.8081 41.1492C44.685 41.6618 44.671 41.81 44.7461 41.8086C44.8864 41.8059 45.1699 41.5464 45.5269 41.0939C46.4806 39.8851 47.0851 39.6648 47.7172 40.2958C48.4942 41.0715 48.1885 42.3312 46.8055 44.0524C45.9909 45.0663 45.8345 45.2348 45.167 45.8186C44.7866 46.1512 44.8028 46.1169 44.7735 46.6508L44.7503 47.0727L44.9021 46.9452C45.4 46.527 45.7633 46.5693 46.5083 47.1323C46.7083 47.2834 47.0168 47.5012 47.1939 47.6163C47.371 47.7314 47.6281 47.9002 47.7652 47.9915C48.2165 48.2919 48.3185 48.2519 48.1259 47.8499C47.959 47.5016 47.9269 47.3218 47.9436 46.8285C47.979 45.7788 48.5512 45.0415 49.5883 44.7095C50.107 44.5434 50.4036 44.5256 50.9467 44.6281C51.1659 44.6694 51.1857 44.4552 51.0882 43.0993C51.0174 42.1149 51.2122 40.0583 51.4082 39.7207C51.5371 39.4987 51.658 39.4542 52.2269 39.4194C53.1525 39.3627 54.2995 39.2132 55.0109 39.0565C55.1223 39.0319 55.4518 38.9609 55.7432 38.8988C56.6127 38.7133 56.6234 38.6425 55.8334 38.3019C54.8176 37.864 54.0875 37.6829 51.7075 37.2782C48.3375 36.7053 47.0436 36.3574 45.6253 35.6431C44.6742 35.164 43.5453 34.3259 42.8896 33.6121C41.6358 32.2473 41.2187 31.959 40.6488 32.0634ZM56.4912 33.116C54.7798 33.4715 54.1568 35.6278 55.4004 36.891C56.8057 38.3184 59.1855 37.3025 59.1671 35.283C59.1542 33.8693 57.8702 32.8295 56.4912 33.116ZM36.4447 39.3916C36.0066 39.5616 35.9196 40.0317 36.1128 41.1864C36.382 42.7958 37.031 44.019 38.3378 45.3797C38.952 46.0194 38.9176 45.8654 38.867 47.7452L38.8271 49.2299L38.9056 49.3336C39.1612 49.671 40.3013 50.7563 40.8779 51.211C41.015 51.3192 41.1522 51.4281 41.1827 51.4531C41.7152 51.8892 43.451 52.9759 43.6151 52.9759C43.6455 52.9759 43.7835 50.8478 43.8538 49.2958C44.0018 46.0241 43.9613 46.3126 44.306 46.0788C44.846 45.7124 46.2991 44.1514 46.9038 43.2881C47.9063 41.8567 48.0455 40.8236 47.2825 40.4777C46.8058 40.2615 46.6231 40.3988 45.3835 41.9041C44.1263 43.4308 43.3337 43.9561 42.1556 44.0436C40.5892 44.16 39.3027 43.3711 38.2563 41.6525C38.0408 41.2985 37.9381 41.1116 37.574 40.41C37.0022 39.308 36.8993 39.2153 36.4447 39.3916ZM41.4848 39.7301C39.8091 40.1867 39.7331 42.7415 41.3765 43.3696C42.5291 43.81 43.6528 42.9612 43.8378 41.5104C43.978 40.4113 42.6558 39.411 41.4848 39.7301ZM49.8844 45.1445C48.813 45.3616 48.2308 46.5586 48.7138 47.5512C49.1089 48.3631 50.171 48.7548 50.9751 48.385C52.1907 47.8259 52.296 45.8643 51.1397 45.3174C50.7654 45.1404 50.2531 45.0698 49.8844 45.1445ZM45.3891 47.1263C45.0999 47.2437 45.1332 48.0027 45.4509 48.5334C45.7778 49.0793 46.6308 49.9602 47.0159 50.1494C47.3449 50.3111 47.4647 50.4457 47.5618 50.763C47.6219 50.9595 47.625 51.0507 47.625 52.6646C47.625 53.597 47.6323 54.3598 47.6414 54.3598C47.6504 54.3598 47.9484 54.4014 48.3036 54.4523C49.3838 54.6069 50.8663 54.6557 51.5858 54.5604L51.7291 54.5414L51.7494 54.021C51.7606 53.7347 51.7698 53.0108 51.7698 52.4123C51.7698 50.9877 51.7666 50.998 52.2864 50.758C53.2424 50.3166 54.4629 49.3642 54.6977 48.8765C54.9497 48.3528 54.876 47.9539 54.5211 47.9199C54.3566 47.9042 54.3126 47.919 53.6552 48.2111C50.8078 49.4762 48.8782 49.4095 47.1056 47.9847C46.2143 47.2683 45.688 47.0051 45.3891 47.1263Z" fill="#603A0A"/>
</g>
</svg>
