<svg width="100" height="100" viewBox="0 0 100 100" fill="none" xmlns="http://www.w3.org/2000/svg">
<mask id="mask0_478_21041" style="mask-type:alpha" maskUnits="userSpaceOnUse" x="0" y="0" width="100" height="100">
<path d="M0.28125 0H99.7865V99.5054H0.28125V0Z" fill="#D9D9D9"/>
</mask>
<g mask="url(#mask0_478_21041)">
<path d="M25.6625 64.4554L25.6623 64.4551C20.2123 56.4035 17.5352 49.0196 17.5352 42.2886C17.5352 32.0812 20.8118 24.013 27.3237 18.0085L27.3239 18.0084C33.8716 11.9683 41.4322 8.96094 50.0336 8.96094C58.6349 8.96094 66.1956 11.9683 72.743 18.0084L72.7437 18.0085C79.2552 24.013 82.5322 32.0812 82.5322 42.2886C82.5322 49.0196 79.8565 56.4036 74.4092 64.4553C69.0315 72.4022 60.9144 81.0279 50.0336 90.3313C39.1528 81.0286 31.0372 72.4022 25.6625 64.4554Z" fill="#603A0A" stroke="#D0C5A3" stroke-width="1.98293"/>
<path d="M76.3654 41.544C76.3654 26.9662 64.5477 15.1484 49.9698 15.1484C35.3919 15.1484 23.5742 26.9662 23.5742 41.544C23.5742 56.1219 35.3919 67.9397 49.9698 67.9397C64.5477 67.9397 76.3654 56.1219 76.3654 41.544Z" fill="white"/>
<path d="M76.3654 41.544C76.3654 26.9662 64.5477 15.1484 49.9698 15.1484C35.3919 15.1484 23.5742 26.9662 23.5742 41.544C23.5742 56.1219 35.3919 67.9397 49.9698 67.9397C64.5477 67.9397 76.3654 56.1219 76.3654 41.544Z" stroke="#D0C5A3" stroke-width="2.89374"/>
<path fill-rule="evenodd" clip-rule="evenodd" d="M41.3606 26.6866C41.5244 26.3349 41.8549 26.0193 42.207 25.8783C42.9312 25.5883 43.7576 25.9172 44.146 26.65C44.3164 26.9715 44.3771 32.6051 44.2153 33.0963C43.7932 34.3792 42.024 34.5104 41.3942 33.3056L41.2396 33.0099V29.9782C41.2396 27.0122 41.2423 26.9408 41.3606 26.6866ZM56.1244 26.6826C56.2861 26.3298 56.6123 26.021 56.9695 25.8823C57.7631 25.5743 58.6502 25.9766 58.948 26.7796C59.1032 27.1983 59.1309 32.5629 58.9804 33.0742C58.5917 34.395 56.7812 34.5195 56.1374 33.2698L56.0035 33.0099V29.9782C56.0035 27.0136 56.0061 26.9406 56.1244 26.6826ZM44.7666 34.5971C45.4229 33.9397 45.5652 33.4801 45.6017 31.8983L45.63 30.6712H50.1368H54.6436L54.6734 31.8983C54.6985 32.9247 54.7219 33.1778 54.817 33.4458C55.5656 35.5555 58.009 36.1456 59.5362 34.5856C60.177 33.9309 60.33 33.4628 60.3668 32.0427C60.3857 31.3152 60.3847 31.0322 60.4837 30.9904C60.5523 30.9615 60.6688 31.0485 60.8729 31.1837C61.799 31.7969 62.2662 32.5798 62.3874 33.7213C62.4266 34.0903 62.4409 37.3931 62.4297 43.4334L62.4125 52.5863L62.2528 53.0483C61.8866 54.1076 61.1705 54.8188 60.095 55.1914C59.7913 55.2966 59.4419 55.3005 50.1952 55.3005C40.9485 55.3005 40.5991 55.2966 40.2954 55.1914C39.2199 54.8188 38.5038 54.1076 38.1376 53.0483L37.9779 52.5863L37.9608 43.4334C37.9495 37.3931 37.9638 34.0903 38.003 33.7213C38.1244 32.5774 38.5909 31.7975 39.5229 31.1799L39.8663 30.9525L39.9 32.0109C39.9281 32.8926 39.9552 33.1344 40.0624 33.4592C40.7444 35.5274 43.2358 36.13 44.7666 34.5971ZM59.7516 52.3842V45.2813V38.1783H50.1952H40.6388V45.2813V52.3842H50.1952H59.7516ZM41.8977 51.056V45.2813V39.5065H50.1952H58.4927V45.2813V51.056H50.1952H41.8977ZM51.0835 47.7752V42.3995H50.1653L48.8413 43.2578V44.1503L50.0872 43.347H50.1184V47.7752H51.0835Z" fill="#603A0A"/>
</g>
</svg>
