<svg width="46" height="46" viewBox="0 0 46 46" fill="none" xmlns="http://www.w3.org/2000/svg">
<path fill-rule="evenodd" clip-rule="evenodd" d="M22.1305 2.69483C19.9954 9.20907 14.8345 11.3283 9.04078 8.07C8.03812 7.50616 7.17505 7.0876 7.1229 7.13998C7.07075 7.19213 7.4868 8.14811 8.04745 9.2644C11.096 15.3348 9.0952 19.8726 2.33184 22.2273C1.29889 22.5871 0.453353 22.9364 0.453125 23.0036C0.45267 23.071 1.46239 23.457 2.69665 23.8617C9.0089 25.9308 11.1468 30.71 8.36057 36.5233C7.76599 37.7641 7.31737 38.8171 7.36383 38.8636C7.41028 38.9103 8.53569 38.4195 9.86468 37.7735C12.8902 36.3024 14.8948 36.1478 17.2085 37.2069C19.9542 38.4639 20.9735 39.7093 22.3113 43.4422C22.7971 44.7978 23.2411 45.7297 23.311 45.5397C23.38 45.3519 23.7446 44.341 24.1213 43.2935C25.8233 38.5589 28.0741 36.7724 32.3368 36.7724C34.4574 36.7724 34.5512 36.7956 36.7526 37.8598C37.9898 38.458 39.0385 38.9107 39.0831 38.8661C39.1277 38.8217 38.6349 37.7175 37.9882 36.4124C34.9702 30.3226 37.0434 25.8428 43.8906 23.6597C44.7987 23.3702 45.5416 23.0728 45.5416 22.9988C45.5416 22.9248 44.5316 22.5334 43.2973 22.1287C36.9867 20.0603 34.8372 15.2549 37.6339 9.46799C38.2321 8.23054 38.6819 7.17846 38.6336 7.12996C38.5851 7.08168 37.4583 7.57083 36.1293 8.21688C30.4032 11.0008 25.6907 8.86521 23.7742 2.61763C23.4094 1.42846 23.0557 0.454493 22.9886 0.453126C22.9212 0.45176 22.5352 1.46057 22.1305 2.69483ZM25.32 11.8607C34.1183 13.6954 37.3583 24.6264 30.9876 30.9821C21.9486 39.9995 7.36292 29.5707 12.81 17.9853C14.9349 13.4666 20.3372 10.8216 25.32 11.8607Z" fill="#603A0A"/>
</svg>
