<svg width="46" height="46" viewBox="0 0 46 46" fill="none" xmlns="http://www.w3.org/2000/svg">
<path fill-rule="evenodd" clip-rule="evenodd" d="M25.5599 4.68554C25.2664 4.84628 25.21 5.26729 25.3626 6.15946C25.5745 7.39853 26.2344 8.60315 27.2314 9.57045C27.5988 9.92694 27.5772 9.74627 27.5772 12.4526V14.8693L27.8078 14.9298C29.692 15.424 31.089 15.8415 31.3976 16.0026C31.575 16.0952 31.5828 16.0744 31.4929 15.7482C31.4193 15.4808 31.3962 15.4515 31.0326 15.163C29.0617 13.5995 29.2029 10.5458 31.3105 9.15278C31.7985 8.83027 32.6313 8.56958 33.1738 8.56958C33.4346 8.56958 33.5128 8.49962 34.0146 7.81652C34.8469 6.68363 34.9547 5.69529 34.2669 5.50364C33.9198 5.4069 33.7332 5.55322 32.8814 6.58992C31.75 7.96706 31.0803 8.39031 30.0217 8.39702C28.5401 8.40637 27.6457 7.63785 26.4438 5.32269C26.0715 4.60542 25.9137 4.49174 25.5599 4.68554ZM29.7783 4.89269C28.1662 5.23126 28.2965 7.72383 29.9377 7.94356C30.9119 8.07399 31.8275 6.84461 31.4934 5.85487C31.2791 5.22014 30.4456 4.75252 29.7783 4.89269ZM16.9334 5.2126C15.8702 5.56755 15.498 6.81561 16.1783 7.74436C16.5245 8.21691 17.422 8.4688 18.0231 8.26206C19.0574 7.90636 19.3716 6.24833 18.544 5.51309C18.1695 5.18034 17.4385 5.04399 16.9334 5.2126ZM21.8579 6.02897C20.0883 6.44017 18.7337 8.04229 18.7258 9.73338C18.7148 12.0999 20.9055 13.8214 23.1632 13.2203C24.7847 12.7886 25.9547 10.9794 25.8319 9.09338C25.7014 7.08817 23.7559 5.58794 21.8579 6.02897ZM42.2506 6.86881C42.1526 6.90405 42.0101 6.99218 41.934 7.06461C41.7571 7.23294 41.1031 8.58252 40.6069 9.80321C39.4034 12.7641 38.756 13.8586 37.4764 15.0962C35.4825 17.0245 31.5815 18.4622 27.2086 18.8803C25.8333 19.0118 25.5791 19.1316 25.3471 19.7573C24.9659 20.7857 25.2143 21.4461 26.0754 21.6938C27.4668 22.0941 28.0567 22.1807 29.4515 22.1893C31.2642 22.2005 31.4729 22.2807 31.6205 23.0222C31.7464 23.6553 31.473 26.5574 31.1992 27.4929C31.1767 27.5697 31.103 27.8211 31.0354 28.0515C30.9678 28.2819 30.7868 28.7267 30.6333 29.0398C30.2618 29.7979 30.2531 29.9012 30.5005 30.6245C30.7629 31.392 30.745 31.7733 30.4136 32.4741C29.9802 33.3908 29.3207 34.0247 27.7077 35.0752C27.2467 35.3753 26.8453 35.6505 26.8156 35.6866C26.7096 35.8155 28.197 36.4888 29.2685 36.7969C33.6469 38.0558 37.6598 36.4083 39.4581 32.6136C40.3371 30.7587 40.4697 28.4912 39.9765 23.7455C39.8782 22.8002 39.8646 20.8283 39.9514 20.1144C40.1172 18.7509 40.1791 18.5861 41.0432 17.209C42.663 14.6275 43.7035 11.2268 43.7008 8.52303C43.6994 7.19882 43.1321 6.55166 42.2506 6.86881ZM12.8549 7.04203C12.5447 7.19486 12.6279 7.95491 13.0144 8.49976C13.3383 8.95643 14.0983 9.73235 14.3399 9.85302C14.8102 10.088 14.9181 10.262 14.9585 10.8506L14.9856 11.2463L15.4197 11.5347C16.3595 12.1591 18.489 13.1782 18.8537 13.1782C18.8698 13.1782 18.883 12.9187 18.883 12.6016V12.0249L18.6738 11.628C18.2854 10.8911 18.1129 9.77034 18.2791 9.06382C18.3461 8.77944 18.3612 8.78921 17.9553 8.85336C16.737 9.04585 15.6429 8.7186 14.4321 7.79948C13.5676 7.14324 13.1026 6.91988 12.8549 7.04203ZM9.15783 7.45891C8.14382 7.64469 7.73337 9.06988 8.34274 10.2892C9.11632 11.8371 10.5978 13.5563 13.0115 15.7069C14.7613 17.2661 15.0631 17.648 15.3352 18.648C15.4942 19.2325 15.4851 20.1921 15.3136 20.9058C15.1314 21.6644 15.1108 21.8839 15.2219 21.8818C15.4295 21.8778 15.8491 21.4937 16.3775 20.824C17.7889 19.0349 18.6836 18.7089 19.6192 19.6429C20.7691 20.7908 20.3167 22.6552 18.2698 25.2026C17.0641 26.7031 16.8327 26.9525 15.8448 27.8165C15.2818 28.3088 15.3058 28.258 15.2624 29.0482L15.2282 29.6725L15.4528 29.4838C16.1897 28.865 16.7273 28.9276 17.8299 29.7607C18.1259 29.9844 18.5825 30.3067 18.8446 30.4771C19.1067 30.6475 19.4872 30.8973 19.6901 31.0324C20.3581 31.477 20.5091 31.4177 20.224 30.8228C19.977 30.3073 19.9295 30.0413 19.9542 29.3112C20.0066 27.7576 20.8535 26.6664 22.3883 26.175C23.1561 25.9292 23.595 25.9029 24.3988 26.0545C24.7231 26.1157 24.7525 25.7988 24.6081 23.792C24.5033 22.335 24.7917 19.2913 25.0818 18.7916C25.2726 18.463 25.4515 18.3972 26.2935 18.3457C27.6633 18.2618 29.3609 18.0405 30.4137 17.8086C30.5786 17.7722 31.0664 17.6672 31.4976 17.5752C32.7845 17.3006 32.8003 17.1959 31.6311 16.6918C30.1278 16.0437 29.0472 15.7757 25.5247 15.1768C20.5371 14.3288 18.6221 13.814 16.5232 12.7567C15.1155 12.0477 13.4447 10.8074 12.4742 9.75097C10.6186 7.731 10.0013 7.30435 9.15783 7.45891ZM32.6046 9.01667C30.0717 9.54275 29.1497 12.7341 30.9903 14.6037C33.0701 16.7163 36.5923 15.2127 36.565 12.2239C36.5458 10.1316 34.6456 8.59267 32.6046 9.01667ZM2.93584 18.3046C2.28736 18.5562 2.15872 19.2519 2.44459 20.9609C2.843 23.3428 3.8036 25.1532 5.73754 27.167C6.64667 28.1136 6.59565 27.8858 6.52084 30.6679L6.46171 32.8653L6.57799 33.0188C6.9562 33.518 8.6436 35.1242 9.49697 35.7973C9.69991 35.9574 9.9029 36.1186 9.94805 36.1556C10.7362 36.801 13.3051 38.4093 13.5479 38.4093C13.593 38.4093 13.7973 35.2598 13.9013 32.9627C14.1203 28.1207 14.0603 28.5477 14.5705 28.2016C15.3698 27.6593 17.5203 25.3491 18.4153 24.0713C19.8989 21.9528 20.105 20.4239 18.9757 19.9119C18.2702 19.592 17.9998 19.7952 16.1652 22.023C14.3046 24.2825 13.1316 25.0601 11.388 25.1896C9.06973 25.3618 7.16569 24.1942 5.61692 21.6506C5.29803 21.1268 5.14606 20.8501 4.60725 19.8118C3.76089 18.1809 3.60869 18.0437 2.93584 18.3046ZM10.3951 18.8055C7.91509 19.4814 7.80269 23.2625 10.2349 24.1919C11.9407 24.8438 13.6039 23.5876 13.8776 21.4404C14.0851 19.8137 12.1282 18.3332 10.3951 18.8055ZM22.8265 26.8189C21.2409 27.1401 20.3792 28.9117 21.094 30.3808C21.6788 31.5825 23.2508 32.1621 24.4408 31.6148C26.2399 30.7873 26.3957 27.8842 24.6844 27.0748C24.1304 26.8128 23.3722 26.7083 22.8265 26.8189ZM16.1735 29.752C15.7455 29.9257 15.7948 31.0491 16.265 31.8344C16.7488 32.6424 18.0112 33.946 18.5811 34.2261C19.0681 34.4654 19.2454 34.6647 19.3891 35.1342C19.4781 35.4251 19.4826 35.5601 19.4826 37.9486C19.4826 39.3285 19.4935 40.4575 19.5069 40.4575C19.5202 40.4575 19.9613 40.5191 20.487 40.5944C22.0857 40.8232 24.2798 40.8955 25.3447 40.7545L25.5568 40.7263L25.5868 39.956C25.6034 39.5324 25.6169 38.461 25.6169 37.5752C25.6169 35.4668 25.6122 35.482 26.3815 35.1269C27.7963 34.4736 29.6028 33.064 29.9502 32.3422C30.3232 31.5672 30.2142 30.9768 29.6888 30.9265C29.4454 30.9032 29.3803 30.9251 28.4074 31.3574C24.1932 33.2298 21.3374 33.1311 18.7139 31.0223C17.3948 29.962 16.6159 29.5725 16.1735 29.752Z" fill="#603A0A"/>
</svg>
