<svg width="46" height="46" viewBox="0 0 46 46" fill="none" xmlns="http://www.w3.org/2000/svg">
<path fill-rule="evenodd" clip-rule="evenodd" d="M12.8747 0.528692C11.744 1.04152 9.21652 3.36976 8.53403 4.52682C7.28976 6.63644 7.99456 9.77014 10.1486 11.7067C10.7714 12.2667 11.3573 12.7248 11.4509 12.7248C11.5445 12.7248 11.6796 13.4235 11.7513 14.2775C11.8228 15.1314 12.0856 16.4354 12.3354 17.175C12.5852 17.9149 12.7455 18.5912 12.6918 18.6782C12.6378 18.7652 10.2073 20.1245 7.29044 21.6985C0.0477155 25.6073 -0.669611 26.4515 0.938112 29.1742C1.94123 30.8728 2.98807 30.8131 8.09544 28.7654C10.1071 27.959 11.8041 27.2991 11.867 27.2991C11.9296 27.2991 11.9207 28.0164 11.8472 28.8932L11.7135 30.4872H13.2581C14.1078 30.4872 15.3058 30.6398 15.9207 30.8263C17.3642 31.2642 17.302 31.2767 17.4535 30.5191C18.0519 27.5273 23.2114 26.0241 26.4417 27.9005C27.4077 28.4614 28.7663 30.052 28.7663 30.6218C28.7663 31.1185 29.0992 31.1626 30.2438 30.8183C30.8488 30.6361 32.0387 30.4872 32.8883 30.4872H34.4329L34.2961 28.8549C34.1706 27.3604 34.1929 27.2356 34.56 27.3763C34.7804 27.461 36.4107 28.1114 38.1829 28.8217C43.0217 30.7614 44.8069 30.6423 45.5693 28.3286C46.3107 26.0792 45.5167 25.2931 38.8938 21.719C35.9562 20.1336 33.5086 18.7652 33.4546 18.6782C33.4009 18.5912 33.5612 17.9149 33.811 17.175C34.0608 16.4354 34.3236 15.1314 34.3951 14.2775C34.4669 13.4235 34.5985 12.7248 34.688 12.7248C35.0763 12.7248 37.0226 10.7708 37.43 9.9719C39.1124 6.67425 37.9289 3.55217 34.0205 0.977989C32.1357 -0.263328 29.3379 0.120841 27.2073 1.91347C26.5084 2.50145 26.4745 2.50624 24.7859 2.25028C23.5038 2.05603 22.6426 2.05603 21.3605 2.25028C19.672 2.50624 19.638 2.50145 18.9391 1.91347C17.1677 0.422801 14.4671 -0.193644 12.8747 0.528692ZM15.5568 4.29318C15.8382 4.47126 15.7526 4.65662 15.0585 5.37144C14.5976 5.84625 13.8607 6.83502 13.4207 7.56851L12.621 8.90251L12.1548 8.13782C11.4644 7.00513 11.5664 6.59887 12.8749 5.27398C14.0713 4.06249 14.7812 3.80289 15.5568 4.29318ZM33.2415 5.28924C34.5848 6.63235 34.6818 7.00558 33.9852 8.14807L33.5129 8.92278L32.8728 7.80648C32.5208 7.19254 31.7948 6.19421 31.2592 5.58801C30.484 4.71059 30.3512 4.44439 30.6077 4.28225C31.3441 3.81587 32.0309 4.07843 33.2415 5.28924ZM24.9041 9.21905C32.3149 11.4198 31.1034 22.0494 23.3941 22.4698C15.417 22.9047 13.4968 11.5794 21.1494 9.23112C22.6246 8.7784 23.4118 8.7759 24.9041 9.21905ZM22.2382 11.3831C19.2395 12.2414 19.9357 16.8238 23.0646 16.8238C26.0534 16.8238 26.9702 12.2769 24.1449 11.4664C23.1741 11.1879 22.9532 11.1784 22.2382 11.3831ZM11.6322 32.8478C6.49455 34.76 6.6034 42.736 11.8009 45.2004C17.3193 47.8167 21.6577 40.4034 17.7352 35.0599C16.3151 33.1256 13.5647 32.1284 11.6322 32.8478ZM30.6423 33.2579C27.522 34.7709 25.9355 39.2265 27.3715 42.4427C30.0661 48.4782 38.1628 45.8391 38.2008 38.913C38.2259 34.3321 34.3724 31.4489 30.6423 33.2579ZM21.0658 41.2471C20.9388 41.9046 20.7653 42.664 20.6803 42.9345C20.5403 43.3804 20.6448 43.451 21.7996 43.6908C23.6368 44.0722 25.6852 43.6512 25.4791 42.9345C25.4012 42.664 25.2238 41.9046 25.0847 41.2471L24.8322 40.0516H23.0643H21.2968L21.0658 41.2471Z" fill="#603A0A"/>
</svg>
