<svg width="46" height="46" viewBox="0 0 46 46" fill="none" xmlns="http://www.w3.org/2000/svg">
<path fill-rule="evenodd" clip-rule="evenodd" d="M20.921 2.10528L20.855 3.98399L18.9763 4.05003L17.0976 4.1163V5.91963V7.72297L18.9763 7.78924L20.855 7.85528L20.919 10.7913L20.983 13.7271L17.1046 17.472L13.2263 21.2169V24.1172V27.0172L8.38718 29.6836C5.72579 31.1502 3.40529 32.4389 3.23086 32.5473C2.96556 32.7119 3.97506 35.0424 4.70058 35.9406C4.73406 35.982 4.97521 35.9016 5.23641 35.7618C5.71144 35.5077 5.71144 35.5079 5.71144 40.6394V45.7711H11.3754H17.0391L17.1445 44.0063C17.6095 36.2179 27.9718 36.2179 28.4368 44.0063L28.5422 45.7711H34.2059H39.8699V40.6474C39.8699 35.7156 39.9323 35.2216 40.4863 35.7757C40.732 36.0214 42.5859 33.4907 42.5977 32.8936C42.6005 32.7622 40.3007 31.1739 37.4874 29.3639L32.3721 26.0731L32.3637 23.6504L32.355 21.2274L28.4769 17.459L24.5985 13.6907L24.6625 10.7731L24.7263 7.85528L26.605 7.78924L28.4837 7.72297V5.91963V4.1163L26.605 4.05003L24.7263 3.98399L24.6603 2.10528L24.594 0.226562H22.7907H20.9873L20.921 2.10528ZM25.0818 23.5502C26.2334 24.3123 26.7357 25.4683 26.6187 27.0862C26.2668 31.9513 19.3145 31.9513 18.9626 27.0862C18.714 23.6483 22.1922 21.6382 25.0818 23.5502Z" fill="#603A0A"/>
</svg>
