<svg width="280" height="73" fill="none" xmlns="http://www.w3.org/2000/svg"><g clip-path="url(#a)" fill="#A48659"><path d="M266.992 48.54c0 11.75-56.857 21.277-126.992 21.277-70.136 0-126.992-9.526-126.992-21.278h253.984Z"/><path d="M267.927 53.858c.049.123-.067.248-.195.212l-5.07-1.405a.158.158 0 0 1-.077-.26l3.157-3.407a.163.163 0 0 1 .271.049l1.914 4.812Z"/><path d="M264.306 56.758a.162.162 0 0 1-.245.152l-4.503-2.682a.158.158 0 0 1-.002-.272l3.971-2.455a.163.163 0 0 1 .249.12l.53 5.137Z"/><path d="M260.552 58.74c-.004.132-.16.202-.264.12l-4.107-3.236a.158.158 0 0 1 .034-.27l4.265-1.925a.16.16 0 0 1 .229.15l-.157 5.161Z"/><path d="M256.82 60.266a.164.164 0 0 1-.273.1l-3.859-3.515a.159.159 0 0 1 .054-.266l4.393-1.621a.163.163 0 0 1 .22.165l-.535 5.137Z"/><path d="M253.038 61.545a.164.164 0 0 1-.278.087l-3.667-3.708a.158.158 0 0 1 .068-.263l4.473-1.395c.116-.036.23.059.21.176l-.806 5.103Z"/><path d="M249.271 62.652c-.024.13-.19.175-.279.077l-3.532-3.832a.158.158 0 0 1 .077-.26l4.521-1.24a.162.162 0 0 1 .204.183l-.991 5.072Z"/><path d="M245.473 63.626c-.029.128-.195.169-.283.069l-3.413-3.933a.159.159 0 0 1 .085-.258l4.556-1.108a.161.161 0 0 1 .198.189l-1.143 5.04Z"/><path d="M241.688 64.501a.165.165 0 0 1-.285.063l-3.323-4.007a.158.158 0 0 1 .091-.256l4.58-1.008a.161.161 0 0 1 .194.194l-1.257 5.014Z"/><path d="M237.882 65.3a.164.164 0 0 1-.286.056l-3.241-4.07a.158.158 0 0 1 .096-.255l4.6-.918a.16.16 0 0 1 .189.197l-1.358 4.99Z"/><path d="M234.074 66.021a.164.164 0 0 1-.286.053l-3.173-4.123a.158.158 0 0 1 .1-.253l4.616-.844a.16.16 0 0 1 .185.2l-1.442 4.967Z"/><path d="M230.259 66.69a.164.164 0 0 1-.287.047l-3.108-4.169a.158.158 0 0 1 .104-.251l4.627-.776c.119-.02.218.09.184.204l-1.52 4.944Z"/><path d="M226.442 67.305a.164.164 0 0 1-.288.044L223.1 63.14a.159.159 0 0 1 .108-.25l4.637-.717a.161.161 0 0 1 .181.205l-1.584 4.926Z"/><path d="M222.624 67.866c-.041.125-.212.149-.288.04l-3.002-4.243a.159.159 0 0 1 .109-.248l4.648-.663a.16.16 0 0 1 .177.207l-1.644 4.907Z"/><path d="M218.797 68.396c-.042.124-.213.147-.288.038l-2.954-4.276a.159.159 0 0 1 .114-.248l4.653-.612c.119-.015.215.098.176.21l-1.701 4.888Z"/><path d="M214.973 68.873a.164.164 0 0 1-.289.035l-2.911-4.303a.16.16 0 0 1 .116-.247l4.658-.568a.16.16 0 0 1 .173.211l-1.747 4.872Z"/><path d="M211.148 69.327a.165.165 0 0 1-.29.033l-2.871-4.33a.16.16 0 0 1 .119-.245l4.663-.526a.16.16 0 0 1 .171.213l-1.792 4.855Z"/><path d="M207.316 69.743a.164.164 0 0 1-.29.03l-2.832-4.355c-.065-.1 0-.231.12-.244l4.668-.486a.16.16 0 0 1 .169.215l-1.835 4.84Z"/><path d="M203.488 70.12a.164.164 0 0 1-.29.029l-2.798-4.376a.159.159 0 0 1 .122-.243l4.671-.451a.16.16 0 0 1 .169.215l-1.874 4.827Z"/><path d="M199.654 70.475a.163.163 0 0 1-.289.026l-2.766-4.395a.159.159 0 0 1 .123-.243l4.675-.417c.12-.01.21.106.168.217l-1.911 4.812Z"/><path d="M195.817 70.805a.165.165 0 0 1-.291.024l-2.728-4.417a.158.158 0 0 1 .125-.241l4.678-.381c.12-.01.21.107.164.217l-1.948 4.798Z"/><path d="M191.984 71.107a.164.164 0 0 1-.29.022l-2.702-4.434a.159.159 0 0 1 .127-.24l4.681-.353a.16.16 0 0 1 .163.219l-1.979 4.786Z"/><path d="M188.148 71.376a.163.163 0 0 1-.289.02l-2.672-4.451a.159.159 0 0 1 .128-.24l4.685-.322a.16.16 0 0 1 .161.22l-2.013 4.773Z"/><path d="M184.309 71.63a.164.164 0 0 1-.291.017l-2.641-4.468a.16.16 0 0 1 .131-.239l4.686-.291a.16.16 0 0 1 .159.22l-2.044 4.76Z"/><path d="M180.474 71.853a.164.164 0 0 1-.291.016l-2.614-4.483a.159.159 0 0 1 .131-.238l4.686-.265a.16.16 0 0 1 .16.222l-2.072 4.748Z"/><path d="M176.632 72.06a.164.164 0 0 1-.291.014l-2.585-4.5a.159.159 0 0 1 .133-.237l4.688-.235a.16.16 0 0 1 .158.223l-2.103 4.734Z"/><path d="M172.797 72.244a.164.164 0 0 1-.291.013l-2.559-4.514a.159.159 0 0 1 .135-.236l4.689-.21a.16.16 0 0 1 .156.224l-2.13 4.723Z"/><path d="M168.956 72.405a.164.164 0 0 1-.291.011l-2.535-4.527a.16.16 0 0 1 .136-.236l4.691-.184a.16.16 0 0 1 .155.224l-2.156 4.712Z"/><path d="M165.114 72.541a.164.164 0 0 1-.291.01l-2.506-4.542a.159.159 0 0 1 .137-.236l4.693-.156a.16.16 0 0 1 .153.226l-2.186 4.698Z"/><path d="M161.272 72.656a.164.164 0 0 1-.291.008l-2.481-4.556a.16.16 0 0 1 .139-.234l4.692-.132a.16.16 0 0 1 .153.227l-2.212 4.687Z"/><path d="M157.43 72.754a.164.164 0 0 1-.291.006l-2.456-4.568a.16.16 0 0 1 .14-.234l4.693-.106a.16.16 0 0 1 .152.227l-2.238 4.675Z"/><path d="M153.592 72.838a.164.164 0 0 1-.291.005l-2.435-4.58a.16.16 0 0 1 .141-.233l4.694-.085a.16.16 0 0 1 .15.228l-2.259 4.665Z"/><path d="M149.75 72.89a.164.164 0 0 1-.291.003l-2.41-4.592a.16.16 0 0 1 .143-.232l4.694-.061a.16.16 0 0 1 .149.228l-2.285 4.654Z"/><path d="M145.908 72.933a.164.164 0 0 1-.291.002l-2.384-4.605a.16.16 0 0 1 .143-.231l4.695-.037a.16.16 0 0 1 .147.23l-2.31 4.64Z"/><path d="M142.067 72.953a.164.164 0 0 1-.291 0l-2.36-4.616a.16.16 0 0 1 .145-.231l4.694-.012c.121 0 .2.124.147.23l-2.335 4.629Z"/><path d="M137.725 72.954a.164.164 0 0 1-.291-.001l-2.335-4.63a.16.16 0 0 1 .146-.23l4.695.013a.16.16 0 0 1 .145.23l-2.36 4.618Z"/><path d="M133.883 72.927a.164.164 0 0 1-.291-.002l-2.31-4.641a.16.16 0 0 1 .148-.23l4.694.037a.16.16 0 0 1 .144.232l-2.385 4.604Z"/><path d="M130.042 72.893a.165.165 0 0 1-.292-.004l-2.284-4.653a.159.159 0 0 1 .148-.228l4.695.06a.16.16 0 0 1 .142.233l-2.409 4.592Z"/><path d="M126.2 72.828a.165.165 0 0 1-.292-.005l-2.259-4.665a.16.16 0 0 1 .15-.228l4.694.085a.16.16 0 0 1 .141.233l-2.434 4.58Z"/><path d="M122.36 72.753a.164.164 0 0 1-.291-.007l-2.237-4.675a.16.16 0 0 1 .151-.227l4.694.106a.16.16 0 0 1 .14.234l-2.457 4.569Z"/><path d="M118.518 72.656a.164.164 0 0 1-.291-.008l-2.212-4.687a.16.16 0 0 1 .152-.227l4.693.132a.16.16 0 0 1 .139.234l-2.481 4.556Z"/><path d="M114.676 72.537a.164.164 0 0 1-.291-.01l-2.183-4.7a.16.16 0 0 1 .154-.225l4.692.16a.159.159 0 0 1 .137.234l-2.509 4.541Z"/><path d="M110.837 72.393a.164.164 0 0 1-.291-.011l-2.157-4.712a.16.16 0 0 1 .155-.225l4.691.185a.16.16 0 0 1 .136.236l-2.534 4.527Z"/><path d="M106.997 72.234a.164.164 0 0 1-.291-.013l-2.129-4.724a.16.16 0 0 1 .156-.223l4.69.21a.16.16 0 0 1 .134.236l-2.56 4.514Z"/><path d="M103.158 72.05a.164.164 0 0 1-.291-.014l-2.103-4.735a.16.16 0 0 1 .157-.223l4.689.236a.16.16 0 0 1 .133.237l-2.585 4.5Z"/><path d="M99.317 71.846a.164.164 0 0 1-.29-.017l-2.072-4.747a.16.16 0 0 1 .159-.222l4.686.264a.16.16 0 0 1 .132.239l-2.615 4.483Z"/><path d="M95.48 71.616a.164.164 0 0 1-.29-.018l-2.044-4.76a.16.16 0 0 1 .16-.22l4.685.29a.16.16 0 0 1 .13.24l-2.64 4.468Z"/><path d="M91.643 71.364a.164.164 0 0 1-.29-.02l-2.012-4.772a.16.16 0 0 1 .161-.22l4.684.322c.12.008.19.137.128.24l-2.67 4.45Z"/><path d="M87.805 71.09a.164.164 0 0 1-.29-.022l-1.98-4.786a.16.16 0 0 1 .164-.219l4.68.353c.12.009.19.139.128.24l-2.702 4.434Z"/><path d="M83.97 70.791a.164.164 0 0 1-.29-.023l-1.946-4.8a.16.16 0 0 1 .165-.217l4.678.384c.12.01.188.14.126.241l-2.733 4.415Z"/><path d="M80.137 70.462a.164.164 0 0 1-.29-.026l-1.91-4.813a.16.16 0 0 1 .166-.216l4.676.417c.12.01.187.142.123.243l-2.765 4.395Z"/><path d="M76.307 70.102a.164.164 0 0 1-.29-.028l-1.873-4.827a.16.16 0 0 1 .167-.215l4.673.45a.16.16 0 0 1 .122.244l-2.799 4.376Z"/><path d="M72.476 69.72a.164.164 0 0 1-.29-.03l-1.832-4.842a.16.16 0 0 1 .17-.214l4.668.49c.12.012.185.144.12.244l-2.836 4.352Z"/><path d="M68.647 69.305a.164.164 0 0 1-.29-.032l-1.792-4.856a.16.16 0 0 1 .171-.213l4.664.526c.12.014.184.146.118.245l-2.871 4.33Z"/><path d="M64.823 68.854a.164.164 0 0 1-.289-.036l-1.747-4.871a.16.16 0 0 1 .173-.211l4.66.567a.16.16 0 0 1 .114.247l-2.91 4.304Z"/><path d="M60.992 68.365a.164.164 0 0 1-.288-.038l-1.695-4.89a.16.16 0 0 1 .176-.209l4.652.616c.12.016.18.15.113.248l-2.958 4.273Z"/><path d="M57.174 67.836a.164.164 0 0 1-.288-.04l-1.643-4.907a.16.16 0 0 1 .177-.208l4.646.663c.12.017.18.152.11.249l-3.002 4.243Z"/><path d="M53.355 67.271a.164.164 0 0 1-.287-.044L51.484 62.3a.16.16 0 0 1 .18-.205l4.638.717c.12.018.177.153.107.25l-3.053 4.208Z"/><path d="M49.54 66.66a.164.164 0 0 1-.287-.049l-1.52-4.945a.16.16 0 0 1 .184-.203l4.627.776c.12.02.175.155.104.25l-3.108 4.17Z"/><path d="M45.727 65.988a.164.164 0 0 1-.286-.052L44 60.969a.16.16 0 0 1 .186-.2l4.615.843a.159.159 0 0 1 .1.253l-3.172 4.123Z"/><path d="M41.923 65.263a.164.164 0 0 1-.285-.057l-1.359-4.99a.16.16 0 0 1 .19-.197l4.6.919c.118.023.17.16.096.254l-3.242 4.07Z"/><path d="M38.12 64.463a.164.164 0 0 1-.284-.063l-1.257-5.015a.16.16 0 0 1 .194-.194l4.58 1.008a.158.158 0 0 1 .09.257l-3.323 4.007Z"/><path d="M34.322 63.58a.164.164 0 0 1-.283-.07l-1.133-5.043a.161.161 0 0 1 .198-.189l4.555 1.117a.158.158 0 0 1 .084.258l-3.421 3.927Z"/><path d="M30.531 62.59a.163.163 0 0 1-.28-.077l-.979-5.074a.161.161 0 0 1 .205-.183l4.518 1.25a.158.158 0 0 1 .076.26l-3.54 3.825Z"/><path d="M26.75 61.48c-.094.094-.257.042-.277-.088l-.78-5.107a.162.162 0 0 1 .211-.175l4.466 1.417a.16.16 0 0 1 .066.264L26.75 61.48Z"/><path d="M22.994 60.197a.163.163 0 0 1-.272-.102l-.518-5.139a.162.162 0 0 1 .22-.164l4.388 1.635a.158.158 0 0 1 .052.266l-3.87 3.504Z"/><path d="M19.242 58.643c-.106.081-.26.01-.264-.122l-.11-5.163a.162.162 0 0 1 .231-.147l4.246 1.963c.11.05.127.196.032.269l-4.135 3.2Z"/><path d="M15.507 56.646c-.116.067-.26-.025-.244-.156l.603-5.13a.163.163 0 0 1 .25-.115l3.936 2.509a.158.158 0 0 1-.006.27l-4.54 2.622Z"/><path d="M11.84 53.6c-.131.028-.24-.102-.185-.222l2.169-4.706a.164.164 0 0 1 .274-.035l2.97 3.564a.158.158 0 0 1-.09.257l-5.139 1.141Z"/><path d="M9.849 47.763a.158.158 0 0 1 .039-.283l4.989-1.659a.162.162 0 0 1 .213.172l-.63 4.56a.163.163 0 0 1-.253.111l-4.358-2.9Z"/><path d="M12.532 42.732c-.042-.125.081-.243.208-.2l4.975 1.699a.158.158 0 0 1 .06.265l-3.358 3.216a.164.164 0 0 1-.268-.065l-1.617-4.915Z"/><path d="M16.07 40.078c-.01-.131.138-.217.251-.146l4.429 2.797a.158.158 0 0 1-.005.27l-4.035 2.354a.163.163 0 0 1-.245-.126l-.394-5.15Z"/><path d="M19.91 38.13c.005-.132.162-.2.265-.117l4.063 3.287a.158.158 0 0 1-.037.269l-4.289 1.872a.162.162 0 0 1-.228-.152l.225-5.16Z"/><path d="M270.246 29.172H9.758v24.386h260.488V29.172ZM8.132 26.297H1.79c-.898 0-1.626.713-1.626 1.594v25.98c0 .88.728 1.594 1.626 1.594h6.342c.898 0 1.626-.714 1.626-1.594v-25.98c0-.88-.728-1.594-1.626-1.594Z"/><path d="M278.21 26.297h-6.342c-.897 0-1.626.713-1.626 1.594v25.98c0 .88.729 1.594 1.626 1.594h6.342c.897 0 1.626-.714 1.626-1.594v-25.98c0-.88-.729-1.594-1.626-1.594ZM4.96 0v28.77l-1.627-1.594C1.552 20.225.783 15.873 0 6.933 0 2.55.813 0 4.96 0Zm0 0v28.77l1.627-1.594c1.782-6.951 2.55-11.303 3.333-20.243C9.92 2.55 9.107 0 4.96 0Z"/><path d="M275.041 0v28.77l-1.626-1.594c-1.782-6.951-2.551-11.303-3.333-20.243 0-4.383.813-6.933 4.959-6.933Z"/><path d="M275.039 0v28.77l1.626-1.594c1.782-6.951 2.551-11.303 3.333-20.243 0-4.383-.813-6.933-4.959-6.933Z"/></g><defs><clipPath id="a"><path fill="#fff" d="M0 0h280v73H0z"/></clipPath></defs></svg>