<svg width="148" height="148" fill="none" xmlns="http://www.w3.org/2000/svg"><mask id="a" style="mask-type:alpha" maskUnits="userSpaceOnUse" x="0" y="0" width="148" height="148"><path d="M.414 0h147.268v147.268H.414V0Z" fill="#D9D9D9"/></mask><g mask="url(#a)"><path d="M37.978 95.397c-8.068-11.916-12.03-22.845-12.03-32.806 0-15.107 4.85-27.048 14.487-35.935 9.691-8.94 20.88-13.39 33.61-13.39s23.92 4.45 33.611 13.39h.001c9.637 8.887 14.487 20.828 14.487 35.935 0 9.961-3.96 20.89-12.022 32.806-7.959 11.762-19.973 24.528-36.076 38.297-16.104-13.768-28.115-26.535-36.07-38.297Z" fill="#603A0A" stroke="#D0C5A3" stroke-width="1.983"/><path d="M113.018 61.487c0-21.575-17.49-39.065-39.066-39.065-21.575 0-39.065 17.49-39.065 39.065 0 21.576 17.49 39.066 39.065 39.066 21.576 0 39.066-17.49 39.066-39.066Z" fill="#fff"/><path d="M68.597 76.918c0-.14-.127-.25-.263-.222-.125.026-.253.04-.385.04a1.963 1.963 0 0 1-1.946-1.763.224.224 0 0 0-.222-.204h-2.272a.224.224 0 0 0-.222.204 1.963 1.963 0 0 1-1.947 1.763 1.963 1.963 0 0 1-1.946-1.763.224.224 0 0 0-.222-.204H56.9a.224.224 0 0 0-.222.204 1.963 1.963 0 0 1-1.946 1.763 1.963 1.963 0 0 1-1.946-1.763.224.224 0 0 0-.223-.204h-2.271a.224.224 0 0 0-.223.204 1.963 1.963 0 0 1-2.29 1.732.223.223 0 0 0-.26.222v2.242c0 .119.092.215.21.225a4.59 4.59 0 0 0 3.542-1.228.228.228 0 0 1 .313 0 4.59 4.59 0 0 0 3.148 1.246 4.59 4.59 0 0 0 3.148-1.246.227.227 0 0 1 .313 0 4.59 4.59 0 0 0 3.147 1.246 4.59 4.59 0 0 0 3.148-1.246.228.228 0 0 1 .313 0A4.59 4.59 0 0 0 68.4 79.39a.223.223 0 0 0 .198-.225v-2.247Z" fill="#A48659"/><path d="m99.008 70.411 3.581 1.49c1.245-6.281-1.418-12.748-6.719-16.306l-1.485 3.602a12.155 12.155 0 0 1 4.623 11.214Zm-6.761-16.624-1.45 3.519c.294.097.587.201.878.323.291.12.573.255.849.396l1.45-3.52a16.095 16.095 0 0 0-1.727-.718ZM75.935 64.18c.12-.292.252-.576.392-.853L72.83 61.87c-.135.28-.265.564-.385.856-.12.292-.228.586-.33.88l3.498 1.456c.096-.296.202-.59.323-.883Zm26.081 9.84-3.498-1.456a11.838 11.838 0 0 1-.715 1.736l3.498 1.456c.135-.281.265-.565.386-.857.12-.291.227-.585.329-.88Zm-20.41 5.582-1.45 3.519c.278.136.563.265.852.386.29.12.582.23.875.333l1.45-3.52a12.143 12.143 0 0 1-.878-.322 11.961 11.961 0 0 1-.849-.396Zm3.869 1.213-1.485 3.601c6.252 1.251 12.685-1.43 16.226-6.755l-3.581-1.491a12.04 12.04 0 0 1-11.16 4.645Zm-10.353-13.6-3.581-1.49c-1.245 6.282 1.418 12.748 6.719 16.306l1.484-3.602a12.156 12.156 0 0 1-4.622-11.214Zm-1.208-7.249 3.581 1.49a12.041 12.041 0 0 1 11.16-4.644l1.485-3.602c-6.252-1.25-12.685 1.43-16.226 6.756Z" fill="#603A0A"/><path d="M94.276 54.872 82.354 83.796a.175.175 0 0 0 .11.234c.319.098.64.185.96.262a.174.174 0 0 0 .201-.104l11.826-28.69a.176.176 0 0 0-.069-.216c-.28-.174-.569-.34-.863-.498a.174.174 0 0 0-.243.088Zm-15.534 27.47c.281.175.57.34.864.498.09.049.203.007.242-.087L91.77 53.829a.175.175 0 0 0-.11-.234 15.62 15.62 0 0 0-.96-.262.174.174 0 0 0-.2.104l-11.826 28.69a.175.175 0 0 0 .068.216Z" fill="#A48659"/><path d="m73.192 61.565 28.783 11.98a.174.174 0 0 0 .233-.11c.097-.32.184-.642.26-.965a.174.174 0 0 0-.103-.202l-28.55-11.884a.174.174 0 0 0-.215.07c-.173.282-.338.571-.495.868a.176.176 0 0 0 .087.243Zm27.337 15.61c.173-.282.338-.572.495-.868a.176.176 0 0 0-.087-.243l-28.783-11.98a.174.174 0 0 0-.233.11c-.097.32-.184.642-.26.965a.175.175 0 0 0 .103.201l28.55 11.884c.079.033.17.004.215-.069Zm-31.932-6.187c0-.14-.127-.25-.263-.222-.125.026-.253.04-.385.04a1.963 1.963 0 0 1-1.946-1.763.224.224 0 0 0-.222-.203h-2.272a.224.224 0 0 0-.223.203 1.963 1.963 0 0 1-1.946 1.763 1.963 1.963 0 0 1-1.946-1.763.224.224 0 0 0-.222-.203H56.9a.224.224 0 0 0-.222.203 1.963 1.963 0 0 1-1.946 1.763 1.963 1.963 0 0 1-1.946-1.763.224.224 0 0 0-.223-.203h-2.271a.224.224 0 0 0-.223.203 1.963 1.963 0 0 1-2.29 1.732.223.223 0 0 0-.26.222v2.242c0 .119.092.215.21.225a4.59 4.59 0 0 0 3.542-1.228.228.228 0 0 1 .313 0 4.589 4.589 0 0 0 3.148 1.246 4.59 4.59 0 0 0 3.148-1.245.228.228 0 0 1 .313 0 4.59 4.59 0 0 0 3.147 1.245 4.589 4.589 0 0 0 3.148-1.245.228.228 0 0 1 .313 0A4.59 4.59 0 0 0 68.4 73.46a.224.224 0 0 0 .198-.224v-2.248Z" fill="#A48659"/><path d="M68.347 66.169a.266.266 0 0 0 .262-.228c1.375-9 9.114-15.895 18.456-15.895.718 0 1.426.042 2.124.122a.266.266 0 0 0 .26-.396l-6.276-11.295a.266.266 0 0 0-.233-.137H51.61a.266.266 0 0 0-.233.137l-6.326 11.37c-.1.178.029.398.232.398h1.929c.147 0 .266.12.266.267v15.39c0 .147.119.267.266.267h20.604Z" fill="#603A0A"/><path d="M113.018 61.487c0-21.575-17.49-39.065-39.066-39.065-21.575 0-39.065 17.49-39.065 39.065 0 21.576 17.49 39.066 39.065 39.066 21.576 0 39.066-17.49 39.066-39.066Z" stroke="#D0C5A3" stroke-width="2.894"/></g></svg>