<svg width="400" height="400" fill="none" xmlns="http://www.w3.org/2000/svg"><g opacity=".5" fill="#fff"><path d="m350.925 220.093 45.252 18.741c15.723-78.988-17.922-160.29-84.908-205.024l-18.761 45.286c43.226 33.021 65.625 87.09 58.417 140.997ZM265.482 11.07l-18.331 44.246c3.722 1.216 7.43 2.534 11.107 4.057 3.677 1.523 7.232 3.214 10.724 4.984l18.33-44.248a203.456 203.456 0 0 0-10.779-4.85 203.2 203.2 0 0 0-11.051-4.19ZM59.352 141.75a154.302 154.302 0 0 1 4.956-10.73l-44.2-18.306c-1.71 3.527-3.359 7.098-4.878 10.764-1.519 3.668-2.878 7.361-4.164 11.062l44.2 18.305a153.963 153.963 0 0 1 4.085-11.095Zm329.58 123.712-44.2-18.307a153.487 153.487 0 0 1-4.083 11.095 154.209 154.209 0 0 1-4.96 10.732l44.202 18.304c1.707-3.527 3.358-7.096 4.879-10.764 1.518-3.668 2.877-7.359 4.162-11.06Zm-257.914 70.181-18.33 44.248a203.847 203.847 0 0 0 10.776 4.85 203.704 203.704 0 0 0 11.052 4.189l18.331-44.246c-3.72-1.216-7.431-2.534-11.107-4.057-3.675-1.523-7.233-3.212-10.722-4.984Zm48.889 15.252-18.761 45.283c79.001 15.729 160.292-17.971 205.035-84.941l-45.252-18.741c-33.025 43.213-87.104 65.611-141.022 58.399ZM49.073 179.907l-45.25-18.741C-11.9 240.155 21.747 321.458 88.731 366.19l18.761-45.286c-43.226-33.021-65.626-87.09-58.419-140.997ZM33.819 88.765l45.25 18.739c33.026-43.213 87.104-65.61 141.024-58.4l18.761-45.282C159.853-11.908 78.562 21.794 33.819 88.765Zm257.333-64.043L140.494 388.385a2.202 2.202 0 0 0 1.38 2.943 200.99 200.99 0 0 0 12.147 3.293 2.201 2.201 0 0 0 2.533-1.306L305.997 32.589a2.201 2.201 0 0 0-.869-2.713 201.562 201.562 0 0 0-10.915-6.26 2.206 2.206 0 0 0-3.061 1.106ZM94.85 370.115a199.75 199.75 0 0 0 10.915 6.257 2.202 2.202 0 0 0 3.059-1.103L259.482 11.606c.494-1.193-.147-2.569-1.383-2.944a198.749 198.749 0 0 0-12.144-3.29 2.2 2.2 0 0 0-2.533 1.303L93.981 367.401a2.2 2.2 0 0 0 .869 2.714Z"/><path d="m24.709 108.851 363.722 150.634c1.193.494 2.569-.147 2.944-1.38a199.443 199.443 0 0 0 3.291-12.145 2.199 2.199 0 0 0-1.302-2.532L32.578 94.008a2.206 2.206 0 0 0-2.714.87 201.985 201.985 0 0 0-6.26 10.915 2.203 2.203 0 0 0 1.105 3.058Zm345.449 196.271a200.955 200.955 0 0 0 6.258-10.912 2.203 2.203 0 0 0-1.103-3.06L11.591 140.516a2.202 2.202 0 0 0-2.944 1.383 198.471 198.471 0 0 0-3.291 12.142 2.198 2.198 0 0 0 1.304 2.532L367.444 305.99a2.2 2.2 0 0 0 2.714-.868Z"/></g></svg>