<svg width="32" height="32" fill="none" xmlns="http://www.w3.org/2000/svg"><path d="m28.074 17.608 3.62 1.499a16.011 16.011 0 0 0-6.793-16.402l-1.5 3.623a12.198 12.198 0 0 1 4.673 11.28ZM21.238.886l-1.466 3.54c.298.097.595.202.889.324.294.122.578.257.857.399l1.467-3.54a16.32 16.32 0 0 0-1.747-.723ZM4.748 11.34c.122-.294.255-.58.397-.858L1.609 9.017a14.876 14.876 0 0 0-.724 1.746l3.536 1.465c.098-.298.205-.594.327-.888Zm26.367 9.897-3.536-1.465a12.214 12.214 0 0 1-.724 1.747l3.536 1.464c.137-.282.269-.568.39-.861.122-.294.23-.589.334-.885ZM10.482 26.85l-1.467 3.54a16.292 16.292 0 0 0 1.746.723l1.467-3.54a12.34 12.34 0 0 1-.889-.324 12.264 12.264 0 0 1-.857-.399Zm3.91 1.22-1.5 3.623c6.32 1.259 12.823-1.438 16.402-6.795l-3.62-1.5a12.201 12.201 0 0 1-11.281 4.673ZM3.927 14.393l-3.62-1.499c-1.258 6.32 1.434 12.824 6.792 16.402L8.6 25.672a12.198 12.198 0 0 1-4.673-11.28Zm-1.22-7.29L6.325 8.6a12.202 12.202 0 0 1 11.282-4.672l1.5-3.622C12.788-.953 6.285 1.743 2.705 7.1Zm20.584-5.124L11.238 31.072a.176.176 0 0 0 .11.235c.324.099.648.186.973.264.083.02.17-.025.202-.105L24.48 2.608a.176.176 0 0 0-.07-.217 16.088 16.088 0 0 0-.873-.5.177.177 0 0 0-.245.088ZM7.587 29.61c.284.175.575.342.873.5a.176.176 0 0 0 .245-.088L20.757.93a.176.176 0 0 0-.11-.235 15.88 15.88 0 0 0-.972-.263.176.176 0 0 0-.202.104L7.517 29.393a.176.176 0 0 0 .07.217Z" fill="#603A0A"/><path d="m1.975 8.709 29.098 12.05a.176.176 0 0 0 .235-.11 15.9 15.9 0 0 0 .263-.972.176.176 0 0 0-.104-.202L2.604 7.52a.176.176 0 0 0-.217.07 16.16 16.16 0 0 0-.5.873.176.176 0 0 0 .088.245ZM29.61 24.41c.175-.284.342-.575.5-.873a.176.176 0 0 0-.088-.244L.925 11.242a.176.176 0 0 0-.235.11c-.099.323-.186.647-.263.972-.02.084.024.17.104.202L29.394 24.48c.08.033.172.003.217-.07Z" fill="#603A0A"/></svg>