<svg width="33" height="22" fill="none" xmlns="http://www.w3.org/2000/svg"><path fill-rule="evenodd" clip-rule="evenodd" d="M32.13 9.193c.022.039.028.08.023.12a.193.193 0 0 0-.023-.066l-4.574-8.222a.193.193 0 0 0-.168-.099h.036c.07 0 .134.038.168.1l4.538 8.167ZM4.767.926a.193.193 0 0 0-.168.1L.025 9.245a.195.195 0 0 0-.023.067.192.192 0 0 1 .023-.12l4.538-8.168a.192.192 0 0 1 .169-.099h.035Z" fill="#603A0A"/><path d="M27.388.926H4.768a.193.193 0 0 0-.169.1L.025 9.245a.193.193 0 0 0 .168.288h1.394c.107 0 .193.087.193.194v11.128c0 .107.086.193.192.193h28.211a.193.193 0 0 0 .192-.193V9.728c0-.107.087-.194.193-.194h1.394a.193.193 0 0 0 .168-.287l-4.574-8.222a.193.193 0 0 0-.168-.099Z" fill="#603A0A"/></svg>