<svg width="48" height="48" fill="none" xmlns="http://www.w3.org/2000/svg"><circle cx="24" cy="24" r="24" fill="#fff"/><path fill-rule="evenodd" clip-rule="evenodd" d="M23.945 23.91a6.102 6.102 0 0 1-4.366-1.885 6.558 6.558 0 0 1-1.82-4.525 6.642 6.642 0 0 1 1.812-4.56A6.183 6.183 0 0 1 23.945 11a5.988 5.988 0 0 1 2.388.494 6.17 6.17 0 0 1 2.018 1.412 6.427 6.427 0 0 1 1.335 2.112c.305.788.456 1.632.444 2.482a6.535 6.535 0 0 1-.45 2.466 6.354 6.354 0 0 1-1.339 2.09 6.096 6.096 0 0 1-2.017 1.389 5.917 5.917 0 0 1-2.38.466Zm0-9.081c-.346 0-.688.071-1.007.211-.318.14-.606.345-.846.602a2.68 2.68 0 0 0-.553.897 2.758 2.758 0 0 0-.171 1.05c-.005.348.059.694.187 1.015.13.322.32.612.562.854.241.242.528.43.842.553.315.123.65.177.986.16a2.44 2.44 0 0 0 .976-.178 2.51 2.51 0 0 0 .833-.554c.24-.24.431-.528.563-.845.132-.318.201-.66.205-1.005a2.758 2.758 0 0 0-.171-1.05 2.686 2.686 0 0 0-.553-.897 2.576 2.576 0 0 0-.847-.602 2.498 2.498 0 0 0-1.006-.211Zm2.49 14.424 3.523 3.561c.164.17.293.371.382.593a1.883 1.883 0 0 1-.382 1.99c-.152.189-.343.34-.558.445a1.575 1.575 0 0 1-1.375 0 1.632 1.632 0 0 1-.558-.445l-3.522-3.562-3.436 3.562a1.714 1.714 0 0 1-.59.407c-.222.093-.46.136-.699.127a2.023 2.023 0 0 1-1.288-.534 1.83 1.83 0 0 1-.382-.593 1.882 1.882 0 0 1 .382-1.99l3.608-3.561a17.555 17.555 0 0 1-3.694-1.692 1.94 1.94 0 0 1-.794-1.168 2.003 2.003 0 0 1 .192-1.414c.132-.215.304-.401.506-.546a1.75 1.75 0 0 1 2.071.012 7.854 7.854 0 0 0 4.167 1.201 7.853 7.853 0 0 0 4.166-1.201c.2-.147.429-.25.67-.302a1.75 1.75 0 0 1 1.401.29c.203.145.375.33.506.546.243.419.326.917.23 1.396a1.948 1.948 0 0 1-.745 1.186 18.26 18.26 0 0 1-3.78 1.692Z" fill="#603A0A"/></svg>