<svg width="24" height="24" fill="none" xmlns="http://www.w3.org/2000/svg"><mask id="a" style="mask-type:alpha" maskUnits="userSpaceOnUse" x="0" y="0" width="24" height="24"><path fill="#D9D9D9" d="M0 0h24v24H0z"/></mask><g mask="url(#a)"><path d="M12 21.3a9.144 9.144 0 0 1-3.626-.725 9.296 9.296 0 0 1-2.962-1.988 9.296 9.296 0 0 1-1.988-2.962A9.143 9.143 0 0 1 2.7 12c0-1.3.242-2.512.725-3.637a9.344 9.344 0 0 1 1.988-2.95 9.304 9.304 0 0 1 2.962-1.988A9.143 9.143 0 0 1 12 2.7c1.3 0 2.513.242 3.637.725a9.34 9.34 0 0 1 2.95 1.987 9.344 9.344 0 0 1 1.988 2.951c.484 1.125.725 2.337.725 3.637v1.175c0 .9-.304 1.654-.912 2.263-.608.608-1.363.912-2.263.912-.633 0-1.187-.146-1.663-.437a3.058 3.058 0 0 1-1.112-1.188c-.4.5-.87.896-1.412 1.188-.542.291-1.188.437-1.938.437-1.216 0-2.245-.42-3.087-1.262C8.07 14.246 7.65 13.217 7.65 12c0-1.2.421-2.225 1.263-3.075.842-.85 1.87-1.275 3.087-1.275 1.2 0 2.225.42 3.075 1.262.85.842 1.275 1.871 1.275 3.088v1.175c0 .517.171.942.513 1.275.342.334.762.5 1.262.5s.921-.166 1.263-.5c.342-.333.512-.758.512-1.275V12c0-2.15-.78-4.004-2.338-5.563C16.003 4.88 14.15 4.1 12 4.1c-2.15 0-4.004.78-5.562 2.337C4.88 7.996 4.1 9.85 4.1 12s.78 4.004 2.338 5.562C7.995 19.121 9.85 19.9 12 19.9h4.95v1.4H12Zm0-6.35a2.84 2.84 0 0 0 2.087-.863c.575-.575.862-1.27.862-2.087 0-.816-.287-1.512-.862-2.088A2.846 2.846 0 0 0 12 9.05c-.816 0-1.512.288-2.087.862A2.844 2.844 0 0 0 9.05 12c0 .817.288 1.512.863 2.087.575.575 1.27.863 2.087.863Z" fill="#fff"/></g></svg>