<svg width="640" height="28" fill="none" xmlns="http://www.w3.org/2000/svg"><path d="M134.304 12.498c0-.816-.808-1.454-1.679-1.29-.793.15-1.611.23-2.451.23-6.439 0-11.755-4.5-12.4-10.253-.075-.67-.683-1.182-1.417-1.182h-14.476c-.733 0-1.34.513-1.415 1.182-.647 5.753-5.962 10.253-12.401 10.253-6.438 0-11.753-4.5-12.4-10.253C75.59.515 74.983.003 74.25.003H59.773c-.734 0-1.34.513-1.416 1.182-.647 5.753-5.962 10.253-12.4 10.253-6.44 0-11.754-4.5-12.4-10.253C33.48.515 32.874.003 32.14.003H17.665c-.735 0-1.342.513-1.417 1.182-.645 5.753-5.96 10.253-12.4 10.253-.747 0-1.478-.062-2.19-.18C.791 11.115 0 11.742 0 12.549v13.043c0 .69.583 1.25 1.333 1.31a31.65 31.65 0 0 0 2.516.103c7.75 0 14.799-2.752 20.055-7.245a1.553 1.553 0 0 1 1.997 0c5.256 4.493 12.303 7.245 20.055 7.245 7.752 0 14.8-2.752 20.057-7.245a1.551 1.551 0 0 1 1.996 0c5.257 4.493 12.305 7.245 20.056 7.245 7.752 0 14.8-2.752 20.056-7.245a1.553 1.553 0 0 1 1.997 0c5.256 4.493 12.305 7.245 20.056 7.245.968 0 1.924-.046 2.867-.131.722-.065 1.263-.64 1.263-1.305V12.5Z" fill="#A48659"/><path d="M260.756 12.498c0-.816-.808-1.454-1.679-1.29-.793.15-1.611.23-2.451.23-6.439 0-11.754-4.5-12.4-10.253-.075-.67-.683-1.182-1.417-1.182h-14.476c-.733 0-1.34.513-1.415 1.182-.647 5.753-5.962 10.253-12.401 10.253-6.438 0-11.753-4.5-12.4-10.253-.075-.67-.682-1.182-1.415-1.182h-14.477c-.734 0-1.341.513-1.416 1.182-.647 5.753-5.961 10.253-12.401 10.253-6.438 0-11.753-4.5-12.399-10.253-.076-.67-.682-1.182-1.417-1.182h-14.475c-.735 0-1.342.513-1.417 1.182-.645 5.753-5.96 10.253-12.399 10.253-.748 0-1.479-.062-2.19-.18-.868-.143-1.659.484-1.659 1.291v13.043c0 .69.583 1.25 1.333 1.31a31.65 31.65 0 0 0 2.516.103c7.75 0 14.799-2.752 20.056-7.245a1.552 1.552 0 0 1 1.996 0c5.256 4.493 12.303 7.245 20.055 7.245 7.752 0 14.801-2.752 20.057-7.245a1.552 1.552 0 0 1 1.996 0c5.257 4.493 12.305 7.245 20.056 7.245 7.752 0 14.8-2.752 20.056-7.245a1.553 1.553 0 0 1 1.997 0c5.256 4.493 12.305 7.245 20.056 7.245.968 0 1.924-.046 2.868-.131.721-.065 1.262-.64 1.262-1.305V12.5Z" fill="#A48659"/><path d="M387.208 12.498c0-.816-.808-1.454-1.679-1.29-.793.15-1.611.23-2.451.23-6.439 0-11.754-4.5-12.4-10.253-.075-.67-.683-1.182-1.417-1.182h-14.476c-.733 0-1.34.513-1.415 1.182-.647 5.753-5.962 10.253-12.401 10.253-6.438 0-11.753-4.5-12.4-10.253-.075-.67-.682-1.182-1.415-1.182h-14.477c-.734 0-1.341.513-1.416 1.182-.647 5.753-5.961 10.253-12.401 10.253-6.438 0-11.753-4.5-12.399-10.253-.075-.67-.682-1.182-1.417-1.182h-14.475c-.735 0-1.341.513-1.417 1.182-.645 5.753-5.96 10.253-12.399 10.253-.748 0-1.479-.062-2.19-.18-.868-.143-1.659.484-1.659 1.291v13.043c0 .69.583 1.25 1.333 1.31a31.65 31.65 0 0 0 2.516.103c7.751 0 14.799-2.752 20.056-7.245a1.552 1.552 0 0 1 1.996 0c5.256 4.493 12.303 7.245 20.055 7.245 7.752 0 14.801-2.752 20.057-7.245a1.552 1.552 0 0 1 1.996 0c5.257 4.493 12.305 7.245 20.056 7.245 7.752 0 14.8-2.752 20.056-7.245a1.553 1.553 0 0 1 1.997 0c5.257 4.493 12.305 7.245 20.056 7.245.969 0 1.925-.046 2.868-.131.721-.065 1.262-.64 1.262-1.305V12.5Z" fill="#A48659"/><path d="M513.66 12.495c0-.816-.808-1.454-1.679-1.29-.793.15-1.611.23-2.451.23-6.438 0-11.754-4.5-12.4-10.254C497.055.512 496.447 0 495.713 0h-14.476c-.733 0-1.34.512-1.415 1.181-.647 5.753-5.962 10.254-12.401 10.254-6.438 0-11.753-4.5-12.4-10.254C454.946.512 454.339 0 453.606 0h-14.477c-.734 0-1.341.512-1.416 1.181-.646 5.753-5.961 10.254-12.401 10.254-6.438 0-11.753-4.5-12.399-10.254C412.838.512 412.231 0 411.496 0h-14.475c-.735 0-1.341.512-1.417 1.181-.645 5.753-5.96 10.254-12.399 10.254-.748 0-1.479-.063-2.19-.18-.868-.144-1.659.483-1.659 1.29v13.043c0 .69.583 1.25 1.333 1.31.828.067 1.667.103 2.516.103 7.751 0 14.799-2.752 20.056-7.244a1.553 1.553 0 0 1 1.997 0C410.513 24.249 417.56 27 425.312 27c7.752 0 14.801-2.752 20.057-7.244a1.552 1.552 0 0 1 1.996 0C452.622 24.249 459.67 27 467.421 27c7.752 0 14.8-2.752 20.056-7.244a1.553 1.553 0 0 1 1.997 0C494.731 24.249 501.779 27 509.53 27c.969 0 1.925-.045 2.868-.13.722-.066 1.262-.64 1.262-1.305v-13.07Z" fill="#A48659"/><path d="M640 12.495c0-.816-.808-1.454-1.679-1.29-.793.15-1.611.23-2.451.23-6.438 0-11.754-4.5-12.4-10.254C623.395.512 622.787 0 622.054 0h-14.476c-.734 0-1.341.512-1.416 1.181-.647 5.753-5.961 10.254-12.401 10.254-6.438 0-11.753-4.5-12.399-10.254C581.286.512 580.68 0 579.946 0h-14.477c-.734 0-1.34.512-1.416 1.181-.646 5.753-5.961 10.254-12.4 10.254s-11.753-4.5-12.4-10.254C539.178.512 538.571 0 537.836 0h-14.475c-.734 0-1.341.512-1.416 1.181-.646 5.753-5.961 10.254-12.4 10.254-.748 0-1.479-.063-2.19-.18-.868-.144-1.659.483-1.659 1.29v13.043c0 .69.584 1.25 1.333 1.31.829.067 1.667.103 2.516.103 7.751 0 14.799-2.752 20.056-7.244a1.553 1.553 0 0 1 1.997 0C536.853 24.249 543.901 27 551.653 27c7.752 0 14.8-2.752 20.057-7.244a1.55 1.55 0 0 1 1.995 0C578.962 24.249 586.01 27 593.761 27c7.752 0 14.801-2.752 20.056-7.244a1.553 1.553 0 0 1 1.997 0C621.071 24.249 628.119 27 635.87 27c.969 0 1.925-.045 2.868-.13.722-.066 1.262-.64 1.262-1.305v-13.07Z" fill="#A48659"/></svg>