<svg width="150" height="60" fill="none" xmlns="http://www.w3.org/2000/svg"><path d="M29.571 35.028c.16 0 .296-.118.32-.277 1.678-10.984 11.12-19.396 22.52-19.396.877 0 1.741.051 2.592.148a.325.325 0 0 0 .318-.482L47.663 1.238a.324.324 0 0 0-.284-.168H9.147a.325.325 0 0 0-.284.168L1.143 15.11a.326.326 0 0 0 .284.486H3.78c.18 0 .325.146.325.327v18.778c0 .18.145.326.325.326h25.14Z" fill="#603A0A"/><path d="M29.876 40.909a.272.272 0 0 0-.322-.271 2.328 2.328 0 0 1-.469.048 2.395 2.395 0 0 1-2.375-2.151.274.274 0 0 0-.27-.248h-2.773a.274.274 0 0 0-.271.248 2.395 2.395 0 0 1-2.375 2.151 2.395 2.395 0 0 1-2.375-2.151.274.274 0 0 0-.27-.248h-2.773a.274.274 0 0 0-.271.248 2.395 2.395 0 0 1-2.375 2.151 2.395 2.395 0 0 1-2.375-2.151.274.274 0 0 0-.27-.248H7.538a.274.274 0 0 0-.271.248 2.395 2.395 0 0 1-2.794 2.113.273.273 0 0 0-.318.271v2.737c0 .144.112.262.256.274a5.6 5.6 0 0 0 4.323-1.498.278.278 0 0 1 .381 0 5.6 5.6 0 0 0 3.841 1.52 5.6 5.6 0 0 0 3.841-1.52.277.277 0 0 1 .382 0 5.6 5.6 0 0 0 3.841 1.52 5.6 5.6 0 0 0 3.84-1.52.278.278 0 0 1 .383 0 5.6 5.6 0 0 0 4.39 1.493.273.273 0 0 0 .242-.274v-2.742Zm116-16.01a.272.272 0 0 0-.322-.27 2.317 2.317 0 0 1-.469.047 2.396 2.396 0 0 1-2.375-2.15.273.273 0 0 0-.271-.249h-2.772a.273.273 0 0 0-.271.248 2.396 2.396 0 0 1-2.375 2.151 2.396 2.396 0 0 1-2.375-2.15.273.273 0 0 0-.271-.249h-2.772a.273.273 0 0 0-.271.248 2.396 2.396 0 0 1-2.375 2.151 2.396 2.396 0 0 1-2.375-2.15.273.273 0 0 0-.271-.249h-2.772a.273.273 0 0 0-.271.248 2.396 2.396 0 0 1-2.794 2.114.273.273 0 0 0-.318.27v2.737c0 .145.112.262.256.275a5.6 5.6 0 0 0 4.322-1.498.277.277 0 0 1 .382 0 5.603 5.603 0 0 0 3.841 1.52 5.6 5.6 0 0 0 3.841-1.52.277.277 0 0 1 .382 0 5.603 5.603 0 0 0 3.841 1.52 5.6 5.6 0 0 0 3.841-1.52.277.277 0 0 1 .382 0 5.603 5.603 0 0 0 4.39 1.492.273.273 0 0 0 .242-.274V24.9Z" fill="#A48659"/><path d="M80.454 34.82c-.34 0-.817-.079-1.434-.237-.617-.146-.968-.267-1.052-.364a.487.487 0 0 1-.109-.328.45.45 0 0 1 .064-.21 1.82 1.82 0 0 1 .145-.228l.145-.2c.042-.061.064-.104.064-.128v-8.478c0-.097-.049-.225-.146-.383-.097-.158-.127-.292-.09-.4.072-.256.26-.42.562-.493.193-.049.647.018 1.36.2.775.195 1.198.395 1.27.602.049.134.03.334-.054.602-.133.437-.2.68-.2.729 0 .146.025.292.073.437a5.723 5.723 0 0 1 .762-1.622c.4-.571.799-.857 1.198-.857.41 0 .943.146 1.596.438.665.28 1.04.534 1.125.765.339.766.508 3.64.508 8.624.097.255.145.486.145.693 0 .364-.139.613-.417.747-.097.037-.248.055-.454.055-.387 0-.877-.067-1.47-.2-.58-.135-.925-.256-1.033-.366a.416.416 0 0 1-.091-.236c0-.134.09-.347.272-.639.182-.303.272-.522.272-.656.012-4.789-.024-7.201-.109-7.238-.169-.048-.586.499-1.251 1.641-.702 1.216-1.053 2.133-1.053 2.753v3.41a.795.795 0 0 1 .236.583c0 .474-.206.79-.617.948a.686.686 0 0 1-.217.036Zm14.896-.767a.638.638 0 0 1-.218.438.534.534 0 0 1-.454.146c-1.5-.195-2.334-.48-2.503-.857a.591.591 0 0 1-.037-.146c.024-.097.067-.197.127-.3.06-.104.103-.186.127-.247.012-.048.022-.124.028-.228.006-.103.002-.24-.01-.41-.145.11-.362.401-.653.875-.314.547-.58.912-.798 1.094-.387.365-.829.547-1.324.547-.303 0-.587-.116-.853-.346-.133-.11-.37-.347-.708-.712l-.943-1.075c-.254-.34-.381-.662-.381-.966 0-.073.012-.17.036-.292.23-1.07.944-2.084 2.141-3.045.847-.68 2.08-1.416 3.701-2.206 0-.389-.097-.638-.29-.747-.121-.073-.544.067-1.27.42-.726.352-1.234.644-1.524.874a3.151 3.151 0 0 1-.19.173 8.655 8.655 0 0 1-.282.228c-.206.134-.393.17-.562.11-.133-.037-.417-.256-.853-.657-.435-.4-.671-.668-.707-.802-.097-.34.005-.595.308-.766.024-.024.266-.097.726-.218l1.342-.73c.932-.45 1.73-.692 2.395-.729.278-.024.593.122.944.438.314.28.631.556.952.83.32.273.65.537.989.792.387.353.58.681.58.985v6.891c.133.317.188.53.164.639Zm-6.314-1.075c.242 0 .81-.547 1.706-1.641.882-1.106 1.45-1.975 1.705-2.607a4.007 4.007 0 0 0-1.524 1.057l-.943 1.149c-.255.255-.497.59-.726 1.003-.218.4-.327.699-.327.893 0 .097.036.146.109.146Zm9.924 5.67c-.276 0-.715-.085-1.316-.255a10.42 10.42 0 0 0-.523-.173 10.68 10.68 0 0 1-.523-.174c-.302-.085-.477-.273-.525-.565-.024-.145.018-.383.127-.71.12-.329.182-.53.182-.602v-11.87c0-.388-.03-.643-.091-.765-.182-.304-.236-.516-.163-.638.06-.097.217-.146.47-.146.264 0 .68.055 1.244.164.662.134 1.004.2 1.028.2.204.025.36.171.469.438.012.025.018.11.018.256 0 .498-.073 1.24-.218 2.224l.877-1.732c.377-.742.736-1.082 1.077-1.021 2.387.486 3.58 1.969 3.58 4.448 0 1.386-.378 2.796-1.133 4.23-.755 1.41-1.57 2.322-2.447 2.735a.98.98 0 0 1-.347.091c-.316 0-.846-.371-1.588-1.112v3.519c.023.12.078.291.163.51.096.267.145.456.145.565 0 .255-.169.383-.505.383Zm.252-5.852c.694-.316 1.309-.985 1.845-2.006.56-1.033.84-1.993.84-2.88 0-1.033-.402-1.598-1.206-1.696-.438-.048-.931 2.145-1.48 6.582Zm8.31 2.114c-.447 0-.895-.085-1.342-.255-.508-.194-.762-.425-.762-.693v-9.517c0-.194.06-.407.181-.638.121-.23.26-.376.418-.437a.37.37 0 0 1 .145-.018c.302 0 .737.109 1.306.328.581.207.895.389.943.547.037.097.055.17.055.218 0 .098-.049.223-.145.374a.805.805 0 0 0-.145.429v2.315l2.685-3.7a.833.833 0 0 1 .599-.347c.229-.012.55.134.961.437.46.353.695.687.708 1.003.012.061-.049.216-.182.465-.133.25-.357.568-.671.957l-1.996 2.425 2.776 3.136c.06.06.13.124.209.191.078.067.184.13.317.192.218.109.333.225.345.346.024.255-.206.675-.69 1.258-.496.608-.87.893-1.124.857-.267-.037-.699-.404-1.298-1.103-.598-.699-1.472-1.723-2.621-3.072v2.735c0 .06.015.17.045.328l.064.346c.036.401-.049.668-.254.802-.122.061-.297.091-.527.091ZM80.89 51.252c-.085 0-.203-.004-.354-.01a6.759 6.759 0 0 1-.472-.036l-.49-.055a2.015 2.015 0 0 1-.408-.082c-.484-.109-.774-.23-.87-.364-.05-.049-.073-.122-.073-.219 0-.06.015-.152.045-.273a1.29 1.29 0 0 0 .045-.292v-9.535c0-.11.046-.231.136-.365a.85.85 0 0 1 .318-.292c.036-.012.148-.015.335-.009.188.006.409.025.663.055.254.03.529.067.825.11.296.042.572.1.826.172.532.146.961.28 1.288.402.326.121.508.23.544.328.036.06.042.17.018.328a1 1 0 0 0-.036.219v.109c0 .098.012.17.036.219l1.307 4.886c.253-.802.707-2.425 1.36-4.868.327-1.24.593-1.89.798-1.95.037 0 .07-.004.1-.01s.07-.01.118-.01c.17 0 .424.044.762.129.411.097.683.146.817.146l1.76.127c.41.073.646.22.707.438.024.097.036.164.036.2 0 .098-.024.228-.072.392a1.456 1.456 0 0 0-.073.374v8.223c0 .109.055.243.164.4.12.17.168.31.144.42-.048.376-.15.583-.308.62-.218.06-.629.006-1.233-.164-.17-.049-.345-.095-.527-.137a7.953 7.953 0 0 1-.916-.274c-.115-.042-.184-.088-.209-.136a.636.636 0 0 1-.036-.2c0-.062.012-.15.036-.265.025-.116.037-.216.037-.301v-6.108c-.412.803-.962 2.662-1.651 5.58a.257.257 0 0 0-.018.109 4.918 4.918 0 0 0 .036.437 1.725 1.725 0 0 1 .054.383c0 .255-.012.431-.036.529-.036.182-.127.292-.272.328-.06.012-.127.021-.2.027a4.789 4.789 0 0 1-1.832-.228c-.46-.158-.798-.34-1.016-.547-.06-.06-.09-.176-.09-.346.011-.182.011-.31 0-.383a114.656 114.656 0 0 1-.899-2.707 204.062 204.062 0 0 0-.853-2.662 2.68 2.68 0 0 0-.172-.428v5.341c0 .061.012.134.037.22l.072.273c.097.267.145.425.145.474.024.085.04.18.046.282a2.61 2.61 0 0 1-.01.356c-.012.292-.072.48-.18.565-.062.036-.164.055-.31.055Zm15.621-.165c-.472 0-1.089-.146-1.85-.437-.811-.292-1.343-.608-1.597-.949-.702-.899-1.052-2.163-1.052-3.792 0-1.531.308-2.88.925-4.047.677-1.288 1.524-1.939 2.54-1.95.35-.013.804.084 1.36.29.666.256 1.204.602 1.615 1.04.12.122.224.45.309.985.12.559.181 1.13.181 1.713 0 .839-.133 1.41-.4 1.714-1.233.39-2.503.614-3.81.675a7.426 7.426 0 0 0 .219 1.877c.157.645.332.98.526 1.003.23.025.52-.176.87-.602.29-.328.478-.625.563-.893.048-.182.1-.367.154-.556a8.55 8.55 0 0 1 .19-.574c.218-.024.6.073 1.144.291.568.22.9.414.998.584.108.182-.127.723-.708 1.623-.617.948-1.234 1.598-1.85 1.95a.753.753 0 0 1-.327.055Zm-1.85-6.272c.531-.011.967-.145 1.306-.4.193-.146.29-.754.29-1.824 0-.45-.03-.686-.09-.71-.207-.013-.497.315-.872.984-.374.692-.586 1.343-.635 1.95Zm12.916 6.491c-.061.024-.191.012-.39-.036-.2-.05-.506-.122-.917-.22a8.096 8.096 0 0 1-.807-.218c-.127-.049-.209-.116-.245-.2a.57.57 0 0 1-.054-.256c0-.06-.003-.137-.009-.228a6.158 6.158 0 0 0-.028-.282 5.618 5.618 0 0 1-.036-.438c-.061-.474-.124-.981-.19-1.522-.067-.54-.131-.994-.191-1.358a55.755 55.755 0 0 0-.218-1.24 21.545 21.545 0 0 0-.217-1.04 16.124 16.124 0 0 0-.2-.765 4.42 4.42 0 0 0-.145-.438 38.551 38.551 0 0 1-.39 1.85c-.163.7-.36 1.475-.59 2.325a28.27 28.27 0 0 0-.326 1.404c-.109.523-.224.99-.345 1.404l-.109.656c-.097.255-.248.407-.453.456-.073.024-.191.01-.354-.045a10.782 10.782 0 0 1-.717-.283l-.526-.228c-.181-.08-.348-.155-.499-.228a1.858 1.858 0 0 1-.372-.228c-.097-.079-.145-.155-.145-.228a.893.893 0 0 1 .1-.483c.078-.152.17-.294.272-.428.103-.134.203-.261.3-.383.096-.121.163-.23.199-.328.096-.28.178-.535.245-.766l.209-.72c.072-.25.147-.532.226-.848.079-.316.173-.705.281-1.167.545-2.26.811-3.53.799-3.81v-.894c.024-.4.169-.625.435-.674.254-.049.913.067 1.978.346 1.003.268 1.578.493 1.723.675.06.097.091.23.091.4 0 .171.012.287.036.347.279.888.517 1.693.717 2.416.199.723.366 1.365.499 1.923.302 1.386.52 2.918.653 4.595 0 .024.003.06.009.11l.027.2a1.414 1.414 0 0 1 .036.328c0 .267-.121.45-.362.547Zm4.357-.073a10.035 10.035 0 0 1-.827-.182 8.956 8.956 0 0 1-.585-.174 4.311 4.311 0 0 1-.557-.227c-.341-.183-.66-.338-.958-.465-.299-.128-.46-.222-.484-.283a.295.295 0 0 1-.036-.127c0-.025.006-.085.018-.183.012-.097.021-.197.027-.3.006-.104.015-.201.027-.292a2.05 2.05 0 0 0 .019-.174l.017-7.475a2.69 2.69 0 0 0-.054-.446 5.145 5.145 0 0 1-.073-.62 1.652 1.652 0 0 1 .055-.565c.048-.164.164-.258.347-.283.085-.012.274.006.566.055.292.049.572.122.84.219.292.097.553.21.784.337.232.127.378.24.438.337.085.11.085.292 0 .547-.036.097-.06.182-.072.255a1.055 1.055 0 0 0-.018.183l-.055 2.516a39.502 39.502 0 0 1 1.488-.283c.254-.042.499-.079.735-.11.236-.03.444-.045.626-.045.29 0 .547.104.77.31.224.207.412.447.563.72.151.274.272.547.363.82.091.274.148.484.172.63 0 .073.003.143.009.21.006.066.009.13.009.19 0 .718-.314 1.514-.943 2.389a9.167 9.167 0 0 1-1.851 1.841c-.665.486-1.119.711-1.36.675Zm-.526-2.534c.58-.17 1.143-.657 1.687-1.459a14.9 14.9 0 0 0 .363-.538 6.11 6.11 0 0 0 .245-.419 1.48 1.48 0 0 0 .136-.364c.024-.116.03-.24.018-.374-.23.024-.617.134-1.161.328-.569.243-.998.48-1.288.711v2.115Zm7.961 2.351c-.171 0-.359-.015-.566-.045a4.122 4.122 0 0 0-.603-.046c-.487 0-.864-.145-1.132-.437-.183-.194-.274-.45-.274-.766 0-.11.012-.28.037-.51.024-.231.036-.42.036-.565v-7.585c0-.121-.052-.264-.155-.428-.102-.164-.153-.301-.153-.41 0-.098.024-.189.072-.274.193-.352.726-.45 1.597-.292.459.086.852.192 1.179.32.326.127.49.294.49.501a.85.85 0 0 1-.043.246 2.748 2.748 0 0 1-.102.273 6.32 6.32 0 0 0-.103.247.522.522 0 0 0-.043.164l.036 2.643 2.377-.42c0-.388.003-.765.01-1.13.006-.364.008-.71.008-1.039a3.27 3.27 0 0 0-.036-.537l-.063-.383a6.884 6.884 0 0 1-.045-.328.936.936 0 0 1 .036-.356c.024-.085.087-.14.19-.164.103-.024.233-.03.39-.018s.327.036.508.073l.544.109c.52.11.874.258 1.062.447.187.188.281.386.281.592 0 .061-.015.155-.045.283-.03.127-.07.276-.118.446-.061.17-.091.32-.091.447v.939c.169-.024.293-.012.372.037.078.048.172.194.281.437a2.034 2.034 0 0 1 .082 1.121c-.043.2-.115.383-.218.547a.913.913 0 0 1-.39.356l-.073.036.055 2.717c0 .267.072.644.218 1.13.06.243.112.444.154.602.042.158.063.285.063.383 0 .255-.069.422-.208.501a1.038 1.038 0 0 1-.517.118c-.158 0-.315-.012-.472-.036a2.857 2.857 0 0 0-.436-.037 1.88 1.88 0 0 1-.689-.127.986.986 0 0 1-.49-.383 1.603 1.603 0 0 1-.181-.383 3.093 3.093 0 0 1-.118-.592c-.03-.25-.054-.553-.073-.912a27.044 27.044 0 0 1-.027-1.322v-1.167c-.288.061-.621.122-.999.183-.378.06-.825.134-1.341.219v2.187c0 .28.078.578.236.894.169.267.254.492.254.674 0 .17-.043.347-.127.529a.417.417 0 0 1-.246.228 1.119 1.119 0 0 1-.391.064Zm14.496.056c-.194.049-.647-.018-1.361-.2-.774-.195-1.197-.389-1.269-.584-.049-.158-.031-.37.054-.638.121-.291.181-.51.181-.656 0-.11-.018-.267-.054-.474a5.727 5.727 0 0 1-.762 1.622c-.399.56-.798.84-1.197.84-.4 0-.932-.14-1.597-.42-.665-.28-1.04-.535-1.125-.766-.339-.766-.508-3.64-.508-8.623a1.972 1.972 0 0 1-.145-.693c0-.377.139-.632.417-.766.085-.036.236-.055.454-.055.387 0 .877.067 1.469.2.556.135.901.262 1.035.384a.42.42 0 0 1 .09.237c0 .134-.09.352-.272.656-.181.292-.272.505-.272.638-.012 4.79.024 7.202.109 7.238.181.061.605-.498 1.27-1.677.689-1.179 1.034-2.085 1.034-2.717v-3.044a.796.796 0 0 1-.236-.584c0-.486.206-.808.617-.966a.687.687 0 0 1 .218-.036c.338 0 .816.079 1.433.236.641.146.985.262 1.034.347a.64.64 0 0 1 .127.365c0 .06-.021.13-.063.21a1.9 1.9 0 0 1-.146.227 9.73 9.73 0 0 0-.145.2c-.042.062-.063.104-.063.128v8.114c0 .072.039.2.118.382.078.183.117.316.117.401 0 .231-.187.39-.562.474Zm9.416 2.863c-.121 0-.254-.003-.4-.01a1.49 1.49 0 0 1-.408-.072.796.796 0 0 1-.317-.192c-.085-.085-.127-.207-.127-.364 0-.244.115-.505.345-.784.024-.037.063-.089.117-.155a2.5 2.5 0 0 0 .164-.228c.054-.085.106-.164.154-.237a.668.668 0 0 0 .091-.183c.229-.535.345-.917.345-1.148a.302.302 0 0 0-.146-.273c-.097-.061-.266-.092-.508-.092-.351 0-.674-.148-.97-.446-.297-.298-.475-.787-.535-1.468l-.091-1.149a.55.55 0 0 0-.028.064 17.684 17.684 0 0 1-.689 1.422 5.8 5.8 0 0 1-.272.447l-.263.383c-.339.437-.699.775-1.079 1.012-.382.237-.79.355-1.225.355-.254 0-.466-.058-.635-.173a1.572 1.572 0 0 1-.426-.428 2.28 2.28 0 0 1-.273-.547 6.416 6.416 0 0 1-.154-.51 17.585 17.585 0 0 1-.199-1.377 15.25 15.25 0 0 1-.073-1.924v-1.075c0-.414-.003-.836-.009-1.267a90.5 90.5 0 0 1-.009-1.258v-1.085a1.97 1.97 0 0 1-.145-.693c0-.377.138-.632.417-.766.084-.036.236-.055.454-.055.386 0 .876.067 1.469.2.556.135.901.262 1.034.384a.414.414 0 0 1 .091.237c0 .134-.091.352-.272.656-.182.292-.272.505-.272.638l-.019.42a11.94 11.94 0 0 0-.027 1.011c.006.31.009.6.009.867 0 .547.007.996.018 1.349.013.352.031.632.055.838.024.207.051.353.082.438.03.085.069.127.117.127.073 0 .167-.075.282-.227a5.22 5.22 0 0 0 .435-.757c.175-.352.375-.814.599-1.386.224-.57.481-1.276.771-2.114v-1.796c0-.177.015-.32.045-.429a.35.35 0 0 1 .163-.228.768.768 0 0 1 .354-.063 3.595 3.595 0 0 1 1.016.164c.194.06.381.14.563.236.181.098.345.213.49.347v-.018a.616.616 0 0 1 .109.182c.036.085.069.216.099.392.03.176.051.413.064.711.012.298.018.684.018 1.158v.328c0 .122-.006.25-.018.383v-.018a23.757 23.757 0 0 0-.037 1.349 22.64 22.64 0 0 0 .164 2.552c.024.134.105.21.245.228.139.018.347.027.626.027h.29c.266 0 .49.052.671.155.181.104.272.326.272.666 0 .28-.036.547-.109.802a13.06 13.06 0 0 0-.199.802c-.073.377-.161.75-.263 1.121a29.46 29.46 0 0 1-.336 1.122 7.299 7.299 0 0 1-.245.674 1.314 1.314 0 0 1-.29.438c-.115.11-.263.188-.445.237a2.906 2.906 0 0 1-.725.073ZM66.984 40.206l4.37 1.819c1.518-7.666-1.731-15.556-8.2-19.898l-1.811 4.395c4.174 3.205 6.337 8.452 5.64 13.684Zm-8.25-20.286-1.77 4.294a14.9 14.9 0 0 1 1.072.394c.355.148.698.312 1.035.484l1.77-4.295a19.587 19.587 0 0 0-2.108-.877ZM38.828 32.603c.147-.357.308-.703.478-1.042l-4.268-1.776c-.165.342-.324.689-.47 1.044a19.8 19.8 0 0 0-.403 1.074l4.268 1.776c.118-.36.248-.72.395-1.076Zm31.825 12.006-4.268-1.776c-.118.36-.248.72-.395 1.076-.147.357-.308.703-.478 1.042l4.268 1.776c.165-.342.324-.688.47-1.044.147-.356.279-.715.403-1.074ZM45.749 51.42l-1.77 4.295a19.502 19.502 0 0 0 2.108.877l1.77-4.294c-.36-.118-.718-.246-1.073-.394a14.757 14.757 0 0 1-1.035-.484Zm4.72 1.48-1.81 4.395c7.628 1.527 15.477-1.744 19.798-8.243l-4.37-1.82c-3.189 4.195-8.41 6.368-13.617 5.669ZM37.837 36.307l-4.37-1.819c-1.517 7.666 1.732 15.557 8.2 19.898l1.811-4.395c-4.174-3.205-6.337-8.452-5.64-13.684Zm-1.473-8.845 4.37 1.818c3.189-4.194 8.41-6.367 13.617-5.668l1.812-4.394c-7.629-1.527-15.478 1.744-19.799 8.244Z" fill="#603A0A"/><path d="M61.212 21.245 46.664 56.539a.214.214 0 0 0 .133.286c.39.12.781.226 1.173.32a.212.212 0 0 0 .245-.127l14.43-35.01a.214.214 0 0 0-.084-.263 19.431 19.431 0 0 0-1.054-.607.213.213 0 0 0-.295.107Zm-18.956 33.52c.343.213.695.416 1.054.608.11.06.248.009.296-.107l14.548-35.294a.214.214 0 0 0-.134-.286 19.04 19.04 0 0 0-1.173-.319.212.212 0 0 0-.244.127l-14.43 35.009a.214.214 0 0 0 .083.263Z" fill="#A48659"/><path d="m35.484 29.41 35.122 14.62a.212.212 0 0 0 .284-.135c.119-.392.225-.785.318-1.178a.213.213 0 0 0-.126-.246L36.244 27.969a.212.212 0 0 0-.262.085c-.212.345-.413.698-.605 1.06a.214.214 0 0 0 .107.296ZM68.84 48.458c.211-.344.413-.697.605-1.059a.214.214 0 0 0-.107-.297L34.217 32.483a.212.212 0 0 0-.284.134c-.119.392-.225.785-.318 1.179a.214.214 0 0 0 .126.245l34.838 14.502c.096.04.208.004.262-.085Zm-38.964-.309a.272.272 0 0 0-.322-.27 2.313 2.313 0 0 1-.469.047 2.395 2.395 0 0 1-2.375-2.15.274.274 0 0 0-.27-.249h-2.773a.274.274 0 0 0-.271.248 2.395 2.395 0 0 1-2.375 2.151 2.395 2.395 0 0 1-2.375-2.15.274.274 0 0 0-.27-.249h-2.773a.274.274 0 0 0-.271.248 2.395 2.395 0 0 1-2.375 2.151 2.395 2.395 0 0 1-2.375-2.15.274.274 0 0 0-.27-.249H7.538a.274.274 0 0 0-.271.248 2.395 2.395 0 0 1-2.794 2.114.272.272 0 0 0-.318.27v2.737c0 .145.112.262.256.275a5.601 5.601 0 0 0 4.323-1.498.278.278 0 0 1 .381 0 5.6 5.6 0 0 0 3.841 1.52 5.601 5.601 0 0 0 3.841-1.52.277.277 0 0 1 .382 0 5.601 5.601 0 0 0 3.841 1.52 5.6 5.6 0 0 0 3.84-1.52.278.278 0 0 1 .383 0 5.601 5.601 0 0 0 4.39 1.492.273.273 0 0 0 .242-.274V48.15Zm116-16.01a.272.272 0 0 0-.322-.27 2.303 2.303 0 0 1-.469.048 2.396 2.396 0 0 1-2.375-2.152.273.273 0 0 0-.271-.247h-2.772a.273.273 0 0 0-.271.247 2.396 2.396 0 0 1-2.375 2.152 2.396 2.396 0 0 1-2.375-2.152.273.273 0 0 0-.271-.247h-2.772a.273.273 0 0 0-.271.247 2.396 2.396 0 0 1-2.375 2.152 2.396 2.396 0 0 1-2.375-2.152.273.273 0 0 0-.271-.247h-2.772a.273.273 0 0 0-.271.247 2.396 2.396 0 0 1-2.794 2.114.273.273 0 0 0-.318.27v2.737c0 .145.112.262.256.275a5.6 5.6 0 0 0 4.322-1.498.277.277 0 0 1 .382 0 5.602 5.602 0 0 0 3.841 1.52 5.6 5.6 0 0 0 3.841-1.52.277.277 0 0 1 .382 0 5.602 5.602 0 0 0 3.841 1.52 5.6 5.6 0 0 0 3.841-1.52.277.277 0 0 1 .382 0 5.602 5.602 0 0 0 4.39 1.492.273.273 0 0 0 .242-.274V32.14Z" fill="#A48659"/></svg>