<svg width="24" height="24" fill="none" xmlns="http://www.w3.org/2000/svg"><mask id="a" style="mask-type:alpha" maskUnits="userSpaceOnUse" x="0" y="0" width="24" height="24"><path fill="#D9D9D9" d="M0 0h24v24H0z"/></mask><g mask="url(#a)"><path d="m20.123 16.824-.975-.975a5.426 5.426 0 0 0 1.187-1.763A5.35 5.35 0 0 0 20.748 12c0-.733-.137-1.43-.413-2.088a5.43 5.43 0 0 0-1.187-1.762l.975-.975a6.31 6.31 0 0 1 1.513 2.2c.342.834.512 1.709.512 2.625 0 .917-.17 1.792-.512 2.625a6.31 6.31 0 0 1-1.513 2.2Zm-2.175-2.2-1-.975c.234-.216.421-.466.563-.75a1.98 1.98 0 0 0 .212-.9c0-.333-.066-.641-.2-.925a2.02 2.02 0 0 0-.575-.725l1-1c.367.35.654.75.862 1.2.21.45.313.934.313 1.45 0 .5-.104.975-.313 1.425-.208.45-.495.85-.862 1.2ZM7.373 22.3c-.483 0-.891-.166-1.225-.5a1.636 1.636 0 0 1-.5-1.2V3.4c0-.466.167-.866.5-1.2.334-.333.742-.5 1.225-.5h9.25c.484 0 .892.167 1.225.5.334.334.5.734.5 1.2v3.55h-1.4V5.8h-9.9v12.4h9.9v-1.15h1.4v3.55c0 .467-.166.867-.5 1.2-.333.334-.741.5-1.225.5h-9.25Zm-.325-2.7v1c0 .067.034.134.1.2a.31.31 0 0 0 .225.1h9.25a.31.31 0 0 0 .225-.1c.067-.066.1-.133.1-.2v-1h-9.9Zm0-15.2h9.9v-1c0-.066-.033-.133-.1-.2a.31.31 0 0 0-.225-.1h-9.25a.31.31 0 0 0-.225.1c-.066.067-.1.134-.1.2v1Z" fill="#fff"/></g></svg>