<svg width="18" height="23" fill="none" xmlns="http://www.w3.org/2000/svg"><path d="m15.748 16.65-1.325-1.326c.5-.5.892-1.08 1.175-1.738a5.22 5.22 0 0 0 .425-2.087 5.37 5.37 0 0 0-1.6-3.85l1.325-1.3a7.014 7.014 0 0 1 1.6 2.35 7.23 7.23 0 0 1 .55 2.8c0 .967-.183 1.896-.55 2.787a6.98 6.98 0 0 1-1.6 2.363Zm-2.325-2.326-1.35-1.35c.2-.183.355-.404.463-.663.108-.258.162-.537.162-.837 0-.283-.05-.554-.15-.813a1.626 1.626 0 0 0-.475-.662l1.35-1.35c.384.384.671.817.863 1.3.192.484.287.992.287 1.525a4.135 4.135 0 0 1-1.15 2.85Zm-11.25 8.1c-.6 0-1.108-.208-1.525-.625a2.075 2.075 0 0 1-.625-1.525V2.724c0-.6.209-1.108.625-1.525A2.075 2.075 0 0 1 2.173.574h9.65c.6 0 1.109.209 1.525.625.417.417.625.925.625 1.525v3.75h-2.15V5.65h-9.65v11.7h9.65v-.825h2.15v3.75c0 .6-.208 1.109-.625 1.525a2.075 2.075 0 0 1-1.525.625h-9.65Zm0-3.2v1.05h9.65v-1.05h-9.65Zm0-15.45h9.65v-1.05h-9.65v1.05Z" fill="#603A0A"/></svg>