<svg width="80" height="80" fill="none" xmlns="http://www.w3.org/2000/svg"><mask id="a" style="mask-type:alpha" maskUnits="userSpaceOnUse" x="0" y="0" width="80" height="80"><path fill="#D9D9D9" d="M0 0h80v80H0z"/></mask><g mask="url(#a)"><path d="m31.835 54.33 22.583-14.333-22.583-14.416v28.75ZM40 73.83c-4.61 0-8.986-.888-13.125-2.666-4.139-1.778-7.736-4.194-10.791-7.25-3.056-3.056-5.473-6.653-7.25-10.792-1.778-4.139-2.667-8.514-2.667-13.125 0-4.61.889-8.986 2.667-13.125 1.777-4.139 4.194-7.736 7.25-10.791 3.055-3.056 6.652-5.473 10.791-7.25C31.015 7.053 35.389 6.164 40 6.164c4.611 0 8.986.889 13.125 2.667 4.14 1.777 7.736 4.194 10.792 7.25 3.056 3.055 5.472 6.652 7.25 10.791 1.778 4.14 2.667 8.514 2.667 13.125 0 4.611-.89 8.986-2.667 13.125-1.778 4.14-4.195 7.736-7.25 10.792-3.056 3.056-6.639 5.472-10.75 7.25-4.111 1.778-8.5 2.667-13.167 2.667Zm0-5.666c7.723 0 14.348-2.75 19.875-8.25 5.528-5.5 8.292-12.139 8.292-19.917 0-7.722-2.764-14.347-8.292-19.875-5.527-5.527-12.152-8.291-19.875-8.291-7.722 0-14.347 2.764-19.875 8.291-5.528 5.528-8.291 12.153-8.291 19.875 0 7.778 2.763 14.417 8.291 19.917 5.528 5.5 12.153 8.25 19.875 8.25Z" fill="#fff"/></g></svg>