<svg width="150" height="67" fill="none" xmlns="http://www.w3.org/2000/svg"><path d="M149.88 13.952c0-.91-.901-1.624-1.872-1.44a14.69 14.69 0 0 1-2.733.256c-7.179 0-13.107-5.025-13.827-11.449C131.365.572 130.687 0 129.869 0h-16.142c-.818 0-1.494.572-1.578 1.32-.721 6.423-6.647 11.448-13.828 11.448-7.178 0-13.105-5.025-13.826-11.449C84.411.572 83.735 0 82.917 0H66.774c-.818 0-1.495.572-1.578 1.32-.721 6.423-6.648 11.448-13.828 11.448-7.179 0-13.105-5.025-13.826-11.449C37.458.572 36.782 0 35.962 0h-16.14c-.819 0-1.496.572-1.58 1.32-.72 6.423-6.646 11.448-13.826 11.448-.833 0-1.649-.069-2.442-.201-.967-.16-1.849.54-1.849 1.442v14.564c0 .77.65 1.395 1.486 1.462a34.73 34.73 0 0 0 2.805.116c8.643 0 16.502-3.073 22.364-8.09a1.73 1.73 0 0 1 2.226 0c5.86 5.017 13.719 8.09 22.362 8.09 8.644 0 16.503-3.073 22.365-8.09a1.728 1.728 0 0 1 2.225 0c5.862 5.017 13.72 8.09 22.364 8.09 8.643 0 16.502-3.073 22.363-8.09a1.729 1.729 0 0 1 2.226 0c5.862 5.017 13.721 8.09 22.364 8.09 1.08 0 2.146-.051 3.197-.147.805-.072 1.408-.714 1.408-1.456V13.952Zm0 36.848c0-.91-.901-1.623-1.872-1.44a14.69 14.69 0 0 1-2.733.257c-7.179 0-13.107-5.025-13.827-11.45-.083-.746-.761-1.318-1.579-1.318h-16.142c-.818 0-1.494.572-1.578 1.319-.721 6.424-6.647 11.449-13.828 11.449-7.178 0-13.105-5.025-13.826-11.45-.084-.746-.76-1.318-1.578-1.318H66.774c-.818 0-1.495.572-1.578 1.319-.721 6.424-6.648 11.449-13.828 11.449-7.179 0-13.105-5.025-13.826-11.45-.084-.746-.76-1.318-1.58-1.318h-16.14c-.819 0-1.496.572-1.58 1.319-.72 6.424-6.646 11.449-13.826 11.449-.833 0-1.649-.07-2.442-.201-.967-.16-1.849.54-1.849 1.442v14.564c0 .77.65 1.395 1.486 1.462.924.075 1.86.115 2.805.115 8.643 0 16.502-3.072 22.364-8.09a1.73 1.73 0 0 1 2.226 0C34.866 63.928 42.725 67 51.368 67c8.644 0 16.503-3.072 22.365-8.09a1.728 1.728 0 0 1 2.225 0C81.82 63.928 89.678 67 98.322 67c8.643 0 16.502-3.072 22.363-8.09a1.729 1.729 0 0 1 2.226 0c5.862 5.018 13.721 8.09 22.364 8.09 1.08 0 2.146-.05 3.197-.146.805-.073 1.408-.714 1.408-1.457V50.801Z" fill="#A48659"/></svg>