<svg width="24" height="24" fill="none" xmlns="http://www.w3.org/2000/svg"><mask id="a" style="mask-type:alpha" maskUnits="userSpaceOnUse" x="0" y="0" width="24" height="24"><path fill="#D9D9D9" d="M0 0h24v24H0z"/></mask><g mask="url(#a)"><path d="M12 15.575c1.134 0 2.096-.396 2.888-1.188.792-.791 1.188-1.754 1.188-2.887s-.396-2.096-1.188-2.887c-.792-.792-1.754-1.188-2.887-1.188-1.134 0-2.096.396-2.887 1.188-.792.791-1.188 1.754-1.188 2.887s.396 2.096 1.188 2.887c.791.792 1.753 1.188 2.887 1.188Zm0-1.375a2.6 2.6 0 0 1-1.911-.788A2.601 2.601 0 0 1 9.3 11.5c0-.75.262-1.388.788-1.913A2.603 2.603 0 0 1 12 8.8c.75 0 1.387.262 1.913.787.524.525.787 1.163.787 1.913s-.263 1.387-.787 1.912A2.605 2.605 0 0 1 12 14.2Zm0 4.3c-2.3 0-4.395-.633-6.286-1.9-1.892-1.267-3.28-2.967-4.163-5.1.883-2.133 2.27-3.833 4.163-5.1C7.605 5.133 9.7 4.5 12 4.5s4.396.633 6.288 1.9c1.891 1.267 3.278 2.967 4.162 5.1-.884 2.133-2.27 3.833-4.162 5.1-1.892 1.267-3.988 1.9-6.288 1.9Zm0-1.5a9.545 9.545 0 0 0 5.189-1.488A9.772 9.772 0 0 0 20.8 11.5a9.778 9.778 0 0 0-3.612-4.013A9.55 9.55 0 0 0 12 6a9.55 9.55 0 0 0-5.188 1.487A9.777 9.777 0 0 0 3.2 11.5a9.77 9.77 0 0 0 3.612 4.012A9.545 9.545 0 0 0 12 17Z" fill="#fff"/></g></svg>