<svg width="37" height="38" fill="none" xmlns="http://www.w3.org/2000/svg"><path d="M33.93 37.3 20.848 24.1c-.955.833-2.09 1.483-3.406 1.95-1.317.467-2.716.7-4.197.7-3.62 0-6.689-1.267-9.207-3.8-2.517-2.533-3.776-5.6-3.776-9.2 0-3.6 1.259-6.667 3.776-9.2C6.556 2.017 9.592.75 13.146.75c3.555 0 6.583 1.267 9.084 3.8 2.501 2.533 3.752 5.6 3.752 9.2 0 1.433-.23 2.817-.691 4.15a13.368 13.368 0 0 1-2.024 3.75L36.398 34.8l-2.468 2.5ZM13.196 23.35c2.6 0 4.813-.942 6.64-2.825 1.826-1.883 2.74-4.142 2.74-6.775s-.914-4.892-2.74-6.775c-1.827-1.883-4.04-2.825-6.64-2.825-2.666 0-4.92.942-6.763 2.825-1.843 1.883-2.765 4.142-2.765 6.775s.922 4.892 2.765 6.775 4.097 2.825 6.763 2.825Zm-1.58-4.1V15.2h-3.95v-3h4v-4h2.961v4h3.95v3h-3.95v4.05h-3.01Z" fill="#fff"/></svg>