<svg width="80" height="80" viewBox="0 0 80 80" fill="none" xmlns="http://www.w3.org/2000/svg">
<path fill-rule="evenodd" clip-rule="evenodd" d="M22.3912 0.921928C20.4249 1.81381 16.0292 5.86292 14.8423 7.87519C12.6783 11.5441 13.9041 16.994 17.6502 20.3619C18.7334 21.3358 19.7524 22.1326 19.9152 22.1326C20.0779 22.1326 20.3128 23.3477 20.4376 24.8328C20.5619 26.318 21.0189 28.5857 21.4534 29.872C21.8878 31.1588 22.1667 32.335 22.0732 32.4863C21.9793 32.6376 17.7524 35.0015 12.6795 37.739C0.0834929 44.537 -1.16403 46.0051 1.63201 50.7401C3.37656 53.6942 5.19716 53.5904 14.0795 50.0293C17.5781 48.6269 20.5294 47.4792 20.6387 47.4792C20.7477 47.4792 20.7322 48.7267 20.6043 50.2514L20.3718 53.0237H23.0581C24.5358 53.0237 26.6193 53.2891 27.6886 53.6134C30.1991 54.375 30.091 54.3968 30.3544 53.0792C31.3952 47.876 40.3682 45.2617 45.9861 48.5251C47.6661 49.5005 50.0288 52.2669 50.0288 53.2578C50.0288 54.1215 50.6079 54.1984 52.5983 53.5995C53.6506 53.2827 55.7199 53.0237 57.1976 53.0237H59.8839L59.6459 50.1849C59.4277 47.5857 59.4665 47.3687 60.1049 47.6134C60.4882 47.7607 63.3235 48.8918 66.4055 50.1271C74.8209 53.5005 77.9255 53.2934 79.2514 49.2696C80.5409 45.3576 79.1599 43.9904 67.6419 37.7746C62.533 35.0174 58.2764 32.6376 58.1825 32.4863C58.089 32.335 58.3679 31.1588 58.8023 29.872C59.2368 28.5857 59.6938 26.318 59.8181 24.8328C59.9429 23.3477 60.1718 22.1326 60.3275 22.1326C61.0027 22.1326 64.3876 18.7342 65.0962 17.3449C68.0221 11.6098 65.9639 6.18014 59.1667 1.70331C55.8886 -0.455498 51.0229 0.212621 47.3176 3.33024C46.1021 4.35282 46.0431 4.36114 43.1065 3.91599C40.8768 3.57817 39.3789 3.57817 37.1492 3.91599C34.2126 4.36114 34.1536 4.35282 32.9381 3.33024C29.8574 0.737769 25.1607 -0.33431 22.3912 0.921928ZM27.0558 7.46886C27.5453 7.77856 27.3964 8.10094 26.1892 9.3441C25.3877 10.1698 24.1061 11.8895 23.3409 13.1651L21.95 15.4851L21.1393 14.1552C19.9385 12.1853 20.116 11.4788 22.3916 9.1746C24.4724 7.06767 25.7069 6.61618 27.0558 7.46886ZM57.8118 9.20113C60.148 11.537 60.3168 12.1861 59.1053 14.173L58.2839 15.5203L57.1706 13.579C56.5583 12.5112 55.2958 10.775 54.3643 9.72074C53.0162 8.1948 52.7853 7.73183 53.2312 7.44985C54.512 6.63876 55.7065 7.09539 57.8118 9.20113ZM43.312 16.0356C56.2003 19.8629 54.0934 38.3493 40.6859 39.0803C26.8126 39.8368 23.4732 20.1405 36.7821 16.0566C39.3477 15.2693 40.7168 15.2649 43.312 16.0356ZM38.6756 19.7992C33.4605 21.2918 34.6712 29.2613 40.1128 29.2613C45.3108 29.2613 46.9053 21.3536 41.9916 19.9441C40.3033 19.4597 39.9191 19.4431 38.6756 19.7992ZM20.2304 57.1291C11.2954 60.4546 11.4847 74.3259 20.5239 78.6118C30.1211 83.1619 37.6661 70.2692 30.8443 60.9762C28.3746 57.6122 23.5912 55.878 20.2304 57.1291ZM53.2914 57.8423C47.8649 60.4736 45.1057 68.2225 47.6031 73.8158C52.2894 84.3124 66.3706 79.7227 66.4368 67.6772C66.4803 59.7104 59.7785 54.6962 53.2914 57.8423ZM36.6368 71.7366C36.4158 72.8799 36.114 74.2007 35.9663 74.6712C35.7227 75.4467 35.9045 75.5695 37.9128 75.9865C41.108 76.6498 44.6704 75.9176 44.312 74.6712C44.1766 74.2007 43.868 72.8799 43.6261 71.7366L43.1869 69.6574H40.1124H37.0383L36.6368 71.7366Z" fill="#603A0A"/>
</svg>
