<svg width="80" height="80" viewBox="0 0 80 80" fill="none" xmlns="http://www.w3.org/2000/svg">
<path d="M32.0786 46.1504C32.2594 46.1504 32.4114 46.0171 32.4388 45.8376C34.3296 33.4617 44.9693 23.9834 57.8137 23.9834C58.8013 23.9834 59.7755 24.0407 60.7341 24.1502C61.0291 24.1839 61.2368 23.8667 61.0922 23.6063L52.463 8.07635C52.3984 7.9599 52.2762 7.8877 52.1434 7.8877H9.06495C8.93237 7.8877 8.81 7.9599 8.74533 8.07612L0.0471294 23.7086C-0.0893847 23.9538 0.0869922 24.2559 0.36651 24.2559H3.01799C3.2201 24.2559 3.38396 24.4206 3.38396 24.6239V45.7826C3.38396 45.9857 3.54783 46.1504 3.74993 46.1504H32.0786Z" fill="#603A0A"/>
<path d="M32.4214 52.776C32.4214 52.5829 32.2471 52.4322 32.0591 52.4711C31.888 52.5063 31.7114 52.5254 31.5302 52.5254C30.1409 52.5254 28.9939 51.4615 28.8546 50.1015C28.8384 49.9431 28.7072 49.8223 28.5489 49.8223H25.4253C25.267 49.8223 25.136 49.9431 25.1198 50.1015C24.9803 51.4615 23.8335 52.5254 22.444 52.5254C21.0548 52.5254 19.9079 51.4615 19.7684 50.1015C19.7522 49.9431 19.6212 49.8223 19.4629 49.8223H16.3391C16.1808 49.8223 16.0498 49.9431 16.0336 50.1015C15.8941 51.4615 14.7473 52.5254 13.3578 52.5254C11.9686 52.5254 10.8217 51.4615 10.6822 50.1015C10.666 49.9431 10.535 49.8223 10.3765 49.8223H7.25314C7.09461 49.8223 6.96366 49.9431 6.94743 50.1015C6.80814 51.4615 5.66133 52.5254 4.27185 52.5254C4.11053 52.5254 3.9527 52.5107 3.79926 52.4828C3.61199 52.449 3.44141 52.5971 3.44141 52.7881V55.8714C3.44141 56.0344 3.56726 56.1667 3.72904 56.1809C3.90773 56.1968 4.08875 56.2054 4.27185 56.2054C5.94432 56.2054 7.46521 55.5549 8.59951 54.4928C8.72212 54.3782 8.90777 54.3782 9.03038 54.4928C10.1644 55.5549 11.6851 56.2054 13.3578 56.2054C15.0305 56.2054 16.5514 55.5549 17.6857 54.4928C17.8081 54.3782 17.9937 54.3782 18.1163 54.4928C19.2506 55.5549 20.7715 56.2054 22.444 56.2054C24.1167 56.2054 25.6376 55.5549 26.7717 54.4928C26.8943 54.3782 27.0799 54.3782 27.2025 54.4928C28.3368 55.5549 29.8577 56.2054 31.5302 56.2054C31.7392 56.2054 31.9455 56.1947 32.149 56.1744C32.3048 56.1588 32.4214 56.0232 32.4214 55.866V52.776Z" fill="#603A0A"/>
<path d="M74.2322 51.9841L79.1558 54.0334C80.8665 45.3957 77.2059 36.5051 69.9176 31.6133L67.8763 36.5654C72.5795 40.1765 75.0166 46.0891 74.2322 51.9841ZM64.9358 29.1265L62.9414 33.965C63.3463 34.098 63.7499 34.2422 64.1499 34.4087C64.5499 34.5752 64.9368 34.7601 65.3166 34.9537L67.311 30.115C66.9275 29.9284 66.5372 29.7507 66.1383 29.5847C65.7394 29.4188 65.3384 29.267 64.9358 29.1265ZM42.5083 43.4169C42.6738 43.0152 42.8553 42.625 43.0477 42.2435L38.2386 40.2417C38.0525 40.6274 37.8731 41.018 37.7079 41.4188C37.5426 41.8199 37.3947 42.2237 37.2548 42.6285L42.0638 44.6302C42.1962 44.2237 42.3426 43.8187 42.5083 43.4169ZM78.3675 56.9453L73.5585 54.9434C73.4261 55.3501 73.2799 55.7549 73.1142 56.1566C72.9485 56.5584 72.7672 56.9488 72.5746 57.3303L77.3839 59.3319C77.5695 58.9462 77.7492 58.5558 77.9147 58.1548C78.0799 57.7537 78.2278 57.3501 78.3675 56.9453ZM50.3059 64.6199L48.3115 69.4586C48.6948 69.6452 49.0854 69.8229 49.484 69.9889C49.8829 70.1548 50.2839 70.3066 50.6865 70.4471L52.6809 65.6086C52.2762 65.4756 51.8724 65.3314 51.4724 65.1649C51.0726 64.9984 50.6855 64.8137 50.3059 64.6199ZM55.6251 66.2878L53.5838 71.2397C62.1794 72.9597 71.024 69.2744 75.8922 61.951L70.9687 59.9016C67.3755 64.6271 61.4915 67.0764 55.6251 66.2878ZM41.39 47.5895L36.4667 45.5401C34.756 54.1778 38.4169 63.0687 45.705 67.9603L47.7462 63.0082C43.043 59.3971 40.606 53.4845 41.39 47.5895ZM39.7303 37.6228L44.6536 39.672C48.247 34.9465 54.1308 32.4972 59.9975 33.2858L62.0387 28.3339C53.4432 26.6139 44.5985 30.2992 39.7303 37.6228Z" fill="#603A0A"/>
<path d="M67.7288 30.6195L51.3369 70.3875C51.2831 70.5179 51.3529 70.6682 51.4871 70.7094C51.9263 70.844 52.3669 70.9639 52.8086 71.0695C52.9227 71.0965 53.0395 71.0354 53.0842 70.9267L69.344 31.4799C69.3887 31.3711 69.3491 31.2449 69.2494 31.1832C68.8629 30.944 68.467 30.7155 68.0618 30.4986C67.9376 30.4325 67.7826 30.4891 67.7288 30.6195ZM46.3707 68.3896C46.757 68.6288 47.1531 68.8573 47.5583 69.0739C47.6821 69.1403 47.8373 69.0837 47.8911 68.9532L64.283 29.1853C64.3368 29.0548 64.267 28.9044 64.1326 28.8634C63.6936 28.7288 63.253 28.6088 62.8113 28.5035C62.6975 28.4763 62.5806 28.5373 62.5357 28.6461L46.2761 68.0929C46.2314 68.2016 46.2708 68.3279 46.3707 68.3896Z" fill="#603A0A"/>
<path d="M38.741 39.8192L78.3148 56.2915C78.4446 56.3456 78.5943 56.2755 78.6351 56.1406C78.7691 55.6992 78.8884 55.2565 78.9932 54.8126C79.0203 54.6982 78.9596 54.5806 78.8516 54.5356L39.5972 38.1961C39.4892 38.1511 39.3635 38.1912 39.3019 38.2911C39.0639 38.6796 38.8367 39.0774 38.6207 39.4847C38.5549 39.6094 38.6112 39.7652 38.741 39.8192ZM76.3267 61.2821C76.5647 60.8938 76.7918 60.496 77.0076 60.0889C77.0737 59.9643 77.0173 59.8082 76.8876 59.7542L37.3137 43.2819C37.1839 43.2278 37.0345 43.2979 36.9934 43.433C36.8595 43.8742 36.7401 44.3169 36.6353 44.7609C36.6082 44.8752 36.6689 44.9928 36.7772 45.0378L76.0314 61.3771C76.1396 61.4223 76.2652 61.3822 76.3267 61.2821Z" fill="#603A0A"/>
<path d="M32.4214 60.9333C32.4214 60.7404 32.2471 60.5895 32.0591 60.6284C31.888 60.6638 31.7114 60.6826 31.5302 60.6826C30.1409 60.6826 28.9939 59.6187 28.8546 58.2588C28.8384 58.1006 28.7072 57.9795 28.5489 57.9795H25.4253C25.267 57.9795 25.136 58.1006 25.1198 58.2588C24.9803 59.6187 23.8335 60.6826 22.444 60.6826C21.0548 60.6826 19.9079 59.6187 19.7684 58.2588C19.7522 58.1006 19.6212 57.9795 19.4629 57.9795H16.3391C16.1808 57.9795 16.0498 58.1006 16.0336 58.2588C15.8941 59.6187 14.7473 60.6826 13.3578 60.6826C11.9686 60.6826 10.8217 59.6187 10.6822 58.2588C10.666 58.1006 10.535 57.9795 10.3765 57.9795H7.25314C7.09461 57.9795 6.96366 58.1006 6.94743 58.2588C6.80814 59.6187 5.66133 60.6826 4.27185 60.6826C4.11053 60.6826 3.9527 60.668 3.79926 60.64C3.61199 60.6063 3.44141 60.7544 3.44141 60.9454V64.0286C3.44141 64.1917 3.56726 64.324 3.72904 64.3382C3.90773 64.354 4.08875 64.3626 4.27185 64.3626C5.94432 64.3626 7.46521 63.7121 8.59951 62.65C8.72212 62.5354 8.90777 62.5354 9.03038 62.65C10.1644 63.7121 11.6851 64.3626 13.3578 64.3626C15.0305 64.3626 16.5514 63.7121 17.6857 62.65C17.8081 62.5354 17.9937 62.5354 18.1163 62.65C19.2506 63.7121 20.7715 64.3626 22.444 64.3626C24.1167 64.3626 25.6376 63.7121 26.7717 62.65C26.8943 62.5354 27.0799 62.5354 27.2025 62.65C28.3368 63.7121 29.8577 64.3626 31.5302 64.3626C31.7392 64.3626 31.9455 64.3519 32.149 64.3316C32.3048 64.3163 32.4214 64.1805 32.4214 64.0233V60.9333Z" fill="#603A0A"/>
</svg>
