<svg width="80" height="80" viewBox="0 0 80 80" fill="none" xmlns="http://www.w3.org/2000/svg">
<path fill-rule="evenodd" clip-rule="evenodd" d="M44.4506 8.14604C43.9402 8.4256 43.8422 9.15779 44.1075 10.7094C44.476 12.8643 45.6237 14.9593 47.3576 16.6415C47.9966 17.2615 47.9589 16.9473 47.9589 21.654V25.8569L48.36 25.9621C51.6369 26.8216 54.0665 27.5478 54.6032 27.8279C54.9117 27.9889 54.9252 27.9528 54.7689 27.3854C54.6408 26.9203 54.6008 26.8695 53.9684 26.3678C50.5407 23.6487 50.7863 18.3379 54.4518 15.9152C55.3004 15.3543 56.7488 14.9009 57.6922 14.9009C58.1458 14.9009 58.2817 14.7792 59.1544 13.5912C60.6019 11.621 60.7894 9.90214 59.5933 9.56883C58.9896 9.40059 58.6651 9.65505 57.1838 11.458C55.2161 13.853 54.0512 14.5891 52.2103 14.6008C49.6336 14.6171 48.0781 13.2805 45.9879 9.25414C45.3403 8.00671 45.066 7.80901 44.4506 8.14604ZM51.787 8.50631C48.9834 9.09513 49.21 13.43 52.0643 13.8122C53.7585 14.039 55.3508 11.9009 54.7697 10.1797C54.3971 9.07578 52.9475 8.26254 51.787 8.50631ZM29.448 9.06267C27.599 9.67998 26.9517 11.8505 28.1349 13.4657C28.7369 14.2876 30.2979 14.7256 31.3432 14.3661C33.142 13.7475 33.6884 10.8639 32.2491 9.58526C31.5978 9.00656 30.3264 8.76943 29.448 9.06267ZM38.0124 10.4825C34.9349 11.1976 32.5791 13.9839 32.5653 16.9249C32.5462 21.0406 36.3561 24.0345 40.2824 22.9892C43.1025 22.2383 45.1372 19.0919 44.9237 15.8119C44.6968 12.3245 41.3132 9.71544 38.0124 10.4825ZM73.4779 11.943C73.3075 12.0043 73.0598 12.1576 72.9274 12.2836C72.6197 12.5763 71.4824 14.9234 70.6193 17.0463C68.5262 22.1957 67.4004 24.0991 65.175 26.2515C61.7074 29.6051 54.923 32.1055 47.318 32.8326C44.926 33.0613 44.484 33.2696 44.0806 34.3578C43.4176 36.1462 43.8497 37.2948 45.3472 37.7257C47.767 38.4219 48.7929 38.5724 51.2186 38.5874C54.3711 38.6069 54.7342 38.7463 54.9908 40.0359C55.2099 41.1369 54.7343 46.1841 54.2581 47.811C54.2191 47.9446 54.0908 48.3818 53.9732 48.7825C53.8556 49.1833 53.5409 49.9567 53.274 50.5014C52.6278 51.8197 52.6127 51.9994 53.043 53.2573C53.4994 54.592 53.4683 55.2551 52.8919 56.474C52.1381 58.0682 50.9911 59.1707 48.1859 60.9976C47.3843 61.5196 46.6862 61.9981 46.6345 62.0609C46.4502 62.2852 49.0368 63.456 50.9005 63.9918C58.5151 66.1812 65.494 63.316 68.6214 56.7165C70.1502 53.4906 70.3807 49.5472 69.523 41.2937C69.3521 39.6498 69.3285 36.2205 69.4793 34.9789C69.7676 32.6076 69.8753 32.321 71.3781 29.926C74.1952 25.4363 76.0047 19.5221 76 14.8199C75.9977 12.517 75.011 11.3915 73.4779 11.943ZM22.3549 12.2443C21.8156 12.5101 21.9602 13.8319 22.6324 14.7795C23.1957 15.5737 24.5175 16.9231 24.9376 17.133C25.7555 17.5416 25.9432 17.8443 26.0134 18.8679L26.0606 19.5561L26.8155 20.0576C28.45 21.1435 32.1534 22.9159 32.7878 22.9159C32.8158 22.9159 32.8386 22.4646 32.8386 21.9131V20.9102L32.4748 20.22C31.7993 18.9383 31.4993 16.9892 31.7885 15.7605C31.9049 15.2659 31.9311 15.2829 31.2252 15.3944C29.1064 15.7292 27.2037 15.1601 25.098 13.5616C23.5945 12.4203 22.7858 12.0319 22.3549 12.2443ZM15.9253 12.9693C14.1618 13.2924 13.448 15.771 14.5078 17.8916C15.8531 20.5836 18.4296 23.5734 22.6274 27.3137C25.6705 30.0252 26.1953 30.6895 26.6686 32.4287C26.9452 33.445 26.9292 35.1139 26.631 36.3552C26.3142 37.6745 26.2783 38.0562 26.4715 38.0525C26.8326 38.0456 27.5623 37.3776 28.4812 36.213C30.9359 33.1015 32.4919 32.5346 34.1189 34.1588C36.1189 36.1552 35.332 39.3977 31.7723 43.8279C29.6754 46.4374 29.273 46.8712 27.5548 48.3737C26.5757 49.23 26.6175 49.1416 26.542 50.5159L26.4824 51.6017L26.873 51.2735C28.1546 50.1973 29.0896 50.3062 31.0072 51.7551C31.5219 52.1441 32.316 52.7047 32.7719 53.001C33.2277 53.2972 33.8894 53.7318 34.2424 53.9667C35.404 54.7399 35.6666 54.6368 35.1708 53.6022C34.7413 52.7057 34.6587 52.243 34.7015 50.9733C34.7928 48.2713 36.2656 46.3736 38.9349 45.519C40.27 45.0916 41.0334 45.0458 42.4313 45.3095C42.9954 45.416 43.0464 44.8647 42.7954 41.3747C42.6132 38.8407 43.1146 33.5474 43.6192 32.6783C43.951 32.1069 44.2622 31.9924 45.7264 31.9028C48.1088 31.757 51.0611 31.3721 52.8921 30.9687C53.1788 30.9055 54.0271 30.7228 54.7771 30.5629C57.0151 30.0854 57.0427 29.9031 55.0092 29.0266C52.3948 27.8995 50.5154 27.4332 44.3894 26.3917C35.7153 24.917 32.3849 24.0216 28.7346 22.1829C26.2864 20.9498 23.3808 18.7927 21.6929 16.9555C18.4658 13.4425 17.3922 12.7005 15.9253 12.9693ZM56.7022 15.6784C52.2973 16.5934 50.6937 22.1436 53.8947 25.3951C57.5118 29.0691 63.6374 26.4541 63.5899 21.2562C63.5566 17.6174 60.2519 14.9411 56.7022 15.6784ZM5.10446 31.8314C3.97665 32.2689 3.75293 33.4788 4.2501 36.451C4.94299 40.5935 6.6136 43.742 9.97696 47.2443C11.5581 48.8906 11.4693 48.4944 11.3392 53.3328L11.2364 57.1544L11.4386 57.4212C12.0964 58.2895 15.031 61.0829 16.5151 62.2534C16.8681 62.5319 17.2211 62.8122 17.2996 62.8765C18.6702 63.999 23.138 66.796 23.5603 66.796C23.6387 66.796 23.9939 61.3187 24.1747 57.3237C24.5557 48.9028 24.4514 49.6455 25.3386 49.0435C26.7287 48.1005 30.4688 44.0826 32.0252 41.8605C34.6055 38.1761 34.9638 35.5171 32.9999 34.6267C31.7729 34.0704 31.3026 34.4237 28.112 38.2982C24.8761 42.2278 22.8361 43.58 19.8039 43.8053C15.7721 44.1047 12.4607 42.0742 9.76721 37.6506C9.21261 36.7396 8.9483 36.2584 8.01125 34.4527C6.53932 31.6162 6.27462 31.3776 5.10446 31.8314ZM18.0771 32.7025C13.764 33.8779 13.5685 40.4538 17.7985 42.0702C20.7652 43.2039 23.6575 41.0191 24.1337 37.2849C24.4944 34.4559 21.0912 31.8811 18.0771 32.7025ZM39.6969 46.6389C36.9394 47.1975 35.4408 50.2786 36.6839 52.8334C37.7009 54.9233 40.4348 55.9313 42.5044 54.9795C45.6332 53.5404 45.9042 48.4915 42.928 47.0839C41.9646 46.6282 40.646 46.4466 39.6969 46.6389ZM28.1265 51.7399C27.3821 52.0419 27.4678 53.9957 28.2855 55.3614C29.127 56.7667 31.3224 59.0339 32.3136 59.521C33.1606 59.9372 33.4689 60.2837 33.7188 61.1003C33.8736 61.6062 33.8814 61.8409 33.8814 65.9949C33.8814 68.3947 33.9004 70.3582 33.9237 70.3582C33.9469 70.3582 34.7139 70.4653 35.6282 70.5962C38.4085 70.9941 42.2244 71.1198 44.0763 70.8746L44.4452 70.8257L44.4975 69.4861C44.5263 68.7493 44.5498 66.886 44.5498 65.3455C44.5498 61.6786 44.5416 61.7052 45.8795 61.0875C48.3401 59.9514 51.4818 57.4999 52.0859 56.2446C52.7347 54.8967 52.5451 53.87 51.6314 53.7825C51.2081 53.7419 51.0947 53.7801 49.4028 54.5318C42.0737 57.7882 37.1071 57.6166 32.5446 53.9491C30.2505 52.1052 28.8958 51.4277 28.1265 51.7399Z" fill="#603A0A"/>
</svg>
