<svg width="80" height="80" viewBox="0 0 80 80" fill="none" xmlns="http://www.w3.org/2000/svg">
<path fill-rule="evenodd" clip-rule="evenodd" d="M18.9065 5.15596C15.9757 6.55999 17.4229 16.759 23.0335 34.239L23.2672 34.9669L23.3821 34.5387C24.3331 30.9985 26.7074 28.4274 30.0676 27.2987C32.4904 26.4848 34.9233 26.6546 37.6156 27.8253C38.0378 28.0089 38.3994 28.1591 38.4192 28.1591C38.4713 28.1591 38.1277 27.5785 36.8734 25.5473C27.7648 10.7972 21.6403 3.8463 18.9065 5.15596ZM40.644 30.0866C44.9164 34.6733 44.1083 41.9471 38.9553 45.2882L38.2329 45.7566L38.5282 45.7852C38.9419 45.8255 45.6604 45.6455 47.6208 45.5416C62.5577 44.7502 69.5916 42.5757 67.6973 39.335C66.0773 36.5634 57.0311 33.1761 43.0086 30.0903C41.5993 29.7802 40.3539 29.5056 40.2411 29.4801C40.0791 29.4435 40.164 29.5713 40.644 30.0866ZM32.2693 31.2389C26.7569 32.2491 25.6141 39.6273 30.573 42.1901C34.8646 44.4081 39.8556 40.6451 38.9528 35.8722C38.3855 32.8733 35.242 30.694 32.2693 31.2389ZM22.3267 38.2423C15.5981 50.2792 11.51 60.4534 12.0472 63.8248C12.7619 68.3107 19.5268 64.3316 30.6719 52.8696C33.2719 50.1958 36.3583 46.8531 36.2903 46.7848C36.2717 46.7662 35.9744 46.8252 35.6297 46.9159C30.5405 48.2555 25.1465 45.16 23.4594 39.9318C23.2481 39.2769 23.0652 38.2213 23.0652 37.6568C23.0652 37.3783 23.0364 37.1505 23.0011 37.1505C22.9658 37.1506 22.6625 37.6419 22.3267 38.2423ZM35.7908 53.8633C32.578 57.3144 30.1794 59.694 28.3392 61.256L27.9357 61.5985L27.7224 66.8221C27.6051 69.6951 27.4833 72.7104 27.4518 73.5228L27.3944 75H33.2277H39.061L39.0025 73.7797C38.9704 73.1086 38.8693 71.0759 38.7779 69.2626C38.6155 66.0373 38.5586 64.9308 38.3131 60.2284C38.2468 58.9568 38.1253 56.5195 38.0432 54.8122C37.961 53.1049 37.8721 51.708 37.8455 51.708C37.819 51.708 36.8944 52.6779 35.7908 53.8633Z" fill="#603A0A"/>
</svg>
