<svg width="80" height="80" viewBox="0 0 80 80" fill="none" xmlns="http://www.w3.org/2000/svg">
<path fill-rule="evenodd" clip-rule="evenodd" d="M36.3839 3.66381L36.2691 6.93114L33.0017 7.04599L29.7344 7.16124V10.2975V13.4337L33.0017 13.549L36.2691 13.6638L36.3804 18.77L36.4916 23.8757L29.7467 30.3886L23.0017 36.9014V41.9454V46.989L14.5859 51.6262C9.95738 54.1767 5.92174 56.4179 5.61837 56.6064C5.15699 56.8927 6.91263 60.9458 8.17441 62.5078C8.23263 62.5798 8.65204 62.4401 9.10629 62.1969C9.93243 61.7549 9.93243 61.7553 9.93243 70.6796V79.6044H19.7827H29.6326L29.816 76.5351C30.6247 62.9901 48.6461 62.9901 49.4548 76.5351L49.6382 79.6044H59.4881H69.3384V70.6935C69.3384 62.1165 69.4469 61.2575 70.4105 62.221C70.8378 62.6484 74.0619 58.2472 74.0825 57.2088C74.0873 56.9802 70.0877 54.2179 65.195 51.0701L56.2988 45.347L56.2841 41.1335L56.2691 36.9197L49.5245 30.366L42.7796 23.8123L42.8909 18.7383L43.0017 13.6638L46.2691 13.549L49.5364 13.4337V10.2975V7.16124L46.2691 7.04599L43.0017 6.93114L42.8869 3.66381L42.7716 0.396484H39.6354H36.4992L36.3839 3.66381ZM43.62 40.9593C45.6227 42.2848 46.4964 44.2951 46.2928 47.109C45.6809 55.57 33.5899 55.57 32.978 47.109C32.5455 41.1299 38.5946 37.6341 43.62 40.9593Z" fill="#603A0A"/>
</svg>
