<svg width="80" height="80" viewBox="0 0 80 80" fill="none" xmlns="http://www.w3.org/2000/svg">
<path fill-rule="evenodd" clip-rule="evenodd" d="M38.4928 4.69061C34.7795 16.0197 25.8041 19.7053 15.728 14.0387C13.9843 13.0581 12.4833 12.3302 12.3926 12.4213C12.3019 12.512 13.0254 14.1746 14.0005 16.116C19.3023 26.6732 15.8227 34.5651 4.0603 38.6601C2.26386 39.2859 0.793365 39.8934 0.792969 40.0102C0.792177 40.1274 2.54822 40.7987 4.69475 41.5025C15.6726 45.1009 19.3906 53.4126 14.545 63.5227C13.511 65.6807 12.7308 67.512 12.8116 67.5928C12.8924 67.674 14.8496 66.8205 17.1609 65.697C22.4227 63.1385 25.909 62.8696 29.9328 64.7116C34.7078 66.8978 36.4805 69.0637 38.8072 75.5556C39.652 77.9132 40.4243 79.5338 40.5458 79.2035C40.6658 78.8768 41.2999 77.1187 41.9549 75.297C44.9149 67.0629 48.8294 63.956 56.2429 63.956C59.9308 63.956 60.094 63.9964 63.9225 65.8471C66.0742 66.8874 67.8979 67.6748 67.9755 67.5972C68.0532 67.5199 67.1961 65.5995 66.0714 63.3298C60.8227 52.7389 64.4282 44.948 76.3363 41.1512C77.9157 40.6478 79.2076 40.1306 79.2076 40.0019C79.2076 39.8732 77.4512 39.1924 75.3046 38.4886C64.3296 34.8914 60.5914 26.5342 65.4551 16.47C66.4955 14.3179 67.2777 12.4882 67.1938 12.4039C67.1094 12.3199 65.1498 13.1706 62.8385 14.2942C52.8801 19.1358 44.6845 15.4217 41.3514 4.55635C40.7169 2.48823 40.1019 0.794371 39.985 0.791995C39.8678 0.789618 39.1965 2.54407 38.4928 4.69061ZM44.0397 20.6312C59.3411 23.8221 64.9759 42.8324 53.8963 53.8859C38.1763 69.5682 12.81 51.4312 22.2833 31.2827C25.9787 23.4241 35.374 18.8241 44.0397 20.6312Z" fill="#603A0A"/>
</svg>
