<svg width="80" height="80" viewBox="0 0 80 80" fill="none" xmlns="http://www.w3.org/2000/svg">
<path fill-rule="evenodd" clip-rule="evenodd" d="M17.7605 4.35039C18.1821 3.44504 19.0327 2.6329 19.9389 2.26995C21.803 1.52346 23.93 2.36996 24.9298 4.25615C25.3685 5.08378 25.5246 19.584 25.1084 20.8485C24.0217 24.1505 19.4681 24.4882 17.847 21.3872L17.4492 20.6261V12.8227C17.4492 5.18858 17.4559 5.00471 17.7605 4.35039ZM55.7613 4.34002C56.1775 3.43197 57.0169 2.63722 57.9365 2.28033C59.9792 1.48735 62.2625 2.52291 63.0289 4.58986C63.4283 5.66748 63.4996 19.4755 63.1124 20.7914C62.1118 24.1911 57.4517 24.5117 55.7946 21.295L55.4499 20.6261V12.8227C55.4499 5.19214 55.4568 5.00427 55.7613 4.34002ZM26.5272 24.7113C28.2165 23.0194 28.5826 21.8362 28.6768 17.7649L28.7497 14.6063H40.3498H51.9497L52.0266 17.7649C52.091 20.4068 52.1514 21.0582 52.3962 21.7481C54.3229 27.1781 60.612 28.6971 64.5429 24.6817C66.1923 22.9966 66.5861 21.7918 66.6808 18.1365C66.7293 16.264 66.727 15.5355 66.9817 15.4281C67.1582 15.3537 67.458 15.5775 67.9835 15.9255C70.3673 17.5039 71.5698 19.5189 71.8816 22.4572C71.9825 23.4068 72.0194 31.908 71.9904 47.4551L71.9464 71.0141L71.5353 72.2032C70.5926 74.9297 68.7495 76.7602 65.9811 77.7194C65.1996 77.9901 64.3003 78 40.5 78C16.6997 78 15.8004 77.9901 15.0189 77.7194C12.2506 76.7602 10.4074 74.9297 9.46472 72.2032L9.05363 71.0141L9.00958 47.4551C8.98058 31.908 9.01755 23.4068 9.11843 22.4572C9.43085 19.5127 10.6314 17.5054 13.0305 15.9158L13.9142 15.3304L14.0011 18.0546C14.0734 20.3241 14.1432 20.9465 14.419 21.7825C16.1744 27.106 22.5872 28.657 26.5272 24.7113ZM65.0974 70.4938V52.2115V33.9291H40.5H15.9026V52.2115V70.4938H40.5H65.0974ZM19.143 67.0752V52.2115V37.3478H40.5H61.857V52.2115V67.0752H40.5H19.143ZM42.7863 58.6307V44.7939H40.4229L37.0152 47.0032V49.3003L40.2221 47.2329H40.3024V58.6307H42.7863Z" fill="#603A0A"/>
</svg>
