<svg width="80" height="80" fill="none" xmlns="http://www.w3.org/2000/svg"><path fill-rule="evenodd" clip-rule="evenodd" d="M22.391.922c-1.966.892-6.362 4.94-7.549 6.953-2.164 3.67-.938 9.119 2.808 12.487 1.083.974 2.102 1.77 2.265 1.77.163 0 .398 1.216.523 2.7.124 1.486.58 3.754 1.015 5.04.435 1.287.714 2.463.62 2.614-.094.152-4.32 2.516-9.393 5.253C.083 44.537-1.164 46.005 1.632 50.74c1.745 2.954 3.565 2.85 12.447-.71 3.5-1.403 6.45-2.55 6.56-2.55.109 0 .093 1.247-.035 2.771l-.232 2.773h2.686c1.478 0 3.561.265 4.63.59 2.511.761 2.403.783 2.666-.535 1.041-5.203 10.014-7.817 15.632-4.554 1.68.976 4.043 3.742 4.043 4.733 0 .863.579.94 2.57.341 1.052-.316 3.12-.575 4.599-.575h2.686l-.238-2.84c-.218-2.598-.18-2.815.459-2.57.383.147 3.219 1.278 6.3 2.513 8.416 3.373 11.52 3.166 12.846-.857 1.29-3.912-.091-5.28-11.61-11.495-5.108-2.758-9.365-5.137-9.459-5.289-.093-.151.186-1.327.62-2.614.435-1.286.892-3.554 1.016-5.04.125-1.484.354-2.7.51-2.7.675 0 4.06-3.398 4.768-4.787 2.926-5.735.868-11.165-5.93-15.642C55.89-.455 51.024.213 47.319 3.33c-1.216 1.023-1.275 1.031-4.212.586-2.23-.338-3.727-.338-5.957 0-2.936.445-2.995.437-4.21-.586C29.856.738 25.16-.334 22.39.922Zm4.665 6.547c.49.31.34.632-.867 1.875-.801.826-2.083 2.546-2.848 3.821l-1.391 2.32-.81-1.33c-1.201-1.97-1.024-2.676 1.252-4.98 2.08-2.107 3.315-2.559 4.664-1.706ZM57.812 9.2c2.336 2.336 2.505 2.985 1.293 4.972l-.821 1.347-1.113-1.941c-.613-1.068-1.875-2.804-2.807-3.858-1.348-1.526-1.579-1.99-1.133-2.271 1.281-.811 2.475-.355 4.58 1.751Zm-14.5 6.835C56.2 19.863 54.093 38.349 40.686 39.08c-13.873.757-17.213-18.94-3.904-23.023 2.566-.788 3.935-.792 6.53-.021Zm-4.636 3.763c-5.215 1.493-4.005 9.462 1.437 9.462 5.198 0 6.792-7.907 1.879-9.317-1.689-.484-2.073-.5-3.316-.145ZM20.23 57.13c-8.935 3.326-8.745 17.197.294 21.483 9.597 4.55 17.142-8.343 10.32-17.636-2.47-3.364-7.253-5.098-10.614-3.847Zm33.061.713c-5.426 2.632-8.185 10.38-5.688 15.974 4.686 10.496 18.768 5.907 18.834-6.139.043-7.967-6.658-12.98-13.146-9.835ZM36.637 71.737c-.221 1.143-.523 2.464-.67 2.934-.244.776-.063.898 1.946 1.316 3.195.663 6.757-.07 6.399-1.316-.135-.47-.444-1.791-.686-2.934l-.44-2.08h-6.148l-.401 2.08Z" fill="#603A0A"/></svg>