<svg width="80" height="80" fill="none" xmlns="http://www.w3.org/2000/svg"><path fill-rule="evenodd" clip-rule="evenodd" d="m36.384 3.664-.115 3.267-3.267.115-3.268.115v6.273l3.268.115 3.267.115.111 5.106.112 5.106-6.745 6.513-6.745 6.512V46.99l-8.416 4.637c-4.629 2.55-8.664 4.792-8.968 4.98-.461.287 1.295 4.34 2.556 5.902.059.072.478-.068.932-.311.826-.442.826-.442.826 8.483v8.924h19.7l.184-3.069c.809-13.545 18.83-13.545 19.639 0l.183 3.07h19.7v-8.912c0-8.576.109-9.435 1.073-8.472.427.427 3.65-3.974 3.671-5.012.005-.229-3.994-2.991-8.887-6.139l-8.896-5.723-.015-4.214-.015-4.213-6.744-6.554-6.745-6.554.11-5.074.112-5.074 3.267-.115 3.267-.115V7.16l-3.267-.115-3.267-.115-.115-3.267-.115-3.268h-6.273l-.115 3.268Zm7.236 37.295c2.003 1.326 2.876 3.336 2.673 6.15-.612 8.461-12.703 8.461-13.315 0-.433-5.98 5.617-9.475 10.642-6.15Z" fill="#603A0A"/></svg>