<svg width="80" height="80" fill="none" xmlns="http://www.w3.org/2000/svg"><path fill-rule="evenodd" clip-rule="evenodd" d="M18.907 5.156c-2.931 1.404-1.484 11.603 4.127 29.083l.233.728.115-.428c.951-3.54 3.325-6.112 6.686-7.24 2.422-.814 4.855-.644 7.548.526.422.184.783.334.803.334.052 0-.291-.58-1.546-2.612-9.108-14.75-15.233-21.7-17.966-20.391Zm21.737 24.93c4.272 4.587 3.464 11.861-1.689 15.202l-.722.469.295.028c.414.04 7.132-.14 9.093-.243 14.937-.792 21.97-2.966 20.076-6.207-1.62-2.772-10.666-6.159-24.688-9.245-1.41-.31-2.655-.584-2.768-.61-.162-.037-.077.091.403.607Zm-8.375 1.153c-5.512 1.01-6.655 8.388-1.696 10.951 4.292 2.218 9.283-1.545 8.38-6.318-.568-2.999-3.711-5.178-6.684-4.633Zm-9.942 7.003C15.598 50.28 11.51 60.453 12.047 63.825c.715 4.486 7.48.507 18.625-10.955 2.6-2.674 5.686-6.017 5.618-6.085-.018-.019-.316.04-.66.13-5.09 1.34-10.484-1.755-12.17-6.983-.212-.655-.395-1.71-.395-2.275 0-.279-.029-.506-.064-.506s-.338.49-.674 1.091ZM35.79 53.863c-3.213 3.451-5.612 5.831-7.452 7.393l-.403.343-.214 5.223c-.117 2.873-.239 5.888-.27 6.7L27.394 75h11.667l-.059-1.22a3786.577 3786.577 0 0 0-.69-13.551c-.065-1.272-.187-3.71-.269-5.417-.082-1.707-.17-3.104-.197-3.104-.027 0-.952.97-2.055 2.155Z" fill="#603A0A"/></svg>