<svg width="80" height="80" fill="none" xmlns="http://www.w3.org/2000/svg"><path d="M32.079 46.15c.18 0 .332-.133.36-.312 1.89-12.376 12.53-21.855 25.375-21.855.987 0 1.962.058 2.92.167a.366.366 0 0 0 .358-.544l-8.629-15.53a.366.366 0 0 0-.32-.188H9.065a.366.366 0 0 0-.32.188L.047 23.71a.368.368 0 0 0 .32.547h2.651c.202 0 .366.165.366.368v21.159c0 .203.164.367.366.367h28.329Zm.342 6.626a.306.306 0 0 0-.362-.305 2.62 2.62 0 0 1-.529.054 2.698 2.698 0 0 1-2.675-2.423.308.308 0 0 0-.306-.28h-3.124a.308.308 0 0 0-.305.28 2.699 2.699 0 0 1-2.676 2.423 2.699 2.699 0 0 1-2.676-2.423.308.308 0 0 0-.305-.28h-3.124a.307.307 0 0 0-.305.28 2.699 2.699 0 0 1-2.676 2.423 2.699 2.699 0 0 1-2.676-2.423.308.308 0 0 0-.306-.28H7.253a.309.309 0 0 0-.306.28 2.698 2.698 0 0 1-3.148 2.38.307.307 0 0 0-.358.306v3.083c0 .163.126.296.288.31a6.31 6.31 0 0 0 4.87-1.688.313.313 0 0 1 .431 0 6.31 6.31 0 0 0 4.328 1.712 6.31 6.31 0 0 0 4.328-1.712.313.313 0 0 1 .43 0 6.31 6.31 0 0 0 4.328 1.712 6.31 6.31 0 0 0 4.328-1.712.313.313 0 0 1 .43 0 6.31 6.31 0 0 0 4.947 1.681.308.308 0 0 0 .272-.308v-3.09Z" fill="#603A0A"/><path d="m74.232 51.984 4.924 2.05c1.71-8.638-1.95-17.529-9.238-22.42l-2.042 4.951c4.703 3.611 7.14 9.524 6.356 15.42Zm-9.296-22.858-1.995 4.839c.405.133.809.277 1.209.444.4.166.787.351 1.167.545l1.994-4.839a21.989 21.989 0 0 0-1.173-.53c-.399-.166-.8-.318-1.202-.459Zm-22.428 14.29c.166-.4.347-.791.54-1.172l-4.81-2.002c-.185.385-.365.776-.53 1.177-.165.4-.313.805-.453 1.21l4.809 2.001c.132-.406.279-.811.444-1.213Zm35.86 13.53-4.81-2.003c-.132.407-.278.812-.444 1.214-.166.401-.347.792-.54 1.173l4.81 2.002c.186-.386.365-.776.53-1.177.166-.401.314-.805.454-1.21ZM50.306 64.62l-1.994 4.839a21.478 21.478 0 0 0 2.375.988l1.994-4.838a16.713 16.713 0 0 1-1.209-.444c-.4-.167-.787-.351-1.166-.545Zm5.32 1.668-2.042 4.952c8.595 1.72 17.44-1.966 22.308-9.289l-4.923-2.05c-3.593 4.726-9.477 7.175-15.344 6.387ZM41.39 47.59l-4.923-2.05c-1.711 8.638 1.95 17.529 9.238 22.42l2.041-4.952c-4.703-3.61-7.14-9.524-6.356-15.419Zm-1.66-9.967 4.924 2.049c3.593-4.725 9.477-7.175 15.343-6.386l2.042-4.952c-8.596-1.72-17.44 1.965-22.309 9.289Zm27.999-7.003L51.337 70.386a.241.241 0 0 0 .15.322c.44.135.88.255 1.322.36a.24.24 0 0 0 .275-.142l16.26-39.447a.241.241 0 0 0-.095-.297 21.86 21.86 0 0 0-1.187-.684.24.24 0 0 0-.333.12ZM46.37 68.39c.386.239.782.467 1.187.684a.24.24 0 0 0 .333-.12l16.392-39.769a.241.241 0 0 0-.15-.322c-.44-.134-.88-.254-1.322-.36a.24.24 0 0 0-.275.143l-16.26 39.447a.241.241 0 0 0 .095.297Z" fill="#603A0A"/><path d="m38.741 39.82 39.574 16.47a.24.24 0 0 0 .32-.15c.134-.442.253-.884.358-1.328a.24.24 0 0 0-.141-.277l-39.255-16.34a.24.24 0 0 0-.295.095c-.238.389-.465.786-.681 1.194a.242.242 0 0 0 .12.334Zm37.586 21.462c.238-.388.465-.786.68-1.193a.241.241 0 0 0-.12-.335L37.315 43.282a.24.24 0 0 0-.32.151c-.135.441-.254.884-.359 1.328a.24.24 0 0 0 .142.277l39.254 16.34a.239.239 0 0 0 .296-.096Zm-43.906-.349a.306.306 0 0 0-.362-.305 2.606 2.606 0 0 1-.529.055 2.698 2.698 0 0 1-2.675-2.424.309.309 0 0 0-.306-.28h-3.124a.308.308 0 0 0-.305.28 2.699 2.699 0 0 1-2.676 2.424 2.699 2.699 0 0 1-2.676-2.424.308.308 0 0 0-.305-.28h-3.124a.308.308 0 0 0-.305.28 2.699 2.699 0 0 1-2.676 2.424 2.699 2.699 0 0 1-2.676-2.424.309.309 0 0 0-.306-.28H7.253a.309.309 0 0 0-.306.28A2.698 2.698 0 0 1 3.8 60.64a.307.307 0 0 0-.358.305v3.084c0 .163.126.295.288.31a6.31 6.31 0 0 0 4.87-1.688.313.313 0 0 1 .431-.001 6.31 6.31 0 0 0 4.328 1.713 6.31 6.31 0 0 0 4.328-1.713.313.313 0 0 1 .43 0 6.31 6.31 0 0 0 4.328 1.713 6.31 6.31 0 0 0 4.328-1.713.313.313 0 0 1 .43 0 6.31 6.31 0 0 0 4.947 1.682.307.307 0 0 0 .272-.309v-3.09Z" fill="#603A0A"/></svg>