<svg width="280" height="73" viewBox="0 0 280 73" fill="none" xmlns="http://www.w3.org/2000/svg">
<g clip-path="url(#clip0_266_19013)">
<path d="M266.992 48.5391C266.992 60.2908 210.135 69.8174 140 69.8174C69.864 69.8174 13.0078 60.2908 13.0078 48.5391H266.992Z" fill="#A48659"/>
<path d="M267.927 53.8585C267.976 53.9811 267.86 54.1055 267.732 54.0697L262.662 52.6648C262.545 52.6326 262.504 52.4919 262.585 52.4042L265.742 48.9976C265.823 48.91 265.971 48.9366 266.013 49.0469L267.927 53.8585Z" fill="#A48659"/>
<path d="M264.306 56.7579C264.319 56.8889 264.174 56.9786 264.061 56.9102L259.558 54.2276C259.456 54.166 259.454 54.0196 259.556 53.9564L263.527 51.5014C263.63 51.4381 263.763 51.5023 263.776 51.6201L264.306 56.7579Z" fill="#A48659"/>
<path d="M260.552 58.7403C260.548 58.8718 260.392 58.9421 260.288 58.8597L256.181 55.6238C256.088 55.5497 256.106 55.4045 256.215 55.3549L260.48 53.4288C260.589 53.3794 260.714 53.4601 260.709 53.5785L260.552 58.7403Z" fill="#A48659"/>
<path d="M256.82 60.2663C256.805 60.3973 256.646 60.4564 256.547 60.3668L252.688 56.8507C252.6 56.7701 252.63 56.6265 252.742 56.5849L257.135 54.9636C257.249 54.9218 257.366 55.0111 257.355 55.1289L256.82 60.2663Z" fill="#A48659"/>
<path d="M253.038 61.5449C253.016 61.675 252.854 61.726 252.76 61.6315L249.093 57.9236C249.008 57.8385 249.046 57.6966 249.161 57.6608L253.634 56.2655C253.75 56.2296 253.864 56.3248 253.844 56.4418L253.038 61.5449Z" fill="#A48659"/>
<path d="M249.271 62.6524C249.247 62.7816 249.081 62.8269 248.992 62.7292L245.46 58.8973C245.379 58.8095 245.421 58.6688 245.537 58.6369L250.058 57.3967C250.174 57.3648 250.284 57.4638 250.262 57.5801L249.271 62.6524Z" fill="#A48659"/>
<path d="M245.473 63.6258C245.444 63.7544 245.278 63.7948 245.19 63.6947L241.777 59.7616C241.699 59.6714 241.745 59.5321 241.862 59.5035L246.418 58.3955C246.535 58.3669 246.642 58.4691 246.616 58.5847L245.473 63.6258Z" fill="#A48659"/>
<path d="M241.688 64.5015C241.655 64.6294 241.488 64.6662 241.403 64.564L238.08 60.5571C238.003 60.4653 238.052 60.327 238.171 60.301L242.751 59.293C242.87 59.2672 242.974 59.3718 242.945 59.4867L241.688 64.5015Z" fill="#A48659"/>
<path d="M237.882 65.2995C237.846 65.4267 237.679 65.4602 237.596 65.3564L234.355 61.2856C234.28 61.1922 234.332 61.055 234.451 61.0314L239.051 60.1127C239.17 60.0891 239.272 60.1957 239.24 60.31L237.882 65.2995Z" fill="#A48659"/>
<path d="M234.074 66.0213C234.036 66.148 233.869 66.1788 233.788 66.0737L230.615 61.9508C230.542 61.8563 230.596 61.7199 230.715 61.6982L235.331 60.8544C235.45 60.8326 235.55 60.9408 235.516 61.0546L234.074 66.0213Z" fill="#A48659"/>
<path d="M230.259 66.6894C230.22 66.8153 230.051 66.8436 229.972 66.7373L226.864 62.568C226.792 62.4724 226.849 62.3368 226.968 62.3168L231.595 61.5414C231.714 61.5215 231.813 61.6312 231.779 61.7445L230.259 66.6894Z" fill="#A48659"/>
<path d="M226.442 67.3045C226.401 67.4301 226.232 67.4562 226.154 67.3489L223.1 63.1409C223.03 63.0445 223.089 62.9096 223.208 62.8912L227.845 62.1739C227.965 62.1554 228.061 62.2664 228.026 62.3792L226.442 67.3045Z" fill="#A48659"/>
<path d="M222.624 67.8657C222.583 67.9907 222.412 68.0149 222.336 67.9068L219.334 63.6633C219.265 63.566 219.325 63.4317 219.443 63.4148L224.091 62.7517C224.209 62.7347 224.305 62.8467 224.268 62.9593L222.624 67.8657Z" fill="#A48659"/>
<path d="M218.797 68.3958C218.755 68.5204 218.584 68.5427 218.509 68.4337L215.555 64.1576C215.488 64.0596 215.548 63.926 215.669 63.9103L220.322 63.2984C220.441 63.2826 220.537 63.3957 220.498 63.5078L218.797 68.3958Z" fill="#A48659"/>
<path d="M214.973 68.8732C214.928 68.9974 214.759 69.0181 214.684 68.9083L211.773 64.6045C211.707 64.5058 211.769 64.3727 211.889 64.3582L216.547 63.7903C216.666 63.7757 216.76 63.8898 216.72 64.0014L214.973 68.8732Z" fill="#A48659"/>
<path d="M211.148 69.3273C211.102 69.4512 210.932 69.4703 210.858 69.36L207.987 65.03C207.922 64.9307 207.985 64.7983 208.106 64.7847L212.769 64.2589C212.889 64.2454 212.982 64.3603 212.94 64.4715L211.148 69.3273Z" fill="#A48659"/>
<path d="M207.316 69.7426C207.268 69.866 207.098 69.8837 207.026 69.7728L204.194 65.4183C204.129 65.3185 204.194 65.1867 204.314 65.1741L208.982 64.6884C209.103 64.676 209.194 64.7915 209.151 64.9025L207.316 69.7426Z" fill="#A48659"/>
<path d="M203.488 70.1206C203.44 70.2436 203.27 70.26 203.198 70.1486L200.4 65.7731C200.336 65.6728 200.401 65.5413 200.522 65.5298L205.193 65.0789C205.314 65.0673 205.405 65.1836 205.362 65.2943L203.488 70.1206Z" fill="#A48659"/>
<path d="M199.654 70.4752C199.605 70.5979 199.434 70.6132 199.365 70.5012L196.599 66.1055C196.535 66.0048 196.602 65.8739 196.722 65.8631L201.397 65.446C201.517 65.4353 201.607 65.5523 201.565 65.6626L199.654 70.4752Z" fill="#A48659"/>
<path d="M195.817 70.8053C195.767 70.9275 195.596 70.9414 195.526 70.8289L192.798 66.4119C192.734 66.3107 192.802 66.1803 192.923 66.1706L197.601 65.7896C197.721 65.7799 197.811 65.8975 197.765 66.0075L195.817 70.8053Z" fill="#A48659"/>
<path d="M191.984 71.1069C191.933 71.2288 191.763 71.2417 191.694 71.1287L188.992 66.6955C188.93 66.5938 188.998 66.4639 189.119 66.4548L193.8 66.1021C193.92 66.093 194.008 66.2112 193.963 66.3209L191.984 71.1069Z" fill="#A48659"/>
<path d="M188.148 71.3759C188.098 71.4975 187.927 71.5091 187.859 71.3958L185.187 66.9447C185.125 66.8427 185.195 66.7131 185.315 66.7049L190 66.3832C190.12 66.3751 190.206 66.4938 190.161 66.6032L188.148 71.3759Z" fill="#A48659"/>
<path d="M184.309 71.6292C184.257 71.7505 184.086 71.7612 184.018 71.6472L181.377 67.1789C181.317 67.0766 181.387 66.9475 181.508 66.94L186.194 66.6488C186.314 66.6413 186.4 66.7605 186.353 66.8697L184.309 71.6292Z" fill="#A48659"/>
<path d="M180.474 71.8528C180.421 71.9738 180.25 71.9835 180.183 71.8692L177.569 67.3861C177.508 67.2833 177.58 67.1547 177.7 67.1478L182.386 66.8831C182.507 66.8764 182.593 66.9961 182.546 67.1049L180.474 71.8528Z" fill="#A48659"/>
<path d="M176.632 72.0594C176.579 72.1801 176.406 72.1887 176.341 72.0739L173.756 67.5745C173.696 67.4714 173.769 67.3433 173.889 67.3372L178.577 67.1018C178.697 67.0957 178.783 67.2161 178.735 67.3246L176.632 72.0594Z" fill="#A48659"/>
<path d="M172.797 72.244C172.743 72.3643 172.571 72.3721 172.506 72.2571L169.947 67.7435C169.888 67.64 169.96 67.5122 170.082 67.5068L174.771 67.297C174.891 67.2918 174.976 67.4124 174.927 67.5208L172.797 72.244Z" fill="#A48659"/>
<path d="M168.956 72.405C168.9 72.5252 168.73 72.5319 168.665 72.4165L166.13 67.8892C166.071 67.7854 166.146 67.6579 166.266 67.6533L170.957 67.4689C171.078 67.4641 171.161 67.5854 171.112 67.6933L168.956 72.405Z" fill="#A48659"/>
<path d="M165.114 72.5413C165.058 72.661 164.887 72.6667 164.823 72.551L162.317 68.0086C162.259 67.9045 162.333 67.7775 162.454 67.7735L167.147 67.6173C167.267 67.6133 167.35 67.7351 167.3 67.8427L165.114 72.5413Z" fill="#A48659"/>
<path d="M161.272 72.6556C161.215 72.7749 161.044 72.7797 160.981 72.6637L158.5 68.1081C158.443 68.0037 158.518 67.8769 158.639 67.8736L163.331 67.7423C163.451 67.7389 163.534 67.8612 163.484 67.9686L161.272 72.6556Z" fill="#A48659"/>
<path d="M157.43 72.7539C157.373 72.873 157.202 72.877 157.139 72.7605L154.683 68.1919C154.627 68.0872 154.702 67.961 154.823 67.9582L159.516 67.8516C159.637 67.8487 159.719 67.9715 159.668 68.0786L157.43 72.7539Z" fill="#A48659"/>
<path d="M153.592 72.8381C153.534 72.9568 153.363 72.96 153.301 72.8434L150.866 68.2635C150.81 68.1586 150.887 68.0327 151.007 68.0305L155.701 67.9453C155.822 67.9431 155.903 68.0662 155.851 68.173L153.592 72.8381Z" fill="#A48659"/>
<path d="M149.75 72.8896C149.692 73.0082 149.52 73.0104 149.459 72.8932L147.049 68.3009C146.994 68.1957 147.071 68.0701 147.192 68.0687L151.886 68.0078C152.007 68.0062 152.087 68.1298 152.035 68.2364L149.75 72.8896Z" fill="#A48659"/>
<path d="M145.908 72.9329C145.85 73.0512 145.678 73.0526 145.617 72.9352L143.233 68.3304C143.178 68.2249 143.256 68.0998 143.376 68.0988L148.071 68.0625C148.192 68.0615 148.271 68.1854 148.218 68.2917L145.908 72.9329Z" fill="#A48659"/>
<path d="M142.067 72.953C142.007 73.071 141.836 73.0715 141.776 72.9538L139.416 68.3367C139.362 68.2308 139.44 68.1062 139.561 68.1059L144.255 68.0938C144.376 68.0934 144.455 68.2176 144.402 68.3237L142.067 72.953Z" fill="#A48659"/>
<path d="M137.725 72.9538C137.665 73.0715 137.493 73.071 137.434 72.953L135.099 68.3237C135.046 68.2176 135.124 68.0934 135.245 68.0938L139.94 68.1059C140.061 68.1062 140.139 68.2308 140.085 68.3367L137.725 72.9538Z" fill="#A48659"/>
<path d="M133.883 72.9274C133.822 73.0448 133.651 73.0434 133.592 72.9251L131.282 68.2839C131.229 68.1776 131.309 68.0537 131.43 68.0547L136.124 68.091C136.245 68.092 136.323 68.2171 136.268 68.3226L133.883 72.9274Z" fill="#A48659"/>
<path d="M130.042 72.8932C129.98 73.0102 129.809 73.008 129.75 72.8894L127.466 68.2362C127.413 68.1296 127.493 68.0062 127.614 68.0078L132.309 68.0686C132.429 68.0702 132.506 68.1956 132.451 68.3008L130.042 72.8932Z" fill="#A48659"/>
<path d="M126.2 72.8277C126.137 72.9444 125.966 72.9414 125.908 72.8225L123.649 68.1575C123.597 68.0505 123.678 67.9275 123.799 67.9297L128.493 68.015C128.613 68.0172 128.69 68.143 128.634 68.248L126.2 72.8277Z" fill="#A48659"/>
<path d="M122.36 72.7527C122.298 72.8692 122.126 72.8652 122.069 72.746L119.832 68.0708C119.781 67.9637 119.862 67.8409 119.983 67.8438L124.677 67.9504C124.797 67.9531 124.873 68.0794 124.817 68.1841L122.36 72.7527Z" fill="#A48659"/>
<path d="M118.518 72.6557C118.455 72.7719 118.283 72.7671 118.227 72.6476L116.015 67.9606C115.965 67.8532 116.047 67.7311 116.167 67.7344L120.86 67.8658C120.981 67.8691 121.056 67.9957 120.999 68.1002L118.518 72.6557Z" fill="#A48659"/>
<path d="M114.676 72.537C114.612 72.6527 114.441 72.6468 114.385 72.5271L112.202 67.827C112.152 67.7193 112.235 67.5975 112.356 67.6017L117.048 67.7611C117.169 67.765 117.243 67.8921 117.185 67.9962L114.676 72.537Z" fill="#A48659"/>
<path d="M110.837 72.393C110.772 72.5084 110.601 72.5017 110.546 72.3816L108.389 67.6699C108.34 67.562 108.424 67.4407 108.544 67.4454L113.235 67.6299C113.356 67.6345 113.429 67.762 113.371 67.8658L110.837 72.393Z" fill="#A48659"/>
<path d="M106.997 72.2335C106.932 72.3485 106.761 72.3409 106.706 72.2206L104.577 67.4972C104.528 67.389 104.612 67.2682 104.733 67.2736L109.423 67.4834C109.543 67.4888 109.616 67.6166 109.557 67.7201L106.997 72.2335Z" fill="#A48659"/>
<path d="M103.158 72.0505C103.092 72.1652 102.92 72.1566 102.867 72.036L100.764 67.3012C100.715 67.1926 100.801 67.0723 100.921 67.0783L105.61 67.3138C105.73 67.3198 105.802 67.448 105.743 67.5511L103.158 72.0505Z" fill="#A48659"/>
<path d="M99.3175 71.8458C99.2508 71.9601 99.0796 71.9504 99.0269 71.8294L96.9547 67.0815C96.9072 66.9727 96.9929 66.8528 97.1136 66.8597L101.8 67.1244C101.921 67.1313 101.992 67.2599 101.932 67.3627L99.3175 71.8458Z" fill="#A48659"/>
<path d="M95.4805 71.6161C95.4132 71.7299 95.242 71.7194 95.19 71.5981L93.1457 66.8384C93.0989 66.7294 93.1854 66.61 93.3059 66.6175L97.9913 66.9087C98.1118 66.9162 98.1822 67.0453 98.1217 67.1478L95.4805 71.6161Z" fill="#A48659"/>
<path d="M91.6431 71.3644C91.575 71.4779 91.4039 71.4661 91.3527 71.3445L89.3407 66.5719C89.2945 66.4624 89.3818 66.3437 89.5023 66.352L94.1856 66.6736C94.3061 66.6819 94.3755 66.8113 94.3143 66.9133L91.6431 71.3644Z" fill="#A48659"/>
<path d="M87.8048 71.0896C87.736 71.2026 87.565 71.1897 87.5146 71.0678L85.5356 66.2818C85.4902 66.1722 85.5783 66.0539 85.6986 66.063L90.3796 66.4157C90.4999 66.4248 90.5687 66.5547 90.5068 66.6564L87.8048 71.0896Z" fill="#A48659"/>
<path d="M83.9696 70.7912C83.9 70.9038 83.7291 70.8897 83.6795 70.7675L81.7343 65.9681C81.6898 65.8582 81.7787 65.7407 81.8991 65.7506L86.5774 66.135C86.6978 66.1449 86.7654 66.2753 86.7028 66.3765L83.9696 70.7912Z" fill="#A48659"/>
<path d="M80.1372 70.4621C80.0668 70.574 79.8959 70.5589 79.8473 70.4361L77.937 65.6234C77.8933 65.5131 77.983 65.3963 78.1034 65.4069L82.7788 65.8241C82.899 65.8349 82.9658 65.9657 82.9024 66.0665L80.1372 70.4621Z" fill="#A48659"/>
<path d="M76.3074 70.1017C76.236 70.2133 76.0654 70.1967 76.0176 70.0738L74.1436 65.2474C74.1007 65.1368 74.1913 65.0206 74.3115 65.032L78.9836 65.4829C79.1038 65.4946 79.1697 65.6259 79.1056 65.7262L76.3074 70.1017Z" fill="#A48659"/>
<path d="M72.4758 69.7198C72.4036 69.8308 72.233 69.8128 72.1863 69.6894L70.3541 64.8477C70.312 64.7367 70.4037 64.6212 70.5239 64.6338L75.1919 65.1234C75.312 65.136 75.3767 65.268 75.3117 65.3677L72.4758 69.7198Z" fill="#A48659"/>
<path d="M68.6469 69.3053C68.5737 69.4156 68.4033 69.3965 68.3576 69.2726L66.5646 64.4168C66.5235 64.3056 66.6161 64.1907 66.736 64.2042L71.4 64.73C71.52 64.7436 71.5836 64.876 71.5178 64.9753L68.6469 69.3053Z" fill="#A48659"/>
<path d="M64.8231 68.8536C64.749 68.9633 64.5788 68.9426 64.5342 68.8184L62.7867 63.9467C62.7467 63.835 62.8404 63.721 62.9602 63.7357L67.6191 64.3034C67.7389 64.3181 67.8014 64.451 67.7345 64.5497L64.8231 68.8536Z" fill="#A48659"/>
<path d="M60.9919 68.3652C60.9166 68.4742 60.7466 68.4516 60.7035 68.3269L59.0088 63.4373C58.97 63.3251 59.0649 63.2121 59.1846 63.2281L63.8371 63.8444C63.9568 63.8602 64.0176 63.9939 63.9498 64.0918L60.9919 68.3652Z" fill="#A48659"/>
<path d="M57.1743 67.8364C57.0978 67.9446 56.928 67.9204 56.8862 67.7952L55.2426 62.8888C55.2051 62.7764 55.3012 62.6644 55.4205 62.6814L60.0664 63.3443C60.1859 63.3614 60.2454 63.4956 60.1766 63.593L57.1743 67.8364Z" fill="#A48659"/>
<path d="M53.3555 67.271C53.2776 67.3782 53.1081 67.3519 53.0678 67.2265L51.4842 62.3011C51.448 62.1882 51.5454 62.0773 51.6647 62.0958L56.302 62.813C56.4213 62.8315 56.4792 62.9664 56.4091 63.063L53.3555 67.271Z" fill="#A48659"/>
<path d="M49.5398 66.6592C49.4605 66.7655 49.2915 66.7371 49.2528 66.6111L47.7336 61.6664C47.6988 61.553 47.7977 61.4434 47.9167 61.4633L52.5444 62.2387C52.6634 62.2586 52.7195 62.3943 52.6483 62.4898L49.5398 66.6592Z" fill="#A48659"/>
<path d="M45.7275 65.9878C45.6466 66.0928 45.4781 66.0621 45.4412 65.9355L43.9986 60.9686C43.9654 60.8548 44.0661 60.7466 44.1848 60.7685L48.7999 61.6123C48.9186 61.6339 48.9726 61.7704 48.8999 61.8649L45.7275 65.9878Z" fill="#A48659"/>
<path d="M41.923 65.2627C41.8404 65.3664 41.6724 65.3328 41.6378 65.2058L40.2791 60.2163C40.2479 60.102 40.3503 59.9953 40.4687 60.0189L45.0689 60.9375C45.1872 60.9612 45.2389 61.0985 45.1646 61.1919L41.923 65.2627Z" fill="#A48659"/>
<path d="M38.1204 64.4625C38.0357 64.5647 37.8684 64.5278 37.8363 64.4L36.5791 59.385C36.5501 59.2701 36.6547 59.1655 36.7726 59.1915L41.3532 60.1995C41.4711 60.2255 41.5201 60.3638 41.4438 60.4556L38.1204 64.4625Z" fill="#A48659"/>
<path d="M34.3218 63.5798C34.2347 63.6798 34.0684 63.639 34.0394 63.5106L32.9062 58.4672C32.8804 58.3516 32.9874 58.2496 33.1044 58.2783L37.6591 59.3947C37.7762 59.4234 37.8217 59.5628 37.7433 59.6529L34.3218 63.5798Z" fill="#A48659"/>
<path d="M30.531 62.5909C30.4407 62.6884 30.2757 62.6429 30.2508 62.5134L29.2724 57.4391C29.2501 57.3228 29.3602 57.224 29.4765 57.2562L33.9947 58.5059C34.111 58.5381 34.1521 58.6789 34.071 58.7665L30.531 62.5909Z" fill="#A48659"/>
<path d="M26.7502 61.4799C26.6562 61.574 26.4931 61.5222 26.4731 61.392L25.6933 56.2848C25.6754 56.1677 25.7892 56.073 25.9042 56.1095L30.3705 57.5274C30.4853 57.5639 30.5209 57.7061 30.4365 57.7907L26.7502 61.4799Z" fill="#A48659"/>
<path d="M22.994 60.197C22.8955 60.2863 22.7352 60.2265 22.722 60.0955L22.2039 54.9565C22.1921 54.8387 22.3106 54.7498 22.4235 54.7919L26.8118 56.4272C26.9246 56.4693 26.9531 56.613 26.8643 56.6934L22.994 60.197Z" fill="#A48659"/>
<path d="M19.2417 58.6429C19.1363 58.7245 18.9812 58.6528 18.9784 58.5213L18.8672 53.3582C18.8646 53.2399 18.9898 53.1602 19.0991 53.2108L23.3453 55.1738C23.4545 55.2243 23.4715 55.3697 23.3767 55.443L19.2417 58.6429Z" fill="#A48659"/>
<path d="M15.5069 56.6459C15.3912 56.7127 15.2475 56.621 15.2629 56.4903L15.8661 51.3601C15.8799 51.2425 16.0151 51.1802 16.1163 51.2447L20.052 53.7535C20.1533 53.818 20.1499 53.9644 20.046 54.0244L15.5069 56.6459Z" fill="#A48659"/>
<path d="M11.8395 53.5994C11.7086 53.6284 11.6001 53.4981 11.6554 53.3783L13.824 48.6719C13.8737 48.5641 14.0217 48.545 14.0981 48.6368L17.0673 52.2014C17.1438 52.293 17.0951 52.4314 16.9774 52.4577L11.8395 53.5994Z" fill="#A48659"/>
<path d="M9.84864 47.7631C9.73757 47.6894 9.76059 47.5228 9.88773 47.4804L14.8766 45.8212C14.9909 45.7831 15.1062 45.8761 15.09 45.9935L14.4595 50.5537C14.4433 50.671 14.307 50.7306 14.2071 50.6642L9.84864 47.7631Z" fill="#A48659"/>
<path d="M12.5316 42.7321C12.4903 42.6068 12.613 42.4894 12.7398 42.5326L17.7149 44.231C17.829 44.2699 17.8616 44.4129 17.7751 44.4956L14.4174 47.7119C14.331 47.7946 14.186 47.7594 14.149 47.6469L12.5316 42.7321Z" fill="#A48659"/>
<path d="M16.0708 40.0778C16.0608 39.9466 16.2081 39.8607 16.321 39.932L20.7498 42.7288C20.8512 42.7928 20.8485 42.9392 20.7447 42.9997L16.7099 45.3526C16.6062 45.413 16.4738 45.3456 16.4647 45.2275L16.0708 40.0778Z" fill="#A48659"/>
<path d="M19.9093 38.1294C19.9151 37.9979 20.0717 37.9295 20.1753 38.0133L24.2384 41.3004C24.3315 41.3758 24.3114 41.5207 24.2011 41.569L19.9124 43.4411C19.8021 43.4893 19.6787 43.407 19.6837 43.2888L19.9093 38.1294Z" fill="#A48659"/>
<path d="M270.246 29.1719H9.75781V53.5583H270.246V29.1719Z" fill="#A48659"/>
<path d="M8.13154 26.2969H1.79008C0.892054 26.2969 0.164062 27.0105 0.164062 27.8908V53.8711C0.164062 54.7514 0.892054 55.465 1.79008 55.465H8.13154C9.02956 55.465 9.75756 54.7514 9.75756 53.8711V27.8908C9.75756 27.0105 9.02956 26.2969 8.13154 26.2969Z" fill="#A48659"/>
<path d="M278.21 26.2969H271.868C270.971 26.2969 270.242 27.0105 270.242 27.8908V53.8711C270.242 54.7514 270.971 55.465 271.868 55.465H278.21C279.107 55.465 279.836 54.7514 279.836 53.8711V27.8908C279.836 27.0105 279.107 26.2969 278.21 26.2969Z" fill="#A48659"/>
<path d="M4.95935 0V28.7697L3.33333 27.1758C1.55151 20.2248 0.782598 15.8727 0 6.93341C0 2.55022 0.813008 0 4.95935 0Z" fill="#A48659"/>
<path d="M4.96094 0V28.7697L6.58695 27.1758C8.36877 20.2248 9.13769 15.8727 9.92029 6.93341C9.92029 2.55022 9.10728 0 4.96094 0Z" fill="#A48659"/>
<path d="M275.041 0V28.7697L273.415 27.1758C271.633 20.2248 270.864 15.8727 270.082 6.93341C270.082 2.55022 270.895 0 275.041 0Z" fill="#A48659"/>
<path d="M275.039 0V28.7697L276.665 27.1758C278.447 20.2248 279.216 15.8727 279.998 6.93341C279.998 2.55022 279.185 0 275.039 0Z" fill="#A48659"/>
</g>
<defs>
<clipPath id="clip0_266_19013">
<rect width="280" height="73" fill="white"/>
</clipPath>
</defs>
</svg>
