<svg width="20" height="21" viewBox="0 0 20 21" fill="none" xmlns="http://www.w3.org/2000/svg">
<path d="M9.99922 20.4242C8.63255 20.4242 7.34522 20.1659 6.13722 19.6492C4.92855 19.1326 3.87422 18.4242 2.97422 17.5242C2.07422 16.6242 1.36589 15.5702 0.849219 14.3622C0.332552 13.1536 0.0742188 11.8659 0.0742188 10.4992C0.0742188 9.13255 0.332552 7.84489 0.849219 6.63622C1.36589 5.42822 2.07422 4.37422 2.97422 3.47422C3.87422 2.57422 4.92855 1.86589 6.13722 1.34922C7.34522 0.832552 8.63255 0.574219 9.99922 0.574219C11.3659 0.574219 12.6536 0.832552 13.8622 1.34922C15.0702 1.86589 16.1242 2.57422 17.0242 3.47422C17.9242 4.37422 18.6326 5.42822 19.1492 6.63622C19.6659 7.84489 19.9242 9.13255 19.9242 10.4992V11.8992C19.9242 12.9159 19.5869 13.7576 18.9122 14.4242C18.2369 15.0909 17.3992 15.4242 16.3992 15.4242C15.7826 15.4242 15.2202 15.2869 14.7122 15.0122C14.2036 14.7369 13.7909 14.3742 13.4742 13.9242C13.0409 14.3909 12.5326 14.7576 11.9492 15.0242C11.3659 15.2909 10.7159 15.4242 9.99922 15.4242C8.63255 15.4242 7.47022 14.9452 6.51222 13.9872C5.55355 13.0286 5.07422 11.8659 5.07422 10.4992C5.07422 9.14922 5.55355 7.99089 6.51222 7.02422C7.47022 6.05755 8.63255 5.57422 9.99922 5.57422C11.3659 5.57422 12.5286 6.05322 13.4872 7.01122C14.4452 7.96989 14.9242 9.13255 14.9242 10.4992V11.8492C14.9242 12.2992 15.0659 12.6619 15.3492 12.9372C15.6326 13.2119 15.9826 13.3492 16.3992 13.3492C16.8159 13.3492 17.1659 13.2119 17.4492 12.9372C17.7326 12.6619 17.8742 12.2992 17.8742 11.8492V10.4992C17.8742 8.34922 17.0992 6.49922 15.5492 4.94922C13.9992 3.39922 12.1492 2.62422 9.99922 2.62422C7.84922 2.62422 5.99922 3.39922 4.44922 4.94922C2.89922 6.49922 2.12422 8.34922 2.12422 10.4992C2.12422 12.6492 2.89922 14.4992 4.44922 16.0492C5.99922 17.5992 7.84922 18.3742 9.99922 18.3742H14.9242V20.4242H9.99922ZM9.99922 13.3492C10.7826 13.3492 11.4536 13.0742 12.0122 12.5242C12.5702 11.9742 12.8492 11.2992 12.8492 10.4992C12.8492 9.71589 12.5742 9.04489 12.0242 8.48622C11.4742 7.92822 10.7992 7.64922 9.99922 7.64922C9.21589 7.64922 8.54522 7.92422 7.98722 8.47422C7.42855 9.02422 7.14922 9.69922 7.14922 10.4992C7.14922 11.2826 7.42422 11.9532 7.97422 12.5112C8.52422 13.0699 9.19922 13.3492 9.99922 13.3492Z" fill="#603A0A"/>
</svg>
