<svg width="7" height="16" viewBox="0 0 7 16" fill="none" xmlns="http://www.w3.org/2000/svg">
<path d="M7 8.00063L7 8.00059C7 7.33193 7 6.89147 6.2 6.80059C4.47405 6.60451 2.6 4.31278 2.6 2.10475L2.6 1.70475C2.6 1.26293 2.24183 0.904755 1.8 0.904755L1 0.904755C0.558172 0.904755 0.200001 1.26293 0.200001 1.70475L0.200001 2.10475C0.200001 3.78236 0.801581 5.35115 1.80955 6.52596C1.96957 6.71247 2.1111 6.91512 2.21203 7.13919L2.21948 7.15574C2.46181 7.69377 2.46566 8.30911 2.23007 8.85012C2.12917 9.08183 1.98434 9.29091 1.81932 9.48232C0.805451 10.6584 0.2 12.232 0.2 13.9152L0.2 14.3152C0.2 14.7571 0.558173 15.1152 1 15.1152L1.8 15.1152C2.24183 15.1152 2.6 14.7571 2.6 14.3152L2.6 13.9152C2.6 11.7066 4.47434 9.3963 6.2 9.20059C7 9.10986 7 8.61777 7 8.00063Z" fill="white"/>
</svg>
