<svg width="11" height="23" viewBox="0 0 11 23" fill="none" xmlns="http://www.w3.org/2000/svg">
<path d="M11 11.5001L11 11.5C11 10.497 11 9.83635 9.8 9.70002C7.21108 9.40591 4.4 5.96832 4.4 2.65628L4.4 2.05628C4.4 1.39354 3.86274 0.856278 3.2 0.856278L2 0.856278C1.33726 0.856278 0.800001 1.39354 0.800001 2.05628L0.800001 2.65628C0.800001 5.17269 1.70237 7.52587 3.21432 9.28808C3.45435 9.56785 3.66666 9.87183 3.81804 10.2079L3.82922 10.2328C4.19271 11.0398 4.19848 11.9628 3.84511 12.7743C3.69376 13.1219 3.4765 13.4355 3.22898 13.7226C1.70818 15.4867 0.8 17.8472 0.8 20.372L0.8 20.972C0.8 21.6347 1.33726 22.172 2 22.172L3.2 22.172C3.86274 22.172 4.4 21.6347 4.4 20.972L4.4 20.372C4.4 17.0591 7.21151 13.5936 9.8 13.3C11 13.1639 11 12.4258 11 11.5001Z" fill="#603A0A"/>
</svg>
