<svg width="16" height="16" viewBox="0 0 16 16" fill="none" xmlns="http://www.w3.org/2000/svg">
<path d="M4 8.00063L4 8.00059C4 7.33193 4 6.89147 4.8 6.80059C6.52595 6.60451 8.4 4.31278 8.4 2.10475L8.4 1.70476C8.4 1.26293 8.75817 0.904755 9.2 0.904755L10 0.904755C10.4418 0.904755 10.8 1.26293 10.8 1.70476L10.8 2.10475C10.8 3.78236 10.1984 5.35115 9.19045 6.52596C9.03043 6.71247 8.8889 6.91512 8.78797 7.13919L8.78052 7.15574C8.53819 7.69377 8.53434 8.30911 8.76993 8.85012C8.87083 9.08183 9.01566 9.29091 9.18068 9.48232C10.1945 10.6584 10.8 12.232 10.8 13.9152L10.8 14.3152C10.8 14.7571 10.4418 15.1152 10 15.1152L9.2 15.1152C8.75817 15.1152 8.4 14.7571 8.4 14.3152L8.4 13.9152C8.4 11.7066 6.52566 9.3963 4.8 9.20059C4 9.10986 4 8.61777 4 8.00063Z" fill="#A48659"/>
</svg>
