<svg width="148" height="148" viewBox="0 0 148 148" fill="none" xmlns="http://www.w3.org/2000/svg">
<mask id="mask0_254_12500" style="mask-type:alpha" maskUnits="userSpaceOnUse" x="0" y="0" width="148" height="148">
<path d="M0.414062 0H147.682V147.268H0.414062V0Z" fill="#D9D9D9"/>
</mask>
<g mask="url(#mask0_254_12500)">
<path d="M37.9776 95.3974L37.9774 95.397C29.9114 83.4806 25.9492 72.5524 25.9492 62.5906C25.9492 47.4836 30.7987 35.5427 40.4363 26.656L40.4365 26.6558C50.1271 17.7165 61.3169 13.2656 74.0469 13.2656C86.7769 13.2656 97.9667 17.7165 107.657 26.6558L107.658 26.656C117.295 35.5427 122.145 47.4836 122.145 62.5906C122.145 72.5525 118.185 83.4808 110.123 95.3972C102.164 107.159 90.1505 119.925 74.0469 133.694C57.9433 119.926 45.9322 107.159 37.9776 95.3974Z" fill="#603A0A" stroke="#D0C5A3" stroke-width="1.98293"/>
<path d="M113.018 61.4874C113.018 39.9121 95.5275 22.4219 73.9522 22.4219C52.3769 22.4219 34.8867 39.9121 34.8867 61.4874C34.8867 83.0627 52.3769 100.553 73.9522 100.553C95.5275 100.553 113.018 83.0627 113.018 61.4874Z" fill="white"/>
<path d="M68.5971 76.9178C68.5971 76.7776 68.4703 76.6678 68.3336 76.6961C68.2092 76.7218 68.0808 76.7356 67.9489 76.7356C66.9385 76.7356 66.1043 75.9617 66.0029 74.9726C65.9911 74.8576 65.8957 74.7695 65.7806 74.7695H63.5088C63.3936 74.7695 63.2984 74.8576 63.2866 74.9726C63.1851 75.9617 62.351 76.7356 61.3404 76.7356C60.33 76.7356 59.4959 75.9617 59.3944 74.9726C59.3826 74.8576 59.2874 74.7695 59.1722 74.7695H56.9002C56.7851 74.7695 56.6898 74.8576 56.678 74.9726C56.5766 75.9617 55.7425 76.7356 54.7319 76.7356C53.7215 76.7356 52.8874 75.9617 52.7859 74.9726C52.7741 74.8576 52.6788 74.7695 52.5635 74.7695H50.2919C50.1766 74.7695 50.0813 74.8576 50.0695 74.9726C49.9682 75.9617 49.1341 76.7356 48.1235 76.7356C48.0062 76.7356 47.8914 76.7249 47.7798 76.7046C47.6436 76.68 47.5195 76.7877 47.5195 76.9266V79.1691C47.5195 79.2877 47.611 79.3839 47.7287 79.3943C47.8587 79.4058 47.9903 79.4121 48.1235 79.4121C49.3399 79.4121 50.4461 78.9389 51.2711 78.1665C51.3603 78.0831 51.4953 78.0831 51.5845 78.1665C52.4093 78.9389 53.5153 79.4121 54.7319 79.4121C55.9485 79.4121 57.0546 78.9389 57.8796 78.1665C57.9686 78.0831 58.1037 78.0831 58.1928 78.1665C59.0178 78.9389 60.124 79.4121 61.3404 79.4121C62.557 79.4121 63.6632 78.9389 64.488 78.1665C64.5772 78.0831 64.7122 78.0831 64.8014 78.1665C65.6264 78.9389 66.7325 79.4121 67.9489 79.4121C68.101 79.4121 68.251 79.4043 68.399 79.3895C68.5123 79.3784 68.5971 79.2796 68.5971 79.1653V76.9178Z" fill="#A48659"/>
<path d="M99.0082 70.4114L102.589 71.9019C103.834 65.6196 101.171 59.1533 95.8701 55.5954L94.3855 59.1971C97.8062 61.8235 99.5787 66.1239 99.0082 70.4114ZM92.2468 53.7867L90.7962 57.3058C91.0907 57.4025 91.3842 57.5074 91.6752 57.6285C91.9661 57.7496 92.2475 57.8841 92.5238 58.0249L93.9743 54.5056C93.6953 54.3699 93.4115 54.2407 93.1214 54.1199C92.8312 53.9993 92.5396 53.8888 92.2468 53.7867ZM75.9349 64.1804C76.0553 63.8881 76.1873 63.6044 76.3272 63.3269L72.8295 61.8709C72.6941 62.1515 72.5636 62.4355 72.4435 62.7271C72.3233 63.0188 72.2157 63.3125 72.1139 63.6069L75.6116 65.0628C75.7079 64.7672 75.8144 64.4726 75.9349 64.1804ZM102.016 74.0197L98.5182 72.5637C98.4219 72.8595 98.3156 73.1539 98.195 73.4462C98.0745 73.7384 97.9427 74.0223 97.8026 74.2998L101.301 75.7556C101.436 75.475 101.566 75.1911 101.687 74.8994C101.807 74.6077 101.914 74.3142 102.016 74.0197ZM81.6062 79.6016L80.1556 83.1209C80.4345 83.2566 80.7185 83.3858 81.0084 83.5066C81.2986 83.6272 81.5902 83.7377 81.883 83.8398L83.3336 80.3207C83.0392 80.224 82.7456 80.1191 82.4546 79.998C82.1638 79.8769 81.8823 79.7426 81.6062 79.6016ZM85.4749 80.8147L83.9903 84.4163C90.242 85.6673 96.6749 82.9869 100.216 77.6605L96.6346 76.1699C94.0212 79.6069 89.7417 81.3883 85.4749 80.8147ZM75.1216 67.2151L71.5408 65.7246C70.2965 72.0069 72.9591 78.4734 78.2599 82.0311L79.7445 78.4294C76.3238 75.803 74.5513 71.5026 75.1216 67.2151ZM73.9144 59.9662L77.4952 61.4566C80.1088 58.0196 84.3881 56.2382 88.655 56.8118L90.1397 53.2102C83.888 51.9592 77.4551 54.6396 73.9144 59.9662Z" fill="#603A0A"/>
<path d="M94.2764 54.8718L82.3543 83.7957C82.3152 83.8906 82.3659 83.9999 82.4635 84.0299C82.783 84.1278 83.1034 84.215 83.4247 84.2918C83.5077 84.3114 83.5926 84.267 83.6252 84.1879L95.4512 55.4976C95.4837 55.4185 95.4549 55.3267 95.3824 55.2818C95.1012 55.1078 94.8133 54.9416 94.5186 54.7839C94.4283 54.7358 94.3155 54.777 94.2764 54.8718ZM78.7423 82.3426C79.0233 82.5166 79.3114 82.6828 79.6061 82.8403C79.6961 82.8886 79.809 82.8475 79.8481 82.7526L91.7702 53.8287C91.8093 53.7338 91.7586 53.6244 91.6608 53.5946C91.3415 53.4967 91.0211 53.4094 90.6998 53.3329C90.617 53.313 90.5321 53.3574 90.4994 53.4365L78.6735 82.1268C78.641 82.2059 78.6696 82.2978 78.7423 82.3426Z" fill="#A48659"/>
<path d="M73.1924 61.5649L101.975 73.5455C102.069 73.5848 102.178 73.5338 102.208 73.4357C102.305 73.1147 102.392 72.7927 102.468 72.4698C102.488 72.3866 102.444 72.3011 102.365 72.2684L73.8151 60.3844C73.7365 60.3517 73.6451 60.3808 73.6003 60.4535C73.4272 60.736 73.262 61.0254 73.1049 61.3217C73.057 61.4123 73.098 61.5256 73.1924 61.5649ZM100.529 77.1752C100.702 76.8928 100.867 76.6035 101.024 76.3074C101.072 76.2168 101.031 76.1033 100.937 76.064L72.1543 64.0834C72.0599 64.0441 71.9512 64.0951 71.9213 64.1933C71.8239 64.5142 71.7371 64.8362 71.6609 65.1591C71.6412 65.2422 71.6853 65.3278 71.764 65.3605L100.314 77.2443C100.393 77.2772 100.484 77.2481 100.529 77.1752Z" fill="#A48659"/>
<path d="M68.5971 70.9881C68.5971 70.8477 68.4703 70.7381 68.3336 70.7663C68.2092 70.7919 68.0807 70.8058 67.9489 70.8058C66.9385 70.8058 66.1042 70.032 66.0029 69.0429C65.9911 68.9277 65.8957 68.8398 65.7806 68.8398H63.5087C63.3936 68.8398 63.2983 68.9277 63.2865 69.0429C63.1851 70.032 62.351 70.8058 61.3404 70.8058C60.3299 70.8058 59.4958 70.032 59.3944 69.0429C59.3826 68.9277 59.2873 68.8398 59.1722 68.8398H56.9002C56.785 68.8398 56.6898 68.9277 56.678 69.0429C56.5765 70.032 55.7424 70.8058 54.7318 70.8058C53.7214 70.8058 52.8873 70.032 52.7858 69.0429C52.774 68.9277 52.6788 68.8398 52.5635 68.8398H50.2918C50.1765 68.8398 50.0813 68.9277 50.0695 69.0429C49.9682 70.032 49.1341 70.8058 48.1235 70.8058C48.0061 70.8058 47.8913 70.7951 47.7797 70.7748C47.6435 70.7502 47.5195 70.858 47.5195 70.9969V73.2394C47.5195 73.358 47.611 73.4542 47.7287 73.4645C47.8586 73.476 47.9903 73.4823 48.1235 73.4823C49.3399 73.4823 50.4461 73.0092 51.271 72.2367C51.3602 72.1534 51.4952 72.1534 51.5844 72.2367C52.4092 73.0092 53.5152 73.4823 54.7318 73.4823C55.9484 73.4823 57.0546 73.0092 57.8796 72.2367C57.9686 72.1534 58.1036 72.1534 58.1928 72.2367C59.0178 73.0092 60.124 73.4823 61.3404 73.4823C62.557 73.4823 63.6631 73.0092 64.4879 72.2367C64.5771 72.1534 64.7121 72.1534 64.8013 72.2367C65.6263 73.0092 66.7325 73.4823 67.9489 73.4823C68.101 73.4823 68.251 73.4745 68.399 73.4598C68.5123 73.4484 68.5971 73.3498 68.5971 73.2355V70.9881Z" fill="#A48659"/>
<path d="M68.3469 66.1688C68.4784 66.1688 68.589 66.0719 68.6089 65.9413C69.9841 56.9401 77.7225 50.0464 87.0645 50.0464C87.7828 50.0464 88.4913 50.0881 89.1885 50.1677C89.4031 50.1923 89.5541 49.9616 89.4489 49.7722L83.1728 38.477C83.1258 38.3923 83.037 38.3398 82.9404 38.3398H51.6087C51.5123 38.3398 51.4233 38.3923 51.3762 38.4768L45.0499 49.8465C44.9506 50.0249 45.0789 50.2446 45.2822 50.2446H47.2106C47.3576 50.2446 47.4768 50.3644 47.4768 50.5123V65.9014C47.4768 66.0491 47.596 66.1688 47.743 66.1688H68.3469Z" fill="#603A0A"/>
<path d="M113.018 61.4874C113.018 39.9121 95.5275 22.4219 73.9522 22.4219C52.3769 22.4219 34.8867 39.9121 34.8867 61.4874C34.8867 83.0627 52.3769 100.553 73.9522 100.553C95.5275 100.553 113.018 83.0627 113.018 61.4874Z" stroke="#D0C5A3" stroke-width="2.89374"/>
</g>
</svg>
