<svg width="80" height="80" viewBox="0 0 80 80" fill="none" xmlns="http://www.w3.org/2000/svg">
<path fill-rule="evenodd" clip-rule="evenodd" d="M66.25 32.5C66.25 33.9043 66.1398 35.2827 65.9274 36.6272C65.5258 40.1027 64.4213 43.141 62.3817 46.2228C61.0593 48.3751 59.4352 50.322 57.5683 52.0045C56.3448 53.2466 54.9701 54.5358 53.4319 55.8975C48.3006 60.4388 43.6568 65.8051 42.3469 68.7064L40.0932 73.6987L38.2544 69.3314C37.2431 66.9289 31.9306 60.7239 26.4481 55.5414C25.6706 54.8065 24.8586 54.109 24.0466 53.4117C23.542 52.9784 23.0374 52.545 22.5411 52.1027C19.9196 49.7661 17.7698 46.9116 16.2524 43.6998C14.5596 40.594 13.8975 37.5342 13.7726 33.5995C13.7576 33.2349 13.75 32.8683 13.75 32.5L13.7505 32.3361C13.7498 32.1719 13.7498 32.0062 13.7506 31.8388C13.7546 30.9816 13.8232 30.1097 13.9516 29.2303C15.5612 16.2759 26.6097 6.25 40 6.25C54.4975 6.25 66.25 18.0025 66.25 32.5ZM40.0001 41.25C45.5229 41.25 50.0001 36.7729 50.0001 31.25C50.0001 25.7271 45.5229 21.25 40.0001 21.25C34.4772 21.25 30.0001 25.7271 30.0001 31.25C30.0001 36.7729 34.4772 41.25 40.0001 41.25Z" fill="#FF4433"/>
</svg>
