<svg width="28" height="28" viewBox="0 0 28 28" fill="none" xmlns="http://www.w3.org/2000/svg">
<path d="M18.3974 20.268L20.2641 18.4013L15.3307 13.468V7.33463H12.6641V14.5346L18.3974 20.268ZM13.9974 27.3346C12.153 27.3346 10.4196 26.9844 8.7974 26.284C7.17517 25.5844 5.76406 24.6346 4.56406 23.4346C3.36406 22.2346 2.41428 20.8235 1.71473 19.2013C1.01428 17.5791 0.664062 15.8457 0.664062 14.0013C0.664062 12.1569 1.01428 10.4235 1.71473 8.8013C2.41428 7.17908 3.36406 5.76797 4.56406 4.56797C5.76406 3.36797 7.17517 2.41775 8.7974 1.7173C10.4196 1.01775 12.153 0.667969 13.9974 0.667969C15.8418 0.667969 17.5752 1.01775 19.1974 1.7173C20.8196 2.41775 22.2307 3.36797 23.4307 4.56797C24.6307 5.76797 25.5805 7.17908 26.2801 8.8013C26.9805 10.4235 27.3307 12.1569 27.3307 14.0013C27.3307 15.8457 26.9805 17.5791 26.2801 19.2013C25.5805 20.8235 24.6307 22.2346 23.4307 23.4346C22.2307 24.6346 20.8196 25.5844 19.1974 26.284C17.5752 26.9844 15.8418 27.3346 13.9974 27.3346ZM13.9974 24.668C16.9529 24.668 19.4698 23.6293 21.5481 21.552C23.6254 19.4737 24.6641 16.9569 24.6641 14.0013C24.6641 11.0457 23.6254 8.52886 21.5481 6.45063C19.4698 4.3733 16.9529 3.33464 13.9974 3.33464C11.0418 3.33464 8.52539 4.3733 6.44806 6.45063C4.36984 8.52886 3.33073 11.0457 3.33073 14.0013C3.33073 16.9569 4.36984 19.4737 6.44806 21.552C8.52539 23.6293 11.0418 24.668 13.9974 24.668Z" fill="#A48659"/>
</svg>
