<svg width="400" height="400" viewBox="0 0 400 400" fill="none" xmlns="http://www.w3.org/2000/svg">
<path d="M350.925 220.093L396.177 238.834C411.9 159.846 378.255 78.544 311.269 33.8102L292.508 79.0956C335.734 112.117 358.133 166.186 350.925 220.093ZM265.482 11.0696L247.151 55.3156C250.873 56.5317 254.581 57.8501 258.258 59.373C261.935 60.8958 265.49 62.587 268.982 64.3569L287.312 20.1088C283.787 18.4027 280.199 16.7776 276.533 15.2591C272.867 13.7426 269.182 12.3539 265.482 11.0696ZM59.3513 141.75C60.8723 138.076 62.5402 134.509 64.3083 131.02L20.1085 112.714C18.3979 116.241 16.7491 119.812 15.2303 123.478C13.7114 127.146 12.3523 130.839 11.0657 134.54L55.2656 152.845C56.4819 149.128 57.8282 145.424 59.3513 141.75ZM388.932 265.462L344.732 247.155C343.516 250.874 342.172 254.576 340.649 258.25C339.125 261.924 337.46 265.494 335.689 268.982L379.891 287.286C381.598 283.759 383.249 280.19 384.77 276.522C386.288 272.854 387.647 269.163 388.932 265.462ZM131.018 335.643L112.688 379.891C116.211 381.597 119.8 383.222 123.464 384.741C127.131 386.257 130.816 387.646 134.516 388.93L152.847 344.684C149.127 343.468 145.416 342.15 141.74 340.627C138.065 339.104 134.507 337.415 131.018 335.643ZM179.907 350.895L161.146 396.178C240.147 411.907 321.438 378.207 366.181 311.237L320.929 292.496C287.904 335.709 233.825 358.107 179.907 350.895ZM49.073 179.907L3.82296 161.166C-11.9002 240.155 21.7466 321.458 88.7313 366.19L107.492 320.904C64.2657 287.883 41.8665 233.814 49.073 179.907ZM33.8186 88.7652L79.0686 107.504C112.095 64.2909 166.173 41.8931 220.093 49.1049L238.854 3.82162C159.853 -11.9075 78.5616 21.7935 33.8186 88.7652Z" fill="white"/>
</svg>
