<svg width="32" height="32" viewBox="0 0 32 32" fill="none" xmlns="http://www.w3.org/2000/svg">
<path d="M28.074 17.6075L31.6942 19.1067C32.952 12.7876 30.2604 6.28352 24.9015 2.70482L23.4006 6.32765C26.8587 8.96937 28.6507 13.2949 28.074 17.6075ZM21.2385 0.885567L19.7721 4.42525C20.0698 4.52254 20.3665 4.62801 20.6607 4.74984C20.9548 4.87167 21.2392 5.00696 21.5185 5.14855L22.985 1.6087C22.7029 1.47222 22.416 1.34221 22.1227 1.22072C21.8294 1.09941 21.5346 0.988312 21.2385 0.885567ZM4.74811 11.34C4.86978 11.0461 5.00322 10.7607 5.14467 10.4816L1.60868 9.01708C1.47183 9.29925 1.33993 9.58499 1.21842 9.87823C1.09691 10.1716 0.988187 10.4671 0.885255 10.7632L4.42125 12.2276C4.51855 11.9302 4.62626 11.6339 4.74811 11.34ZM31.1146 21.2369L27.5786 19.7724C27.4813 20.0699 27.3737 20.3661 27.2519 20.66C27.13 20.9539 26.9968 21.2395 26.8552 21.5186L30.3913 22.9829C30.5278 22.7008 30.6599 22.4152 30.7816 22.1218C30.9031 21.8284 31.0118 21.5331 31.1146 21.2369ZM10.4815 26.8514L9.01501 30.3913C9.29689 30.5278 9.58404 30.6578 9.87716 30.7793C10.1704 30.9006 10.4653 31.0117 10.7613 31.1144L12.2277 27.5748C11.9302 27.4775 11.6333 27.372 11.3392 27.2502C11.0452 27.1283 10.7606 26.9932 10.4815 26.8514ZM14.3925 28.0716L12.8917 31.6943C19.2118 32.9526 25.7151 30.2565 29.2945 24.899L25.6743 23.3997C23.0324 26.8567 18.706 28.6486 14.3925 28.0716ZM3.92584 14.3925L0.305837 12.8933C-0.952013 19.2124 1.73973 25.7167 7.0985 29.2952L8.59937 25.6724C5.14126 23.0306 3.34932 18.7051 3.92584 14.3925ZM2.70548 7.10122L6.32549 8.60031C8.96764 5.14327 13.2939 3.35145 17.6075 3.92839L19.1083 0.30573C12.7882 -0.952599 6.28493 1.74348 2.70548 7.10122Z" fill="#603A0A"/>
<path d="M23.291 1.97851L11.2384 31.0716C11.1989 31.167 11.2502 31.2769 11.3489 31.307C11.6718 31.4055 11.9958 31.4933 12.3206 31.5705C12.4044 31.5902 12.4903 31.5456 12.5232 31.466L24.4787 2.60793C24.5116 2.52835 24.4824 2.436 24.4091 2.39085C24.1249 2.21586 23.8338 2.04871 23.5359 1.89007C23.4446 1.84168 23.3306 1.88309 23.291 1.97851ZM7.5869 29.61C7.87098 29.7849 8.16223 29.9521 8.46012 30.1106C8.55112 30.1591 8.6653 30.1177 8.70484 30.0223L20.7574 0.929244C20.797 0.833825 20.7457 0.723753 20.6468 0.693764C20.3241 0.595279 20.0001 0.507528 19.6753 0.430512C19.5916 0.410577 19.5057 0.455219 19.4727 0.534791L7.51737 29.3929C7.48448 29.4724 7.51345 29.5648 7.5869 29.61Z" fill="#603A0A"/>
<path d="M1.97485 8.70866L31.0726 20.7593C31.168 20.7989 31.2781 20.7476 31.3081 20.6489C31.4066 20.326 31.4944 20.0021 31.5714 19.6773C31.5913 19.5937 31.5467 19.5076 31.4673 19.4748L2.60437 7.52122C2.52496 7.48833 2.43259 7.51764 2.38726 7.59073C2.21224 7.87494 2.04523 8.16597 1.8864 8.46398C1.838 8.55514 1.87941 8.66913 1.97485 8.70866ZM29.6107 24.4103C29.7858 24.1262 29.9528 23.8352 30.1114 23.5374C30.16 23.4462 30.1186 23.332 30.0232 23.2925L0.925418 11.2419C0.829985 11.2023 0.720065 11.2536 0.689902 11.3524C0.5914 11.6752 0.503635 11.9991 0.426607 12.3238C0.406668 12.4075 0.451317 12.4935 0.530902 12.5264L29.3936 24.4798C29.4732 24.5128 29.5656 24.4835 29.6107 24.4103Z" fill="#603A0A"/>
</svg>
