<svg width="32" height="17" viewBox="0 0 32 17" fill="none" xmlns="http://www.w3.org/2000/svg">
<path d="M32 3.40558C32 3.19318 31.8075 3.02695 31.6 3.06979C31.4111 3.10879 31.2161 3.12956 31.016 3.12956C29.4819 3.12956 28.2154 1.95776 28.0616 0.459916C28.0436 0.285736 27.8988 0.152344 27.724 0.152344H24.2749C24.1001 0.152344 23.9555 0.285736 23.9376 0.459916C23.7835 1.95776 22.5172 3.12956 20.9829 3.12956C19.4489 3.12956 18.1825 1.95776 18.0285 0.459916C18.0106 0.285736 17.866 0.152344 17.6912 0.152344H14.2418C14.067 0.152344 13.9224 0.285736 13.9045 0.459916C13.7504 1.95776 12.4841 3.12956 10.9498 3.12956C9.41578 3.12956 8.14946 1.95776 7.99539 0.459916C7.97748 0.285736 7.83288 0.152344 7.65783 0.152344H4.20897C4.03391 0.152344 3.88931 0.285736 3.8714 0.459916C3.71759 1.95776 2.45126 3.12956 0.916984 3.12956C0.738859 3.12956 0.564575 3.1134 0.395152 3.08262C0.188363 3.04542 0 3.20857 0 3.41892V6.81479C0 6.99436 0.138969 7.14006 0.317606 7.15571C0.514925 7.17316 0.714802 7.18265 0.916984 7.18265C2.76375 7.18265 4.44314 6.46617 5.69564 5.29642C5.83103 5.17021 6.03602 5.17021 6.17141 5.29642C7.42366 6.46617 9.10279 7.18265 10.9498 7.18265C12.7968 7.18265 14.4762 6.46617 15.7287 5.29642C15.8638 5.17021 16.0688 5.17021 16.2042 5.29642C17.4567 6.46617 19.1361 7.18265 20.9829 7.18265C22.8299 7.18265 24.5093 6.46617 25.7615 5.29642C25.8969 5.17021 26.1019 5.17021 26.2373 5.29642C27.4898 6.46617 29.1692 7.18265 31.016 7.18265C31.2468 7.18265 31.4746 7.17085 31.6993 7.14853C31.8713 7.1316 32 6.98205 32 6.80889V3.40558Z" fill="#603A0A"/>
<path d="M32 13.0736C32 12.8612 31.8075 12.6949 31.6 12.7378C31.4111 12.7768 31.2161 12.7975 31.016 12.7975C29.4819 12.7975 28.2154 11.6257 28.0616 10.1279C28.0436 9.95371 27.8988 9.82031 27.724 9.82031H24.2749C24.1001 9.82031 23.9555 9.95371 23.9376 10.1279C23.7835 11.6257 22.5172 12.7975 20.9829 12.7975C19.4489 12.7975 18.1825 11.6257 18.0285 10.1279C18.0106 9.95371 17.866 9.82031 17.6912 9.82031H14.2418C14.067 9.82031 13.9224 9.95371 13.9045 10.1279C13.7504 11.6257 12.4841 12.7975 10.9498 12.7975C9.41578 12.7975 8.14946 11.6257 7.99539 10.1279C7.97748 9.95371 7.83288 9.82031 7.65783 9.82031H4.20897C4.03391 9.82031 3.88931 9.95371 3.8714 10.1279C3.71759 11.6257 2.45126 12.7975 0.916984 12.7975C0.738859 12.7975 0.564575 12.7814 0.395152 12.7506C0.188363 12.7134 0 12.8765 0 13.0869V16.4828C0 16.6623 0.138969 16.808 0.317606 16.8237C0.514925 16.8411 0.714802 16.8506 0.916984 16.8506C2.76375 16.8506 4.44314 16.1341 5.69564 14.9644C5.83103 14.8382 6.03602 14.8382 6.17141 14.9644C7.42366 16.1341 9.10279 16.8506 10.9498 16.8506C12.7968 16.8506 14.4762 16.1341 15.7287 14.9644C15.8638 14.8382 16.0688 14.8382 16.2042 14.9644C17.4567 16.1341 19.1361 16.8506 20.9829 16.8506C22.8299 16.8506 24.5093 16.1341 25.7615 14.9644C25.8969 14.8382 26.1019 14.8382 26.2373 14.9644C27.4898 16.1341 29.1692 16.8506 31.016 16.8506C31.2468 16.8506 31.4746 16.8388 31.6993 16.8165C31.8713 16.7996 32 16.65 32 16.4769V13.0736Z" fill="#603A0A"/>
</svg>
