<svg width="33" height="22" viewBox="0 0 33 22" fill="none" xmlns="http://www.w3.org/2000/svg">
<path fill-rule="evenodd" clip-rule="evenodd" d="M32.1299 9.19286C32.1517 9.23204 32.1583 9.27366 32.153 9.31271C32.1497 9.29044 32.1423 9.26812 32.1303 9.24663L27.5557 1.02512C27.5217 0.963998 27.4573 0.926025 27.3876 0.926025H27.4236C27.4934 0.926025 27.5577 0.963998 27.5917 1.02524L32.1299 9.19286ZM4.76749 0.926025C4.69777 0.926025 4.63341 0.963998 4.5994 1.02512L0.0247866 9.24663C0.0128249 9.26812 0.00543086 9.29044 0.00209446 9.31272C-0.0032131 9.27367 0.00338264 9.23204 0.0251445 9.19286L4.56343 1.02524C4.59744 0.963998 4.66168 0.926025 4.73152 0.926025H4.76749Z" fill="#603A0A"/>
<path d="M27.3876 0.926025H4.76749C4.69777 0.926025 4.63341 0.963998 4.5994 1.02512L0.0247866 9.24663C0.0128249 9.26812 0.00543086 9.29044 0.00209446 9.31272C-0.0145948 9.42415 0.0702436 9.53449 0.192757 9.53449H1.58724C1.69353 9.53449 1.77971 9.62109 1.77971 9.72803V20.8559C1.77971 20.9627 1.86589 21.0494 1.97219 21.0494H15.2841H16.871H30.1829C30.2892 21.0494 30.3754 20.9627 30.3754 20.8559V9.72803C30.3754 9.62109 30.4616 9.53449 30.5679 9.53449H31.9623C32.0849 9.53449 32.1697 9.42414 32.153 9.31271C32.1497 9.29044 32.1423 9.26812 32.1303 9.24663L27.5557 1.02512C27.5217 0.963998 27.4573 0.926025 27.3876 0.926025Z" fill="#603A0A"/>
</svg>
