<svg width="48" height="48" viewBox="0 0 48 48" fill="none" xmlns="http://www.w3.org/2000/svg">
<circle cx="24" cy="24" r="24" fill="white"/>
<path fill-rule="evenodd" clip-rule="evenodd" d="M40.2201 15.3543C40.4553 14.5743 40.2201 14 39.0939 14H35.3752C34.4289 14 33.9926 14.4957 33.756 15.0429C33.756 15.0429 31.8648 19.6086 29.186 22.5743C28.319 23.4343 27.9251 23.7071 27.452 23.7071C27.2154 23.7071 26.8598 23.4343 26.8598 22.6529V15.3543C26.8598 14.4171 26.5992 14 25.8115 14H19.9636C19.3729 14 19.0173 14.4343 19.0173 14.8471C19.0173 15.7343 20.3575 15.94 20.4949 18.4371V23.8629C20.4949 25.0529 20.2781 25.2686 19.805 25.2686C18.5442 25.2686 15.4772 20.6814 13.6568 15.4329C13.304 14.4114 12.947 14 11.9965 14H8.27497C7.2125 14 7 14.4957 7 15.0429C7 16.0171 8.26081 20.8571 12.872 27.2586C15.9461 31.63 20.2739 34 24.2164 34C26.5808 34 26.8726 33.4743 26.8726 32.5671V29.2629C26.8726 28.21 27.0964 28 27.8458 28C28.3983 28 29.3432 28.2743 31.5503 30.3814C34.0719 32.88 34.487 34 35.9065 34H39.6251C40.6876 34 41.2203 33.4743 40.9143 32.4343C40.5771 31.4 39.373 29.8986 37.7764 28.1171C36.9095 27.1029 35.609 26.01 35.2137 25.4629C34.6627 24.7614 34.8199 24.4486 35.2137 23.8243C35.2137 23.8243 39.747 17.5014 40.2187 15.3543H40.2201Z" fill="#603A0A"/>
</svg>
