<svg width="48" height="48" viewBox="0 0 48 48" fill="none" xmlns="http://www.w3.org/2000/svg">
<circle cx="24" cy="24" r="24" fill="white"/>
<path fill-rule="evenodd" clip-rule="evenodd" d="M23.9448 23.9106C22.3065 23.9036 20.7373 23.2259 19.5789 22.0251C18.4205 20.8244 17.7667 19.1979 17.7599 17.4998C17.7642 15.7927 18.4145 14.1554 19.571 12.94C20.7276 11.7246 22.298 11.028 23.9448 11C24.7646 10.9987 25.5764 11.1666 26.333 11.4939C27.0896 11.8212 27.7757 12.3014 28.3514 12.9064C28.9271 13.5114 29.3808 14.2291 29.6861 15.0178C29.9914 15.8064 30.1422 16.6501 30.1296 17.4998C30.14 18.3447 29.9871 19.1831 29.68 19.9658C29.3728 20.7484 28.9177 21.4595 28.3413 22.0569C27.7649 22.6543 27.0789 23.1262 26.3238 23.4445C25.5688 23.7629 24.7599 23.9214 23.9448 23.9106ZM23.9448 14.8287C23.599 14.8285 23.2567 14.9004 22.9383 15.0402C22.6199 15.1799 22.3319 15.3847 22.0915 15.6422C21.851 15.8998 21.663 16.2049 21.5387 16.5393C21.4143 16.8737 21.3562 17.2307 21.3677 17.5888C21.3626 17.937 21.4265 18.2825 21.5553 18.6041C21.6841 18.9257 21.8752 19.2164 22.1167 19.4584C22.3582 19.7004 22.6451 19.8885 22.9595 20.0111C23.2739 20.1336 23.6092 20.1881 23.9448 20.171C24.2782 20.1792 24.6098 20.1187 24.9205 19.993C25.2311 19.8673 25.5145 19.6788 25.7543 19.4386C25.9941 19.1983 26.1854 18.9111 26.3172 18.5936C26.4489 18.276 26.5185 17.9345 26.5218 17.5888C26.5333 17.2307 26.4752 16.8737 26.3508 16.5393C26.2265 16.2049 26.0385 15.8998 25.7981 15.6422C25.5576 15.3847 25.2696 15.1799 24.9512 15.0402C24.6328 14.9004 24.2905 14.8285 23.9448 14.8287ZM26.4359 29.2529L29.9578 32.8144C30.1215 32.9839 30.2513 33.1852 30.3398 33.4067C30.4284 33.6283 30.474 33.8657 30.474 34.1055C30.474 34.3453 30.4284 34.5827 30.3398 34.8042C30.2513 35.0258 30.1215 35.227 29.9578 35.3965C29.8055 35.5855 29.6149 35.7374 29.3997 35.8417C29.1845 35.946 28.9498 36 28.7123 36C28.4747 36 28.24 35.946 28.0248 35.8417C27.8096 35.7374 27.6191 35.5855 27.4667 35.3965L23.9448 31.835L20.5087 35.3965C20.3416 35.5736 20.1407 35.7125 19.9188 35.8045C19.697 35.8965 19.459 35.9395 19.2202 35.9308C18.744 35.9124 18.2887 35.7236 17.9317 35.3965C17.7681 35.227 17.6382 35.0258 17.5497 34.8042C17.4611 34.5827 17.4155 34.3453 17.4155 34.1055C17.4155 33.8657 17.4611 33.6283 17.5497 33.4067C17.6382 33.1852 17.7681 32.9839 17.9317 32.8144L21.5395 29.2529C20.2506 28.8355 19.0114 28.2679 17.8458 27.5611C17.4477 27.2906 17.164 26.8731 17.0523 26.3934C16.9406 25.9138 17.0093 25.408 17.2445 24.979C17.3756 24.7635 17.5476 24.5778 17.7501 24.4333C17.9526 24.2888 18.1813 24.1886 18.4224 24.1386C18.6634 24.0886 18.9118 24.09 19.1523 24.1426C19.3928 24.1953 19.6205 24.2981 19.8215 24.4448C21.0788 25.2309 22.5194 25.6464 23.9877 25.6464C25.4561 25.6464 26.8966 25.2309 28.1539 24.4448C28.3549 24.2981 28.5826 24.1953 28.8231 24.1426C29.0636 24.09 29.312 24.0886 29.5531 24.1386C29.7941 24.1886 30.0228 24.2888 30.2253 24.4333C30.4278 24.5778 30.5999 24.7635 30.7309 24.979C30.9745 25.3976 31.0567 25.8961 30.9612 26.3747C30.8656 26.8534 30.5993 27.2771 30.2155 27.5611C29.0199 28.2683 27.7523 28.8357 26.4359 29.2529Z" fill="#603A0A"/>
</svg>
