<svg width="48" height="48" viewBox="0 0 48 48" fill="none" xmlns="http://www.w3.org/2000/svg">
<circle cx="24" cy="24" r="24" fill="white"/>
<path d="M29.5611 17H12V34H16.8878V28.4692H26.2536L30.5269 34H36L31.2878 28.4438C32.7513 28.2399 33.8049 27.7557 34.4488 26.991C35.0927 26.2265 35.4147 25.003 35.4147 23.3718V22.0975C35.4147 21.1289 35.2977 20.3644 35.0927 19.7781C34.8878 19.1919 34.5366 18.6822 34.0391 18.2234C33.5122 17.7901 32.9269 17.4843 32.2244 17.2804C31.522 17.1019 30.6438 17 29.5611 17ZM28.7708 24.7226H16.8878V20.7466H28.7708C29.444 20.7466 29.9122 20.8486 30.1464 21.027C30.3805 21.2054 30.5269 21.5367 30.5269 22.021V23.4483C30.5269 23.9581 30.3805 24.2894 30.1464 24.4678C29.9122 24.6461 29.444 24.7226 28.7708 24.7226Z" fill="#603A0A"/>
<path d="M38.0006 19C39.6566 19 41 17.6569 41 16C41 14.3431 39.6566 13 38.0006 13C36.3434 13 35 14.3431 35 16C35 17.6569 36.3434 19 38.0006 19Z" fill="#603A0A"/>
</svg>
