<svg width="20" height="19" viewBox="0 0 20 19" fill="none" xmlns="http://www.w3.org/2000/svg">
<path d="M10 19C8.7 19 7.47067 18.75 6.312 18.25C5.154 17.75 4.14567 17.0707 3.287 16.212C2.429 15.354 1.75 14.346 1.25 13.188C0.75 12.0293 0.5 10.8 0.5 9.5C0.5 8.18333 0.75 6.95 1.25 5.8C1.75 4.65 2.429 3.64567 3.287 2.787C4.14567 1.929 5.154 1.25 6.312 0.75C7.47067 0.25 8.7 0 10 0C11.3167 0 12.55 0.25 13.7 0.75C14.85 1.25 15.854 1.929 16.712 2.787C17.5707 3.64567 18.25 4.65 18.75 5.8C19.25 6.95 19.5 8.18333 19.5 9.5C19.5 10.8 19.25 12.0293 18.75 13.188C18.25 14.346 17.5707 15.354 16.712 16.212C15.854 17.0707 14.85 17.75 13.7 18.25C12.55 18.75 11.3167 19 10 19ZM13.675 5.825H17.075C16.5417 4.775 15.8377 3.904 14.963 3.212C14.0877 2.52067 13.075 2.04167 11.925 1.775C12.3083 2.35833 12.65 2.99567 12.95 3.687C13.25 4.379 13.4917 5.09167 13.675 5.825ZM7.85 5.825H12.15C11.9167 4.99167 11.621 4.22067 11.263 3.512C10.9043 2.804 10.4833 2.14167 10 1.525C9.51667 2.14167 9.096 2.804 8.738 3.512C8.37933 4.22067 8.08333 4.99167 7.85 5.825ZM2.3 11.675H6.025C5.95833 11.3083 5.90833 10.9457 5.875 10.587C5.84167 10.229 5.825 9.86667 5.825 9.5C5.825 9.13333 5.84167 8.77067 5.875 8.412C5.90833 8.054 5.95833 7.69167 6.025 7.325H2.3C2.2 7.65833 2.125 8.00833 2.075 8.375C2.025 8.74167 2 9.11667 2 9.5C2 9.88333 2.025 10.2583 2.075 10.625C2.125 10.9917 2.2 11.3417 2.3 11.675ZM8.075 17.2C7.69167 16.65 7.346 16.025 7.038 15.325C6.72933 14.625 6.49167 13.9083 6.325 13.175H2.925C3.45833 14.2083 4.16667 15.0793 5.05 15.788C5.93333 16.496 6.94167 16.9667 8.075 17.2ZM2.925 5.825H6.325C6.50833 5.09167 6.75 4.379 7.05 3.687C7.35 2.99567 7.69167 2.35833 8.075 1.775C6.90833 2.04167 5.89167 2.52067 5.025 3.212C4.15833 3.904 3.45833 4.775 2.925 5.825ZM10 17.475C10.5167 16.8083 10.946 16.1293 11.288 15.438C11.6293 14.746 11.9167 13.9917 12.15 13.175H7.85C8.08333 14.0083 8.371 14.7707 8.713 15.462C9.05433 16.154 9.48333 16.825 10 17.475ZM7.525 11.675H12.475C12.5417 11.3083 12.5917 10.95 12.625 10.6C12.6583 10.25 12.675 9.88333 12.675 9.5C12.675 9.11667 12.6583 8.75 12.625 8.4C12.5917 8.05 12.5417 7.69167 12.475 7.325H7.525C7.45833 7.69167 7.40833 8.05 7.375 8.4C7.34167 8.75 7.325 9.11667 7.325 9.5C7.325 9.88333 7.34167 10.25 7.375 10.6C7.40833 10.95 7.45833 11.3083 7.525 11.675ZM11.925 17.2C13.0583 16.9667 14.0667 16.496 14.95 15.788C15.8333 15.0793 16.5417 14.2083 17.075 13.175H13.675C13.475 13.9083 13.225 14.629 12.925 15.337C12.625 16.0457 12.2917 16.6667 11.925 17.2ZM13.975 11.675H17.7C17.8 11.3417 17.875 10.9917 17.925 10.625C17.975 10.2583 18 9.88333 18 9.5C18 9.11667 17.975 8.74167 17.925 8.375C17.875 8.00833 17.8 7.65833 17.7 7.325H13.975C14.0417 7.69167 14.0917 8.054 14.125 8.412C14.1583 8.77067 14.175 9.13333 14.175 9.5C14.175 9.86667 14.1583 10.229 14.125 10.587C14.0917 10.9457 14.0417 11.3083 13.975 11.675Z" fill="#603A0A"/>
</svg>
