<svg width="24" height="24" viewBox="0 0 24 24" fill="none" xmlns="http://www.w3.org/2000/svg">
<mask id="mask0_488_9609" style="mask-type:alpha" maskUnits="userSpaceOnUse" x="0" y="0" width="24" height="24">
<rect width="24" height="24" fill="#D9D9D9"/>
</mask>
<g mask="url(#mask0_488_9609)">
<path d="M12 21.5C10.7 21.5 9.47067 21.25 8.312 20.75C7.154 20.25 6.14567 19.5707 5.287 18.712C4.429 17.854 3.75 16.846 3.25 15.688C2.75 14.5293 2.5 13.3 2.5 12C2.5 10.6833 2.75 9.45 3.25 8.3C3.75 7.15 4.429 6.14567 5.287 5.287C6.14567 4.429 7.154 3.75 8.312 3.25C9.47067 2.75 10.7 2.5 12 2.5C13.3167 2.5 14.55 2.75 15.7 3.25C16.85 3.75 17.854 4.429 18.712 5.287C19.5707 6.14567 20.25 7.15 20.75 8.3C21.25 9.45 21.5 10.6833 21.5 12C21.5 13.3 21.25 14.5293 20.75 15.688C20.25 16.846 19.5707 17.854 18.712 18.712C17.854 19.5707 16.85 20.25 15.7 20.75C14.55 21.25 13.3167 21.5 12 21.5ZM15.675 8.325H19.075C18.5417 7.275 17.8377 6.404 16.963 5.712C16.0877 5.02067 15.075 4.54167 13.925 4.275C14.3083 4.85833 14.65 5.49567 14.95 6.187C15.25 6.879 15.4917 7.59167 15.675 8.325ZM9.85 8.325H14.15C13.9167 7.49167 13.621 6.72067 13.263 6.012C12.9043 5.304 12.4833 4.64167 12 4.025C11.5167 4.64167 11.096 5.304 10.738 6.012C10.3793 6.72067 10.0833 7.49167 9.85 8.325ZM4.3 14.175H8.025C7.95833 13.8083 7.90833 13.4457 7.875 13.087C7.84167 12.729 7.825 12.3667 7.825 12C7.825 11.6333 7.84167 11.2707 7.875 10.912C7.90833 10.554 7.95833 10.1917 8.025 9.825H4.3C4.2 10.1583 4.125 10.5083 4.075 10.875C4.025 11.2417 4 11.6167 4 12C4 12.3833 4.025 12.7583 4.075 13.125C4.125 13.4917 4.2 13.8417 4.3 14.175ZM10.075 19.7C9.69167 19.15 9.346 18.525 9.038 17.825C8.72933 17.125 8.49167 16.4083 8.325 15.675H4.925C5.45833 16.7083 6.16667 17.5793 7.05 18.288C7.93333 18.996 8.94167 19.4667 10.075 19.7ZM4.925 8.325H8.325C8.50833 7.59167 8.75 6.879 9.05 6.187C9.35 5.49567 9.69167 4.85833 10.075 4.275C8.90833 4.54167 7.89167 5.02067 7.025 5.712C6.15833 6.404 5.45833 7.275 4.925 8.325ZM12 19.975C12.5167 19.3083 12.946 18.6293 13.288 17.938C13.6293 17.246 13.9167 16.4917 14.15 15.675H9.85C10.0833 16.5083 10.371 17.2707 10.713 17.962C11.0543 18.654 11.4833 19.325 12 19.975ZM9.525 14.175H14.475C14.5417 13.8083 14.5917 13.45 14.625 13.1C14.6583 12.75 14.675 12.3833 14.675 12C14.675 11.6167 14.6583 11.25 14.625 10.9C14.5917 10.55 14.5417 10.1917 14.475 9.825H9.525C9.45833 10.1917 9.40833 10.55 9.375 10.9C9.34167 11.25 9.325 11.6167 9.325 12C9.325 12.3833 9.34167 12.75 9.375 13.1C9.40833 13.45 9.45833 13.8083 9.525 14.175ZM13.925 19.7C15.0583 19.4667 16.0667 18.996 16.95 18.288C17.8333 17.5793 18.5417 16.7083 19.075 15.675H15.675C15.475 16.4083 15.225 17.129 14.925 17.837C14.625 18.5457 14.2917 19.1667 13.925 19.7ZM15.975 14.175H19.7C19.8 13.8417 19.875 13.4917 19.925 13.125C19.975 12.7583 20 12.3833 20 12C20 11.6167 19.975 11.2417 19.925 10.875C19.875 10.5083 19.8 10.1583 19.7 9.825H15.975C16.0417 10.1917 16.0917 10.554 16.125 10.912C16.1583 11.2707 16.175 11.6333 16.175 12C16.175 12.3667 16.1583 12.729 16.125 13.087C16.0917 13.4457 16.0417 13.8083 15.975 14.175Z" fill="white"/>
</g>
</svg>
