<svg width="24" height="24" viewBox="0 0 24 24" fill="none" xmlns="http://www.w3.org/2000/svg">
<mask id="mask0_223_1837" style="mask-type:alpha" maskUnits="userSpaceOnUse" x="0" y="0" width="24" height="24">
<rect width="24" height="24" fill="#D9D9D9"/>
</mask>
<g mask="url(#mask0_223_1837)">
<path d="M11.9992 21.3002C10.7159 21.3002 9.50755 21.0585 8.37422 20.5752C7.24089 20.0919 6.25355 19.4292 5.41222 18.5872C4.57022 17.7459 3.90755 16.7585 3.42422 15.6252C2.94089 14.4919 2.69922 13.2835 2.69922 12.0002C2.69922 10.7002 2.94089 9.48786 3.42422 8.3632C3.90755 7.23786 4.57022 6.2542 5.41222 5.4122C6.25355 4.57086 7.24089 3.90853 8.37422 3.4252C9.50755 2.94186 10.7159 2.7002 11.9992 2.7002C13.2992 2.7002 14.5116 2.94186 15.6362 3.4252C16.7616 3.90853 17.7449 4.57086 18.5862 5.4122C19.4282 6.2542 20.0909 7.23786 20.5742 8.3632C21.0576 9.48786 21.2992 10.7002 21.2992 12.0002V13.1752C21.2992 14.0752 20.9952 14.8295 20.3872 15.4382C19.7786 16.0462 19.0242 16.3502 18.1242 16.3502C17.4909 16.3502 16.9366 16.2045 16.4612 15.9132C15.9866 15.6212 15.6159 15.2252 15.3492 14.7252C14.9492 15.2252 14.4786 15.6212 13.9372 15.9132C13.3952 16.2045 12.7492 16.3502 11.9992 16.3502C10.7826 16.3502 9.75355 15.9295 8.91222 15.0882C8.07022 14.2462 7.64922 13.2169 7.64922 12.0002C7.64922 10.8002 8.07022 9.7752 8.91222 8.9252C9.75355 8.0752 10.7826 7.6502 11.9992 7.6502C13.1992 7.6502 14.2242 8.07086 15.0742 8.9122C15.9242 9.7542 16.3492 10.7835 16.3492 12.0002V13.1752C16.3492 13.6919 16.5202 14.1169 16.8622 14.4502C17.2036 14.7835 17.6242 14.9502 18.1242 14.9502C18.6242 14.9502 19.0452 14.7835 19.3872 14.4502C19.7286 14.1169 19.8992 13.6919 19.8992 13.1752V12.0002C19.8992 9.8502 19.1199 7.99586 17.5612 6.4372C16.0032 4.8792 14.1492 4.1002 11.9992 4.1002C9.84922 4.1002 7.99522 4.8792 6.43722 6.4372C4.87855 7.99586 4.09922 9.8502 4.09922 12.0002C4.09922 14.1502 4.87855 16.0042 6.43722 17.5622C7.99522 19.1209 9.84922 19.9002 11.9992 19.9002H16.9492V21.3002H11.9992ZM11.9992 14.9502C12.8159 14.9502 13.5119 14.6625 14.0872 14.0872C14.6619 13.5125 14.9492 12.8169 14.9492 12.0002C14.9492 11.1835 14.6619 10.4875 14.0872 9.9122C13.5119 9.33753 12.8159 9.0502 11.9992 9.0502C11.1826 9.0502 10.4869 9.33753 9.91222 9.9122C9.33689 10.4875 9.04922 11.1835 9.04922 12.0002C9.04922 12.8169 9.33689 13.5125 9.91222 14.0872C10.4869 14.6625 11.1826 14.9502 11.9992 14.9502Z" fill="white"/>
</g>
</svg>
