<svg width="640" height="28" viewBox="0 0 640 28" fill="none" xmlns="http://www.w3.org/2000/svg">
<path d="M134.304 12.4982C134.304 11.6824 133.496 11.044 132.625 11.2085C131.832 11.3583 131.014 11.4381 130.174 11.4381C123.735 11.4381 118.419 6.93755 117.774 1.18479C117.699 0.515815 117.091 0.00349808 116.357 0.00349808H101.881C101.148 0.00349808 100.541 0.515815 100.466 1.18479C99.819 6.93755 94.5042 11.4381 88.0649 11.4381C81.6266 11.4381 76.3119 6.93755 75.6653 1.18479C75.5901 0.515815 74.9832 0.00349808 74.2496 0.00349808H59.7726C59.039 0.00349808 58.4321 0.515815 58.3569 1.18479C57.7103 6.93755 52.3955 11.4381 45.9562 11.4381C39.5179 11.4381 34.2032 6.93755 33.5566 1.18479C33.4814 0.515815 32.8745 0.00349808 32.1398 0.00349808H17.665C16.9303 0.00349808 16.3234 0.515815 16.2482 1.18479C15.6027 6.93755 10.2879 11.4381 3.84857 11.4381C3.10098 11.4381 2.36951 11.376 1.65845 11.2578C0.790558 11.1149 0 11.7415 0 12.5494V25.5919C0 26.2816 0.583252 26.8412 1.33299 26.9013C2.16113 26.9683 3.00002 27.0048 3.84857 27.0048C11.5994 27.0048 18.6478 24.253 23.9045 19.7603C24.4727 19.2756 25.3331 19.2756 25.9013 19.7603C31.157 24.253 38.2043 27.0048 45.9562 27.0048C53.7081 27.0048 60.7565 24.253 66.0132 19.7603C66.5804 19.2756 67.4407 19.2756 68.0089 19.7603C73.2657 24.253 80.314 27.0048 88.0649 27.0048C95.8168 27.0048 102.865 24.253 108.121 19.7603C108.689 19.2756 109.549 19.2756 110.118 19.7603C115.374 24.253 122.423 27.0048 130.174 27.0048C131.142 27.0048 132.098 26.9594 133.041 26.8737C133.763 26.8087 134.304 26.2343 134.304 25.5693V12.4982Z" fill="#A48659"/>
<path d="M260.756 12.4982C260.756 11.6824 259.948 11.044 259.077 11.2085C258.284 11.3583 257.466 11.4381 256.626 11.4381C250.187 11.4381 244.872 6.93755 244.226 1.18479C244.151 0.515815 243.543 0.00349808 242.809 0.00349808H228.333C227.6 0.00349808 226.993 0.515815 226.918 1.18479C226.271 6.93755 220.956 11.4381 214.517 11.4381C208.079 11.4381 202.764 6.93755 202.117 1.18479C202.042 0.515815 201.435 0.00349808 200.702 0.00349808H186.225C185.491 0.00349808 184.884 0.515815 184.809 1.18479C184.162 6.93755 178.848 11.4381 172.408 11.4381C165.97 11.4381 160.655 6.93755 160.009 1.18479C159.933 0.515815 159.327 0.00349808 158.592 0.00349808H144.117C143.382 0.00349808 142.775 0.515815 142.7 1.18479C142.055 6.93755 136.74 11.4381 130.301 11.4381C129.553 11.4381 128.822 11.376 128.111 11.2578C127.243 11.1149 126.452 11.7415 126.452 12.5494V25.5919C126.452 26.2816 127.035 26.8412 127.785 26.9013C128.613 26.9683 129.452 27.0048 130.301 27.0048C138.051 27.0048 145.1 24.253 150.357 19.7603C150.925 19.2756 151.785 19.2756 152.353 19.7603C157.609 24.253 164.656 27.0048 172.408 27.0048C180.16 27.0048 187.209 24.253 192.465 19.7603C193.032 19.2756 193.893 19.2756 194.461 19.7603C199.718 24.253 206.766 27.0048 214.517 27.0048C222.269 27.0048 229.317 24.253 234.573 19.7603C235.141 19.2756 236.002 19.2756 236.57 19.7603C241.826 24.253 248.875 27.0048 256.626 27.0048C257.594 27.0048 258.55 26.9594 259.494 26.8737C260.215 26.8087 260.756 26.2343 260.756 25.5693V12.4982Z" fill="#A48659"/>
<path d="M387.208 12.4982C387.208 11.6824 386.4 11.044 385.529 11.2085C384.736 11.3583 383.918 11.4381 383.078 11.4381C376.639 11.4381 371.324 6.93755 370.678 1.18479C370.603 0.515815 369.995 0.00349808 369.261 0.00349808H354.785C354.052 0.00349808 353.445 0.515815 353.37 1.18479C352.723 6.93755 347.408 11.4381 340.969 11.4381C334.531 11.4381 329.216 6.93755 328.569 1.18479C328.494 0.515815 327.887 0.00349808 327.154 0.00349808H312.677C311.943 0.00349808 311.336 0.515815 311.261 1.18479C310.614 6.93755 305.3 11.4381 298.86 11.4381C292.422 11.4381 287.107 6.93755 286.461 1.18479C286.386 0.515815 285.779 0.00349808 285.044 0.00349808H270.569C269.834 0.00349808 269.228 0.515815 269.152 1.18479C268.507 6.93755 263.192 11.4381 256.753 11.4381C256.005 11.4381 255.274 11.376 254.563 11.2578C253.695 11.1149 252.904 11.7415 252.904 12.5494V25.5919C252.904 26.2816 253.487 26.8412 254.237 26.9013C255.065 26.9683 255.904 27.0048 256.753 27.0048C264.504 27.0048 271.552 24.253 276.809 19.7603C277.377 19.2756 278.237 19.2756 278.805 19.7603C284.061 24.253 291.108 27.0048 298.86 27.0048C306.612 27.0048 313.661 24.253 318.917 19.7603C319.485 19.2756 320.345 19.2756 320.913 19.7603C326.17 24.253 333.218 27.0048 340.969 27.0048C348.721 27.0048 355.769 24.253 361.025 19.7603C361.593 19.2756 362.454 19.2756 363.022 19.7603C368.279 24.253 375.327 27.0048 383.078 27.0048C384.047 27.0048 385.003 26.9594 385.946 26.8737C386.667 26.8087 387.208 26.2343 387.208 25.5693V12.4982Z" fill="#A48659"/>
<path d="M513.66 12.4947C513.66 11.6789 512.852 11.0405 511.981 11.205C511.188 11.3548 510.37 11.4346 509.53 11.4346C503.092 11.4346 497.776 6.93406 497.13 1.18129C497.055 0.512317 496.447 0 495.713 0H481.237C480.504 0 479.897 0.512317 479.822 1.18129C479.175 6.93406 473.86 11.4346 467.421 11.4346C460.983 11.4346 455.668 6.93406 455.021 1.18129C454.946 0.512317 454.339 0 453.606 0H439.129C438.395 0 437.788 0.512317 437.713 1.18129C437.067 6.93406 431.752 11.4346 425.312 11.4346C418.874 11.4346 413.559 6.93406 412.913 1.18129C412.838 0.512317 412.231 0 411.496 0H397.021C396.286 0 395.68 0.512317 395.604 1.18129C394.959 6.93406 389.644 11.4346 383.205 11.4346C382.457 11.4346 381.726 11.3725 381.015 11.2543C380.147 11.1114 379.356 11.738 379.356 12.5459V25.5884C379.356 26.2781 379.939 26.8377 380.689 26.8978C381.517 26.9648 382.356 27.0013 383.205 27.0013C390.956 27.0013 398.004 24.2495 403.261 19.7568C403.829 19.2721 404.689 19.2721 405.258 19.7568C410.513 24.2495 417.56 27.0013 425.312 27.0013C433.064 27.0013 440.113 24.2495 445.369 19.7568C445.937 19.2721 446.797 19.2721 447.365 19.7568C452.622 24.2495 459.67 27.0013 467.421 27.0013C475.173 27.0013 482.221 24.2495 487.477 19.7568C488.045 19.2721 488.906 19.2721 489.474 19.7568C494.731 24.2495 501.779 27.0013 509.53 27.0013C510.499 27.0013 511.455 26.9559 512.398 26.8702C513.12 26.8052 513.66 26.2308 513.66 25.5658V12.4947Z" fill="#A48659"/>
<path d="M640 12.4947C640 11.6789 639.192 11.0405 638.321 11.205C637.528 11.3548 636.71 11.4346 635.87 11.4346C629.432 11.4346 624.116 6.93406 623.47 1.18129C623.395 0.512317 622.787 0 622.054 0H607.578C606.844 0 606.237 0.512317 606.162 1.18129C605.515 6.93406 600.201 11.4346 593.761 11.4346C587.323 11.4346 582.008 6.93406 581.362 1.18129C581.286 0.512317 580.68 0 579.946 0H565.469C564.735 0 564.129 0.512317 564.053 1.18129C563.407 6.93406 558.092 11.4346 551.653 11.4346C545.214 11.4346 539.9 6.93406 539.253 1.18129C539.178 0.512317 538.571 0 537.836 0H523.361C522.627 0 522.02 0.512317 521.945 1.18129C521.299 6.93406 515.984 11.4346 509.545 11.4346C508.797 11.4346 508.066 11.3725 507.355 11.2543C506.487 11.1114 505.696 11.738 505.696 12.5459V25.5884C505.696 26.2781 506.28 26.8377 507.029 26.8978C507.858 26.9648 508.696 27.0013 509.545 27.0013C517.296 27.0013 524.344 24.2495 529.601 19.7568C530.169 19.2721 531.03 19.2721 531.598 19.7568C536.853 24.2495 543.901 27.0013 551.653 27.0013C559.405 27.0013 566.453 24.2495 571.71 19.7568C572.277 19.2721 573.137 19.2721 573.705 19.7568C578.962 24.2495 586.01 27.0013 593.761 27.0013C601.513 27.0013 608.562 24.2495 613.817 19.7568C614.386 19.2721 615.246 19.2721 615.814 19.7568C621.071 24.2495 628.119 27.0013 635.87 27.0013C636.839 27.0013 637.795 26.9559 638.738 26.8702C639.46 26.8052 640 26.2308 640 25.5658V12.4947Z" fill="#A48659"/>
</svg>
