<svg width="150" height="60" viewBox="0 0 150 60" fill="none" xmlns="http://www.w3.org/2000/svg">
<path d="M29.5713 35.0284C29.7318 35.0284 29.8667 34.9102 29.891 34.7508C31.5691 23.7672 41.0119 15.3552 52.4112 15.3552C53.2877 15.3552 54.1523 15.4061 55.003 15.5033C55.2649 15.5332 55.4492 15.2517 55.3209 15.0206L47.6625 1.23775C47.6051 1.13439 47.4967 1.07031 47.3788 1.07031H9.1467C9.02904 1.07031 8.92043 1.13439 8.86304 1.23754L1.14339 15.1113C1.02223 15.329 1.17877 15.5971 1.42684 15.5971H3.78003C3.9594 15.5971 4.10483 15.7432 4.10483 15.9237V34.702C4.10483 34.8823 4.25026 35.0284 4.42963 35.0284H29.5713Z" fill="white"/>
<path d="M29.8759 40.9105C29.8759 40.7392 29.7213 40.6054 29.5544 40.6399C29.4026 40.6712 29.2459 40.6881 29.085 40.6881C27.8521 40.6881 26.8341 39.7439 26.7105 38.5369C26.6961 38.3963 26.5796 38.2891 26.4391 38.2891H23.6669C23.5265 38.2891 23.4102 38.3963 23.3958 38.5369C23.272 39.7439 22.2542 40.6881 21.021 40.6881C19.7881 40.6881 18.7703 39.7439 18.6465 38.5369C18.6321 38.3963 18.5158 38.2891 18.3754 38.2891H15.603C15.4625 38.2891 15.3462 38.3963 15.3318 38.5369C15.208 39.7439 14.1902 40.6881 12.9571 40.6881C11.7241 40.6881 10.7063 39.7439 10.5825 38.5369C10.5681 38.3963 10.4519 38.2891 10.3112 38.2891H7.53917C7.39847 38.2891 7.28225 38.3963 7.26785 38.5369C7.14423 39.7439 6.12643 40.6881 4.89327 40.6881C4.7501 40.6881 4.61002 40.6751 4.47385 40.6503C4.30765 40.6203 4.15625 40.7518 4.15625 40.9213V43.6577C4.15625 43.8024 4.26795 43.9198 4.41152 43.9324C4.57012 43.9464 4.73077 43.9541 4.89327 43.9541C6.37759 43.9541 7.72738 43.3767 8.73407 42.4342C8.84288 42.3325 9.00765 42.3325 9.11646 42.4342C10.1229 43.3767 11.4725 43.9541 12.9571 43.9541C14.4416 43.9541 15.7914 43.3767 16.7981 42.4342C16.9067 42.3325 17.0714 42.3325 17.1802 42.4342C18.1869 43.3767 19.5367 43.9541 21.021 43.9541C22.5056 43.9541 23.8554 43.3767 24.8618 42.4342C24.9707 42.3325 25.1354 42.3325 25.2442 42.4342C26.2509 43.3767 27.6007 43.9541 29.085 43.9541C29.2706 43.9541 29.4537 43.9446 29.6343 43.9266C29.7725 43.9127 29.8759 43.7924 29.8759 43.6529V40.9105Z" fill="white"/>
<path d="M145.876 24.8988C145.876 24.7274 145.721 24.5937 145.554 24.6282C145.403 24.6594 145.246 24.6764 145.085 24.6764C143.852 24.6764 142.834 23.7321 142.71 22.5252C142.696 22.3846 142.58 22.2773 142.439 22.2773H139.667C139.526 22.2773 139.41 22.3846 139.396 22.5252C139.272 23.7321 138.254 24.6764 137.021 24.6764C135.788 24.6764 134.77 23.7321 134.646 22.5252C134.632 22.3846 134.516 22.2773 134.375 22.2773H131.603C131.462 22.2773 131.346 22.3846 131.332 22.5252C131.208 23.7321 130.19 24.6764 128.957 24.6764C127.724 24.6764 126.706 23.7321 126.582 22.5252C126.568 22.3846 126.452 22.2773 126.311 22.2773H123.539C123.398 22.2773 123.282 22.3846 123.268 22.5252C123.144 23.7321 122.126 24.6764 120.893 24.6764C120.75 24.6764 120.61 24.6634 120.474 24.6386C120.308 24.6086 120.156 24.7401 120.156 24.9096V27.6459C120.156 27.7906 120.268 27.908 120.412 27.9207C120.57 27.9347 120.731 27.9424 120.893 27.9424C122.378 27.9424 123.727 27.365 124.734 26.4224C124.843 26.3207 125.008 26.3207 125.116 26.4224C126.123 27.365 127.473 27.9424 128.957 27.9424C130.442 27.9424 131.791 27.365 132.798 26.4224C132.907 26.3207 133.071 26.3207 133.18 26.4224C134.187 27.365 135.537 27.9424 137.021 27.9424C138.506 27.9424 139.855 27.365 140.862 26.4224C140.971 26.3207 141.135 26.3207 141.244 26.4224C142.251 27.365 143.601 27.9424 145.085 27.9424C145.271 27.9424 145.454 27.9329 145.634 27.9149C145.772 27.901 145.876 27.7807 145.876 27.6412V24.8988Z" fill="white"/>
<path d="M80.4537 34.8202C80.1149 34.8202 79.6372 34.7411 79.0203 34.5833C78.4034 34.4374 78.0525 34.3161 77.968 34.2185C77.8954 34.1338 77.8594 34.0242 77.8594 33.8905C77.8594 33.8297 77.8802 33.76 77.9227 33.6807C77.9649 33.6019 78.0134 33.5258 78.0677 33.4529C78.1223 33.3799 78.1704 33.3133 78.213 33.2524C78.2551 33.1916 78.2765 33.1492 78.2765 33.1246V24.6469C78.2765 24.55 78.228 24.4222 78.1311 24.2641C78.0344 24.1064 78.0042 23.9724 78.0408 23.8631C78.1132 23.6078 78.3006 23.4437 78.6032 23.3707C78.7963 23.3223 79.2499 23.3891 79.9637 23.5714C80.7375 23.7659 81.1611 23.9664 81.2337 24.1729C81.2818 24.3069 81.2637 24.5074 81.1794 24.7747C81.0461 25.2123 80.9798 25.4553 80.9798 25.5039C80.9798 25.6497 81.0039 25.7956 81.0522 25.9413C81.2337 25.3338 81.4877 24.7929 81.8144 24.3189C82.2134 23.7477 82.6127 23.4619 83.0119 23.4619C83.4227 23.4619 83.9551 23.6078 84.6082 23.8995C85.2732 24.1791 85.6484 24.4344 85.7331 24.6653C86.0717 25.431 86.241 28.3056 86.241 33.2887C86.3377 33.544 86.3862 33.7751 86.3862 33.9816C86.3862 34.3462 86.2472 34.5951 85.9689 34.7291C85.8722 34.7655 85.7208 34.7838 85.5153 34.7838C85.1284 34.7838 84.6382 34.7169 84.0458 34.5833C83.4653 34.4494 83.1203 34.3281 83.0119 34.2185C82.9513 34.1338 82.921 34.0544 82.921 33.9816C82.921 33.8479 83.0119 33.6352 83.1932 33.3435C83.3746 33.0399 83.4653 32.821 83.4653 32.6872C83.4772 27.8984 83.4408 25.4857 83.3565 25.4491C83.187 25.4008 82.7696 25.9477 82.1046 27.09C81.403 28.3056 81.0522 29.2232 81.0522 29.8429V33.2524C81.2094 33.4105 81.2882 33.605 81.2882 33.8357C81.2882 34.3097 81.0825 34.6257 80.6715 34.7838C80.5987 34.808 80.5263 34.8202 80.4537 34.8202Z" fill="white"/>
<path d="M95.3498 34.0535C95.3375 34.2238 95.2651 34.3695 95.132 34.4911C94.9987 34.6124 94.8477 34.6612 94.6784 34.637C93.1785 34.4423 92.3442 34.1568 92.1747 33.78C92.1504 33.707 92.1385 33.6587 92.1385 33.6343C92.1625 33.5371 92.2047 33.4369 92.2654 33.3333C92.3259 33.2304 92.3682 33.1483 92.3925 33.0873C92.4042 33.0387 92.4135 32.9629 92.4197 32.8593C92.4256 32.7562 92.4223 32.6195 92.4104 32.4492C92.2654 32.5586 92.0477 32.8502 91.7575 33.3242C91.4426 33.8712 91.1768 34.2358 90.9592 34.4181C90.5719 34.7827 90.1304 34.965 89.6349 34.965C89.3323 34.965 89.0481 34.8495 88.7821 34.6186C88.649 34.5093 88.4129 34.2724 88.0743 33.9075L87.1312 32.832C86.8771 32.4918 86.75 32.1697 86.75 31.8657C86.75 31.7927 86.7621 31.6956 86.7864 31.574C87.016 30.5047 87.7297 29.4896 88.9271 28.5292C89.7738 27.8487 91.0073 27.1135 92.6284 26.3234C92.6284 25.9344 92.5311 25.6853 92.338 25.5758C92.217 25.5028 91.7937 25.6427 91.0682 25.9952C90.3423 26.3478 89.8344 26.6395 89.544 26.8704C89.4957 26.919 89.4321 26.9768 89.3537 27.0434C89.2749 27.1104 89.1813 27.1864 89.0723 27.2714C88.8664 27.4051 88.6792 27.4417 88.51 27.3807C88.3769 27.3442 88.0928 27.1255 87.6571 26.7244C87.2219 26.3234 86.9857 26.0562 86.9497 25.9222C86.8526 25.5822 86.9555 25.3269 87.2581 25.1564C87.2821 25.1322 87.524 25.0594 87.9838 24.9377L89.3264 24.2084C90.2576 23.7588 91.0559 23.5157 91.7211 23.4791C91.9994 23.455 92.3137 23.6009 92.6646 23.9167C92.9791 24.1966 93.2965 24.4728 93.617 24.7463C93.9375 25.0197 94.267 25.2841 94.606 25.5394C94.9927 25.892 95.1865 26.2201 95.1865 26.5239V33.4154C95.3194 33.7316 95.3739 33.9441 95.3498 34.0535ZM89.0359 32.9778C89.2778 32.9778 89.8462 32.4308 90.7416 31.3369C91.6244 30.231 92.1928 29.362 92.447 28.7299C91.8418 28.9732 91.3338 29.3257 90.923 29.7872L89.9797 30.9359C89.7254 31.1912 89.4833 31.5256 89.2538 31.9386C89.0359 32.3397 88.9271 32.6377 88.9271 32.832C88.9271 32.9294 88.9635 32.9778 89.0359 32.9778Z" fill="white"/>
<path d="M98.9606 38.6481C98.6842 38.6481 98.245 38.5629 97.6441 38.3928C97.4759 38.3318 97.3012 38.2744 97.1208 38.2196C96.9407 38.165 96.7664 38.1071 96.5982 38.0464C96.2964 37.9612 96.1212 37.7731 96.073 37.4812C96.0487 37.3355 96.0913 37.0984 96.2003 36.7701C96.3209 36.4421 96.3816 36.2416 96.3816 36.1686V24.2997C96.3816 23.9109 96.3513 23.6558 96.2909 23.534C96.1094 23.2304 96.0551 23.0177 96.1275 22.8959C96.188 22.7988 96.3447 22.75 96.5978 22.75C96.8623 22.75 97.2772 22.8048 97.8424 22.9141C98.5035 23.0481 98.8456 23.1146 98.8699 23.1146C99.0744 23.1392 99.2305 23.2852 99.3387 23.5522C99.3506 23.5768 99.357 23.6616 99.357 23.8075C99.357 24.3061 99.2844 25.0473 99.1394 26.0319L100.016 24.2997C100.393 23.5584 100.752 23.2182 101.093 23.2788C103.48 23.7651 104.673 25.2479 104.673 27.7273C104.673 29.1131 104.295 30.523 103.54 31.9572C102.785 33.3671 101.97 34.2787 101.093 34.6919C100.947 34.7525 100.831 34.7831 100.746 34.7831C100.43 34.7831 99.9 34.412 99.1575 33.6708V37.1896C99.1815 37.3109 99.2358 37.4812 99.3206 37.6999C99.4173 37.9672 99.466 38.1559 99.466 38.2653C99.466 38.5205 99.2973 38.6481 98.9606 38.6481ZM99.2118 32.7958C99.9058 32.4799 100.521 31.8112 101.057 30.7903C101.617 29.7574 101.897 28.797 101.897 27.9096C101.897 26.8767 101.495 26.3116 100.691 26.2142C100.253 26.1656 99.7597 28.3594 99.2118 32.7958Z" fill="white"/>
<path d="M107.522 34.9104C107.075 34.9104 106.627 34.8253 106.18 34.6552C105.672 34.4607 105.418 34.23 105.418 33.9625V24.4455C105.418 24.2514 105.478 24.0385 105.599 23.8074C105.72 23.5767 105.859 23.4307 106.017 23.37C106.041 23.3578 106.089 23.3516 106.162 23.3516C106.464 23.3516 106.899 23.4609 107.468 23.6798C108.049 23.8867 108.363 24.0688 108.411 24.2268C108.448 24.3241 108.466 24.3971 108.466 24.4455C108.466 24.543 108.417 24.6675 108.321 24.8192C108.224 24.9713 108.176 25.1142 108.176 25.2477V27.5632L110.861 23.8621C111.018 23.6556 111.217 23.5403 111.46 23.5157C111.689 23.5037 112.01 23.6496 112.421 23.9533C112.881 24.3059 113.116 24.6402 113.129 24.956C113.141 25.017 113.08 25.172 112.947 25.4209C112.814 25.6702 112.59 25.9892 112.276 26.3782L110.28 28.8029L113.056 31.9388C113.116 31.9998 113.186 32.0635 113.265 32.1302C113.343 32.1972 113.449 32.2609 113.582 32.3216C113.8 32.431 113.915 32.5467 113.927 32.6679C113.951 32.9232 113.721 33.3426 113.237 33.9259C112.741 34.5336 112.367 34.8193 112.113 34.7829C111.846 34.7465 111.414 34.3786 110.815 33.6797C110.217 32.981 109.343 31.957 108.194 30.6078V33.3426C108.194 33.4035 108.209 33.5129 108.239 33.6708C108.269 33.829 108.29 33.9443 108.303 34.0171C108.339 34.4183 108.254 34.6855 108.049 34.8193C107.927 34.8801 107.752 34.9104 107.522 34.9104Z" fill="white"/>
<path d="M80.8895 51.2516C80.8048 51.2516 80.6867 51.2485 80.5357 51.2425C80.3845 51.2363 80.2274 51.2243 80.0641 51.2061C79.9007 51.1877 79.7374 51.1698 79.5741 51.1514C79.4112 51.1332 79.2748 51.1057 79.166 51.0693C78.682 50.96 78.3917 50.8382 78.2953 50.7047C78.2467 50.6561 78.2227 50.5831 78.2227 50.486C78.2227 50.4252 78.2377 50.334 78.2679 50.2125C78.2979 50.0912 78.3134 49.9938 78.3134 49.9208V40.3856C78.3134 40.2763 78.3586 40.1547 78.4495 40.021C78.54 39.8875 78.646 39.7903 78.7667 39.7293C78.8031 39.7173 78.9148 39.7142 79.1024 39.72C79.2898 39.7264 79.5107 39.7446 79.7648 39.7748C80.0188 39.8052 80.2938 39.8418 80.5902 39.8842C80.8864 39.9269 81.1617 39.9846 81.4159 40.0574C81.9476 40.2033 82.3771 40.3373 82.7038 40.4586C83.0304 40.5801 83.2119 40.6895 83.2483 40.7868C83.2845 40.8478 83.2904 40.957 83.2664 41.1149C83.2421 41.2123 83.23 41.2852 83.23 41.3338V41.4429C83.23 41.5405 83.2421 41.6135 83.2664 41.6618L84.5726 46.548C84.8264 45.7458 85.2802 44.1231 85.9335 41.68C86.2597 40.4402 86.5257 39.7903 86.7314 39.7293C86.7678 39.7293 86.8009 39.7264 86.8311 39.72C86.8614 39.7142 86.9006 39.7109 86.9492 39.7109C87.1185 39.7109 87.3725 39.7537 87.7113 39.8387C88.1223 39.936 88.3944 39.9846 88.5277 39.9846L90.2875 40.1122C90.6986 40.1851 90.9344 40.3311 90.9951 40.5498C91.0191 40.6471 91.0315 40.7139 91.0315 40.7503C91.0315 40.8478 91.0068 40.9781 90.9587 41.1422C90.9103 41.3063 90.886 41.4312 90.886 41.5159V49.7385C90.886 49.8479 90.9406 49.9818 91.0496 50.1395C91.1701 50.3099 91.2184 50.4494 91.1944 50.5587C91.146 50.9354 91.0432 51.1423 90.886 51.1789C90.6684 51.2394 90.2572 51.1846 89.6525 51.0147C89.483 50.966 89.3077 50.9205 89.1263 50.8779C88.9449 50.8351 88.7754 50.7896 88.6182 50.7413C88.4611 50.6925 88.3249 50.6468 88.2101 50.6044C88.0949 50.5616 88.0256 50.5164 88.0015 50.4678C87.9771 50.3948 87.9651 50.3281 87.9651 50.2671C87.9651 50.2065 87.9771 50.1184 88.0015 50.0027C88.0256 49.8874 88.0377 49.7871 88.0377 49.7019V43.5943C87.6263 44.3966 87.0763 46.2561 86.3868 49.1732C86.3747 49.1978 86.3687 49.2342 86.3687 49.2827C86.3687 49.3315 86.3714 49.3921 86.3776 49.465C86.3835 49.5378 86.3928 49.6232 86.4049 49.7201C86.429 49.8177 86.4442 49.8995 86.4504 49.9663C86.4561 50.0333 86.4594 50.079 86.4594 50.1029C86.4594 50.3582 86.4471 50.5343 86.423 50.6319C86.3868 50.814 86.2961 50.9236 86.1509 50.96C86.0902 50.9719 86.0238 50.981 85.9513 50.9872C85.8787 50.9932 85.788 50.9963 85.6792 50.9963C85.0987 50.9963 84.5785 50.9172 84.119 50.7594C83.659 50.6013 83.3207 50.4192 83.1028 50.2125C83.0424 50.1517 83.0123 50.0364 83.0123 49.8661C83.0243 49.6837 83.0243 49.556 83.0123 49.4832C82.6371 48.3893 82.3379 47.4869 82.1143 46.7758C81.8903 46.0647 81.7088 45.4936 81.57 45.062C81.4305 44.6308 81.3277 44.3145 81.2616 44.114C81.1948 43.9135 81.1374 43.7707 81.0893 43.6855V49.0274C81.0893 49.0884 81.101 49.1614 81.1255 49.2461C81.1495 49.3315 81.1734 49.4225 81.1981 49.5196C81.2948 49.7871 81.3431 49.9452 81.3431 49.9938C81.3672 50.079 81.3824 50.1732 81.3886 50.2762C81.3945 50.3797 81.3912 50.4982 81.3793 50.6319C81.3672 50.9236 81.3069 51.1119 81.1981 51.1968C81.1374 51.2334 81.0348 51.2516 80.8895 51.2516Z" fill="white"/>
<path d="M96.511 51.0872C96.0393 51.0872 95.4224 50.9413 94.6603 50.6496C93.8498 50.3579 93.3179 50.0419 93.0639 49.7014C92.3622 48.8023 92.0117 47.5382 92.0117 45.9094C92.0117 44.3779 92.3201 43.0287 92.9369 41.862C93.6141 40.5738 94.4608 39.9233 95.4769 39.9111C95.8274 39.8992 96.281 39.9963 96.8376 40.2028C97.5026 40.4581 98.0409 40.8045 98.4523 41.2419C98.5729 41.3637 98.6759 41.6919 98.7609 42.2267C98.8814 42.7858 98.9421 43.357 98.9421 43.9403C98.9421 44.7789 98.8088 45.3504 98.5428 45.6541C97.3093 46.0433 96.0393 46.268 94.7329 46.3286C94.721 46.9243 94.7934 47.5502 94.9507 48.2065C95.1077 48.851 95.2831 49.1851 95.4769 49.2093C95.7065 49.2339 95.9967 49.0331 96.3476 48.6075C96.6379 48.2795 96.8253 47.9818 96.91 47.7144C96.9581 47.532 97.01 47.3468 97.0643 47.1583C97.1188 46.9698 97.1823 46.7786 97.2548 46.5839C97.4724 46.5597 97.8535 46.6568 98.3978 46.8755C98.9662 47.0944 99.2986 47.2889 99.3957 47.4591C99.5045 47.6414 99.2685 48.1823 98.6881 49.0817C98.0714 50.0297 97.4543 50.6798 96.8376 51.0324C96.765 51.069 96.6562 51.0872 96.511 51.0872ZM94.6603 44.8155C95.1924 44.8035 95.6279 44.6698 95.9667 44.4145C96.16 44.2685 96.2569 43.6608 96.2569 42.5911C96.2569 42.1417 96.2267 41.9046 96.1662 41.8802C95.9605 41.8683 95.6703 42.1963 95.2953 42.8648C94.9205 43.5575 94.7086 44.2078 94.6603 44.8155Z" fill="white"/>
<path d="M107.577 51.304C107.516 51.3282 107.386 51.316 107.187 51.2676C106.987 51.2188 106.681 51.1459 106.27 51.0487C105.859 50.9513 105.59 50.8784 105.463 50.83C105.336 50.7812 105.254 50.7142 105.218 50.6295C105.182 50.5565 105.164 50.4716 105.164 50.3742C105.164 50.3134 105.161 50.2374 105.155 50.1462C105.148 50.0551 105.139 49.961 105.127 49.8636C105.115 49.7667 105.106 49.6786 105.1 49.5993C105.094 49.5203 105.091 49.4626 105.091 49.426C105.03 48.9521 104.967 48.4448 104.901 47.9038C104.834 47.3631 104.77 46.9102 104.71 46.5456C104.638 46.108 104.565 45.695 104.492 45.3057C104.42 44.9169 104.347 44.5705 104.275 44.2666C104.202 43.963 104.136 43.7077 104.075 43.5008C104.015 43.2943 103.966 43.1485 103.93 43.0634C103.833 43.5983 103.703 44.2149 103.54 44.9138C103.377 45.6129 103.18 46.3876 102.95 47.2382C102.841 47.6517 102.733 48.1196 102.624 48.6422C102.515 49.165 102.4 49.633 102.279 50.046L102.17 50.7023C102.073 50.9575 101.922 51.1095 101.717 51.158C101.644 51.1824 101.526 51.1673 101.363 51.1126C101.199 51.0578 100.961 50.9635 100.646 50.83C100.477 50.757 100.302 50.681 100.12 50.602C99.9385 50.5228 99.7723 50.447 99.6211 50.3742C99.4697 50.3012 99.3457 50.2256 99.2492 50.1462C99.1523 50.0672 99.104 49.9914 99.104 49.9184C99.0919 49.7483 99.125 49.5873 99.2038 49.4351C99.2821 49.2834 99.3731 49.1408 99.4759 49.0068C99.5786 48.8733 99.6785 48.7456 99.7752 48.624C99.8719 48.5027 99.9385 48.3931 99.9747 48.2958C100.071 48.0163 100.153 47.761 100.22 47.5301C100.286 47.2992 100.356 47.0592 100.429 46.8099C100.501 46.5609 100.576 46.2783 100.655 45.9622C100.734 45.6462 100.828 45.2574 100.936 44.7954C101.481 42.5346 101.747 41.2646 101.735 40.9849V40.0915C101.759 39.6903 101.904 39.4656 102.17 39.417C102.424 39.3685 103.083 39.4838 104.148 39.7633C105.151 40.0308 105.726 40.2557 105.871 40.438C105.931 40.5353 105.962 40.6689 105.962 40.839C105.962 41.0093 105.974 41.1247 105.998 41.1854C106.277 42.0728 106.515 42.8782 106.715 43.601C106.914 44.3245 107.081 44.9657 107.214 45.5244C107.516 46.9102 107.734 48.4417 107.867 50.1189C107.867 50.1435 107.87 50.1799 107.876 50.2283C107.882 50.2771 107.891 50.344 107.903 50.429C107.915 50.4898 107.924 50.5474 107.931 50.602C107.937 50.6568 107.939 50.7085 107.939 50.757C107.939 51.0243 107.818 51.2066 107.577 51.304Z" fill="white"/>
<path d="M111.934 51.233C111.861 51.2206 111.752 51.1993 111.607 51.1692C111.462 51.1388 111.295 51.0991 111.107 51.0507C110.918 51.0019 110.723 50.9443 110.522 50.8775C110.321 50.8105 110.136 50.7345 109.965 50.6495C109.624 50.4672 109.305 50.3124 109.007 50.1846C108.708 50.0571 108.547 49.963 108.523 49.902C108.499 49.8537 108.487 49.8109 108.487 49.7745C108.487 49.7503 108.493 49.6895 108.505 49.5922C108.517 49.495 108.526 49.3948 108.532 49.2914C108.538 49.1883 108.547 49.0907 108.559 48.9996C108.571 48.9084 108.578 48.8509 108.578 48.8263L108.595 41.3514C108.595 41.2544 108.578 41.1054 108.541 40.9049C108.505 40.7044 108.48 40.4977 108.468 40.285C108.456 40.0725 108.474 39.8837 108.523 39.7196C108.571 39.5557 108.687 39.4616 108.87 39.4372C108.955 39.425 109.144 39.4434 109.436 39.4918C109.728 39.5406 110.008 39.6136 110.276 39.7105C110.568 39.8081 110.829 39.9201 111.06 40.0479C111.292 40.1754 111.438 40.2881 111.498 40.3852C111.583 40.4946 111.583 40.6769 111.498 40.9322C111.462 41.0295 111.438 41.1145 111.426 41.1872C111.413 41.2602 111.408 41.3212 111.408 41.3698L111.353 43.8856C111.583 43.8372 111.825 43.7884 112.079 43.7399C112.333 43.6913 112.587 43.6458 112.841 43.603C113.095 43.5607 113.34 43.5243 113.576 43.4937C113.812 43.4635 114.02 43.448 114.202 43.448C114.492 43.448 114.749 43.5516 114.972 43.7581C115.196 43.9648 115.384 44.2048 115.535 44.4782C115.686 44.7517 115.807 45.0252 115.898 45.2987C115.989 45.5721 116.046 45.7817 116.07 45.9275C116.07 46.0006 116.073 46.0705 116.079 46.1373C116.085 46.2042 116.088 46.2679 116.088 46.3287C116.088 47.046 115.774 47.842 115.145 48.717C114.625 49.4099 114.008 50.0238 113.294 50.5583C112.629 51.0443 112.175 51.2694 111.934 51.233ZM111.408 48.6988C111.988 48.5287 112.551 48.0425 113.095 47.2403C113.24 47.0338 113.361 46.8545 113.458 46.7024C113.554 46.5507 113.636 46.4107 113.703 46.2832C113.769 46.1555 113.814 46.0341 113.839 45.9186C113.863 45.8032 113.869 45.6786 113.857 45.5448C113.627 45.5692 113.24 45.6786 112.696 45.8729C112.127 46.1162 111.698 46.3533 111.408 46.584V48.6988Z" fill="white"/>
<path d="M119.369 51.0487C119.198 51.0487 119.01 51.0334 118.803 51.0033C118.596 50.9727 118.395 50.9576 118.2 50.9576C117.713 50.9576 117.336 50.8119 117.068 50.5202C116.885 50.3257 116.794 50.0706 116.794 49.7543C116.794 49.645 116.806 49.4749 116.831 49.244C116.855 49.0131 116.867 48.8246 116.867 48.6786V41.0943C116.867 40.973 116.815 40.83 116.712 40.6658C116.61 40.5019 116.559 40.3651 116.559 40.2557C116.559 40.1586 116.583 40.0674 116.631 39.9822C116.824 39.6298 117.357 39.5327 118.228 39.6904C118.687 39.7757 119.08 39.882 119.407 40.0095C119.733 40.1371 119.897 40.3045 119.897 40.511C119.897 40.584 119.882 40.6658 119.854 40.757C119.826 40.8481 119.791 40.9393 119.752 41.0305C119.712 41.1216 119.677 41.2037 119.649 41.2766C119.621 41.3496 119.606 41.4042 119.606 41.4408L119.642 44.0844L122.019 43.6649C122.019 43.2761 122.022 42.8993 122.029 42.5347C122.035 42.17 122.037 41.8236 122.037 41.4953C122.037 41.2766 122.025 41.0974 122.001 40.9577C121.977 40.818 121.956 40.6904 121.938 40.5747C121.92 40.4593 121.904 40.35 121.893 40.2466C121.88 40.1435 121.893 40.0248 121.929 39.8911C121.953 39.8061 122.016 39.7514 122.119 39.727C122.222 39.7028 122.352 39.6968 122.509 39.7088C122.666 39.721 122.836 39.7452 123.017 39.7817C123.199 39.8181 123.38 39.8545 123.561 39.8911C124.081 40.0004 124.435 40.1495 124.623 40.3378C124.81 40.5263 124.904 40.7237 124.904 40.9302C124.904 40.9912 124.889 41.0852 124.859 41.2128C124.829 41.3405 124.789 41.4893 124.741 41.6595C124.68 41.8298 124.65 41.9786 124.65 42.1062V43.045C124.819 43.0208 124.943 43.0332 125.022 43.0816C125.1 43.1304 125.194 43.2761 125.303 43.5192C125.364 43.6649 125.403 43.8382 125.421 44.0387C125.439 44.2394 125.427 44.4399 125.385 44.6404C125.342 44.8409 125.27 45.0232 125.167 45.1873C125.064 45.3515 124.934 45.4699 124.777 45.5429L124.704 45.5793L124.759 48.2958C124.759 48.5633 124.831 48.9401 124.977 49.4261C125.037 49.6694 125.089 49.8699 125.131 50.0278C125.173 50.1859 125.194 50.3135 125.194 50.4106C125.194 50.6659 125.125 50.8329 124.986 50.9121C124.847 50.9909 124.674 51.0306 124.469 51.0306C124.311 51.0306 124.154 51.0184 123.997 50.994C123.84 50.9696 123.694 50.9576 123.561 50.9576C123.32 50.9576 123.09 50.915 122.872 50.83C122.654 50.7449 122.491 50.6171 122.382 50.447C122.31 50.3379 122.249 50.2101 122.201 50.0642C122.152 49.9185 122.113 49.7211 122.083 49.4718C122.053 49.2229 122.029 48.9188 122.01 48.5602C121.992 48.2018 121.983 47.7611 121.983 47.2383V46.0714C121.695 46.1324 121.362 46.1932 120.984 46.254C120.606 46.3149 120.159 46.3877 119.643 46.4727V48.6604C119.643 48.9401 119.721 49.2378 119.879 49.5538C120.048 49.8213 120.133 50.046 120.133 50.2283C120.133 50.3989 120.09 50.5748 120.006 50.7571C119.957 50.8664 119.875 50.9423 119.76 50.9849C119.645 51.0275 119.515 51.0487 119.369 51.0487Z" fill="white"/>
<path d="M133.865 51.1082C133.671 51.1566 133.218 51.0901 132.504 50.9077C131.73 50.7132 131.307 50.5189 131.235 50.3244C131.186 50.1665 131.204 49.9538 131.289 49.6863C131.41 49.3944 131.47 49.1757 131.47 49.0298C131.47 48.9205 131.452 48.7627 131.416 48.5558C131.235 49.1637 130.98 49.7043 130.654 50.1785C130.255 50.7374 129.856 51.0171 129.457 51.0171C129.057 51.0171 128.525 50.8771 127.86 50.5979C127.195 50.3184 126.82 50.0631 126.735 49.832C126.396 49.0664 126.227 46.1919 126.227 41.2086C126.13 40.9533 126.082 40.7224 126.082 40.5157C126.082 40.1391 126.221 39.8838 126.499 39.7499C126.584 39.7135 126.735 39.6953 126.953 39.6953C127.34 39.6953 127.83 39.7623 128.422 39.8958C128.978 40.0298 129.323 40.1573 129.457 40.2786C129.517 40.3638 129.547 40.4428 129.547 40.5157C129.547 40.6497 129.457 40.8684 129.275 41.172C129.094 41.4637 129.003 41.6766 129.003 41.8101C128.991 46.5991 129.027 49.0116 129.112 49.0482C129.293 49.1092 129.717 48.5498 130.382 47.3708C131.071 46.1919 131.416 45.2863 131.416 44.6542V41.6096C131.259 41.4517 131.18 41.2572 131.18 41.0263C131.18 40.5403 131.386 40.2181 131.797 40.0599C131.87 40.0358 131.942 40.0236 132.015 40.0236C132.353 40.0236 132.831 40.1027 133.448 40.2605C134.089 40.4064 134.433 40.5219 134.482 40.6069C134.566 40.7284 134.609 40.8502 134.609 40.9715C134.609 41.0325 134.588 41.1022 134.546 41.1811C134.503 41.2603 134.455 41.3362 134.4 41.4091C134.346 41.4821 134.297 41.5489 134.255 41.6096C134.213 41.6706 134.192 41.713 134.192 41.7372V49.8504C134.192 49.9232 134.231 50.0509 134.31 50.2332C134.388 50.4156 134.427 50.5491 134.427 50.6343C134.427 50.8649 134.24 51.0231 133.865 51.1082Z" fill="white"/>
<path d="M143.281 53.9707C143.16 53.9707 143.027 53.9676 142.881 53.9616C142.736 53.9552 142.6 53.931 142.473 53.8887C142.346 53.8459 142.24 53.782 142.156 53.6973C142.071 53.6121 142.029 53.4903 142.029 53.3326C142.029 53.0893 142.144 52.828 142.374 52.5486C142.398 52.5122 142.437 52.4603 142.491 52.3938C142.546 52.3268 142.6 52.2507 142.655 52.1658C142.709 52.0806 142.761 52.0016 142.809 51.9289C142.857 51.8559 142.887 51.7949 142.9 51.7464C143.129 51.2114 143.245 50.8286 143.245 50.5979C143.245 50.4765 143.196 50.3854 143.099 50.3244C143.002 50.2636 142.833 50.2333 142.591 50.2333C142.24 50.2333 141.917 50.0846 141.621 49.7866C141.324 49.4889 141.146 48.9998 141.086 48.3189L140.995 47.1703C140.983 47.1949 140.973 47.2159 140.967 47.2341C140.961 47.2523 140.952 47.2738 140.94 47.298C140.807 47.6019 140.686 47.8631 140.577 48.0818C140.469 48.3007 140.369 48.4922 140.278 48.6563C140.187 48.8202 140.097 48.9692 140.006 49.103C139.915 49.2367 139.827 49.3645 139.743 49.4858C139.404 49.9232 139.044 50.2605 138.664 50.4976C138.282 50.7345 137.874 50.8532 137.439 50.8532C137.185 50.8532 136.973 50.7953 136.804 50.6799C136.634 50.5642 136.492 50.4218 136.378 50.2514C136.262 50.0815 136.172 49.899 136.105 49.7045C136.039 49.5102 135.987 49.3399 135.951 49.1941C135.878 48.8175 135.812 48.3586 135.752 47.8175C135.691 47.2769 135.667 46.6357 135.679 45.8941V44.8186C135.679 44.4053 135.676 43.9828 135.67 43.5514C135.664 43.12 135.661 42.7008 135.661 42.2934V41.2086C135.564 40.9533 135.516 40.7226 135.516 40.5157C135.516 40.1391 135.654 39.884 135.933 39.7501C136.017 39.7135 136.169 39.6953 136.387 39.6953C136.773 39.6953 137.263 39.7623 137.856 39.8958C138.412 40.0298 138.757 40.1573 138.89 40.2788C138.951 40.364 138.981 40.4428 138.981 40.5157C138.981 40.6497 138.89 40.8684 138.709 41.172C138.527 41.4639 138.437 41.6766 138.437 41.8101L138.418 42.2295C138.394 42.5942 138.385 42.9315 138.391 43.2414C138.397 43.5514 138.4 43.8402 138.4 44.1075C138.4 44.6544 138.407 45.1042 138.418 45.4567C138.431 45.8093 138.449 46.0888 138.473 46.2953C138.497 46.502 138.524 46.6479 138.555 46.7327C138.585 46.8178 138.624 46.8604 138.672 46.8604C138.745 46.8604 138.839 46.7845 138.954 46.6326C139.068 46.4807 139.214 46.2285 139.389 45.8759C139.564 45.5234 139.764 45.0616 139.988 44.4903C140.212 43.9192 140.469 43.2141 140.759 42.3755V40.5796C140.759 40.4035 140.774 40.2605 140.804 40.1511C140.834 40.0418 140.889 39.9661 140.967 39.9233C141.046 39.8807 141.164 39.8594 141.321 39.8594C141.442 39.8594 141.593 39.8718 141.775 39.8958C141.956 39.9204 142.144 39.9628 142.337 40.0236C142.531 40.0845 142.718 40.1635 142.9 40.2605C143.081 40.358 143.245 40.4734 143.39 40.6069V40.5887C143.426 40.6251 143.462 40.6861 143.499 40.771C143.535 40.8562 143.568 40.9868 143.598 41.1629C143.628 41.3395 143.649 41.5763 143.662 41.874C143.674 42.1719 143.68 42.5578 143.68 43.0318V43.36C143.68 43.4816 143.674 43.6091 143.662 43.7428V43.7247C143.649 43.907 143.641 44.1075 143.635 44.3262C143.628 44.5449 143.625 44.7942 143.625 45.0736C143.625 45.4141 143.637 45.7971 143.662 46.2223C143.686 46.6479 143.728 47.1155 143.789 47.6261C143.813 47.76 143.894 47.8359 144.034 47.8541C144.173 47.8722 144.381 47.8813 144.66 47.8813H144.95C145.216 47.8813 145.44 47.9332 145.621 48.0364C145.802 48.1397 145.893 48.3617 145.893 48.7018C145.893 48.9814 145.857 49.2487 145.784 49.504C145.712 49.7591 145.645 50.0268 145.585 50.306C145.512 50.6828 145.424 51.0566 145.322 51.4274C145.219 51.798 145.107 52.1718 144.986 52.5486C144.901 52.8159 144.82 53.041 144.741 53.2233C144.662 53.4056 144.566 53.5513 144.451 53.6607C144.336 53.7702 144.188 53.8492 144.006 53.8978C143.825 53.9461 143.583 53.9707 143.281 53.9707Z" fill="white"/>
<path d="M66.9837 40.2041L71.3534 42.023C72.8716 34.357 69.6228 26.4666 63.1544 22.1251L61.3428 26.5201C65.5169 29.7249 67.6798 34.9724 66.9837 40.2041ZM58.7331 19.9181L56.9631 24.2122C57.3225 24.3302 57.6806 24.4582 58.0356 24.606C58.3907 24.7538 58.734 24.9179 59.0711 25.0897L60.8411 20.7953C60.5007 20.6298 60.1543 20.472 59.8003 20.3247C59.4463 20.1775 59.0904 20.0427 58.7331 19.9181ZM38.8287 32.6008C38.9756 32.2442 39.1367 31.898 39.3074 31.5594L35.0394 29.7828C34.8742 30.1251 34.715 30.4717 34.5683 30.8275C34.4217 31.1834 34.2904 31.5419 34.1662 31.9011L38.4342 33.6776C38.5517 33.3169 38.6817 32.9574 38.8287 32.6008ZM70.6538 44.6072L66.3857 42.8306C66.2683 43.1915 66.1385 43.5507 65.9914 43.9073C65.8443 44.2639 65.6835 44.6103 65.5126 44.9489L69.7808 46.7254C69.9456 46.383 70.105 46.0366 70.2518 45.6807C70.3985 45.3247 70.5297 44.9665 70.6538 44.6072ZM45.7491 51.4184L43.979 55.7128C44.3192 55.8784 44.6658 56.0361 45.0197 56.1835C45.3737 56.3306 45.7295 56.4654 46.0868 56.5901L47.8568 52.2959C47.4977 52.1779 47.1394 52.0499 46.7843 51.9021C46.4295 51.7543 46.086 51.5904 45.7491 51.4184ZM50.4698 52.8987L48.6582 57.2935C56.2868 58.82 64.1364 55.5493 68.4569 49.0498L64.0873 47.231C60.8983 51.4248 55.6763 53.5986 50.4698 52.8987ZM37.8363 36.304L33.4668 34.4852C31.9486 42.1511 35.1976 50.0418 41.6657 54.383L43.4773 49.988C39.3033 46.7832 37.1404 41.5357 37.8363 36.304ZM36.3632 27.4586L40.7327 29.2772C43.9218 25.0833 49.1437 22.9095 54.3503 23.6095L56.1619 19.2146C48.5334 17.6881 40.6837 20.9588 36.3632 27.4586Z" fill="white"/>
<path d="M61.2117 21.2431L46.6639 56.5371C46.6162 56.6529 46.6781 56.7862 46.7972 56.8228C47.187 56.9423 47.578 57.0487 47.9701 57.1424C48.0713 57.1663 48.175 57.1122 48.2147 57.0157L62.6453 22.0066C62.685 21.9101 62.6498 21.7981 62.5613 21.7433C62.2182 21.531 61.8669 21.3282 61.5073 21.1358C61.3971 21.0771 61.2595 21.1273 61.2117 21.2431ZM42.2564 54.764C42.5993 54.9763 42.9509 55.1791 43.3104 55.3713C43.4203 55.4302 43.5581 55.38 43.6058 55.2642L58.1536 19.9701C58.2013 19.8544 58.1394 19.7209 58.0201 19.6845C57.6305 19.565 57.2395 19.4585 56.8474 19.3651C56.7464 19.3409 56.6428 19.3951 56.6029 19.4916L42.1725 54.5006C42.1328 54.5972 42.1678 54.7092 42.2564 54.764Z" fill="white"/>
<path d="M35.4839 29.4099L70.6056 44.0291C70.7208 44.0771 70.8537 44.0149 70.8899 43.8952C71.0088 43.5035 71.1147 43.1105 71.2077 42.7165C71.2318 42.615 71.1779 42.5106 71.082 42.4708L36.2437 27.9694C36.1478 27.9295 36.0364 27.965 35.9816 28.0537C35.7704 28.3985 35.5688 28.7516 35.3771 29.1131C35.3187 29.2237 35.3687 29.362 35.4839 29.4099ZM68.8411 48.4582C69.0524 48.1137 69.254 47.7606 69.4455 47.3993C69.5041 47.2887 69.4541 47.1502 69.3389 47.1022L34.2172 32.4831C34.102 32.4351 33.9693 32.4973 33.9329 32.6172C33.814 33.0087 33.7081 33.4017 33.6151 33.7956C33.591 33.8971 33.6449 34.0015 33.741 34.0414L68.5791 48.5426C68.6751 48.5827 68.7866 48.5471 68.8411 48.4582Z" fill="white"/>
<path d="M29.8759 48.1488C29.8759 47.9777 29.7213 47.8437 29.5544 47.8782C29.4026 47.9096 29.2459 47.9264 29.085 47.9264C27.8521 47.9264 26.8341 46.9822 26.7105 45.7752C26.6961 45.6348 26.5796 45.5273 26.4391 45.5273H23.6669C23.5265 45.5273 23.4102 45.6348 23.3958 45.7752C23.272 46.9822 22.2542 47.9264 21.021 47.9264C19.7881 47.9264 18.7703 46.9822 18.6465 45.7752C18.6321 45.6348 18.5158 45.5273 18.3754 45.5273H15.603C15.4625 45.5273 15.3462 45.6348 15.3318 45.7752C15.208 46.9822 14.1902 47.9264 12.9571 47.9264C11.7241 47.9264 10.7063 46.9822 10.5825 45.7752C10.5681 45.6348 10.4519 45.5273 10.3112 45.5273H7.53917C7.39847 45.5273 7.28225 45.6348 7.26785 45.7752C7.14423 46.9822 6.12643 47.9264 4.89327 47.9264C4.7501 47.9264 4.61002 47.9134 4.47385 47.8886C4.30765 47.8586 4.15625 47.9901 4.15625 48.1596V50.896C4.15625 51.0407 4.26795 51.1581 4.41152 51.1707C4.57012 51.1847 4.73077 51.1924 4.89327 51.1924C6.37759 51.1924 7.72738 50.615 8.73407 49.6725C8.84288 49.5708 9.00765 49.5708 9.11646 49.6725C10.1229 50.615 11.4725 51.1924 12.9571 51.1924C14.4416 51.1924 15.7914 50.615 16.7981 49.6725C16.9067 49.5708 17.0714 49.5708 17.1802 49.6725C18.1869 50.615 19.5367 51.1924 21.021 51.1924C22.5056 51.1924 23.8554 50.615 24.8618 49.6725C24.9707 49.5708 25.1354 49.5708 25.2442 49.6725C26.2509 50.615 27.6007 51.1924 29.085 51.1924C29.2706 51.1924 29.4537 51.1829 29.6343 51.1649C29.7725 51.1512 29.8759 51.0307 29.8759 50.8912V48.1488Z" fill="white"/>
<path d="M145.876 32.1371C145.876 31.9659 145.721 31.832 145.554 31.8665C145.403 31.8979 145.246 31.9147 145.085 31.9147C143.852 31.9147 142.834 30.9704 142.71 29.7635C142.696 29.6231 142.58 29.5156 142.439 29.5156H139.667C139.526 29.5156 139.41 29.6231 139.396 29.7635C139.272 30.9704 138.254 31.9147 137.021 31.9147C135.788 31.9147 134.77 30.9704 134.646 29.7635C134.632 29.6231 134.516 29.5156 134.375 29.5156H131.603C131.462 29.5156 131.346 29.6231 131.332 29.7635C131.208 30.9704 130.19 31.9147 128.957 31.9147C127.724 31.9147 126.706 30.9704 126.582 29.7635C126.568 29.6231 126.452 29.5156 126.311 29.5156H123.539C123.398 29.5156 123.282 29.6231 123.268 29.7635C123.144 30.9704 122.126 31.9147 120.893 31.9147C120.75 31.9147 120.61 31.9017 120.474 31.8768C120.308 31.8469 120.156 31.9783 120.156 32.1478V34.8842C120.156 35.0289 120.268 35.1463 120.412 35.159C120.57 35.173 120.731 35.1807 120.893 35.1807C122.378 35.1807 123.727 34.6033 124.734 33.6607C124.843 33.559 125.008 33.559 125.116 33.6607C126.123 34.6033 127.473 35.1807 128.957 35.1807C130.442 35.1807 131.791 34.6033 132.798 33.6607C132.907 33.559 133.071 33.559 133.18 33.6607C134.187 34.6033 135.537 35.1807 137.021 35.1807C138.506 35.1807 139.855 34.6033 140.862 33.6607C140.971 33.559 141.135 33.559 141.244 33.6607C142.251 34.6033 143.601 35.1807 145.085 35.1807C145.271 35.1807 145.454 35.1711 145.634 35.1532C145.772 35.1395 145.876 35.019 145.876 34.8795V32.1371Z" fill="white"/>
</svg>
