<svg width="48" height="48" viewBox="0 0 48 48" fill="none" xmlns="http://www.w3.org/2000/svg">
<circle cx="24" cy="24" r="24" fill="#134785"/>
<path fill-rule="evenodd" clip-rule="evenodd" d="M28.8356 23.8763C28.6764 20.8802 26.3783 19.0784 23.6035 19.0784H23.4986C20.2962 19.0784 18.5201 21.5158 18.5201 24.2847C18.5201 27.3845 20.6688 29.3431 23.4863 29.3431C26.6275 29.3431 28.693 27.1161 28.8426 24.4814L28.8356 23.8763ZM23.5144 16.3974C25.6544 16.3974 27.6665 17.3127 29.1434 18.7461V18.7516C29.1434 18.0636 29.6218 17.5447 30.2863 17.5447L30.4542 17.5438C31.4931 17.5438 31.7065 18.4948 31.7065 18.7964L31.7117 29.4954C31.6383 30.1961 32.4584 30.5577 32.9133 30.1081C34.6885 28.3427 36.8117 21.0321 31.8097 16.7964C27.1478 12.8473 20.8927 13.498 17.566 15.7175C14.0297 18.0779 11.7667 23.3029 13.9651 28.2105C16.3612 33.563 23.218 35.1593 27.293 33.5663C29.3568 32.7608 30.3099 35.4604 28.1666 36.3423C24.9283 37.6772 15.9151 37.5425 11.7045 30.4838C8.85986 25.7172 9.01107 17.331 16.5561 12.9858C22.3277 9.66128 29.9374 10.5812 34.526 15.2194C39.3224 20.0686 39.0425 29.1482 34.364 32.6777C32.2444 34.2813 29.0963 32.7209 29.1162 30.3839L29.0944 29.6199C27.6182 31.0374 25.6544 31.8645 23.5144 31.8645C19.2863 31.8645 15.5662 28.2646 15.5662 24.1726C15.5662 20.0399 19.2863 16.3974 23.5144 16.3974Z" fill="#F89C0E"/>
</svg>
