<svg width="18" height="23" viewBox="0 0 18 23" fill="none" xmlns="http://www.w3.org/2000/svg">
<path d="M15.7484 16.6492L14.4234 15.3242C14.9234 14.8242 15.3151 14.2449 15.5984 13.5862C15.8818 12.9282 16.0234 12.2326 16.0234 11.4992C16.0234 10.7659 15.8861 10.0699 15.6114 9.41122C15.3361 8.75322 14.9401 8.16588 14.4234 7.64922L15.7484 6.34922C16.4484 7.03255 16.9818 7.81589 17.3484 8.69922C17.7151 9.58255 17.8984 10.5159 17.8984 11.4992C17.8984 12.4659 17.7151 13.3949 17.3484 14.2862C16.9818 15.1782 16.4484 15.9659 15.7484 16.6492ZM13.4234 14.3242L12.0734 12.9742C12.2734 12.7909 12.4278 12.5699 12.5364 12.3112C12.6444 12.0532 12.6984 11.7742 12.6984 11.4742C12.6984 11.1909 12.6484 10.9199 12.5484 10.6612C12.4484 10.4032 12.2901 10.1826 12.0734 9.99922L13.4234 8.64922C13.8068 9.03255 14.0944 9.46589 14.2864 9.94922C14.4778 10.4326 14.5734 10.9409 14.5734 11.4742C14.5734 12.0076 14.4734 12.5199 14.2734 13.0112C14.0734 13.5032 13.7901 13.9409 13.4234 14.3242ZM2.17344 22.4242C1.57344 22.4242 1.0651 22.2159 0.648438 21.7992C0.231771 21.3826 0.0234375 20.8742 0.0234375 20.2742V2.72422C0.0234375 2.12422 0.231771 1.61589 0.648438 1.19922C1.0651 0.782552 1.57344 0.574219 2.17344 0.574219H11.8234C12.4234 0.574219 12.9318 0.782552 13.3484 1.19922C13.7651 1.61589 13.9734 2.12422 13.9734 2.72422V6.47422H11.8234V5.64922H2.17344V17.3492H11.8234V16.5242H13.9734V20.2742C13.9734 20.8742 13.7651 21.3826 13.3484 21.7992C12.9318 22.2159 12.4234 22.4242 11.8234 22.4242H2.17344ZM2.17344 19.2242V20.2742H11.8234V19.2242H2.17344ZM2.17344 3.77422H11.8234V2.72422H2.17344V3.77422Z" fill="#603A0A"/>
</svg>
