<svg width="24" height="24" viewBox="0 0 24 24" fill="none" xmlns="http://www.w3.org/2000/svg">
<mask id="mask0_488_9600" style="mask-type:alpha" maskUnits="userSpaceOnUse" x="0" y="0" width="24" height="24">
<rect width="24" height="24" fill="#D9D9D9"/>
</mask>
<g mask="url(#mask0_488_9600)">
<path d="M20.1234 16.8242L19.1484 15.8492C19.6651 15.3326 20.0608 14.7449 20.3354 14.0862C20.6108 13.4282 20.7484 12.7326 20.7484 11.9992C20.7484 11.2659 20.6108 10.5699 20.3354 9.91122C20.0608 9.25322 19.6651 8.66588 19.1484 8.14922L20.1234 7.17422C20.7901 7.80755 21.2944 8.54089 21.6364 9.37422C21.9778 10.2076 22.1484 11.0826 22.1484 11.9992C22.1484 12.9159 21.9778 13.7909 21.6364 14.6242C21.2944 15.4576 20.7901 16.1909 20.1234 16.8242ZM17.9484 14.6242L16.9484 13.6492C17.1818 13.4326 17.3694 13.1826 17.5114 12.8992C17.6528 12.6159 17.7234 12.3159 17.7234 11.9992C17.7234 11.6659 17.6568 11.3576 17.5234 11.0742C17.3901 10.7909 17.1984 10.5492 16.9484 10.3492L17.9484 9.34922C18.3151 9.69922 18.6024 10.0992 18.8104 10.5492C19.0191 10.9992 19.1234 11.4826 19.1234 11.9992C19.1234 12.4992 19.0191 12.9742 18.8104 13.4242C18.6024 13.8742 18.3151 14.2742 17.9484 14.6242ZM7.37344 22.2992C6.8901 22.2992 6.48177 22.1326 6.14844 21.7992C5.8151 21.4659 5.64844 21.0659 5.64844 20.5992V3.39922C5.64844 2.93255 5.8151 2.53255 6.14844 2.19922C6.48177 1.86589 6.8901 1.69922 7.37344 1.69922H16.6234C17.1068 1.69922 17.5151 1.86589 17.8484 2.19922C18.1818 2.53255 18.3484 2.93255 18.3484 3.39922V6.94922H16.9484V5.79922H7.04844V18.1992H16.9484V17.0492H18.3484V20.5992C18.3484 21.0659 18.1818 21.4659 17.8484 21.7992C17.5151 22.1326 17.1068 22.2992 16.6234 22.2992H7.37344ZM7.04844 19.5992V20.5992C7.04844 20.6659 7.08177 20.7325 7.14844 20.7992C7.2151 20.8659 7.2901 20.8992 7.37344 20.8992H16.6234C16.7068 20.8992 16.7818 20.8659 16.8484 20.7992C16.9151 20.7325 16.9484 20.6659 16.9484 20.5992V19.5992H7.04844ZM7.04844 4.39922H16.9484V3.39922C16.9484 3.33255 16.9151 3.26589 16.8484 3.19922C16.7818 3.13255 16.7068 3.09922 16.6234 3.09922H7.37344C7.2901 3.09922 7.2151 3.13255 7.14844 3.19922C7.08177 3.26589 7.04844 3.33255 7.04844 3.39922V4.39922Z" fill="white"/>
</g>
</svg>
