<svg width="80" height="80" viewBox="0 0 80 80" fill="none" xmlns="http://www.w3.org/2000/svg">
<mask id="mask0_254_23508" style="mask-type:alpha" maskUnits="userSpaceOnUse" x="0" y="0" width="80" height="80">
<rect width="80" height="80" fill="#D9D9D9"/>
</mask>
<g mask="url(#mask0_254_23508)">
<path d="M31.8346 54.3307L54.418 39.9974L31.8346 25.5807V54.3307ZM40.0013 73.8307C35.3902 73.8307 31.0152 72.9418 26.8763 71.1641C22.7374 69.3863 19.1402 66.9696 16.0846 63.9141C13.0291 60.8585 10.6124 57.2613 8.83464 53.1224C7.05686 48.9835 6.16797 44.6085 6.16797 39.9974C6.16797 35.3863 7.05686 31.0113 8.83464 26.8724C10.6124 22.7335 13.0291 19.1363 16.0846 16.0807C19.1402 13.0252 22.7374 10.6085 26.8763 8.83073C31.0152 7.05295 35.3902 6.16406 40.0013 6.16406C44.6124 6.16406 48.9874 7.05295 53.1263 8.83073C57.2652 10.6085 60.8624 13.0252 63.918 16.0807C66.9735 19.1363 69.3902 22.7335 71.168 26.8724C72.9457 31.0113 73.8346 35.3863 73.8346 39.9974C73.8346 44.6085 72.9457 48.9835 71.168 53.1224C69.3902 57.2613 66.9735 60.8585 63.918 63.9141C60.8624 66.9696 57.2791 69.3863 53.168 71.1641C49.0569 72.9418 44.668 73.8307 40.0013 73.8307ZM40.0013 68.1641C47.7235 68.1641 54.3485 65.4141 59.8763 59.9141C65.4041 54.4141 68.168 47.7752 68.168 39.9974C68.168 32.2752 65.4041 25.6502 59.8763 20.1224C54.3485 14.5946 47.7235 11.8307 40.0013 11.8307C32.2791 11.8307 25.6541 14.5946 20.1263 20.1224C14.5985 25.6502 11.8346 32.2752 11.8346 39.9974C11.8346 47.7752 14.5985 54.4141 20.1263 59.9141C25.6541 65.4141 32.2791 68.1641 40.0013 68.1641Z" fill="white"/>
</g>
</svg>
