<svg width="150" height="67" viewBox="0 0 150 67" fill="none" xmlns="http://www.w3.org/2000/svg">
<path d="M149.88 13.9521C149.88 13.0411 148.979 12.3282 148.008 12.512C147.124 12.6792 146.211 12.7683 145.275 12.7683C138.096 12.7683 132.168 7.74284 131.448 1.31908C131.365 0.572077 130.687 0 129.869 0H113.727C112.909 0 112.233 0.572077 112.149 1.31908C111.428 7.74284 105.502 12.7683 98.3215 12.7683C91.1425 12.7683 85.2163 7.74284 84.4953 1.31908C84.4115 0.572077 83.7348 0 82.9167 0H66.7742C65.9562 0 65.2795 0.572077 65.1957 1.31908C64.4747 7.74284 58.5485 12.7683 51.3683 12.7683C44.1893 12.7683 38.2632 7.74284 37.5421 1.31908C37.4583 0.572077 36.7816 0 35.9624 0H19.8223C19.003 0 18.3264 0.572077 18.2425 1.31908C17.5227 7.74284 11.5965 12.7683 4.41634 12.7683C3.58274 12.7683 2.76712 12.699 1.97425 12.567C1.00651 12.4075 0.125 13.1072 0.125 14.0093V28.573C0.125 29.3431 0.775353 29.968 1.61134 30.0351C2.53476 30.1099 3.47016 30.1506 4.41634 30.1506C13.0589 30.1506 20.9182 27.0779 26.7797 22.0613C27.4132 21.52 28.3726 21.52 29.0062 22.0613C34.8665 27.0779 42.7246 30.1506 51.3683 30.1506C60.0121 30.1506 67.8713 27.0779 73.7328 22.0613C74.3652 21.52 75.3246 21.52 75.9581 22.0613C81.8197 27.0779 89.6789 30.1506 98.3215 30.1506C106.965 30.1506 114.824 27.0779 120.685 22.0613C121.318 21.52 122.278 21.52 122.911 22.0613C128.773 27.0779 136.632 30.1506 145.275 30.1506C146.355 30.1506 147.421 30.1 148.472 30.0043C149.277 29.9317 149.88 29.2903 149.88 28.5477V13.9521Z" fill="#A48659"/>
<path d="M149.88 50.8007C149.88 49.8898 148.979 49.1769 148.008 49.3606C147.124 49.5278 146.211 49.6169 145.275 49.6169C138.096 49.6169 132.168 44.5915 131.448 38.1677C131.365 37.4207 130.687 36.8486 129.869 36.8486H113.727C112.909 36.8486 112.233 37.4207 112.149 38.1677C111.428 44.5915 105.502 49.6169 98.3215 49.6169C91.1425 49.6169 85.2163 44.5915 84.4953 38.1677C84.4115 37.4207 83.7348 36.8486 82.9167 36.8486H66.7742C65.9562 36.8486 65.2795 37.4207 65.1957 38.1677C64.4747 44.5915 58.5485 49.6169 51.3683 49.6169C44.1893 49.6169 38.2632 44.5915 37.5421 38.1677C37.4583 37.4207 36.7816 36.8486 35.9624 36.8486H19.8223C19.003 36.8486 18.3264 37.4207 18.2425 38.1677C17.5227 44.5915 11.5965 49.6169 4.41634 49.6169C3.58274 49.6169 2.76712 49.5476 1.97425 49.4156C1.00651 49.2561 0.125 49.9558 0.125 50.8579V65.4217C0.125 66.1918 0.775353 66.8166 1.61134 66.8837C2.53476 66.9586 3.47016 66.9993 4.41634 66.9993C13.0589 66.9993 20.9182 63.9266 26.7797 58.9099C27.4132 58.3686 28.3726 58.3686 29.0062 58.9099C34.8665 63.9266 42.7246 66.9993 51.3683 66.9993C60.0121 66.9993 67.8713 63.9266 73.7328 58.9099C74.3652 58.3686 75.3246 58.3686 75.9581 58.9099C81.8197 63.9266 89.6789 66.9993 98.3215 66.9993C106.965 66.9993 114.824 63.9266 120.685 58.9099C121.318 58.3686 122.278 58.3686 122.911 58.9099C128.773 63.9266 136.632 66.9993 145.275 66.9993C146.355 66.9993 147.421 66.9487 148.472 66.8529C149.277 66.7803 149.88 66.139 149.88 65.3964V50.8007Z" fill="#A48659"/>
</svg>
