<svg width="71" height="14" viewBox="0 0 71 14" fill="none" xmlns="http://www.w3.org/2000/svg">
<path d="M70.3886 6.47844C70.3886 6.05546 69.9653 5.72444 69.5088 5.80975C69.0933 5.8874 68.6643 5.92877 68.2241 5.92877C64.8498 5.92877 62.0638 3.59527 61.7255 0.612494C61.6861 0.265635 61.3674 0 60.9829 0H53.3961C53.0116 0 52.6935 0.265635 52.6541 0.612494C52.3152 3.59527 49.5298 5.92877 46.1549 5.92877C42.7806 5.92877 39.9951 3.59527 39.6562 0.612494C39.6168 0.265635 39.2988 0 38.9143 0H31.3269C30.9424 0 30.6243 0.265635 30.5849 0.612494C30.246 3.59527 27.4606 5.92877 24.0857 5.92877C20.7114 5.92877 17.9259 3.59527 17.587 0.612494C17.5476 0.265635 17.2296 0 16.8445 0H9.25823C8.87317 0 8.55511 0.265635 8.5157 0.612494C8.17737 3.59527 5.39191 5.92877 2.01704 5.92877C1.62523 5.92877 1.24186 5.89659 0.869194 5.83529C0.414333 5.76122 0 6.08611 0 6.505V13.2675C0 13.625 0.305683 13.9152 0.69862 13.9464C1.13265 13.9811 1.57231 14 2.01704 14C6.07927 14 9.77333 12.5732 12.5284 10.2438C12.8262 9.99248 13.2771 9.99248 13.5749 10.2438C16.3294 12.5732 20.0229 14 24.0857 14C28.1485 14 31.8425 12.5732 34.5976 10.2438C34.8948 9.99248 35.3458 9.99248 35.6436 10.2438C38.3986 12.5732 42.0927 14 46.1549 14C50.2177 14 53.9118 12.5732 56.6663 10.2438C56.9641 9.99248 57.415 9.99248 57.7128 10.2438C60.4678 12.5732 64.1619 14 68.2241 14C68.7319 14 69.2329 13.9765 69.7272 13.9321C70.1055 13.8983 70.3886 13.6005 70.3886 13.2557V6.47844Z" fill="#AE946C"/>
</svg>
