<svg width="80" height="80" viewBox="0 0 80 80" fill="none" xmlns="http://www.w3.org/2000/svg">
<path d="M21.0478 1.37109H58.6733C61.923 1.37109 63.4557 1.37356 64.7255 1.57467C71.8009 2.69531 77.3501 8.24442 78.4707 15.3198C78.6718 16.5896 78.6742 18.1223 78.6742 21.372V58.9975C78.6742 62.2473 78.6718 63.7799 78.4707 65.0497C77.3501 72.1251 71.8009 77.6742 64.7255 78.7948C63.4557 78.996 61.923 78.9985 58.6733 78.9985H21.0478C17.7981 78.9985 16.2655 78.996 14.9956 78.7948C7.92021 77.6742 2.37108 72.1251 1.25045 65.0497C1.04933 63.7799 1.04688 62.2473 1.04688 58.9975V21.372C1.04688 18.1223 1.04933 16.5896 1.25045 15.3198C2.37108 8.24442 7.92021 2.69531 14.9956 1.57467C16.2655 1.37356 17.7981 1.37109 21.0478 1.37109Z" stroke="#E2E2E2" stroke-width="2"/>
<path d="M67.3023 12.8047L9.37891 36.3443L34.7258 45.3957L43.7773 70.7281L67.3023 12.8047Z" fill="url(#paint0_linear_561_5562)"/>
<path d="M67.3044 12.8047L33.8242 46.2993L43.7794 70.7281L67.3044 12.8047Z" fill="#FFCC00"/>
<path d="M32.9185 47.2026L43.7773 70.7276L40.1479 39.9585L9.37891 36.3438L32.9185 47.2026Z" fill="#ECA704"/>
<defs>
<linearGradient id="paint0_linear_561_5562" x1="9.37914" y1="70.727" x2="67.305" y2="12.8011" gradientUnits="userSpaceOnUse">
<stop stop-color="#FFCC00"/>
<stop offset="1" stop-color="#FFE992"/>
</linearGradient>
</defs>
</svg>
