<svg width="37" height="38" viewBox="0 0 37 38" fill="none" xmlns="http://www.w3.org/2000/svg">
<path d="M33.9301 37.3L20.8478 24.1C19.8934 24.9333 18.7579 25.5833 17.4415 26.05C16.125 26.5167 14.7263 26.75 13.2453 26.75C9.62501 26.75 6.55602 25.4833 4.0383 22.95C1.52058 20.4167 0.261719 17.35 0.261719 13.75C0.261719 10.15 1.52058 7.08333 4.0383 4.55C6.55602 2.01667 9.5921 0.75 13.1465 0.75C16.701 0.75 19.7288 2.01667 22.2301 4.55C24.7313 7.08333 25.982 10.15 25.982 13.75C25.982 15.1833 25.7516 16.5667 25.2908 17.9C24.8301 19.2333 24.1554 20.4833 23.2668 21.65L36.3984 34.8L33.9301 37.3ZM13.1959 23.35C15.7959 23.35 18.0092 22.4083 19.8358 20.525C21.6624 18.6417 22.5756 16.3833 22.5756 13.75C22.5756 11.1167 21.6624 8.85833 19.8358 6.975C18.0092 5.09167 15.7959 4.15 13.1959 4.15C10.5301 4.15 8.27564 5.09167 6.4326 6.975C4.58957 8.85833 3.66805 11.1167 3.66805 13.75C3.66805 16.3833 4.58957 18.6417 6.4326 20.525C8.27564 22.4083 10.5301 23.35 13.1959 23.35ZM11.6161 19.25V15.2H7.66678V12.2H11.6655V8.2H14.6275V12.2H18.5769V15.2H14.6275V19.25H11.6161Z" fill="white"/>
</svg>
