<svg width="48" height="48" fill="none" xmlns="http://www.w3.org/2000/svg"><mask id="a" style="mask-type:alpha" maskUnits="userSpaceOnUse" x="0" y="0" width="48" height="48"><path fill="#D9D9D9" d="M0 0h48v48H0z"/></mask><g mask="url(#a)"><path d="M19.5 32.1 32.1 24l-12.6-8.1v16.2ZM24 43c-2.633 0-5.108-.5-7.424-1.5-2.317-1-4.326-2.35-6.026-4.05-1.7-1.7-3.05-3.709-4.05-6.026C5.5 29.108 5 26.634 5 24c0-2.633.5-5.109 1.5-7.426 1-2.316 2.35-4.324 4.05-6.024 1.7-1.7 3.709-3.05 6.026-4.05C18.892 5.5 21.366 5 24 5c2.633 0 5.109.5 7.426 1.5 2.316 1 4.324 2.35 6.024 4.05 1.7 1.7 3.05 3.708 4.05 6.024 1 2.317 1.5 4.793 1.5 7.426s-.5 5.108-1.5 7.424c-1 2.317-2.35 4.326-4.05 6.026-1.7 1.7-3.708 3.05-6.024 4.05-2.317 1-4.793 1.5-7.426 1.5Zm0-3c4.433 0 8.209-1.558 11.326-4.674C38.442 32.209 40 28.433 40 24c0-4.433-1.558-8.209-4.674-11.326C32.209 9.558 28.433 8 24 8c-4.433 0-8.208 1.558-11.324 4.674C9.559 15.791 8 19.567 8 24c0 4.433 1.559 8.209 4.676 11.326C15.792 38.442 19.566 40 24 40Z" fill="#494843"/></g></svg>