<svg width="48" height="48" fill="none" xmlns="http://www.w3.org/2000/svg"><mask id="a" style="mask-type:alpha" maskUnits="userSpaceOnUse" x="0" y="0" width="48" height="48"><path fill="#D9D9D9" d="M0 0h48v48H0z"/></mask><g mask="url(#a)"><path d="M24 43.002c-2.367 0-4.575-.45-6.624-1.35A17.43 17.43 0 0 1 12 38.002a17.432 17.432 0 0 1-3.65-5.376C7.45 30.576 7 28.368 7 26.002h3c0 3.9 1.359 7.208 4.076 9.924 2.716 2.717 6.024 4.076 9.924 4.076 3.9 0 7.208-1.36 9.924-4.076C36.641 33.21 38 29.902 38 26.002c0-3.9-1.359-7.21-4.076-9.926C31.208 13.36 27.9 12.002 24 12.002h-.55l3.2 3.2-2.1 2.15-6.85-6.85 6.9-6.9 2.1 2.2-3.25 3.2H24c2.367 0 4.575.45 6.624 1.35 2.05.9 3.843 2.116 5.376 3.65a17.43 17.43 0 0 1 3.65 5.376c.9 2.049 1.35 4.257 1.35 6.624 0 2.366-.45 4.574-1.35 6.624A17.432 17.432 0 0 1 36 38.002a17.43 17.43 0 0 1-5.376 3.65c-2.05.9-4.257 1.35-6.624 1.35Zm-5.6-11.3v-9h-2.85v-2.4h5.25v11.4h-2.4Zm6.8 0c-.567 0-1.041-.192-1.424-.576-.384-.383-.576-.858-.576-1.424v-7.4c0-.567.192-1.042.576-1.424.383-.384.857-.576 1.424-.576h3.75c.567 0 1.042.192 1.426.576.383.382.574.857.574 1.424v7.4c0 .566-.191 1.04-.574 1.424-.384.384-.86.576-1.426.576H25.2Zm.6-2.4h2.55a.313.313 0 0 0 .176-.05.17.17 0 0 0 .074-.15v-6.2a.169.169 0 0 0-.074-.15.312.312 0 0 0-.176-.05H25.8c-.067 0-.117.016-.15.05-.033.033-.05.083-.05.15v6.2c0 .066.017.116.05.15.033.033.083.05.15.05Z" fill="#494843"/></g></svg>