<svg width="48" height="48" viewBox="0 0 48 48" fill="none" xmlns="http://www.w3.org/2000/svg">
<mask id="mask0_310_37005" style="mask-type:alpha" maskUnits="userSpaceOnUse" x="0" y="0" width="48" height="48">
<rect width="48" height="48" fill="#D9D9D9"/>
</mask>
<g mask="url(#mask0_310_37005)">
<path d="M19.5 32.1L32.1 24L19.5 15.9V32.1ZM24 43C21.3667 43 18.892 42.5 16.576 41.5C14.2587 40.5 12.25 39.15 10.55 37.45C8.85 35.75 7.5 33.7413 6.5 31.424C5.5 29.108 5 26.6333 5 24C5 21.3667 5.5 18.8913 6.5 16.574C7.5 14.258 8.85 12.25 10.55 10.55C12.25 8.85 14.2587 7.5 16.576 6.5C18.892 5.5 21.3667 5 24 5C26.6333 5 29.1087 5.5 31.426 6.5C33.742 7.5 35.75 8.85 37.45 10.55C39.15 12.25 40.5 14.258 41.5 16.574C42.5 18.8913 43 21.3667 43 24C43 26.6333 42.5 29.108 41.5 31.424C40.5 33.7413 39.15 35.75 37.45 37.45C35.75 39.15 33.742 40.5 31.426 41.5C29.1087 42.5 26.6333 43 24 43ZM24 40C28.4333 40 32.2087 38.442 35.326 35.326C38.442 32.2087 40 28.4333 40 24C40 19.5667 38.442 15.7913 35.326 12.674C32.2087 9.558 28.4333 8 24 8C19.5667 8 15.792 9.558 12.676 12.674C9.55867 15.7913 8 19.5667 8 24C8 28.4333 9.55867 32.2087 12.676 35.326C15.792 38.442 19.5667 40 24 40Z" fill="#494843"/>
</g>
</svg>
