<svg width="48" height="48" viewBox="0 0 48 48" fill="none" xmlns="http://www.w3.org/2000/svg">
<mask id="mask0_310_37008" style="mask-type:alpha" maskUnits="userSpaceOnUse" x="0" y="0" width="48" height="48">
<rect width="48" height="48" fill="#D9D9D9"/>
</mask>
<g mask="url(#mask0_310_37008)">
<path d="M24 43.0016C21.6333 43.0016 19.4253 42.5516 17.376 41.6516C15.3253 40.7516 13.5333 39.5349 12 38.0016C10.4667 36.4682 9.25 34.6762 8.35 32.6256C7.45 30.5762 7 28.3682 7 26.0016H10C10 29.9016 11.3587 33.2096 14.076 35.9256C16.792 38.6429 20.1 40.0016 24 40.0016C27.9 40.0016 31.208 38.6429 33.924 35.9256C36.6413 33.2096 38 29.9016 38 26.0016C38 22.1016 36.6413 18.7929 33.924 16.0756C31.208 13.3596 27.9 12.0016 24 12.0016H23.45L26.65 15.2016L24.55 17.3516L17.7 10.5016L24.6 3.60156L26.7 5.80156L23.45 9.00156H24C26.3667 9.00156 28.5747 9.45156 30.624 10.3516C32.6747 11.2516 34.4667 12.4682 36 14.0016C37.5333 15.5349 38.75 17.3269 39.65 19.3776C40.55 21.4269 41 23.6349 41 26.0016C41 28.3682 40.55 30.5762 39.65 32.6256C38.75 34.6762 37.5333 36.4682 36 38.0016C34.4667 39.5349 32.6747 40.7516 30.624 41.6516C28.5747 42.5516 26.3667 43.0016 24 43.0016ZM18.4 31.7016V22.7016H15.55V20.3016H20.8V31.7016H18.4ZM25.2 31.7016C24.6333 31.7016 24.1587 31.5096 23.776 31.1256C23.392 30.7429 23.2 30.2682 23.2 29.7016V22.3016C23.2 21.7349 23.392 21.2602 23.776 20.8776C24.1587 20.4936 24.6333 20.3016 25.2 20.3016H28.95C29.5167 20.3016 29.992 20.4936 30.376 20.8776C30.7587 21.2602 30.95 21.7349 30.95 22.3016V29.7016C30.95 30.2682 30.7587 30.7429 30.376 31.1256C29.992 31.5096 29.5167 31.7016 28.95 31.7016H25.2ZM25.8 29.3016H28.35C28.4167 29.3016 28.4753 29.2849 28.526 29.2516C28.5753 29.2182 28.6 29.1682 28.6 29.1016V22.9016C28.6 22.8349 28.5753 22.7849 28.526 22.7516C28.4753 22.7182 28.4167 22.7016 28.35 22.7016H25.8C25.7333 22.7016 25.6833 22.7182 25.65 22.7516C25.6167 22.7849 25.6 22.8349 25.6 22.9016V29.1016C25.6 29.1682 25.6167 29.2182 25.65 29.2516C25.6833 29.2849 25.7333 29.3016 25.8 29.3016Z" fill="#494843"/>
</g>
</svg>
