<svg width="80" height="80" fill="none" xmlns="http://www.w3.org/2000/svg"><path fill-rule="evenodd" clip-rule="evenodd" d="M38.493 4.69c-3.714 11.33-12.689 15.015-22.765 9.349-1.744-.98-3.245-1.709-3.335-1.618-.091.091.632 1.754 1.607 3.695 5.302 10.557 1.823 18.45-9.94 22.544-1.796.626-3.267 1.233-3.267 1.35 0 .117 1.755.789 3.902 1.492 10.978 3.599 14.696 11.91 9.85 22.02-1.034 2.159-1.814 3.99-1.733 4.07.08.082 2.038-.772 4.349-1.895 5.262-2.559 8.748-2.827 12.772-.985 4.775 2.186 6.547 4.352 8.874 10.844.845 2.357 1.617 3.978 1.739 3.648.12-.327.754-2.085 1.409-3.907 2.96-8.234 6.874-11.341 14.288-11.341 3.688 0 3.851.04 7.68 1.891 2.151 1.04 3.975 1.828 4.052 1.75.078-.077-.779-1.997-1.904-4.267-5.248-10.591-1.643-18.382 10.265-22.179 1.58-.503 2.872-1.02 2.872-1.15 0-.128-1.757-.809-3.903-1.512C64.33 34.89 60.59 26.534 65.455 16.47c1.04-2.152 1.823-3.982 1.739-4.066-.085-.084-2.044.767-4.355 1.89-9.959 4.842-18.154 1.128-21.488-9.738-.634-2.068-1.25-3.762-1.366-3.764-.117-.002-.788 1.752-1.492 3.899Zm5.547 15.941c15.301 3.191 20.936 22.201 9.856 33.255-15.72 15.682-41.086-2.455-31.613-22.603C25.98 23.424 35.374 18.824 44.04 20.63Z" fill="#603A0A"/></svg>