<svg width="80" height="80" fill="none" xmlns="http://www.w3.org/2000/svg"><path fill-rule="evenodd" clip-rule="evenodd" d="M44.45 8.146c-.51.28-.608 1.012-.343 2.563.369 2.155 1.517 4.25 3.25 5.933.64.62.602.305.602 5.012v4.203l.401.105c3.277.86 5.706 1.586 6.243 1.866.309.16.322.125.166-.443-.128-.465-.168-.516-.8-1.017-3.428-2.72-3.183-8.03.483-10.453.848-.56 2.297-1.014 3.24-1.014.454 0 .59-.122 1.462-1.31 1.448-1.97 1.635-3.689.44-4.022-.604-.168-.929.086-2.41 1.889-1.968 2.395-3.133 3.131-4.974 3.143-2.576.016-4.132-1.32-6.222-5.347-.648-1.247-.922-1.445-1.537-1.108Zm7.337.36c-2.804.59-2.577 4.924.277 5.306 1.694.227 3.287-1.911 2.706-3.632-.373-1.104-1.823-1.917-2.983-1.674Zm-22.339.557c-1.849.617-2.496 2.787-1.313 4.403.602.822 2.163 1.26 3.208.9 1.799-.618 2.345-3.502.906-4.78-.651-.58-1.923-.817-2.801-.523Zm8.564 1.42c-3.077.715-5.433 3.5-5.447 6.442-.019 4.116 3.791 7.11 7.717 6.064 2.82-.75 4.855-3.897 4.642-7.177-.227-3.487-3.61-6.097-6.912-5.33Zm35.466 1.46c-.17.061-.418.215-.55.34-.308.293-1.446 2.64-2.309 4.763-2.093 5.15-3.219 7.053-5.444 9.206-3.468 3.353-10.252 5.854-17.857 6.58-2.392.23-2.834.438-3.237 1.526-.663 1.788-.231 2.937 1.266 3.368 2.42.696 3.446.846 5.872.861 3.152.02 3.515.16 3.772 1.449.219 1.1-.257 6.148-.733 7.775l-.285.971c-.117.401-.432 1.175-.699 1.72-.646 1.318-.661 1.497-.231 2.755.456 1.335.425 1.998-.151 3.217-.754 1.594-1.9 2.697-4.706 4.524-.802.522-1.5 1-1.551 1.063-.185.224 2.402 1.395 4.266 1.93 7.614 2.19 14.593-.675 17.72-7.274 1.53-3.226 1.76-7.17.902-15.423-.17-1.644-.194-5.073-.044-6.315.289-2.371.396-2.658 1.9-5.053 2.816-4.49 4.626-10.404 4.621-15.106-.002-2.303-.989-3.428-2.522-2.877Zm-51.123.301c-.54.266-.395 1.588.277 2.536.564.794 1.885 2.143 2.306 2.353.818.409 1.005.711 1.075 1.735l.048.688.755.502c1.634 1.085 5.337 2.858 5.972 2.858.028 0 .05-.451.05-1.003V20.91l-.363-.69c-.676-1.282-.976-3.23-.687-4.46.117-.494.143-.477-.563-.366-2.119.335-4.021-.234-6.127-1.832-1.503-1.142-2.312-1.53-2.743-1.318Zm-6.43.725c-1.763.323-2.477 2.802-1.417 4.923 1.345 2.692 3.922 5.681 8.12 9.422 3.043 2.711 3.567 3.375 4.04 5.115.277 1.016.261 2.685-.037 3.926-.317 1.32-.353 1.701-.16 1.698.362-.007 1.091-.675 2.01-1.84 2.455-3.111 4.01-3.678 5.638-2.054 2 1.996 1.213 5.239-2.347 9.669-2.097 2.61-2.499 3.043-4.217 4.546-.98.856-.938.768-1.013 2.142l-.06 1.086.391-.328c1.282-1.077 2.217-.968 4.134.481.515.39 1.309.95 1.765 1.246.456.296 1.117.73 1.47.966 1.162.773 1.425.67.929-.365-.43-.896-.512-1.359-.47-2.629.092-2.702 1.565-4.6 4.234-5.454 1.335-.427 2.098-.473 3.496-.21.564.107.615-.444.364-3.934-.182-2.534.32-7.828.824-8.697.332-.571.643-.686 2.107-.775 2.383-.146 5.335-.53 7.166-.934.287-.064 1.135-.246 1.885-.406 2.238-.478 2.266-.66.232-1.536-2.614-1.128-4.494-1.594-10.62-2.635-8.674-1.475-12.004-2.37-15.654-4.21-2.449-1.232-5.354-3.39-7.042-5.226-3.227-3.513-4.3-4.255-5.768-3.987Zm40.777 2.71c-4.405.914-6.008 6.465-2.807 9.716 3.617 3.674 9.742 1.06 9.695-4.139-.033-3.639-3.338-6.315-6.888-5.578ZM5.104 31.83c-1.127.438-1.351 1.648-.854 4.62.693 4.142 2.364 7.291 5.727 10.793 1.581 1.647 1.492 1.25 1.362 6.089l-.103 3.821.203.267c.657.868 3.592 3.662 5.076 4.832l.785.623c1.37 1.123 5.838 3.92 6.26 3.92.079 0 .434-5.477.615-9.472.38-8.421.276-7.678 1.164-8.28 1.39-.944 5.13-4.961 6.686-7.183 2.58-3.685 2.939-6.344.975-7.234-1.227-.557-1.697-.203-4.888 3.671-3.236 3.93-5.276 5.282-8.308 5.507-4.032.3-7.343-1.73-10.037-6.154-.554-.911-.819-1.393-1.756-3.198-1.472-2.837-1.736-3.075-2.907-2.622Zm12.973.872c-4.313 1.175-4.509 7.75-.279 9.367 2.967 1.134 5.86-1.05 6.336-4.785.36-2.83-3.043-5.404-6.057-4.582Zm21.62 13.936c-2.758.558-4.256 3.64-3.013 6.194 1.017 2.09 3.75 3.098 5.82 2.147 3.13-1.44 3.4-6.488.424-7.896-.963-.456-2.282-.637-3.231-.445Zm-11.57 5.1c-.745.303-.66 2.257.159 3.622.841 1.406 3.036 3.673 4.028 4.16.847.416 1.155.763 1.405 1.58.155.505.162.74.162 4.894 0 2.4.02 4.363.043 4.363.023 0 .79.107 1.704.238 2.78.398 6.596.524 8.448.279l.37-.05.052-1.339c.028-.737.052-2.6.052-4.14 0-3.667-.008-3.64 1.33-4.259 2.46-1.136 5.602-3.587 6.206-4.842.649-1.348.46-2.375-.455-2.462-.423-.041-.536-.003-2.228.749-7.33 3.256-12.296 3.085-16.858-.583-2.295-1.844-3.65-2.521-4.419-2.21Z" fill="#603A0A"/></svg>