<svg width="80" height="80" fill="none" xmlns="http://www.w3.org/2000/svg"><path fill-rule="evenodd" clip-rule="evenodd" d="M17.76 4.35c.422-.905 1.273-1.717 2.179-2.08 1.864-.747 3.991.1 4.99 1.986.44.828.596 15.328.18 16.593-1.087 3.302-5.64 3.64-7.262.538l-.398-.76v-7.804c0-7.634.007-7.818.311-8.473Zm38.001-.01c.416-.908 1.256-1.703 2.175-2.06a3.915 3.915 0 0 1 5.093 2.31c.4 1.077.47 14.886.083 16.201-1 3.4-5.66 3.72-7.317.504l-.345-.669v-7.803c0-7.63.007-7.819.311-8.483ZM26.527 24.711c1.69-1.692 2.056-2.875 2.15-6.946l.073-3.159h23.2l.077 3.159c.064 2.642.124 3.293.37 3.983 1.926 5.43 8.215 6.95 12.146 2.934 1.65-1.685 2.043-2.89 2.138-6.545.048-1.873.046-2.601.3-2.709.177-.074.477.15 1.003.497 2.383 1.579 3.586 3.594 3.898 6.532.1.95.137 9.451.108 24.998l-.044 23.56-.41 1.188c-.943 2.727-2.787 4.557-5.555 5.516-.781.271-1.68.281-25.481.281-23.8 0-24.7-.01-25.481-.28-2.768-.96-4.612-2.79-5.554-5.517l-.411-1.189-.044-23.559c-.03-15.547.008-24.048.108-24.998.313-2.944 1.513-4.952 3.912-6.541l.884-.586.087 2.725c.072 2.27.142 2.892.418 3.727 1.755 5.324 8.168 6.875 12.108 2.93Zm38.57 45.783V33.929H15.903v36.565h49.194Zm-45.954-3.419V37.348h42.714v29.727H19.143Zm23.643-8.444V44.794h-2.363l-3.408 2.21V49.3l3.207-2.067h.08V58.63h2.484Z" fill="#603A0A"/></svg>