<svg width="137" height="14" fill="none" xmlns="http://www.w3.org/2000/svg"><path d="M70.389 6.478c0-.423-.424-.754-.88-.668a6.985 6.985 0 0 1-1.285.119c-3.374 0-6.16-2.334-6.499-5.317C61.686.266 61.367 0 60.983 0h-7.587c-.384 0-.703.266-.742.612-.339 2.983-3.124 5.317-6.5 5.317-3.373 0-6.159-2.334-6.498-5.317C39.616.266 39.3 0 38.914 0h-7.587c-.385 0-.703.266-.742.612-.339 2.983-3.124 5.317-6.5 5.317-3.374 0-6.16-2.334-6.498-5.317C17.547.266 17.23 0 16.845 0H9.258c-.385 0-.703.266-.742.612C8.177 3.595 5.392 5.93 2.017 5.93c-.392 0-.775-.032-1.148-.094-.455-.074-.869.251-.869.67v6.763c0 .357.306.647.699.678.434.035.873.054 1.318.054 4.062 0 7.756-1.427 10.511-3.756a.82.82 0 0 1 1.047 0C16.329 12.574 20.023 14 24.085 14c4.063 0 7.758-1.427 10.513-3.756a.82.82 0 0 1 1.046 0C38.399 12.574 42.093 14 46.154 14c4.064 0 7.758-1.427 10.512-3.756a.82.82 0 0 1 1.047 0C60.468 12.574 64.162 14 68.224 14c.508 0 1.009-.024 1.503-.068.379-.034.662-.332.662-.676V6.478Z" fill="#AE946C"/><path d="M136.334 6.478c0-.423-.423-.754-.88-.668a6.978 6.978 0 0 1-1.285.119c-3.374 0-6.16-2.334-6.498-5.317-.04-.346-.358-.612-.743-.612h-7.587c-.384 0-.702.266-.742.612-.338 2.983-3.124 5.317-6.499 5.317-3.374 0-6.16-2.334-6.498-5.317-.04-.346-.358-.612-.742-.612h-7.588c-.384 0-.702.266-.742.612-.339 2.983-3.124 5.317-6.499 5.317-3.374 0-6.16-2.334-6.499-5.317C83.492.266 83.175 0 82.79 0h-7.587c-.385 0-.703.266-.742.612-.338 2.983-3.124 5.317-6.499 5.317-.392 0-.775-.032-1.148-.094-.454-.074-.869.251-.869.67v6.763c0 .357.306.647.699.678a16.4 16.4 0 0 0 1.318.054c4.063 0 7.757-1.427 10.512-3.756a.82.82 0 0 1 1.046 0C82.275 12.574 85.968 14 90.031 14c4.063 0 7.757-1.427 10.512-3.756a.82.82 0 0 1 1.046 0C104.344 12.574 108.038 14 112.1 14c4.063 0 7.757-1.427 10.512-3.756a.82.82 0 0 1 1.046 0c2.755 2.33 6.449 3.756 10.511 3.756.508 0 1.009-.024 1.503-.068.379-.034.662-.332.662-.676V6.478Z" fill="#AE946C"/></svg>