<svg width="20" height="21" fill="none" xmlns="http://www.w3.org/2000/svg"><path d="M10 20.424a9.716 9.716 0 0 1-3.863-.775 9.961 9.961 0 0 1-3.163-2.125A9.965 9.965 0 0 1 .85 14.362 9.724 9.724 0 0 1 .074 10.5a9.74 9.74 0 0 1 .775-3.863 9.965 9.965 0 0 1 2.125-3.162c.9-.9 1.955-1.608 3.163-2.125A9.717 9.717 0 0 1 10 .574c1.367 0 2.655.259 3.863.775a9.965 9.965 0 0 1 3.162 2.125c.9.9 1.609 1.954 2.125 3.162a9.723 9.723 0 0 1 .775 3.863v1.4c0 1.017-.337 1.859-1.012 2.525-.675.667-1.513 1-2.513 1a3.559 3.559 0 0 1-2.925-1.5 4.76 4.76 0 0 1-1.525 1.1c-.583.267-1.233.4-1.95.4-1.366 0-2.529-.479-3.487-1.437-.958-.958-1.438-2.121-1.438-3.488 0-1.35.48-2.508 1.438-3.475.958-.966 2.12-1.45 3.487-1.45s2.53.48 3.488 1.437c.958.959 1.437 2.122 1.437 3.488v1.35c0 .45.142.813.425 1.088a1.45 1.45 0 0 0 1.05.412 1.45 1.45 0 0 0 1.05-.412c.284-.275.425-.638.425-1.088V10.5c0-2.15-.775-4-2.325-5.55C14 3.4 12.15 2.624 10 2.624S6 3.4 4.45 4.95C2.9 6.5 2.124 8.35 2.124 10.5s.775 4 2.325 5.55C6 17.6 7.85 18.374 10 18.374h4.925v2.05H10Zm0-7.075c.783 0 1.454-.275 2.012-.825.558-.55.837-1.225.837-2.025 0-.783-.275-1.454-.825-2.013-.55-.558-1.225-.837-2.025-.837-.783 0-1.454.275-2.012.825-.558.55-.838 1.225-.838 2.025 0 .784.275 1.454.825 2.012.55.559 1.225.838 2.025.838Z" fill="#603A0A"/></svg>