<svg width="80" height="80" fill="none" xmlns="http://www.w3.org/2000/svg"><path fill-rule="evenodd" clip-rule="evenodd" d="M66.25 32.5c0 1.404-.11 2.783-.323 4.127-.401 3.476-1.506 6.514-3.545 9.596a26.372 26.372 0 0 1-4.814 5.782 83.523 83.523 0 0 1-4.136 3.892c-5.131 4.542-9.775 9.908-11.085 12.81l-2.254 4.992-1.839-4.368c-1.01-2.402-6.323-8.607-11.806-13.79a67.319 67.319 0 0 0-2.401-2.13 108.41 108.41 0 0 1-1.506-1.308 26.336 26.336 0 0 1-6.289-8.403c-1.692-3.106-2.354-6.166-2.48-10.1a26.749 26.749 0 0 1-.022-1.1v-.661c.005-.857.073-1.73.202-2.609C15.562 16.276 26.61 6.25 40 6.25c14.498 0 26.25 11.753 26.25 26.25ZM40 41.25c5.523 0 10-4.477 10-10s-4.477-10-10-10-10 4.477-10 10 4.477 10 10 10Z" fill="#F43"/></svg>