<svg width="28" height="28" fill="none" xmlns="http://www.w3.org/2000/svg"><path d="m18.397 20.268 1.867-1.867-4.933-4.933V7.335h-2.667v7.2l5.733 5.733Zm-4.4 7.067c-1.844 0-3.577-.35-5.2-1.051a13.456 13.456 0 0 1-4.233-2.85c-1.2-1.2-2.15-2.61-2.85-4.233-.7-1.622-1.05-3.355-1.05-5.2 0-1.844.35-3.577 1.05-5.2.7-1.622 1.65-3.033 2.85-4.233 1.2-1.2 2.611-2.15 4.233-2.85 1.623-.7 3.356-1.05 5.2-1.05 1.845 0 3.578.35 5.2 1.05 1.623.7 3.034 1.65 4.234 2.85 1.2 1.2 2.15 2.611 2.85 4.233.7 1.623 1.05 3.356 1.05 5.2 0 1.845-.35 3.578-1.05 5.2a13.457 13.457 0 0 1-2.85 4.234 13.44 13.44 0 0 1-4.234 2.849c-1.622.7-3.355 1.05-5.2 1.05Zm0-2.667c2.956 0 5.473-1.039 7.551-3.116 2.077-2.078 3.116-4.595 3.116-7.55 0-2.956-1.039-5.473-3.116-7.551-2.078-2.078-4.595-3.116-7.55-3.116-2.956 0-5.473 1.038-7.55 3.116C4.37 8.529 3.331 11.046 3.331 14c0 2.956 1.039 5.473 3.117 7.551 2.077 2.077 4.594 3.116 7.55 3.116Z" fill="#A48659"/></svg>