<svg width="18" height="20" fill="none" xmlns="http://www.w3.org/2000/svg"><path d="M5 12a.968.968 0 0 1-.713-.288A.967.967 0 0 1 4 11a.97.97 0 0 1 .287-.713A.97.97 0 0 1 5 10a.97.97 0 0 1 .713.287A.97.97 0 0 1 6 11a.97.97 0 0 1-.287.712A.968.968 0 0 1 5 12Zm4 0a.965.965 0 0 1-.712-.288A.965.965 0 0 1 8 11c0-.283.096-.521.288-.713A.967.967 0 0 1 9 10a.97.97 0 0 1 .713.287A.97.97 0 0 1 10 11a.97.97 0 0 1-.287.712A.968.968 0 0 1 9 12Zm4 0a.965.965 0 0 1-.712-.288A.965.965 0 0 1 12 11c0-.283.096-.521.288-.713A.967.967 0 0 1 13 10a.97.97 0 0 1 .712.287c.192.192.288.43.288.713s-.096.52-.288.712A.965.965 0 0 1 13 12ZM2 20a1.93 1.93 0 0 1-1.413-.587A1.928 1.928 0 0 1 0 18V4c0-.55.196-1.02.587-1.412A1.927 1.927 0 0 1 2 2h1V0h2v2h8V0h2v2h1c.55 0 1.021.196 1.413.588.391.391.587.862.587 1.412v14a1.93 1.93 0 0 1-.587 1.413A1.928 1.928 0 0 1 16 20H2Zm0-2h14V8H2v10ZM2 6h14V4H2v2Z" fill="#494843"/></svg>