<svg width="400" height="400" fill="none" xmlns="http://www.w3.org/2000/svg"><path d="m350.925 220.093 45.252 18.741c15.723-78.988-17.922-160.29-84.908-205.024l-18.761 45.286c43.226 33.021 65.625 87.09 58.417 140.997ZM265.482 11.07l-18.331 44.246c3.722 1.216 7.43 2.534 11.107 4.057 3.677 1.523 7.232 3.214 10.724 4.984l18.33-44.248a203.456 203.456 0 0 0-10.779-4.85 203.2 203.2 0 0 0-11.051-4.19ZM59.352 141.75a154.302 154.302 0 0 1 4.956-10.73l-44.2-18.306c-1.71 3.527-3.359 7.098-4.878 10.764-1.519 3.668-2.878 7.361-4.164 11.062l44.2 18.305a153.963 153.963 0 0 1 4.085-11.095Zm329.58 123.712-44.2-18.307a153.487 153.487 0 0 1-4.083 11.095 154.209 154.209 0 0 1-4.96 10.732l44.202 18.304c1.707-3.527 3.358-7.096 4.879-10.764 1.518-3.668 2.877-7.359 4.162-11.06Zm-257.914 70.181-18.33 44.248a203.847 203.847 0 0 0 10.776 4.85 203.704 203.704 0 0 0 11.052 4.189l18.331-44.246c-3.72-1.216-7.431-2.534-11.107-4.057-3.675-1.523-7.233-3.212-10.722-4.984Zm48.889 15.252-18.761 45.283c79.001 15.729 160.292-17.971 205.035-84.941l-45.252-18.741c-33.025 43.213-87.104 65.611-141.022 58.399ZM49.073 179.907l-45.25-18.741C-11.9 240.155 21.747 321.458 88.731 366.19l18.761-45.286c-43.226-33.021-65.626-87.09-58.419-140.997ZM33.819 88.765l45.25 18.739c33.026-43.213 87.104-65.61 141.024-58.4l18.761-45.282C159.853-11.908 78.562 21.794 33.819 88.765Z" fill="#fff"/></svg>