<svg width="32" height="17" fill="none" xmlns="http://www.w3.org/2000/svg"><path d="M32 3.406a.338.338 0 0 0-.4-.336c-.189.039-.384.06-.584.06A2.977 2.977 0 0 1 28.062.46a.34.34 0 0 0-.338-.308h-3.45a.34.34 0 0 0-.336.308 2.977 2.977 0 0 1-2.955 2.67A2.977 2.977 0 0 1 18.029.46a.34.34 0 0 0-.338-.308h-3.45a.34.34 0 0 0-.336.308 2.977 2.977 0 0 1-2.955 2.67A2.977 2.977 0 0 1 7.995.46a.34.34 0 0 0-.337-.308H4.209a.34.34 0 0 0-.338.308A2.977 2.977 0 0 1 .395 3.083.339.339 0 0 0 0 3.419v3.396c0 .18.139.325.318.34a6.978 6.978 0 0 0 5.378-1.86.346.346 0 0 1 .475.001 6.977 6.977 0 0 0 4.779 1.887 6.978 6.978 0 0 0 4.779-1.887.346.346 0 0 1 .475 0 6.978 6.978 0 0 0 4.779 1.887 6.977 6.977 0 0 0 4.779-1.887.346.346 0 0 1 .475 0A6.978 6.978 0 0 0 31.7 7.15a.339.339 0 0 0 .301-.34V3.406Zm0 9.668a.338.338 0 0 0-.4-.336c-.189.039-.384.06-.584.06a2.977 2.977 0 0 1-2.954-2.67.34.34 0 0 0-.338-.308h-3.45a.34.34 0 0 0-.336.308 2.977 2.977 0 0 1-2.955 2.67 2.977 2.977 0 0 1-2.954-2.67.34.34 0 0 0-.338-.308h-3.45a.34.34 0 0 0-.336.308 2.977 2.977 0 0 1-2.955 2.67 2.977 2.977 0 0 1-2.955-2.67.34.34 0 0 0-.337-.308H4.209a.34.34 0 0 0-.338.308A2.977 2.977 0 0 1 .395 12.75a.339.339 0 0 0-.395.336v3.396c0 .18.139.325.318.34a6.978 6.978 0 0 0 5.378-1.86.346.346 0 0 1 .475.001 6.977 6.977 0 0 0 4.779 1.887 6.978 6.978 0 0 0 4.779-1.887.346.346 0 0 1 .475 0 6.978 6.978 0 0 0 4.779 1.887 6.977 6.977 0 0 0 4.779-1.887.346.346 0 0 1 .475 0 6.978 6.978 0 0 0 5.462 1.853.339.339 0 0 0 .301-.34v-3.403Z" fill="#603A0A"/></svg>