<svg width="48" height="48" fill="none" xmlns="http://www.w3.org/2000/svg"><circle cx="24" cy="24" r="24" fill="#fff"/><path d="M29.561 17H12v17h4.888v-5.53h9.366L30.527 34H36l-4.712-5.556c1.463-.204 2.517-.688 3.16-1.453.645-.764.967-1.988.967-3.62v-1.273c0-.97-.117-1.734-.322-2.32-.205-.586-.556-1.096-1.054-1.555a4.952 4.952 0 0 0-1.815-.943c-.702-.178-1.58-.28-2.663-.28Zm-.79 7.723H16.888v-3.976H28.77c.673 0 1.141.102 1.375.28.235.178.38.51.38.994v1.427c0 .51-.145.841-.38 1.02-.234.178-.702.255-1.375.255ZM38 19a3 3 0 1 0 0-6 3 3 0 0 0 0 6Z" fill="#603A0A"/></svg>