<svg width="24" height="24" fill="none" xmlns="http://www.w3.org/2000/svg"><mask id="a" style="mask-type:alpha" maskUnits="userSpaceOnUse" x="0" y="0" width="24" height="24"><path fill="#D9D9D9" d="M0 0h24v24H0z"/></mask><g mask="url(#a)"><path d="M12 21.5c-1.3 0-2.53-.25-3.688-.75a9.629 9.629 0 0 1-3.025-2.038 9.626 9.626 0 0 1-2.037-3.024A9.209 9.209 0 0 1 2.5 12c0-1.317.25-2.55.75-3.7a9.676 9.676 0 0 1 2.037-3.013A9.638 9.638 0 0 1 8.312 3.25 9.209 9.209 0 0 1 12 2.5c1.317 0 2.55.25 3.7.75a9.664 9.664 0 0 1 3.012 2.037A9.667 9.667 0 0 1 20.75 8.3c.5 1.15.75 2.383.75 3.7 0 1.3-.25 2.53-.75 3.688a9.617 9.617 0 0 1-2.038 3.024A9.655 9.655 0 0 1 15.7 20.75c-1.15.5-2.383.75-3.7.75Zm3.675-13.175h3.4a7.76 7.76 0 0 0-2.112-2.613c-.875-.691-1.888-1.17-3.038-1.437.383.583.725 1.22 1.025 1.912.3.692.542 1.405.725 2.138Zm-5.825 0h4.3a12.724 12.724 0 0 0-.887-2.313A12.07 12.07 0 0 0 12 4.025a11.965 11.965 0 0 0-1.262 1.987 12.65 12.65 0 0 0-.888 2.313Zm-5.55 5.85h3.725a11.72 11.72 0 0 1-.15-3.263c.033-.358.083-.72.15-1.087H4.3a6.87 6.87 0 0 0-.225 1.05C4.025 11.242 4 11.617 4 12s.025.758.075 1.125c.05.367.125.717.225 1.05Zm5.775 5.525a11.062 11.062 0 0 1-1.037-1.875 11.8 11.8 0 0 1-.713-2.15h-3.4a8.027 8.027 0 0 0 2.125 2.613 7.032 7.032 0 0 0 3.025 1.412ZM4.925 8.325h3.4a13.75 13.75 0 0 1 .725-2.138c.3-.691.642-1.329 1.025-1.912-1.167.267-2.183.746-3.05 1.437-.867.692-1.567 1.563-2.1 2.613ZM12 19.975c.517-.667.946-1.346 1.288-2.037.341-.692.629-1.446.862-2.263h-4.3c.233.833.521 1.596.863 2.287.341.692.77 1.363 1.287 2.013Zm-2.475-5.8h4.95a11.623 11.623 0 0 0 .2-2.175 11.623 11.623 0 0 0-.2-2.175h-4.95a11.613 11.613 0 0 0-.2 2.175 11.613 11.613 0 0 0 .2 2.175Zm4.4 5.525a7.032 7.032 0 0 0 3.025-1.412 8.027 8.027 0 0 0 2.125-2.613h-3.4c-.2.733-.45 1.454-.75 2.162-.3.709-.633 1.33-1 1.863Zm2.05-5.525H19.7c.1-.333.175-.683.225-1.05.05-.367.075-.742.075-1.125s-.025-.758-.075-1.125a6.886 6.886 0 0 0-.225-1.05h-3.725a11.763 11.763 0 0 1 .15 3.262c-.033.359-.083.721-.15 1.088Z" fill="#fff"/></g></svg>