<svg width="48" height="48" fill="none" xmlns="http://www.w3.org/2000/svg"><circle cx="24" cy="24" r="24" fill="#134785"/><path fill-rule="evenodd" clip-rule="evenodd" d="M28.836 23.876c-.16-2.996-2.458-4.798-5.232-4.798h-.105c-3.203 0-4.979 2.438-4.979 5.207 0 3.1 2.149 5.058 4.966 5.058 3.142 0 5.207-2.227 5.357-4.862l-.007-.605Zm-5.322-7.479c2.14 0 4.152.916 5.63 2.35v.005c0-.688.478-1.207 1.142-1.207l.168-.001c1.04 0 1.252.95 1.252 1.252l.006 10.7c-.074.7.746 1.062 1.201.612 1.776-1.765 3.899-9.076-1.103-13.312-4.662-3.949-10.917-3.298-14.244-1.079-3.536 2.36-5.8 7.586-3.6 12.493 2.395 5.353 9.252 6.95 13.327 5.356 2.064-.805 3.017 1.894.874 2.776-3.239 1.335-12.252 1.2-16.463-5.858-2.844-4.767-2.693-13.153 4.852-17.498 5.772-3.325 13.381-2.405 17.97 2.233 4.796 4.85 4.516 13.93-.162 17.459-2.12 1.603-5.268.043-5.248-2.294l-.022-.764a8.008 8.008 0 0 1-5.58 2.244c-4.228 0-7.948-3.6-7.948-7.691 0-4.133 3.72-7.776 7.948-7.776Z" fill="#F89C0E"/></svg>