<svg width="48" height="48" fill="none" xmlns="http://www.w3.org/2000/svg"><circle cx="24" cy="24" r="24" fill="#4A72D9"/><path fill-rule="evenodd" clip-rule="evenodd" d="M40.22 15.354c.235-.78 0-1.354-1.126-1.354h-3.719c-.946 0-1.382.496-1.619 1.043 0 0-1.891 4.566-4.57 7.531-.867.86-1.26 1.133-1.734 1.133-.237 0-.592-.273-.592-1.054v-7.299c0-.937-.26-1.354-1.049-1.354h-5.847c-.591 0-.947.434-.947.847 0 .887 1.34 1.093 1.478 3.59v5.426c0 1.19-.217 1.406-.69 1.406-1.26 0-4.328-4.588-6.148-9.836-.353-1.022-.71-1.433-1.66-1.433H8.274C7.212 14 7 14.496 7 15.043c0 .974 1.26 5.814 5.872 12.216C15.946 31.63 20.274 34 24.216 34c2.365 0 2.657-.526 2.657-1.433v-3.304c0-1.053.223-1.263.973-1.263.552 0 1.497.274 3.704 2.381C34.072 32.88 34.487 34 35.907 34h3.718c1.063 0 1.595-.526 1.29-1.566-.338-1.034-1.542-2.535-3.139-4.317-.867-1.014-2.167-2.107-2.562-2.654-.551-.702-.394-1.014 0-1.639 0 0 4.533-6.323 5.005-8.47h.001Z" fill="#fff"/></svg>