<svg width="80" height="80" fill="none" xmlns="http://www.w3.org/2000/svg"><path d="M21.048 1.371h37.625c3.25 0 4.783.003 6.052.204A16.535 16.535 0 0 1 78.471 15.32c.2 1.27.203 2.802.203 6.052v37.626c0 3.25-.002 4.782-.203 6.052a16.535 16.535 0 0 1-13.746 13.745c-1.27.201-2.802.204-6.052.204H21.048c-3.25 0-4.782-.003-6.052-.204A16.535 16.535 0 0 1 1.25 65.05c-.2-1.27-.203-2.803-.203-6.052V21.372c0-3.25.002-4.782.203-6.052A16.535 16.535 0 0 1 14.996 1.575c1.27-.201 2.802-.204 6.052-.204Z" stroke="#E2E2E2" stroke-width="2"/><path d="M67.302 12.805 9.38 36.345l25.347 9.05 9.051 25.333 23.525-57.923Z" fill="url(#a)"/><path d="m67.304 12.805-33.48 33.494 9.955 24.43 23.525-57.924Z" fill="#FC0"/><path d="m32.919 47.203 10.858 23.525-3.63-30.77L9.38 36.345l23.54 10.859Z" fill="#ECA704"/><defs><linearGradient id="a" x1="9.379" y1="70.727" x2="67.305" y2="12.801" gradientUnits="userSpaceOnUse"><stop stop-color="#FC0"/><stop offset="1" stop-color="#FFE992"/></linearGradient></defs></svg>